<svg width="92" height="111" viewBox="0 0 92 111" fill="none" xmlns="http://www.w3.org/2000/svg">
<path d="M78.9577 92.7364L88.9596 82.4402C89.0397 82.3576 89.089 82.25 89.099 82.1353C89.109 82.0207 89.0792 81.9062 89.0146 81.811C88.95 81.7158 88.8545 81.6458 88.7443 81.6128C88.6341 81.5798 88.5158 81.5858 88.4095 81.6299L83.8033 83.5331C84.5606 82.0282 84.8465 80.33 84.6238 78.6601C84.401 76.9902 83.68 75.4263 82.5548 74.1725C81.0221 72.5393 79.0365 71.401 76.8526 70.9035C77.6112 69.1752 77.8063 67.2519 77.41 65.4065C76.989 63.923 76.2338 62.5557 75.2025 61.4093C74.1711 60.2629 72.891 59.3678 71.4601 58.7928C70.3324 58.2995 69.1498 57.9424 67.9374 57.7293C68.9366 55.563 69.125 53.11 68.4682 50.8166C67.0143 46.2226 62.1576 43.9865 59.3904 43.0644C57.9345 42.58 56.4419 42.2134 54.9272 41.9683C55.898 37.6486 55.161 32.7848 51.8458 29.5976C49.6224 27.4609 46.4255 26.1486 42.075 25.5904C40.8875 25.4372 39.6974 25.343 38.5046 25.3079C38.6033 24.7713 38.6268 24.2236 38.5745 23.6805C38.1223 18.9297 32.2723 17.1381 30.4888 16.702C25.349 15.484 19.9923 15.5137 14.8663 16.7887C9.74033 18.0637 4.99395 20.547 1.02372 24.0311C0.947522 24.0991 0.893942 24.1887 0.870218 24.288C0.846494 24.3873 0.85376 24.4916 0.891015 24.5866C0.91217 24.6418 0.943318 24.6926 0.982913 24.7364C1.0711 24.8353 1.19491 24.8951 1.32715 24.9028C1.4594 24.9104 1.58928 24.8652 1.68827 24.7772C5.5373 21.4004 10.1385 18.9936 15.1074 17.7577C20.0764 16.5219 25.269 16.4929 30.2514 17.6733C31.8716 18.0681 37.1907 19.6829 37.5784 23.775C37.6279 24.2817 37.5979 24.7931 37.4895 25.2906C32.4418 25.2736 27.4438 26.2882 22.8022 28.2722C20.9936 29.0453 18.7693 30.197 17.6171 32.2553C17.1447 33.0098 16.9187 33.8925 16.9703 34.7812C17.0219 35.6699 17.3486 36.5206 17.9052 37.2153C18.5051 37.8969 19.3024 38.3747 20.1863 38.5823C21.0702 38.7899 21.9968 38.717 22.8374 38.3738C27.0353 36.8816 30.8569 33.9367 34.1079 31.2923C35.897 30.0195 37.3193 28.2978 38.2316 26.3006C39.4743 26.3298 40.7146 26.4238 41.9475 26.582C46.0791 27.113 49.0896 28.333 51.1526 30.3177C54.2196 33.2659 54.8734 37.7993 53.9374 41.8262C46.2133 40.8434 38.4103 42.9096 32.1847 47.5862C31.0342 48.4659 27.3945 51.5823 28.7369 55.0131L28.7565 55.0634C29.1578 55.9037 29.7778 56.6206 30.5513 57.139C31.3249 57.6574 32.2236 57.9582 33.1534 58.0099C34.9024 58.0829 36.6469 57.7842 38.272 57.1335C45.1998 54.7665 50.1426 51.2895 52.9641 46.8008C53.7105 45.5997 54.2864 44.3006 54.6753 42.941C56.1664 43.1786 57.6356 43.5375 59.0683 44.0141C61.6545 44.877 66.1942 46.9343 67.5088 51.1201C68.1142 53.2703 67.9009 55.5687 66.91 57.5707C65.5027 57.4 64.0851 57.3278 62.6677 57.3546C58.3215 57.4046 54.0014 58.0326 49.8209 59.222C48.196 59.5951 46.6692 60.3099 45.3421 61.3191C44.6419 61.8666 44.1003 62.5908 43.773 63.4172C43.4458 64.2436 43.3447 65.1423 43.4803 66.0208C43.9716 68.2919 46.339 69.5562 48.4258 69.6449C50.4856 69.5862 52.5074 69.0763 54.3487 68.1511C57.8669 66.6811 61.8548 65.0144 64.8378 62.1463C65.8968 61.134 66.7891 59.9607 67.4819 58.6699C68.7108 58.8644 69.9099 59.2142 71.0506 59.7111C72.3404 60.2237 73.4959 61.0245 74.4287 62.0523C75.3615 63.08 76.0468 64.3075 76.4322 65.6409C76.7926 67.3448 76.5902 69.1197 75.8555 70.6987C74.6073 70.4832 73.3377 70.4193 72.0742 70.5084C68.2966 70.7666 64.7553 72.1448 61.3304 73.4773C60.0367 73.8831 58.8452 74.562 57.8366 75.4682C57.2942 75.9843 56.9261 76.6568 56.7838 77.3919C56.6414 78.127 56.7318 78.8882 57.0424 79.5695C57.9811 81.2275 60.1973 81.5566 63.2868 80.5056C66.6157 79.3695 70.3914 78.0801 73.3176 75.6294C74.5867 74.5763 75.6386 73.2862 76.4144 71.8309C78.4772 72.2618 80.3585 73.3139 81.8056 74.8458C83.7778 77.0486 84.4706 80.9708 82.6033 83.5398L80.1331 78.4725C80.085 78.374 80.0058 78.294 79.9078 78.2449C79.8098 78.1958 79.6984 78.1803 79.5907 78.2007C79.483 78.2211 79.385 78.2764 79.3118 78.358C79.2385 78.4395 79.1941 78.5429 79.1854 78.6522L78.0961 92.354C78.0902 92.4296 78.1016 92.5056 78.1293 92.5762C78.1525 92.6364 78.1873 92.6915 78.2317 92.7382C78.2762 92.7849 78.3294 92.8224 78.3884 92.8485C78.4831 92.8914 78.5889 92.9036 78.6909 92.8835C78.793 92.8634 78.8862 92.812 78.9577 92.7364ZM33.4776 30.5156C30.2898 33.1073 26.5512 35.9929 22.5028 37.4309C21.8533 37.7028 21.1353 37.7659 20.4483 37.6114C19.7614 37.4569 19.1395 37.0924 18.6691 36.5685C18.2402 36.0309 17.992 35.3717 17.9598 34.6847C17.9276 33.9978 18.1131 33.3182 18.4898 32.7429C19.4936 30.9476 21.5315 29.9012 23.1951 29.1912C27.612 27.3039 32.3612 26.3175 37.1642 26.2898C36.2807 27.9659 35.0183 29.4128 33.4776 30.5156ZM52.1204 46.2665C49.4247 50.5577 44.6576 53.8941 37.9523 56.1848C36.4638 56.795 34.8614 57.0773 33.254 57.0127C32.5058 56.9791 31.7803 56.7455 31.153 56.3364C30.5257 55.9273 30.0195 55.3575 29.6871 54.6864L29.6733 54.651C28.8083 52.4402 30.7133 49.9649 32.7958 48.3823C38.7746 43.8912 46.261 41.8915 53.6828 42.8031C53.3183 44.0219 52.7928 45.1866 52.1204 46.2665ZM64.1508 61.4251C61.303 64.164 57.5752 65.7214 53.9655 67.2293C52.2565 68.0908 50.3822 68.5748 48.4697 68.6484C46.8075 68.5771 44.8336 67.5584 44.4614 65.8141C44.3642 65.113 44.4548 64.3987 44.7238 63.744C44.9929 63.0894 45.4308 62.5179 45.993 62.0878C47.2137 61.175 48.6127 60.5288 50.0992 60.1913C54.1946 59.0255 58.427 58.4102 62.6848 58.3616C63.9343 58.3392 65.184 58.394 66.4267 58.5255C65.8087 59.5939 65.0419 60.5689 64.1493 61.4213L64.1508 61.4251ZM72.6817 74.8603C69.8964 77.1936 66.3748 78.3943 62.969 79.5561C61.7653 79.968 58.8634 80.7437 57.9186 79.0753C57.7104 78.5828 57.6601 78.0378 57.7746 77.5155C57.8891 76.9931 58.1627 76.5192 58.5579 76.1589C59.4707 75.3617 60.5399 74.7638 61.697 74.4034C65.0521 73.0982 68.5217 71.7481 72.1451 71.4965C73.2279 71.4197 74.3158 71.4621 75.3893 71.6232C74.6874 72.8547 73.7698 73.9499 72.6802 74.8566L72.6817 74.8603ZM80.0429 80.5556L81.9477 84.4632C81.937 84.5372 81.9436 84.6126 81.9671 84.6835C81.9906 84.7545 82.0302 84.819 82.0829 84.872C82.1769 84.9466 82.2853 85.001 82.4012 85.032C82.5171 85.0629 82.6381 85.0696 82.7568 85.0518L86.5599 83.4811L79.2115 91.0468L80.0429 80.5556Z" fill="url(#paint0_linear_1170_3353)"/>
<path d="M49.1179 43.7441C49.1124 43.6779 49.081 43.6166 49.0305 43.5734C48.98 43.5302 48.9145 43.5087 48.8483 43.5135C44.2068 43.8798 39.6882 45.186 35.5671 47.3527C35.5125 47.381 35.4704 47.4286 35.4489 47.4862C35.4274 47.5438 35.4281 47.6074 35.4508 47.6646L35.461 47.6906C35.4922 47.7491 35.5453 47.7928 35.6086 47.8123C35.6719 47.8318 35.7404 47.8254 35.7991 47.7946C39.8604 45.6603 44.3131 44.3737 48.8869 44.0128C48.9197 44.0104 48.9517 44.0015 48.9811 43.9867C49.0105 43.9719 49.0367 43.9514 49.0581 43.9264C49.0796 43.9015 49.0959 43.8725 49.1062 43.8412C49.1164 43.81 49.1204 43.777 49.1179 43.7441Z" fill="url(#paint1_linear_1170_3353)"/>
<path d="M35.1231 48.2212C35.1071 48.1925 35.0856 48.1672 35.0598 48.1468C35.0341 48.1264 35.0045 48.1113 34.9729 48.1023C34.9412 48.0934 34.9081 48.0907 34.8755 48.0945C34.8428 48.0984 34.8112 48.1086 34.7826 48.1247L34.2386 48.4277C34.1859 48.4574 34.1457 48.505 34.1254 48.5619C34.105 48.6188 34.1059 48.6811 34.1278 48.7374C34.131 48.7483 34.1351 48.7589 34.1402 48.7691C34.1562 48.7978 34.1777 48.8231 34.2035 48.8435C34.2292 48.8639 34.2588 48.879 34.2904 48.888C34.3221 48.897 34.3552 48.8996 34.3878 48.8958C34.4205 48.8919 34.4521 48.8817 34.4808 48.8656L35.0247 48.5626C35.0542 48.5473 35.0803 48.5261 35.1013 48.5004C35.1224 48.4747 35.138 48.4449 35.1472 48.413C35.1564 48.3811 35.159 48.3476 35.1549 48.3147C35.1507 48.2817 35.1399 48.2499 35.1231 48.2212Z" fill="url(#paint2_linear_1170_3353)"/>
<path d="M47.517 62.8542C47.5607 62.8047 47.583 62.7399 47.5791 62.6739C47.5752 62.608 47.5453 62.5463 47.4961 62.5023C47.4468 62.4583 47.3821 62.4356 47.3161 62.4391C47.2502 62.4427 47.1883 62.4722 47.144 62.5212C46.7759 62.9527 46.5308 63.4752 46.4343 64.0341C46.3378 64.593 46.3935 65.1675 46.5956 65.6974C46.6399 65.8115 46.6916 65.9225 46.7504 66.0299C47.0652 66.5755 47.5366 67.0141 48.1036 67.2887C48.6705 67.5633 49.3069 67.6614 49.9302 67.5701C49.9953 67.5589 50.0533 67.5222 50.0914 67.4683C50.1103 67.4416 50.1237 67.4114 50.1308 67.3795C50.138 67.3476 50.1389 67.3145 50.1333 67.2823C50.1221 67.2172 50.0855 67.1592 50.0315 67.1211C49.9775 67.0831 49.9106 67.068 49.8455 67.0792C49.3237 67.1653 48.7879 67.0876 48.312 66.8567C47.8362 66.6258 47.4435 66.2532 47.1881 65.79C46.9327 65.3268 46.8271 64.7959 46.8858 64.2702C46.9446 63.7445 47.1647 63.25 47.5161 62.8546L47.517 62.8542Z" fill="url(#paint3_linear_1170_3353)"/>
<path d="M73.6937 62.0616C72.5842 61.2981 71.3528 60.7291 70.0522 60.3788C69.9893 60.358 69.9206 60.3631 69.8614 60.3929C69.8022 60.4228 69.7573 60.4749 69.7365 60.5378C69.7263 60.569 69.7223 60.602 69.7248 60.6347C69.7273 60.6674 69.7362 60.6994 69.7511 60.7287C69.7659 60.7579 69.7864 60.784 69.8113 60.8054C69.8363 60.8268 69.8652 60.843 69.8964 60.8532C71.1427 61.1847 72.3232 61.7271 73.3866 62.4567C73.8901 62.8123 74.2959 63.2889 74.5666 63.8427C74.8373 64.3964 74.9642 65.0094 74.9356 65.6251C74.9297 65.6585 74.9307 65.6927 74.9384 65.7257C74.9462 65.7587 74.9606 65.7898 74.9807 65.8171C75.0009 65.8443 75.0263 65.8672 75.0556 65.8843C75.0848 65.9014 75.1173 65.9124 75.1509 65.9166C75.1845 65.9208 75.2187 65.9181 75.2512 65.9086C75.2838 65.8992 75.3141 65.8833 75.3403 65.8618C75.3665 65.8403 75.3881 65.8137 75.4037 65.7836C75.4193 65.7536 75.4286 65.7206 75.4311 65.6868C75.4708 64.9851 75.3322 64.2847 75.0285 63.6509C74.7247 63.017 74.2656 62.4703 73.6937 62.0616Z" fill="url(#paint4_linear_1170_3353)"/>
<path d="M75.6426 67.1934L75.5882 66.8925C75.5827 66.8598 75.5707 66.8286 75.5528 66.8007C75.535 66.7728 75.5117 66.7488 75.4843 66.7301C75.4569 66.7114 75.4261 66.6985 75.3936 66.692C75.3611 66.6855 75.3276 66.6857 75.2952 66.6925C75.2627 66.6984 75.2317 66.7106 75.204 66.7286C75.1763 66.7466 75.1525 66.7699 75.1339 66.7971C75.1153 66.8244 75.1023 66.8551 75.0956 66.8874C75.089 66.9198 75.0889 66.9531 75.0952 66.9855L75.1496 67.2864C75.1542 67.3021 75.1602 67.3173 75.1675 67.332C75.1902 67.3896 75.2335 67.4367 75.2889 67.4642C75.3444 67.4917 75.4081 67.4976 75.4677 67.4809C75.5273 67.4641 75.5786 67.4258 75.6115 67.3734C75.6445 67.321 75.6569 67.2583 75.6463 67.1973L75.6426 67.1934Z" fill="url(#paint5_linear_1170_3353)"/>
<path d="M23.0228 35.6941L23.0246 35.6987C23.0502 35.7598 23.0989 35.8083 23.1601 35.8337C23.2213 35.859 23.29 35.8591 23.3513 35.834C26.4984 34.5367 29.472 32.8531 32.2036 30.8219C32.2544 30.7815 32.2875 30.7229 32.2959 30.6585C32.3043 30.5941 32.2872 30.529 32.2485 30.4769C32.2097 30.4248 32.1521 30.3899 32.088 30.3795C32.024 30.3691 31.9583 30.384 31.9051 30.4211C29.2066 32.4271 26.2693 34.09 23.1607 35.3716C23.1002 35.3967 23.0519 35.4445 23.0261 35.5048C23.0003 35.565 22.9991 35.6329 23.0228 35.6941Z" fill="url(#paint6_linear_1170_3353)"/>
<path d="M21.6337 36.3074L21.0373 36.2733C20.9711 36.2692 20.9061 36.2915 20.8564 36.3353C20.8067 36.3791 20.7764 36.4409 20.7722 36.507C20.7701 36.5435 20.776 36.58 20.7894 36.6141C20.8068 36.6584 20.8365 36.6968 20.875 36.7247C20.9135 36.7527 20.9593 36.769 21.0068 36.7717L21.6058 36.8069C21.672 36.8106 21.737 36.7878 21.7864 36.7436C21.8359 36.6994 21.8658 36.6373 21.8695 36.5711C21.8732 36.5048 21.8504 36.4398 21.8062 36.3904C21.762 36.3409 21.6999 36.3111 21.6337 36.3074Z" fill="url(#paint7_linear_1170_3353)"/>
<defs>
<linearGradient id="paint0_linear_1170_3353" x1="28.5089" y1="11.1547" x2="62.9067" y2="99.0679" gradientUnits="userSpaceOnUse">
<stop stop-color="#A6C0FE"/>
<stop offset="1" stop-color="#F68084"/>
</linearGradient>
<linearGradient id="paint1_linear_1170_3353" x1="41.8796" y1="44.6555" x2="42.5959" y2="46.4862" gradientUnits="userSpaceOnUse">
<stop stop-color="#A6C0FE"/>
<stop offset="1" stop-color="#F68084"/>
</linearGradient>
<linearGradient id="paint2_linear_1170_3353" x1="34.5262" y1="48.2225" x2="34.7393" y2="48.767" gradientUnits="userSpaceOnUse">
<stop stop-color="#A6C0FE"/>
<stop offset="1" stop-color="#F68084"/>
</linearGradient>
<linearGradient id="paint3_linear_1170_3353" x1="46.8485" y1="62.6085" x2="48.9431" y2="67.9618" gradientUnits="userSpaceOnUse">
<stop stop-color="#A6C0FE"/>
<stop offset="1" stop-color="#F68084"/>
</linearGradient>
<linearGradient id="paint4_linear_1170_3353" x1="71.4488" y1="59.7707" x2="74.0367" y2="66.385" gradientUnits="userSpaceOnUse">
<stop stop-color="#A6C0FE"/>
<stop offset="1" stop-color="#F68084"/>
</linearGradient>
<linearGradient id="paint5_linear_1170_3353" x1="75.2247" y1="66.7151" x2="75.5172" y2="67.4628" gradientUnits="userSpaceOnUse">
<stop stop-color="#A6C0FE"/>
<stop offset="1" stop-color="#F68084"/>
</linearGradient>
<linearGradient id="paint6_linear_1170_3353" x1="27.3" y1="32.2155" x2="28.0036" y2="34.0137" gradientUnits="userSpaceOnUse">
<stop stop-color="#A6C0FE"/>
<stop offset="1" stop-color="#F68084"/>
</linearGradient>
<linearGradient id="paint7_linear_1170_3353" x1="21.1843" y1="36.1907" x2="21.4576" y2="36.8892" gradientUnits="userSpaceOnUse">
<stop stop-color="#A6C0FE"/>
<stop offset="1" stop-color="#F68084"/>
</linearGradient>
</defs>
</svg>
