<svg width="39" height="38" viewBox="0 0 39 38" fill="none" xmlns="http://www.w3.org/2000/svg">
<path opacity="0.7" d="M14.8766 23.2747H16.1433V24.5413H14.8766V23.2747Z" fill="url(#paint0_linear_1124_805)"/>
<path opacity="0.7" d="M11.6888 23.2747H19.2888V24.5413H11.6888V23.2747Z" fill="url(#paint1_linear_1124_805)"/>
<path opacity="0.7" d="M14.8766 25.808H16.1433V27.0747H14.8766V25.808Z" fill="url(#paint2_linear_1124_805)"/>
<path opacity="0.7" d="M11.6888 25.808H19.2888V27.0747H11.6888V25.808Z" fill="url(#paint3_linear_1124_805)"/>
<path opacity="0.7" d="M10.04 3.00818H11.3066V4.27485H10.04V3.00818Z" fill="url(#paint4_linear_1124_805)"/>
<path opacity="0.7" d="M12.5734 3.00818H13.8401V4.27485H12.5734V3.00818Z" fill="url(#paint5_linear_1124_805)"/>
<path opacity="0.7" d="M31.6667 18.3667C30.8254 18.3664 29.9926 18.5344 29.2173 18.8607C28.4419 19.187 27.7396 19.665 27.1516 20.2667H24.0667V17.7333H32.3C32.8039 17.7333 33.2872 17.5332 33.6435 17.1768C33.9998 16.8205 34.2 16.3372 34.2 15.8333V10.7667C34.2 10.2628 33.9998 9.77948 33.6435 9.42316C33.2872 9.06684 32.8039 8.86667 32.3 8.86667H24.0667V3.16667C24.0657 2.32712 23.7317 1.52225 23.1381 0.928606C22.5444 0.334959 21.7395 0.00100564 20.9 0H3.16667C2.32712 0.00100564 1.52225 0.334959 0.928606 0.928606C0.334959 1.52225 0.00100564 2.32712 0 3.16667V34.8333C0.00100564 35.6729 0.334959 36.4777 0.928606 37.0714C1.52225 37.665 2.32712 37.999 3.16667 38H20.9C21.7395 37.999 22.5444 37.665 23.1381 37.0714C23.7317 36.4777 24.0657 35.6729 24.0667 34.8333V29.1333H27.1516C27.8828 29.8793 28.7871 30.4328 29.784 30.7446C30.781 31.0564 31.8395 31.1168 32.8654 30.9204C33.8913 30.7239 34.8527 30.2768 35.664 29.6189C36.4752 28.9609 37.1111 28.1125 37.5151 27.1493C37.919 26.186 38.0785 25.1378 37.9792 24.098C37.8799 23.0582 37.525 22.0591 36.946 21.1896C36.3671 20.3202 35.5821 19.6075 34.661 19.115C33.7398 18.6224 32.7112 18.3654 31.6667 18.3667ZM22.8 20.2667H22.1667V17.7333H22.8V20.2667ZM10.1333 29.1333H20.9V29.7667C20.9 29.9346 20.8333 30.0957 20.7145 30.2145C20.5957 30.3333 20.4346 30.4 20.2667 30.4H3.8C3.63203 30.4 3.47094 30.3333 3.35217 30.2145C3.23339 30.0957 3.16667 29.9346 3.16667 29.7667V3.8C3.16667 3.63203 3.23339 3.47094 3.35217 3.35217C3.47094 3.23339 3.63203 3.16667 3.8 3.16667H6.9711C7.05648 3.16648 7.14105 3.18317 7.21996 3.21577C7.29887 3.24838 7.37056 3.29626 7.4309 3.35667C7.48556 3.41073 7.52872 3.4753 7.55779 3.54648C7.58685 3.61767 7.6012 3.69399 7.6 3.77087C7.59741 4.02248 7.64457 4.27212 7.73878 4.50544C7.83299 4.73876 7.97238 4.95116 8.14894 5.13043C8.32551 5.3097 8.53576 5.45231 8.76763 5.55006C8.99949 5.6478 9.24838 5.69876 9.5 5.7H14.5667C14.82 5.69913 15.0706 5.64834 15.3042 5.55054C15.5379 5.45273 15.75 5.30983 15.9283 5.13C16.1015 4.95658 16.2383 4.75035 16.3307 4.52338C16.4232 4.29642 16.4694 4.05329 16.4667 3.80823C16.4653 3.72244 16.4819 3.63731 16.5152 3.55825C16.5486 3.4792 16.5981 3.40796 16.6605 3.34907C16.7176 3.29058 16.786 3.24427 16.8616 3.21293C16.9371 3.18158 17.0182 3.16584 17.1 3.16667H20.2667C20.4346 3.16667 20.5957 3.23339 20.7145 3.35217C20.8333 3.47094 20.9 3.63203 20.9 3.8V8.86667H15.2817C14.4011 7.96827 13.2729 7.35248 12.0409 7.0978C10.809 6.84313 9.52906 6.96112 8.36442 7.43672C7.19978 7.91232 6.20316 8.72399 5.50163 9.76823C4.80011 10.8125 4.42546 12.042 4.42546 13.3C4.42546 14.558 4.80011 15.7875 5.50163 16.8318C6.20316 17.876 7.19978 18.6877 8.36442 19.1633C9.52906 19.6389 10.809 19.7569 12.0409 19.5022C13.2729 19.2475 14.4011 18.6317 15.2817 17.7333H20.9V20.2667H10.1333C9.62942 20.2667 9.14615 20.4668 8.78983 20.8232C8.43351 21.1795 8.23333 21.6628 8.23333 22.1667V27.2333C8.23333 27.7372 8.43351 28.2205 8.78983 28.5768C9.14615 28.9332 9.62942 29.1333 10.1333 29.1333ZM10.7667 13.3C10.5161 13.3 10.2712 13.2257 10.0629 13.0865C9.85464 12.9473 9.69229 12.7495 9.59642 12.5181C9.50055 12.2866 9.47546 12.0319 9.52434 11.7862C9.57321 11.5405 9.69385 11.3148 9.871 11.1377C10.0481 10.9605 10.2738 10.8399 10.5196 10.791C10.7653 10.7421 11.0199 10.7672 11.2514 10.8631C11.4829 10.959 11.6807 11.1213 11.8199 11.3296C11.959 11.5379 12.0333 11.7828 12.0333 12.0333C12.0333 12.3693 11.8999 12.6915 11.6623 12.929C11.4248 13.1665 11.1026 13.3 10.7667 13.3ZM11.4 15.2C11.9039 15.2 12.3872 15.4002 12.7435 15.7565C13.0998 16.1128 13.3 16.5961 13.3 17.1V17.6814C12.5312 18.1302 11.6569 18.3666 10.7667 18.3666C9.87643 18.3666 9.00218 18.1302 8.23333 17.6814V17.1C8.23333 16.5961 8.43351 16.1128 8.78983 15.7565C9.14615 15.4002 9.62942 15.2 10.1333 15.2H11.4ZM14.5249 16.6858C14.4438 16.0764 14.1864 15.5039 13.7844 15.0388C13.3824 14.5737 12.8532 14.2361 12.262 14.0676C12.6933 13.7522 13.0138 13.3085 13.1778 12.8C13.3417 12.2914 13.3407 11.744 13.1748 11.2361C13.0089 10.7282 12.6867 10.2857 12.2542 9.972C11.8216 9.65826 11.301 9.48931 10.7667 9.48931C10.2323 9.48931 9.71169 9.65826 9.27917 9.972C8.84665 10.2857 8.52441 10.7282 8.35852 11.2361C8.19263 11.744 8.19158 12.2914 8.35554 12.8C8.51949 13.3085 8.84004 13.7522 9.27137 14.0676C8.68012 14.2361 8.15097 14.5737 7.74896 15.0388C7.34694 15.5039 7.08957 16.0764 7.00847 16.6858C6.35093 15.9586 5.9185 15.0562 5.76362 14.0881C5.60874 13.12 5.73806 12.1278 6.13589 11.2317C6.53373 10.3357 7.18299 9.57427 8.00495 9.03988C8.82691 8.50548 9.78626 8.22104 10.7667 8.22104C11.7471 8.22104 12.7064 8.50548 13.5284 9.03988C14.3503 9.57427 14.9996 10.3357 15.3974 11.2317C15.7953 12.1278 15.9246 13.12 15.7697 14.0881C15.6148 15.0562 15.1824 15.9586 14.5249 16.6858ZM32.9333 10.7667V15.8333C32.9333 16.0013 32.8666 16.1624 32.7478 16.2812C32.6291 16.3999 32.468 16.4667 32.3 16.4667H16.2431C16.8043 15.5057 17.1 14.4128 17.1 13.3C17.1 12.1872 16.8043 11.0943 16.2431 10.1333H32.3C32.468 10.1333 32.6291 10.2001 32.7478 10.3188C32.8666 10.4376 32.9333 10.5987 32.9333 10.7667ZM20.9 36.7333H3.16667C2.66275 36.7333 2.17948 36.5332 1.82316 36.1768C1.46684 35.8205 1.26667 35.3372 1.26667 34.8333V34.8169C1.81158 35.236 2.4792 35.4643 3.16667 35.4667H20.9C21.5875 35.4643 22.2551 35.236 22.8 34.8169V34.8333C22.8 35.3372 22.5998 35.8205 22.2435 36.1768C21.8872 36.5332 21.4039 36.7333 20.9 36.7333ZM22.8 32.3C22.8 32.8039 22.5998 33.2872 22.2435 33.6435C21.8872 33.9998 21.4039 34.2 20.9 34.2H3.16667C2.66275 34.2 2.17948 33.9998 1.82316 33.6435C1.46684 33.2872 1.26667 32.8039 1.26667 32.3V3.16667C1.26667 2.66276 1.46684 2.17948 1.82316 1.82316C2.17948 1.46684 2.66275 1.26667 3.16667 1.26667H20.9C21.4039 1.26667 21.8872 1.46684 22.2435 1.82316C22.5998 2.17948 22.8 2.66276 22.8 3.16667V8.86667H22.1667V3.8C22.1667 3.29609 21.9665 2.81282 21.6102 2.4565C21.2538 2.10018 20.7706 1.9 20.2667 1.9H17.1C16.8489 1.90124 16.6005 1.95199 16.3691 2.04934C16.1377 2.14669 15.9277 2.28873 15.7512 2.46733C15.5747 2.64593 15.4352 2.85758 15.3406 3.09017C15.246 3.32276 15.1982 3.57172 15.2 3.8228C15.2005 3.90052 15.1856 3.97757 15.156 4.04945C15.1264 4.12133 15.0828 4.18659 15.0277 4.24143C14.9673 4.30216 14.8954 4.35037 14.8163 4.3833C14.7372 4.41623 14.6524 4.43323 14.5667 4.43333H9.5C9.41557 4.43361 9.33199 4.41655 9.25443 4.38321C9.17686 4.34988 9.10697 4.30098 9.04907 4.23953C8.98939 4.18114 8.94239 4.11108 8.91101 4.03371C8.87962 3.95634 8.86453 3.87333 8.86667 3.78987C8.87058 3.54538 8.8254 3.3026 8.7338 3.07589C8.64221 2.84917 8.50605 2.64315 8.3334 2.47C8.15509 2.2899 7.94295 2.14682 7.70915 2.049C7.47536 1.95118 7.22453 1.90054 6.9711 1.9H3.8C3.29609 1.9 2.81282 2.10018 2.4565 2.4565C2.10018 2.81282 1.9 3.29609 1.9 3.8V29.7667C1.9 30.2706 2.10018 30.7539 2.4565 31.1102C2.81282 31.4665 3.29609 31.6667 3.8 31.6667H20.2667C20.7706 31.6667 21.2538 31.4665 21.6102 31.1102C21.9665 30.7539 22.1667 30.2706 22.1667 29.7667V29.1333H22.8V32.3ZM10.1333 27.8667C9.96536 27.8667 9.80427 27.7999 9.6855 27.6812C9.56672 27.5624 9.5 27.4013 9.5 27.2333V22.1667C9.5 21.9987 9.56672 21.8376 9.6855 21.7188C9.80427 21.6001 9.96536 21.5333 10.1333 21.5333H26.1902C25.629 22.4943 25.3333 23.5872 25.3333 24.7C25.3333 25.8128 25.629 26.9057 26.1902 27.8667H10.1333ZM29.1333 29.0814V28.5C29.1333 27.9961 29.3335 27.5128 29.6898 27.1565C30.0461 26.8002 30.5294 26.6 31.0333 26.6H32.3C32.8039 26.6 33.2872 26.8002 33.6435 27.1565C33.9998 27.5128 34.2 27.9961 34.2 28.5V29.0814C33.4311 29.5302 32.5569 29.7666 31.6667 29.7666C30.7764 29.7666 29.9022 29.5302 29.1333 29.0814ZM31.6667 24.7C31.4161 24.7 31.1712 24.6257 30.9629 24.4865C30.7546 24.3473 30.5923 24.1495 30.4964 23.9181C30.4005 23.6866 30.3755 23.4319 30.4243 23.1862C30.4732 22.9405 30.5938 22.7148 30.771 22.5377C30.9481 22.3605 31.1738 22.2399 31.4195 22.191C31.6653 22.1421 31.9199 22.1672 32.1514 22.2631C32.3828 22.359 32.5807 22.5213 32.7199 22.7296C32.859 22.9379 32.9333 23.1828 32.9333 23.4333C32.9333 23.7693 32.7999 24.0915 32.5623 24.329C32.3248 24.5666 32.0026 24.7 31.6667 24.7ZM35.4249 28.0858C35.3438 27.4764 35.0864 26.9039 34.6844 26.4388C34.2824 25.9737 33.7532 25.6361 33.162 25.4676C33.5933 25.1522 33.9138 24.7085 34.0778 24.2C34.2417 23.6914 34.2407 23.144 34.0748 22.6361C33.9089 22.1282 33.5867 21.6857 33.1542 21.372C32.7216 21.0583 32.201 20.8893 31.6667 20.8893C31.1323 20.8893 30.6117 21.0583 30.1792 21.372C29.7467 21.6857 29.4244 22.1282 29.2585 22.6361C29.0926 23.144 29.0916 23.6914 29.2555 24.2C29.4195 24.7085 29.74 25.1522 30.1714 25.4676C29.5801 25.6361 29.051 25.9737 28.649 26.4388C28.2469 26.9039 27.9896 27.4764 27.9085 28.0858C27.2509 27.3586 26.8185 26.4562 26.6636 25.4881C26.5087 24.52 26.6381 23.5278 27.0359 22.6317C27.4337 21.7357 28.083 20.9743 28.9049 20.4399C29.7269 19.9055 30.6863 19.621 31.6667 19.621C32.6471 19.621 33.6064 19.9055 34.4284 20.4399C35.2503 20.9743 35.8996 21.7357 36.2974 22.6317C36.6953 23.5278 36.8246 24.52 36.6697 25.4881C36.5148 26.4562 36.0824 27.3586 35.4249 28.0858Z" fill="url(#paint6_linear_1124_805)"/>
<path opacity="0.7" d="M19.5399 11.8749H20.8066V13.1415H19.5399V11.8749Z" fill="url(#paint7_linear_1124_805)"/>
<path opacity="0.7" d="M22.0733 11.8749H29.6733V13.1415H22.0733V11.8749Z" fill="url(#paint8_linear_1124_805)"/>
<path opacity="0.7" d="M19.1271 14.8766H20.1897V15.9392H19.1271V14.8766Z" fill="url(#paint9_linear_1124_805)"/>
<path opacity="0.7" d="M22.0733 14.4081H29.6733V15.6747H22.0733V14.4081Z" fill="url(#paint10_linear_1124_805)"/>
<path d="M13.814 32.7748H17.614V34.0414H13.814V32.7748Z" fill="url(#paint11_linear_1124_805)"/>
<defs>
<linearGradient id="paint0_linear_1124_805" x1="14.8766" y1="23.908" x2="16.1433" y2="23.908" gradientUnits="userSpaceOnUse">
<stop stop-color="#A3BDED"/>
<stop offset="1" stop-color="#6991C7"/>
</linearGradient>
<linearGradient id="paint1_linear_1124_805" x1="11.6888" y1="23.908" x2="19.2888" y2="23.908" gradientUnits="userSpaceOnUse">
<stop stop-color="#A3BDED"/>
<stop offset="1" stop-color="#6991C7"/>
</linearGradient>
<linearGradient id="paint2_linear_1124_805" x1="14.8766" y1="26.4413" x2="16.1433" y2="26.4413" gradientUnits="userSpaceOnUse">
<stop stop-color="#A3BDED"/>
<stop offset="1" stop-color="#6991C7"/>
</linearGradient>
<linearGradient id="paint3_linear_1124_805" x1="11.6888" y1="26.4413" x2="19.2888" y2="26.4413" gradientUnits="userSpaceOnUse">
<stop stop-color="#A3BDED"/>
<stop offset="1" stop-color="#6991C7"/>
</linearGradient>
<linearGradient id="paint4_linear_1124_805" x1="10.04" y1="3.64151" x2="11.3066" y2="3.64151" gradientUnits="userSpaceOnUse">
<stop stop-color="#A3BDED"/>
<stop offset="1" stop-color="#6991C7"/>
</linearGradient>
<linearGradient id="paint5_linear_1124_805" x1="12.5734" y1="3.64151" x2="13.8401" y2="3.64151" gradientUnits="userSpaceOnUse">
<stop stop-color="#A3BDED"/>
<stop offset="1" stop-color="#6991C7"/>
</linearGradient>
<linearGradient id="paint6_linear_1124_805" x1="0" y1="19" x2="38.0079" y2="19" gradientUnits="userSpaceOnUse">
<stop stop-color="#A3BDED"/>
<stop offset="1" stop-color="#6991C7"/>
</linearGradient>
<linearGradient id="paint7_linear_1124_805" x1="19.5399" y1="12.5082" x2="20.8066" y2="12.5082" gradientUnits="userSpaceOnUse">
<stop stop-color="#A3BDED"/>
<stop offset="1" stop-color="#6991C7"/>
</linearGradient>
<linearGradient id="paint8_linear_1124_805" x1="22.0733" y1="12.5082" x2="29.6733" y2="12.5082" gradientUnits="userSpaceOnUse">
<stop stop-color="#A3BDED"/>
<stop offset="1" stop-color="#6991C7"/>
</linearGradient>
<linearGradient id="paint9_linear_1124_805" x1="19.1271" y1="15.4079" x2="20.1897" y2="15.4079" gradientUnits="userSpaceOnUse">
<stop stop-color="#A3BDED"/>
<stop offset="1" stop-color="#6991C7"/>
</linearGradient>
<linearGradient id="paint10_linear_1124_805" x1="22.0733" y1="15.0414" x2="29.6733" y2="15.0414" gradientUnits="userSpaceOnUse">
<stop stop-color="#A3BDED"/>
<stop offset="1" stop-color="#6991C7"/>
</linearGradient>
<linearGradient id="paint11_linear_1124_805" x1="13.814" y1="33.4081" x2="17.614" y2="33.4081" gradientUnits="userSpaceOnUse">
<stop stop-color="#A3BDED"/>
<stop offset="1" stop-color="#6991C7"/>
</linearGradient>
</defs>
</svg>
