<svg width="38" height="38" viewBox="0 0 38 38" fill="none" xmlns="http://www.w3.org/2000/svg">
<g opacity="0.7">
<path d="M34.8333 0H6.96667C6.12681 0 5.32136 0.33363 4.7275 0.927495C4.13363 1.52136 3.8 2.32681 3.8 3.16667V31.6667H0.633333C0.465363 31.6667 0.304272 31.7334 0.185499 31.8522C0.066726 31.9709 0 32.132 0 32.3V34.8333C0 35.6732 0.33363 36.4786 0.927495 37.0725C1.52136 37.6664 2.32681 38 3.16667 38H29.7667C30.6065 38 31.412 37.6664 32.0058 37.0725C32.5997 36.4786 32.9333 35.6732 32.9333 34.8333V6.33333H37.3667C37.5346 6.33333 37.6957 6.26661 37.8145 6.14783C37.9333 6.02906 38 5.86797 38 5.7V3.16667C38 2.32681 37.6664 1.52136 37.0725 0.927495C36.4786 0.33363 35.6732 0 34.8333 0ZM3.16667 36.7333C2.66322 36.7318 2.18082 36.5312 1.82482 36.1752C1.46883 35.8192 1.26817 35.3368 1.26667 34.8333V32.9333H26.6V34.8333C26.6019 35.5213 26.8313 36.1893 27.2523 36.7333H3.16667ZM31.6667 2.53333V34.8333C31.6667 35.3372 31.4665 35.8205 31.1102 36.1768C30.7538 36.5332 30.2706 36.7333 29.7667 36.7333C29.2628 36.7333 28.7795 36.5332 28.4232 36.1768C28.0668 35.8205 27.8667 35.3372 27.8667 34.8333V32.3C27.8667 32.132 27.7999 31.9709 27.6812 31.8522C27.5624 31.7334 27.4013 31.6667 27.2333 31.6667H5.06667V3.16667C5.06817 2.66322 5.26883 2.18082 5.62482 1.82482C5.98082 1.46883 6.46322 1.26817 6.96667 1.26667H32.0213C31.791 1.64915 31.6684 2.08684 31.6667 2.53333ZM36.7333 5.06667H32.9333V2.53333C32.9343 2.1977 33.0681 1.8761 33.3054 1.63877C33.5428 1.40144 33.8644 1.26767 34.2 1.26667H34.8333C35.3368 1.26817 35.8192 1.46883 36.1752 1.82482C36.5312 2.18082 36.7318 2.66322 36.7333 3.16667V5.06667Z" fill="url(#paint0_linear_1112_354)"/>
<path d="M28.5 19H25.3334V15.8334C25.3334 15.6654 25.2666 15.5043 25.1479 15.3855C25.0291 15.2668 24.868 15.2 24.7 15.2H19V11.4H22.1667C22.3347 11.4 22.4958 11.3333 22.6145 11.2145C22.7333 11.0958 22.8 10.9347 22.8 10.7667V6.96671C22.8 6.79874 22.7333 6.63765 22.6145 6.51887C22.4958 6.4001 22.3347 6.33337 22.1667 6.33337H14.5667C14.3987 6.33337 14.2376 6.4001 14.1189 6.51887C14.0001 6.63765 13.9334 6.79874 13.9334 6.96671V10.7667C13.9334 10.9347 14.0001 11.0958 14.1189 11.2145C14.2376 11.3333 14.3987 11.4 14.5667 11.4H17.7334V15.2H12.0334C11.8654 15.2 11.7043 15.2668 11.5855 15.3855C11.4668 15.5043 11.4 15.6654 11.4 15.8334V19H8.23337C8.0654 19 7.90431 19.0668 7.78554 19.1855C7.66676 19.3043 7.60004 19.4654 7.60004 19.6334V23.4334C7.60004 23.6013 7.66676 23.7624 7.78554 23.8812C7.90431 24 8.0654 24.0667 8.23337 24.0667H15.8334C16.0013 24.0667 16.1624 24 16.2812 23.8812C16.4 23.7624 16.4667 23.6013 16.4667 23.4334V19.6334C16.4667 19.4654 16.4 19.3043 16.2812 19.1855C16.1624 19.0668 16.0013 19 15.8334 19H12.6667V16.4667H24.0667V19H20.9C20.7321 19 20.571 19.0668 20.4522 19.1855C20.3334 19.3043 20.2667 19.4654 20.2667 19.6334V23.4334C20.2667 23.6013 20.3334 23.7624 20.4522 23.8812C20.571 24 20.7321 24.0667 20.9 24.0667H28.5C28.668 24.0667 28.8291 24 28.9479 23.8812C29.0666 23.7624 29.1334 23.6013 29.1334 23.4334V19.6334C29.1334 19.4654 29.0666 19.3043 28.9479 19.1855C28.8291 19.0668 28.668 19 28.5 19ZM15.2 7.60004H21.5334V10.1334H15.2V7.60004ZM15.2 22.8H8.8667V20.2667H15.2V22.8ZM27.8667 22.8H21.5334V20.2667H27.8667V22.8Z" fill="url(#paint1_linear_1112_354)"/>
<path d="M14.5667 5.06672H15.2C15.368 5.06672 15.5291 4.99999 15.6479 4.88122C15.7666 4.76244 15.8333 4.60135 15.8333 4.43338C15.8333 4.26541 15.7666 4.10432 15.6479 3.98555C15.5291 3.86677 15.368 3.80005 15.2 3.80005H14.5667C14.3987 3.80005 14.2376 3.86677 14.1188 3.98555C14.0001 4.10432 13.9333 4.26541 13.9333 4.43338C13.9333 4.60135 14.0001 4.76244 14.1188 4.88122C14.2376 4.99999 14.3987 5.06672 14.5667 5.06672Z" fill="url(#paint2_linear_1112_354)"/>
<path d="M8.8667 25.3334H8.23337C8.0654 25.3334 7.90431 25.4001 7.78554 25.5189C7.66676 25.6376 7.60004 25.7987 7.60004 25.9667C7.60004 26.1347 7.66676 26.2958 7.78554 26.4145C7.90431 26.5333 8.0654 26.6 8.23337 26.6H8.8667C9.03467 26.6 9.19576 26.5333 9.31454 26.4145C9.43331 26.2958 9.50004 26.1347 9.50004 25.9667C9.50004 25.7987 9.43331 25.6376 9.31454 25.5189C9.19576 25.4001 9.03467 25.3334 8.8667 25.3334Z" fill="url(#paint3_linear_1112_354)"/>
<path d="M8.8667 27.2334H8.23337C8.0654 27.2334 7.90431 27.3001 7.78554 27.4189C7.66676 27.5377 7.60004 27.6988 7.60004 27.8667C7.60004 28.0347 7.66676 28.1958 7.78554 28.3146C7.90431 28.4333 8.0654 28.5001 8.23337 28.5001H8.8667C9.03467 28.5001 9.19576 28.4333 9.31454 28.3146C9.43331 28.1958 9.50004 28.0347 9.50004 27.8667C9.50004 27.6988 9.43331 27.5377 9.31454 27.4189C9.19576 27.3001 9.03467 27.2334 8.8667 27.2334Z" fill="url(#paint4_linear_1112_354)"/>
<path d="M21.5333 25.3334H20.9C20.732 25.3334 20.5709 25.4001 20.4522 25.5189C20.3334 25.6376 20.2667 25.7987 20.2667 25.9667C20.2667 26.1347 20.3334 26.2958 20.4522 26.4145C20.5709 26.5333 20.732 26.6 20.9 26.6H21.5333C21.7013 26.6 21.8624 26.5333 21.9812 26.4145C22.0999 26.2958 22.1667 26.1347 22.1667 25.9667C22.1667 25.7987 22.0999 25.6376 21.9812 25.5189C21.8624 25.4001 21.7013 25.3334 21.5333 25.3334Z" fill="url(#paint5_linear_1112_354)"/>
<path d="M21.5333 27.2334H20.9C20.732 27.2334 20.5709 27.3001 20.4522 27.4189C20.3334 27.5377 20.2667 27.6988 20.2667 27.8667C20.2667 28.0347 20.3334 28.1958 20.4522 28.3146C20.5709 28.4333 20.732 28.5001 20.9 28.5001H21.5333C21.7013 28.5001 21.8624 28.4333 21.9812 28.3146C22.0999 28.1958 22.1667 28.0347 22.1667 27.8667C22.1667 27.6988 22.0999 27.5377 21.9812 27.4189C21.8624 27.3001 21.7013 27.2334 21.5333 27.2334Z" fill="url(#paint6_linear_1112_354)"/>
<path d="M17.7334 5.06672H22.1667C22.3347 5.06672 22.4958 4.99999 22.6145 4.88122C22.7333 4.76244 22.8 4.60135 22.8 4.43338C22.8 4.26541 22.7333 4.10432 22.6145 3.98555C22.4958 3.86677 22.3347 3.80005 22.1667 3.80005H17.7334C17.5654 3.80005 17.4043 3.86677 17.2855 3.98555C17.1668 4.10432 17.1 4.26541 17.1 4.43338C17.1 4.60135 17.1668 4.76244 17.2855 4.88122C17.4043 4.99999 17.5654 5.06672 17.7334 5.06672Z" fill="url(#paint7_linear_1112_354)"/>
<path d="M15.2 25.3334H11.4C11.232 25.3334 11.0709 25.4001 10.9522 25.5189C10.8334 25.6376 10.7667 25.7987 10.7667 25.9667C10.7667 26.1347 10.8334 26.2958 10.9522 26.4145C11.0709 26.5333 11.232 26.6 11.4 26.6H15.2C15.368 26.6 15.5291 26.5333 15.6478 26.4145C15.7666 26.2958 15.8333 26.1347 15.8333 25.9667C15.8333 25.7987 15.7666 25.6376 15.6478 25.5189C15.5291 25.4001 15.368 25.3334 15.2 25.3334Z" fill="url(#paint8_linear_1112_354)"/>
<path d="M15.2 27.2334H11.4C11.232 27.2334 11.0709 27.3001 10.9522 27.4189C10.8334 27.5377 10.7667 27.6988 10.7667 27.8667C10.7667 28.0347 10.8334 28.1958 10.9522 28.3146C11.0709 28.4333 11.232 28.5001 11.4 28.5001H15.2C15.368 28.5001 15.5291 28.4333 15.6478 28.3146C15.7666 28.1958 15.8333 28.0347 15.8333 27.8667C15.8333 27.6988 15.7666 27.5377 15.6478 27.4189C15.5291 27.3001 15.368 27.2334 15.2 27.2334Z" fill="url(#paint9_linear_1112_354)"/>
<path d="M27.8667 25.3334H24.0667C23.8988 25.3334 23.7377 25.4001 23.6189 25.5189C23.5001 25.6376 23.4334 25.7987 23.4334 25.9667C23.4334 26.1347 23.5001 26.2958 23.6189 26.4145C23.7377 26.5333 23.8988 26.6 24.0667 26.6H27.8667C28.0347 26.6 28.1958 26.5333 28.3146 26.4145C28.4334 26.2958 28.5001 26.1347 28.5001 25.9667C28.5001 25.7987 28.4334 25.6376 28.3146 25.5189C28.1958 25.4001 28.0347 25.3334 27.8667 25.3334Z" fill="url(#paint10_linear_1112_354)"/>
<path d="M27.8667 27.2334H24.0667C23.8987 27.2334 23.7376 27.3001 23.6188 27.4189C23.5001 27.5377 23.4333 27.6988 23.4333 27.8667C23.4333 28.0347 23.5001 28.1958 23.6188 28.3146C23.7376 28.4333 23.8987 28.5001 24.0667 28.5001H27.8667C28.0347 28.5001 28.1957 28.4333 28.3145 28.3146C28.4333 28.1958 28.5 28.0347 28.5 27.8667C28.5 27.6988 28.4333 27.5377 28.3145 27.4189C28.1957 27.3001 28.0347 27.2334 27.8667 27.2334Z" fill="url(#paint11_linear_1112_354)"/>
</g>
<defs>
<linearGradient id="paint0_linear_1112_354" x1="0" y1="19" x2="38" y2="19" gradientUnits="userSpaceOnUse">
<stop stop-color="#A6C0FE"/>
<stop offset="1" stop-color="#F68084"/>
</linearGradient>
<linearGradient id="paint1_linear_1112_354" x1="7.60004" y1="15.2" x2="29.1334" y2="15.2" gradientUnits="userSpaceOnUse">
<stop stop-color="#A6C0FE"/>
<stop offset="1" stop-color="#F68084"/>
</linearGradient>
<linearGradient id="paint2_linear_1112_354" x1="13.9333" y1="4.43338" x2="15.8333" y2="4.43338" gradientUnits="userSpaceOnUse">
<stop stop-color="#A6C0FE"/>
<stop offset="1" stop-color="#F68084"/>
</linearGradient>
<linearGradient id="paint3_linear_1112_354" x1="7.60004" y1="25.9667" x2="9.50004" y2="25.9667" gradientUnits="userSpaceOnUse">
<stop stop-color="#A6C0FE"/>
<stop offset="1" stop-color="#F68084"/>
</linearGradient>
<linearGradient id="paint4_linear_1112_354" x1="7.60004" y1="27.8667" x2="9.50004" y2="27.8667" gradientUnits="userSpaceOnUse">
<stop stop-color="#A6C0FE"/>
<stop offset="1" stop-color="#F68084"/>
</linearGradient>
<linearGradient id="paint5_linear_1112_354" x1="20.2667" y1="25.9667" x2="22.1667" y2="25.9667" gradientUnits="userSpaceOnUse">
<stop stop-color="#A6C0FE"/>
<stop offset="1" stop-color="#F68084"/>
</linearGradient>
<linearGradient id="paint6_linear_1112_354" x1="20.2667" y1="27.8667" x2="22.1667" y2="27.8667" gradientUnits="userSpaceOnUse">
<stop stop-color="#A6C0FE"/>
<stop offset="1" stop-color="#F68084"/>
</linearGradient>
<linearGradient id="paint7_linear_1112_354" x1="17.1" y1="4.43338" x2="22.8" y2="4.43338" gradientUnits="userSpaceOnUse">
<stop stop-color="#A6C0FE"/>
<stop offset="1" stop-color="#F68084"/>
</linearGradient>
<linearGradient id="paint8_linear_1112_354" x1="10.7667" y1="25.9667" x2="15.8333" y2="25.9667" gradientUnits="userSpaceOnUse">
<stop stop-color="#A6C0FE"/>
<stop offset="1" stop-color="#F68084"/>
</linearGradient>
<linearGradient id="paint9_linear_1112_354" x1="10.7667" y1="27.8667" x2="15.8333" y2="27.8667" gradientUnits="userSpaceOnUse">
<stop stop-color="#A6C0FE"/>
<stop offset="1" stop-color="#F68084"/>
</linearGradient>
<linearGradient id="paint10_linear_1112_354" x1="23.4334" y1="25.9667" x2="28.5001" y2="25.9667" gradientUnits="userSpaceOnUse">
<stop stop-color="#A6C0FE"/>
<stop offset="1" stop-color="#F68084"/>
</linearGradient>
<linearGradient id="paint11_linear_1112_354" x1="23.4333" y1="27.8667" x2="28.5" y2="27.8667" gradientUnits="userSpaceOnUse">
<stop stop-color="#A6C0FE"/>
<stop offset="1" stop-color="#F68084"/>
</linearGradient>
</defs>
</svg>
