<svg width="38" height="38" viewBox="0 0 38 38" fill="none" xmlns="http://www.w3.org/2000/svg">
<path d="M33.5667 0H4.43333C3.25795 0.001341 2.1311 0.468854 1.29997 1.29997C0.468854 2.13109 0.001341 3.25795 0 4.43333V25.9667C2.67421e-05 26.0919 0.0371856 26.2143 0.106779 26.3185C0.176372 26.4226 0.275275 26.5037 0.390985 26.5517C0.506695 26.5996 0.634017 26.6121 0.756853 26.5877C0.87969 26.5633 0.992527 26.503 1.0811 26.4144L8.49553 19H33.5667C34.742 18.9987 35.8689 18.5311 36.7 17.7C37.5311 16.8689 37.9987 15.742 38 14.5667V4.43333C37.9987 3.25795 37.5311 2.13109 36.7 1.29997C35.8689 0.468854 34.742 0.001341 33.5667 0ZM36.7333 14.5667C36.7323 15.4062 36.3984 16.2111 35.8047 16.8047C35.2111 17.3984 34.4062 17.7323 33.5667 17.7333H8.23333C8.06538 17.7334 7.90431 17.8001 7.78557 17.9189L1.26667 24.4378V4.43333C1.26767 3.59379 1.60163 2.78892 2.19527 2.19527C2.78892 1.60163 3.59379 1.26767 4.43333 1.26667H33.5667C34.4062 1.26767 35.2111 1.60163 35.8047 2.19527C36.3984 2.78892 36.7323 3.59379 36.7333 4.43333V14.5667Z" fill="url(#paint0_linear_1112_536)"/>
<path d="M9.49993 3.80005C8.37258 3.80005 7.27054 4.13435 6.33318 4.76067C5.39582 5.387 4.66524 6.27721 4.23382 7.31875C3.8024 8.36029 3.68952 9.50637 3.90945 10.6121C4.12939 11.7178 4.67226 12.7334 5.46942 13.5306C6.26658 14.3277 7.28222 14.8706 8.38791 15.0905C9.49361 15.3105 10.6397 15.1976 11.6812 14.7662C12.7228 14.3347 13.613 13.6042 14.2393 12.6668C14.8656 11.7294 15.1999 10.6274 15.1999 9.50005C15.1981 7.98888 14.597 6.54013 13.5284 5.47158C12.4598 4.40302 11.0111 3.80189 9.49993 3.80005ZM6.9666 13.1328V12.6667C6.9666 12.1628 7.16677 11.6795 7.52309 11.3232C7.87941 10.9669 8.36268 10.7667 8.8666 10.7667H10.1333C10.6372 10.7667 11.1204 10.9669 11.4768 11.3232C11.8331 11.6795 12.0333 12.1628 12.0333 12.6667V13.1328C11.2912 13.6539 10.4066 13.9334 9.49993 13.9334C8.59326 13.9334 7.70863 13.6539 6.9666 13.1328ZM13.2043 11.9295C13.039 11.2389 12.6463 10.6238 12.0893 10.1832C11.5323 9.74258 10.8434 9.50198 10.1333 9.50005H8.8666C8.15651 9.50195 7.46767 9.74246 6.91071 10.1829C6.35375 10.6234 5.96101 11.2383 5.79556 11.9289C5.35627 11.2604 5.10603 10.4854 5.07139 9.68626C5.03674 8.88708 5.21898 8.09341 5.59877 7.38939C5.97856 6.68536 6.54177 6.09721 7.22868 5.68728C7.9156 5.27736 8.70063 5.06092 9.50056 5.06092C10.3005 5.06092 11.0855 5.27736 11.7724 5.68728C12.4594 6.09721 13.0226 6.68536 13.4024 7.38939C13.7821 8.09341 13.9644 8.88708 13.9297 9.68626C13.8951 10.4854 13.6449 11.2604 13.2056 11.9289L13.2043 11.9295Z" fill="url(#paint1_linear_1112_536)"/>
<path d="M11.4 7.59995C11.4 7.22417 11.2885 6.85682 11.0798 6.54437C10.871 6.23191 10.5743 5.98839 10.2271 5.84458C9.87989 5.70077 9.49787 5.66315 9.1293 5.73646C8.76074 5.80977 8.42219 5.99073 8.15647 6.25645C7.89075 6.52217 7.7098 6.86072 7.63648 7.22928C7.56317 7.59784 7.6008 7.97987 7.74461 8.32705C7.88841 8.67423 8.13194 8.97097 8.44439 9.17974C8.75685 9.38852 9.12419 9.49995 9.49998 9.49995C10.0039 9.49995 10.4872 9.29977 10.8435 8.94345C11.1998 8.58713 11.4 8.10386 11.4 7.59995ZM9.49998 8.23328C9.37471 8.23328 9.25227 8.19614 9.14811 8.12655C9.04396 8.05696 8.96279 7.95804 8.91485 7.84232C8.86692 7.72659 8.85437 7.59925 8.87881 7.47639C8.90325 7.35354 8.96357 7.24069 9.05214 7.15212C9.14071 7.06354 9.25356 7.00322 9.37642 6.97879C9.49927 6.95435 9.62661 6.96689 9.74234 7.01483C9.85807 7.06276 9.95698 7.14394 10.0266 7.24809C10.0962 7.35224 10.1333 7.47469 10.1333 7.59995C10.1333 7.76792 10.0666 7.92901 9.94781 8.04778C9.82904 8.16656 9.66795 8.23328 9.49998 8.23328Z" fill="url(#paint2_linear_1112_536)"/>
<path d="M29.7667 24.0667C28.6393 24.0667 27.5373 24.4009 26.5999 25.0273C25.6625 25.6536 24.932 26.5438 24.5005 27.5854C24.0691 28.6269 23.9562 29.773 24.1762 30.8787C24.3961 31.9844 24.939 33 25.7361 33.7972C26.5333 34.5943 27.5489 35.1372 28.6546 35.3571C29.7603 35.5771 30.9064 35.4642 31.9479 35.0328C32.9895 34.6013 33.8797 33.8708 34.506 32.9334C35.1324 31.996 35.4667 30.894 35.4667 29.7667C35.4648 28.2555 34.8637 26.8067 33.7951 25.7382C32.7266 24.6696 31.2778 24.0685 29.7667 24.0667ZM27.2333 33.3995V32.9333C27.2333 32.4294 27.4335 31.9461 27.7898 31.5898C28.1461 31.2335 28.6294 31.0333 29.1333 31.0333H30.4C30.9039 31.0333 31.3872 31.2335 31.7435 31.5898C32.0998 31.9461 32.3 32.4294 32.3 32.9333V33.3995C31.558 33.9205 30.6733 34.2 29.7667 34.2C28.86 34.2 27.9754 33.9205 27.2333 33.3995ZM33.471 32.1961C33.3057 31.5055 32.913 30.8904 32.356 30.4498C31.7991 30.0092 31.1102 29.7686 30.4 29.7667H29.1333C28.4232 29.7686 27.7344 30.0091 27.1774 30.4496C26.6205 30.89 26.2277 31.5049 26.0623 32.1955C25.623 31.527 25.3728 30.752 25.3381 29.9529C25.3035 29.1537 25.4857 28.36 25.8655 27.656C26.2453 26.952 26.8085 26.3638 27.4954 25.9539C28.1823 25.544 28.9674 25.3275 29.7673 25.3275C30.5672 25.3275 31.3523 25.544 32.0392 25.9539C32.7261 26.3638 33.2893 26.952 33.6691 27.656C34.0489 28.36 34.2311 29.1537 34.1965 29.9529C34.1618 30.752 33.9116 31.527 33.4723 32.1955L33.471 32.1961Z" fill="url(#paint3_linear_1112_536)"/>
<path d="M31.6667 27.8667C31.6667 27.4909 31.5553 27.1235 31.3465 26.8111C31.1377 26.4986 30.841 26.2551 30.4938 26.1113C30.1466 25.9675 29.7646 25.9299 29.396 26.0032C29.0275 26.0765 28.6889 26.2575 28.4232 26.5232C28.1575 26.7889 27.9765 27.1274 27.9032 27.496C27.8299 27.8646 27.8675 28.2466 28.0113 28.5938C28.1551 28.941 28.3987 29.2377 28.7111 29.4465C29.0236 29.6552 29.3909 29.7667 29.7667 29.7667C30.2706 29.7667 30.7539 29.5665 31.1102 29.2102C31.4665 28.8539 31.6667 28.3706 31.6667 27.8667ZM29.7667 28.5C29.6414 28.5 29.519 28.4629 29.4148 28.3933C29.3107 28.3237 29.2295 28.2248 29.1816 28.109C29.1336 27.9933 29.1211 27.866 29.1455 27.7431C29.17 27.6203 29.2303 27.5074 29.3189 27.4188C29.4074 27.3303 29.5203 27.27 29.6431 27.2455C29.766 27.2211 29.8933 27.2336 30.0091 27.2816C30.1248 27.3295 30.2237 27.4107 30.2933 27.5148C30.3629 27.619 30.4 27.7414 30.4 27.8667C30.4 28.0346 30.3333 28.1957 30.2145 28.3145C30.0958 28.4333 29.9347 28.5 29.7667 28.5Z" fill="url(#paint4_linear_1112_536)"/>
<path d="M33.5667 21.5333H9.49998C8.3246 21.5347 7.19775 22.0022 6.36662 22.8333C5.5355 23.6644 5.06799 24.7913 5.06665 25.9667V33.5667C5.06799 34.742 5.5355 35.8689 6.36662 36.7C7.19775 37.5311 8.3246 37.9987 9.49998 38H33.5667C34.742 37.9987 35.8689 37.5311 36.7 36.7C37.5311 35.8689 37.9986 34.742 38 33.5667V25.9667C37.9986 24.7913 37.5311 23.6644 36.7 22.8333C35.8689 22.0022 34.742 21.5347 33.5667 21.5333ZM36.7333 33.5667C36.7323 34.4062 36.3984 35.2111 35.8047 35.8047C35.2111 36.3984 34.4062 36.7323 33.5667 36.7333H9.49998C8.66044 36.7323 7.85557 36.3984 7.26192 35.8047C6.66828 35.2111 6.33432 34.4062 6.33332 33.5667V25.9667C6.33432 25.1271 6.66828 24.3222 7.26192 23.7286C7.85557 23.135 8.66044 22.801 9.49998 22.8H33.5667C34.4062 22.801 35.2111 23.135 35.8047 23.7286C36.3984 24.3222 36.7323 25.1271 36.7333 25.9667V33.5667Z" fill="url(#paint5_linear_1112_536)"/>
<path d="M33.5666 8.8667H18.3666C18.1986 8.8667 18.0375 8.93342 17.9188 9.0522C17.8 9.17097 17.7333 9.33206 17.7333 9.50003C17.7333 9.668 17.8 9.82909 17.9188 9.94787C18.0375 10.0666 18.1986 10.1334 18.3666 10.1334H33.5666C33.7346 10.1334 33.8957 10.0666 34.0144 9.94787C34.1332 9.82909 34.1999 9.668 34.1999 9.50003C34.1999 9.33206 34.1332 9.17097 34.0144 9.0522C33.8957 8.93342 33.7346 8.8667 33.5666 8.8667Z" fill="url(#paint6_linear_1112_536)"/>
<path d="M33.5666 11.4H18.3666C18.1986 11.4 18.0375 11.4667 17.9188 11.5855C17.8 11.7043 17.7333 11.8654 17.7333 12.0334C17.7333 12.2013 17.8 12.3624 17.9188 12.4812C18.0375 12.6 18.1986 12.6667 18.3666 12.6667H33.5666C33.7346 12.6667 33.8957 12.6 34.0144 12.4812C34.1332 12.3624 34.1999 12.2013 34.1999 12.0334C34.1999 11.8654 34.1332 11.7043 34.0144 11.5855C33.8957 11.4667 33.7346 11.4 33.5666 11.4Z" fill="url(#paint7_linear_1112_536)"/>
<path d="M20.9 26.6H9.50003C9.33206 26.6 9.17097 26.6667 9.0522 26.7855C8.93342 26.9042 8.8667 27.0653 8.8667 27.2333C8.8667 27.4013 8.93342 27.5624 9.0522 27.6811C9.17097 27.7999 9.33206 27.8666 9.50003 27.8666H20.9C21.068 27.8666 21.2291 27.7999 21.3479 27.6811C21.4666 27.5624 21.5334 27.4013 21.5334 27.2333C21.5334 27.0653 21.4666 26.9042 21.3479 26.7855C21.2291 26.6667 21.068 26.6 20.9 26.6Z" fill="url(#paint8_linear_1112_536)"/>
<path d="M20.9 29.1333H9.50003C9.33206 29.1333 9.17097 29.2 9.0522 29.3188C8.93342 29.4376 8.8667 29.5987 8.8667 29.7666C8.8667 29.9346 8.93342 30.0957 9.0522 30.2145C9.17097 30.3332 9.33206 30.4 9.50003 30.4H20.9C21.068 30.4 21.2291 30.3332 21.3479 30.2145C21.4666 30.0957 21.5334 29.9346 21.5334 29.7666C21.5334 29.5987 21.4666 29.4376 21.3479 29.3188C21.2291 29.2 21.068 29.1333 20.9 29.1333Z" fill="url(#paint9_linear_1112_536)"/>
<path d="M20.9 31.6667H9.50003C9.33206 31.6667 9.17097 31.7335 9.0522 31.8522C8.93342 31.971 8.8667 32.1321 8.8667 32.3001C8.8667 32.4681 8.93342 32.6291 9.0522 32.7479C9.17097 32.8667 9.33206 32.9334 9.50003 32.9334H20.9C21.068 32.9334 21.2291 32.8667 21.3479 32.7479C21.4666 32.6291 21.5334 32.4681 21.5334 32.3001C21.5334 32.1321 21.4666 31.971 21.3479 31.8522C21.2291 31.7335 21.068 31.6667 20.9 31.6667Z" fill="url(#paint10_linear_1112_536)"/>
<path d="M33.5666 6.33337H18.3666C18.1986 6.33337 18.0375 6.4001 17.9188 6.51887C17.8 6.63765 17.7333 6.79874 17.7333 6.96671C17.7333 7.13468 17.8 7.29577 17.9188 7.41454C18.0375 7.53331 18.1986 7.60004 18.3666 7.60004H33.5666C33.7346 7.60004 33.8957 7.53331 34.0144 7.41454C34.1332 7.29577 34.1999 7.13468 34.1999 6.96671C34.1999 6.79874 34.1332 6.63765 34.0144 6.51887C33.8957 6.4001 33.7346 6.33337 33.5666 6.33337Z" fill="url(#paint11_linear_1112_536)"/>
<defs>
<linearGradient id="paint0_linear_1112_536" x1="0" y1="13.2999" x2="38" y2="13.2999" gradientUnits="userSpaceOnUse">
<stop stop-color="#A6C0FE"/>
<stop offset="1" stop-color="#F68084"/>
</linearGradient>
<linearGradient id="paint1_linear_1112_536" x1="3.79993" y1="9.50005" x2="15.1999" y2="9.50005" gradientUnits="userSpaceOnUse">
<stop stop-color="#A6C0FE"/>
<stop offset="1" stop-color="#F68084"/>
</linearGradient>
<linearGradient id="paint2_linear_1112_536" x1="7.59998" y1="7.59995" x2="11.4" y2="7.59995" gradientUnits="userSpaceOnUse">
<stop stop-color="#A6C0FE"/>
<stop offset="1" stop-color="#F68084"/>
</linearGradient>
<linearGradient id="paint3_linear_1112_536" x1="24.0667" y1="29.7667" x2="35.4667" y2="29.7667" gradientUnits="userSpaceOnUse">
<stop stop-color="#A6C0FE"/>
<stop offset="1" stop-color="#F68084"/>
</linearGradient>
<linearGradient id="paint4_linear_1112_536" x1="27.8667" y1="27.8667" x2="31.6667" y2="27.8667" gradientUnits="userSpaceOnUse">
<stop stop-color="#A6C0FE"/>
<stop offset="1" stop-color="#F68084"/>
</linearGradient>
<linearGradient id="paint5_linear_1112_536" x1="5.06665" y1="29.7667" x2="38" y2="29.7667" gradientUnits="userSpaceOnUse">
<stop stop-color="#A6C0FE"/>
<stop offset="1" stop-color="#F68084"/>
</linearGradient>
<linearGradient id="paint6_linear_1112_536" x1="17.7333" y1="9.50003" x2="34.1999" y2="9.50003" gradientUnits="userSpaceOnUse">
<stop stop-color="#A6C0FE"/>
<stop offset="1" stop-color="#F68084"/>
</linearGradient>
<linearGradient id="paint7_linear_1112_536" x1="17.7333" y1="12.0334" x2="34.1999" y2="12.0334" gradientUnits="userSpaceOnUse">
<stop stop-color="#A6C0FE"/>
<stop offset="1" stop-color="#F68084"/>
</linearGradient>
<linearGradient id="paint8_linear_1112_536" x1="8.8667" y1="27.2333" x2="21.5334" y2="27.2333" gradientUnits="userSpaceOnUse">
<stop stop-color="#A6C0FE"/>
<stop offset="1" stop-color="#F68084"/>
</linearGradient>
<linearGradient id="paint9_linear_1112_536" x1="8.8667" y1="29.7666" x2="21.5334" y2="29.7666" gradientUnits="userSpaceOnUse">
<stop stop-color="#A6C0FE"/>
<stop offset="1" stop-color="#F68084"/>
</linearGradient>
<linearGradient id="paint10_linear_1112_536" x1="8.8667" y1="32.3001" x2="21.5334" y2="32.3001" gradientUnits="userSpaceOnUse">
<stop stop-color="#A6C0FE"/>
<stop offset="1" stop-color="#F68084"/>
</linearGradient>
<linearGradient id="paint11_linear_1112_536" x1="17.7333" y1="6.96671" x2="34.1999" y2="6.96671" gradientUnits="userSpaceOnUse">
<stop stop-color="#A6C0FE"/>
<stop offset="1" stop-color="#F68084"/>
</linearGradient>
</defs>
</svg>
