<svg width="38" height="38" viewBox="0 0 38 38" fill="none" xmlns="http://www.w3.org/2000/svg">
<path d="M36.0929 8.87238H32.5241L32.3342 1.88809C32.3213 1.38294 32.1115 0.902826 31.7497 0.550114C31.3878 0.197401 30.9025 0 30.3972 0C29.8919 0 29.4066 0.197401 29.0447 0.550114C28.6829 0.902826 28.4731 1.38294 28.4602 1.88809L28.2639 8.87238H1.89963C1.39581 8.87238 0.912637 9.07252 0.556388 9.42877C0.200139 9.78502 0 10.2682 0 10.772V36.1004C0 36.6042 0.200139 37.0874 0.556388 37.4436C0.912637 37.7999 1.39581 38 1.89963 38H36.0929C36.5967 38 37.0799 37.7999 37.4362 37.4436C37.7924 37.0874 37.9925 36.6042 37.9925 36.1004V10.772C37.9925 10.2682 37.7924 9.78502 37.4362 9.42877C37.0799 9.07252 36.5967 8.87238 36.0929 8.87238ZM30.394 25.969C30.0582 25.969 29.736 25.8356 29.4985 25.5981C29.261 25.3606 29.1276 25.0385 29.1276 24.7026V24.0694H31.6605V24.7026C31.6605 25.0385 31.527 25.3606 31.2895 25.5981C31.052 25.8356 30.7299 25.969 30.394 25.969ZM27.8612 24.7026C27.8633 25.2625 28.0509 25.8059 28.3946 26.2479C28.7382 26.6899 29.2187 27.0056 29.7608 27.1455V27.8687C29.7608 28.0366 29.8275 28.1977 29.9463 28.3164C30.065 28.4352 30.2261 28.5019 30.394 28.5019C30.562 28.5019 30.723 28.4352 30.8418 28.3164C30.9605 28.1977 31.0272 28.0366 31.0272 27.8687V27.1455C31.5694 27.0056 32.0498 26.6899 32.3935 26.2479C32.7372 25.8059 32.9248 25.2625 32.9269 24.7026L32.6293 12.6716H33.5601C33.728 12.6716 33.8891 12.7383 34.0078 12.8571C34.1266 12.9758 34.1933 13.1369 34.1933 13.3048V33.5675C34.1933 33.7355 34.1266 33.8965 34.0078 34.0153C33.8891 34.134 33.728 34.2007 33.5601 34.2007H8.23172C8.06378 34.2007 7.90272 34.134 7.78397 34.0153C7.66522 33.8965 7.59851 33.7355 7.59851 33.5675V13.3048C7.59851 13.1369 7.66522 12.9758 7.78397 12.8571C7.90272 12.7383 8.06378 12.6716 8.23172 12.6716H28.1588L27.8612 24.7026ZM30.394 1.27387C30.5687 1.27299 30.7367 1.34059 30.862 1.46216C30.9874 1.58374 31.0601 1.7496 31.0646 1.92418L31.6427 22.803H29.1453L29.7235 1.92481C29.7278 1.75013 29.8004 1.5841 29.9258 1.46239C30.0512 1.34068 30.2193 1.27299 30.394 1.27387ZM36.7261 36.1004C36.7261 36.2683 36.6594 36.4294 36.5407 36.5481C36.4219 36.6669 36.2609 36.7336 36.0929 36.7336H1.89963C1.73169 36.7336 1.57063 36.6669 1.45188 36.5481C1.33313 36.4294 1.26642 36.2683 1.26642 36.1004V10.772C1.26642 10.6041 1.33313 10.443 1.45188 10.3243C1.57063 10.2055 1.73169 10.1388 1.89963 10.1388H28.2291L28.1936 11.4052H8.23172C7.72791 11.4052 7.24473 11.6054 6.88848 11.9616C6.53223 12.3179 6.33209 12.801 6.33209 13.3048V33.5675C6.33209 34.0714 6.53223 34.5545 6.88848 34.9108C7.24473 35.267 7.72791 35.4672 8.23172 35.4672H33.5601C34.0639 35.4672 34.5471 35.267 34.9033 34.9108C35.2596 34.5545 35.4597 34.0714 35.4597 33.5675V13.3048C35.4597 12.801 35.2596 12.3179 34.9033 11.9616C34.5471 11.6054 34.0639 11.4052 33.5601 11.4052H32.5944L32.559 10.1388H36.0929C36.2609 10.1388 36.4219 10.2055 36.5407 10.3243C36.6594 10.443 36.7261 10.6041 36.7261 10.772V36.1004Z" fill="url(#paint0_linear_1112_526)"/>
<path d="M3.79929 21.5366C3.42358 21.5366 3.0563 21.648 2.74391 21.8568C2.43152 22.0655 2.18804 22.3622 2.04426 22.7093C1.90048 23.0564 1.86286 23.4384 1.93616 23.8068C2.00946 24.1753 2.19038 24.5138 2.45605 24.7795C2.72171 25.0452 3.0602 25.2261 3.42869 25.2994C3.79718 25.3727 4.17913 25.3351 4.52624 25.1913C4.87335 25.0475 5.17003 24.804 5.37877 24.4916C5.5875 24.1792 5.69891 23.812 5.69891 23.4363C5.69891 22.9324 5.49878 22.4493 5.14253 22.093C4.78628 21.7368 4.3031 21.5366 3.79929 21.5366ZM3.79929 24.0695C3.67405 24.0695 3.55162 24.0323 3.44749 23.9627C3.34336 23.8932 3.2622 23.7943 3.21428 23.6786C3.16635 23.5629 3.15381 23.4355 3.17824 23.3127C3.20268 23.1899 3.26298 23.0771 3.35154 22.9885C3.4401 22.8999 3.55292 22.8396 3.67575 22.8152C3.79858 22.7908 3.9259 22.8033 4.04161 22.8512C4.15731 22.8992 4.2562 22.9803 4.32578 23.0845C4.39536 23.1886 4.4325 23.311 4.4325 23.4363C4.4325 23.6042 4.36578 23.7652 4.24703 23.884C4.12828 24.0027 3.96722 24.0695 3.79929 24.0695Z" fill="url(#paint1_linear_1112_526)"/>
<path d="M5.0657 13.938H2.53287C2.36493 13.938 2.20387 14.0047 2.08512 14.1235C1.96637 14.2422 1.89966 14.4033 1.89966 14.5712V19.6369C1.89966 19.8048 1.96637 19.9659 2.08512 20.0846C2.20387 20.2034 2.36493 20.2701 2.53287 20.2701H5.0657C5.23364 20.2701 5.3947 20.2034 5.51345 20.0846C5.6322 19.9659 5.69891 19.8048 5.69891 19.6369V14.5712C5.69891 14.4033 5.6322 14.2422 5.51345 14.1235C5.3947 14.0047 5.23364 13.938 5.0657 13.938ZM3.16608 15.2044H4.43249V16.4708H3.16608V15.2044ZM4.43249 19.0037H3.16608V17.7372H4.43249V19.0037Z" fill="url(#paint2_linear_1112_526)"/>
<path d="M5.0657 26.6022H2.53287C2.36493 26.6022 2.20387 26.6689 2.08512 26.7876C1.96637 26.9064 1.89966 27.0674 1.89966 27.2354V32.3011C1.89966 32.469 1.96637 32.6301 2.08512 32.7488C2.20387 32.8676 2.36493 32.9343 2.53287 32.9343H5.0657C5.23364 32.9343 5.3947 32.8676 5.51345 32.7488C5.6322 32.6301 5.69891 32.469 5.69891 32.3011V27.2354C5.69891 27.0674 5.6322 26.9064 5.51345 26.7876C5.3947 26.6689 5.23364 26.6022 5.0657 26.6022ZM3.16608 27.8686H4.43249V29.135H3.16608V27.8686ZM4.43249 31.6678H3.16608V30.4014H4.43249V31.6678Z" fill="url(#paint3_linear_1112_526)"/>
<path d="M9.49814 17.7372C9.66608 17.7372 9.82714 17.6705 9.94589 17.5518C10.0646 17.433 10.1313 17.272 10.1313 17.104V15.2044H12.031C12.1989 15.2044 12.36 15.1377 12.4787 15.0189C12.5975 14.9002 12.6642 14.7391 12.6642 14.5712C12.6642 14.4033 12.5975 14.2422 12.4787 14.1235C12.36 14.0047 12.1989 13.938 12.031 13.938H9.49814C9.3302 13.938 9.16914 14.0047 9.05039 14.1235C8.93164 14.2422 8.86493 14.4033 8.86493 14.5712V17.104C8.86493 17.272 8.93164 17.433 9.05039 17.5518C9.16914 17.6705 9.3302 17.7372 9.49814 17.7372Z" fill="url(#paint4_linear_1112_526)"/>
<path d="M9.49814 32.9343H12.031C12.1989 32.9343 12.36 32.8676 12.4787 32.7488C12.5975 32.6301 12.6642 32.469 12.6642 32.3011C12.6642 32.1331 12.5975 31.9721 12.4787 31.8533C12.36 31.7346 12.1989 31.6678 12.031 31.6678H10.1313V29.7682C10.1313 29.6003 10.0646 29.4392 9.94589 29.3205C9.82714 29.2017 9.66608 29.135 9.49814 29.135C9.3302 29.135 9.16914 29.2017 9.05039 29.3205C8.93164 29.4392 8.86493 29.6003 8.86493 29.7682V32.3011C8.86493 32.469 8.93164 32.6301 9.05039 32.7488C9.16914 32.8676 9.3302 32.9343 9.49814 32.9343Z" fill="url(#paint5_linear_1112_526)"/>
<path d="M29.7608 32.9343H32.2937C32.4616 32.9343 32.6227 32.8676 32.7414 32.7488C32.8602 32.6301 32.9269 32.469 32.9269 32.3011V29.7682C32.9269 29.6003 32.8602 29.4392 32.7414 29.3205C32.6227 29.2017 32.4616 29.135 32.2937 29.135C32.1257 29.135 31.9647 29.2017 31.8459 29.3205C31.7272 29.4392 31.6605 29.6003 31.6605 29.7682V31.6678H29.7608C29.5929 31.6678 29.4318 31.7346 29.3131 31.8533C29.1943 31.9721 29.1276 32.1331 29.1276 32.3011C29.1276 32.469 29.1943 32.6301 29.3131 32.7488C29.4318 32.8676 29.5929 32.9343 29.7608 32.9343Z" fill="url(#paint6_linear_1112_526)"/>
<defs>
<linearGradient id="paint0_linear_1112_526" x1="0" y1="19" x2="37.9925" y2="19" gradientUnits="userSpaceOnUse">
<stop stop-color="#9890E3"/>
<stop offset="1" stop-color="#B1F4CF"/>
</linearGradient>
<linearGradient id="paint1_linear_1112_526" x1="1.89966" y1="23.4363" x2="5.69891" y2="23.4363" gradientUnits="userSpaceOnUse">
<stop stop-color="#9890E3"/>
<stop offset="1" stop-color="#B1F4CF"/>
</linearGradient>
<linearGradient id="paint2_linear_1112_526" x1="1.89966" y1="17.104" x2="5.69891" y2="17.104" gradientUnits="userSpaceOnUse">
<stop stop-color="#9890E3"/>
<stop offset="1" stop-color="#B1F4CF"/>
</linearGradient>
<linearGradient id="paint3_linear_1112_526" x1="1.89966" y1="29.7682" x2="5.69891" y2="29.7682" gradientUnits="userSpaceOnUse">
<stop stop-color="#9890E3"/>
<stop offset="1" stop-color="#B1F4CF"/>
</linearGradient>
<linearGradient id="paint4_linear_1112_526" x1="8.86493" y1="15.8376" x2="12.6642" y2="15.8376" gradientUnits="userSpaceOnUse">
<stop stop-color="#9890E3"/>
<stop offset="1" stop-color="#B1F4CF"/>
</linearGradient>
<linearGradient id="paint5_linear_1112_526" x1="8.86493" y1="31.0346" x2="12.6642" y2="31.0346" gradientUnits="userSpaceOnUse">
<stop stop-color="#9890E3"/>
<stop offset="1" stop-color="#B1F4CF"/>
</linearGradient>
<linearGradient id="paint6_linear_1112_526" x1="29.1276" y1="31.0346" x2="32.9269" y2="31.0346" gradientUnits="userSpaceOnUse">
<stop stop-color="#9890E3"/>
<stop offset="1" stop-color="#B1F4CF"/>
</linearGradient>
</defs>
</svg>
