<svg width="36" height="36" viewBox="0 0 36 36" fill="none" xmlns="http://www.w3.org/2000/svg">
<path d="M20.9688 12.6562H4.34377C4.18629 12.6562 4.03527 12.5937 3.92392 12.4823C3.81257 12.371 3.75002 12.22 3.75002 12.0625C3.75002 11.7476 3.6249 11.4455 3.4022 11.2228C3.17951 11.0001 2.87746 10.875 2.56252 10.875C2.40504 10.875 2.25402 10.8124 2.14267 10.7011C2.03132 10.5897 1.96877 10.4387 1.96877 10.2812V4.34375C1.96877 4.18628 2.03132 4.03526 2.14267 3.92391C2.25402 3.81256 2.40504 3.75 2.56252 3.75C2.87746 3.75 3.17951 3.62489 3.4022 3.40219C3.6249 3.17949 3.75002 2.87744 3.75002 2.5625C3.75002 2.40503 3.81257 2.25401 3.92392 2.14266C4.03527 2.03131 4.18629 1.96875 4.34377 1.96875H20.9688C21.1262 1.96875 21.2773 2.03131 21.3886 2.14266C21.5 2.25401 21.5625 2.40503 21.5625 2.5625C21.5625 2.87744 21.6876 3.17949 21.9103 3.40219C22.133 3.62489 22.4351 3.75 22.75 3.75C22.9075 3.75 23.0585 3.81256 23.1699 3.92391C23.2812 4.03526 23.3438 4.18628 23.3438 4.34375V10.2812C23.3438 10.4387 23.2812 10.5897 23.1699 10.7011C23.0585 10.8124 22.9075 10.875 22.75 10.875C22.4351 10.875 22.133 11.0001 21.9103 11.2228C21.6876 11.4455 21.5625 11.7476 21.5625 12.0625C21.5625 12.22 21.5 12.371 21.3886 12.4823C21.2773 12.5937 21.1262 12.6562 20.9688 12.6562ZM4.8627 11.4688H20.4498C20.5568 11.0582 20.7713 10.6837 21.0712 10.3837C21.3712 10.0838 21.7458 9.86924 22.1563 9.76231V4.86269C21.7458 4.75576 21.3712 4.54125 21.0712 4.24128C20.7713 3.94132 20.5568 3.56676 20.4498 3.15625H4.8627C4.75577 3.56676 4.54126 3.94132 4.2413 4.24128C3.94133 4.54125 3.56678 4.75576 3.15627 4.86269V9.76231C3.56678 9.86924 3.94133 10.0838 4.2413 10.3837C4.54126 10.6837 4.75577 11.0582 4.8627 11.4688Z" fill="url(#paint0_linear_1112_489)"/>
<path d="M24.5317 14.4375H0.781738C0.624266 14.4375 0.473243 14.3749 0.361894 14.2636C0.250544 14.1522 0.187988 14.0012 0.187988 13.8438V0.78125C0.187988 0.623778 0.250544 0.472755 0.361894 0.361405C0.473243 0.250056 0.624266 0.1875 0.781738 0.1875H24.5317C24.6892 0.1875 24.8402 0.250056 24.9516 0.361405C25.0629 0.472755 25.1255 0.623778 25.1255 0.78125V13.8438C25.1255 14.0012 25.0629 14.1522 24.9516 14.2636C24.8402 14.3749 24.6892 14.4375 24.5317 14.4375ZM1.37549 13.25H23.938V1.375H1.37549V13.25Z" fill="url(#paint1_linear_1112_489)"/>
<path d="M12.6562 10.2812C12.0691 10.2812 11.4951 10.1071 11.0069 9.78092C10.5187 9.45471 10.1382 8.99106 9.91348 8.44859C9.68879 7.90612 9.63 7.30921 9.74454 6.73333C9.85909 6.15745 10.1418 5.62846 10.557 5.21328C10.9722 4.79809 11.5012 4.51534 12.0771 4.4008C12.653 4.28625 13.2499 4.34504 13.7923 4.56973C14.3348 4.79443 14.7985 5.17494 15.1247 5.66315C15.4509 6.15136 15.625 6.72534 15.625 7.3125C15.6241 8.09957 15.311 8.85414 14.7544 9.41068C14.1979 9.96723 13.4433 10.2803 12.6562 10.2812ZM12.6562 5.53125C12.304 5.53125 11.9596 5.63572 11.6666 5.83145C11.3737 6.02717 11.1454 6.30536 11.0106 6.63085C10.8758 6.95633 10.8405 7.31448 10.9092 7.66C10.978 8.00553 11.1476 8.32292 11.3967 8.57203C11.6458 8.82115 11.9632 8.99079 12.3087 9.05952C12.6543 9.12825 13.0124 9.09298 13.3379 8.95816C13.6634 8.82334 13.9416 8.59503 14.1373 8.30211C14.333 8.00918 14.4375 7.6648 14.4375 7.3125C14.4375 6.84008 14.2498 6.38702 13.9158 6.05297C13.5817 5.71892 13.1287 5.53125 12.6562 5.53125Z" fill="url(#paint2_linear_1112_489)"/>
<path d="M19.7812 7.90625H18C17.8425 7.90625 17.6915 7.84369 17.5802 7.73234C17.4688 7.62099 17.4062 7.46997 17.4062 7.3125C17.4062 7.15503 17.4688 7.00401 17.5802 6.89266C17.6915 6.78131 17.8425 6.71875 18 6.71875H19.7812C19.9387 6.71875 20.0897 6.78131 20.2011 6.89266C20.3124 7.00401 20.375 7.15503 20.375 7.3125C20.375 7.46997 20.3124 7.62099 20.2011 7.73234C20.0897 7.84369 19.9387 7.90625 19.7812 7.90625Z" fill="url(#paint3_linear_1112_489)"/>
<path d="M7.3125 7.90625H5.53125C5.37378 7.90625 5.22276 7.84369 5.11141 7.73234C5.00006 7.62099 4.9375 7.46997 4.9375 7.3125C4.9375 7.15503 5.00006 7.00401 5.11141 6.89266C5.22276 6.78131 5.37378 6.71875 5.53125 6.71875H7.3125C7.46997 6.71875 7.62099 6.78131 7.73234 6.89266C7.84369 7.00401 7.90625 7.15503 7.90625 7.3125C7.90625 7.46997 7.84369 7.62099 7.73234 7.73234C7.62099 7.84369 7.46997 7.90625 7.3125 7.90625Z" fill="url(#paint4_linear_1112_489)"/>
<path d="M9.09373 30.4688H3.74998C3.27756 30.4688 2.8245 30.2811 2.49045 29.947C2.1564 29.613 1.96873 29.1599 1.96873 28.6875V20.9687H0.781231C0.672147 20.9688 0.565168 20.9387 0.472036 20.8819C0.378904 20.8251 0.303217 20.7438 0.253284 20.6468C0.20335 20.5498 0.181099 20.4409 0.188973 20.3321C0.196847 20.2233 0.234541 20.1188 0.297919 20.03L3.26667 15.8738C3.3243 15.8008 3.39773 15.7417 3.48144 15.7012C3.56515 15.6606 3.65696 15.6395 3.74998 15.6395C3.843 15.6395 3.93482 15.6606 4.01853 15.7012C4.10223 15.7417 4.17566 15.8008 4.23329 15.8738L7.20204 20.03C7.26542 20.1188 7.30312 20.2233 7.31099 20.3321C7.31886 20.4409 7.29661 20.5498 7.24668 20.6468C7.19675 20.7438 7.12106 20.8251 7.02793 20.8819C6.93479 20.9387 6.82782 20.9688 6.71873 20.9687H5.53123V26.9063H9.09373C9.2512 26.9063 9.40223 26.9688 9.51358 27.0802C9.62493 27.1915 9.68748 27.3425 9.68748 27.5V29.875C9.68748 30.0325 9.62493 30.1835 9.51358 30.2949C9.40223 30.4062 9.2512 30.4688 9.09373 30.4688ZM1.93489 19.7812H2.56248C2.71995 19.7812 2.87098 19.8438 2.98233 19.9552C3.09368 20.0665 3.15623 20.2175 3.15623 20.375V28.6875C3.15623 28.845 3.21879 28.996 3.33014 29.1074C3.44149 29.2187 3.59251 29.2813 3.74998 29.2813H8.49998V28.0938H4.93748C4.78001 28.0938 4.62899 28.0312 4.51764 27.9198C4.40629 27.8085 4.34373 27.6575 4.34373 27.5V20.375C4.34373 20.2175 4.40629 20.0665 4.51764 19.9552C4.62899 19.8438 4.78001 19.7812 4.93748 19.7812H5.56508L3.74998 17.2406L1.93489 19.7812Z" fill="url(#paint5_linear_1112_489)"/>
<path d="M32.8438 21.5625H13.8438C13.0564 21.5625 12.3013 21.8753 11.7445 22.432C11.1878 22.9888 10.875 23.7439 10.875 24.5312V32.8438C10.875 33.6311 11.1878 34.3862 11.7445 34.943C12.3013 35.4997 13.0564 35.8125 13.8438 35.8125H32.8438C33.6311 35.8125 34.3862 35.4997 34.943 34.943C35.4997 34.3862 35.8125 33.6311 35.8125 32.8438V24.5312C35.8125 23.7439 35.4997 22.9888 34.943 22.432C34.3862 21.8753 33.6311 21.5625 32.8438 21.5625ZM13.8438 22.75H32.8438C33.211 22.7519 33.5688 22.8669 33.8684 23.0794C34.168 23.2919 34.3949 23.5915 34.5181 23.9375H12.1694C12.2926 23.5915 12.5195 23.2919 12.8191 23.0794C13.1187 22.8669 13.4765 22.7519 13.8438 22.75ZM34.625 32.8438C34.6236 33.3157 34.4355 33.768 34.1017 34.1017C33.768 34.4355 33.3157 34.6236 32.8438 34.625H13.8438C13.3718 34.6236 12.9195 34.4355 12.5858 34.1017C12.252 33.768 12.0639 33.3157 12.0625 32.8438V27.5H34.625V32.8438ZM34.625 26.3125H12.0625V25.125H34.625V26.3125Z" fill="url(#paint6_linear_1112_489)"/>
<path d="M26.9063 9.09375H30.4688V15.0313H29.2813C29.1722 15.0312 29.0652 15.0613 28.9721 15.1181C28.8789 15.1749 28.8032 15.2562 28.7533 15.3532C28.7034 15.4502 28.6811 15.5591 28.689 15.6679C28.6969 15.7767 28.7346 15.8812 28.798 15.97L31.7667 20.1262C31.8216 20.2032 31.8941 20.2659 31.9782 20.3092C32.0623 20.3525 32.1555 20.3751 32.25 20.3751C32.3446 20.3751 32.4378 20.3525 32.5218 20.3092C32.6059 20.2659 32.6784 20.2032 32.7333 20.1262L35.7021 15.97C35.7655 15.8812 35.8031 15.7767 35.811 15.6679C35.8189 15.5591 35.7966 15.4502 35.7467 15.3532C35.6968 15.2562 35.6211 15.1749 35.528 15.1181C35.4348 15.0613 35.3278 15.0312 35.2188 15.0313H34.0313V7.3125C34.0313 6.84008 33.8436 6.38702 33.5095 6.05297C33.1755 5.71892 32.7224 5.53125 32.25 5.53125H26.9063C26.7488 5.53125 26.5978 5.59381 26.4864 5.70516C26.3751 5.81651 26.3125 5.96753 26.3125 6.125V8.5C26.3125 8.65747 26.3751 8.8085 26.4864 8.91985C26.5978 9.0312 26.7488 9.09375 26.9063 9.09375ZM27.5 6.71875H32.25C32.4075 6.71875 32.5585 6.78131 32.6699 6.89266C32.7812 7.00401 32.8438 7.15503 32.8438 7.3125V15.625C32.8438 15.7825 32.9063 15.9335 33.0177 16.0448C33.129 16.1562 33.28 16.2188 33.4375 16.2188H34.0651L32.25 18.7594L30.4349 16.2188H31.0625C31.22 16.2188 31.371 16.1562 31.4824 16.0448C31.5937 15.9335 31.6563 15.7825 31.6563 15.625V8.5C31.6563 8.34253 31.5937 8.19151 31.4824 8.08016C31.371 7.96881 31.22 7.90625 31.0625 7.90625H27.5V6.71875Z" fill="url(#paint7_linear_1112_489)"/>
<path d="M31.0624 28.6874C30.5195 28.6881 29.9933 28.8756 29.5721 29.2182C29.2237 28.9354 28.8022 28.7572 28.3566 28.7041C27.9109 28.651 27.4594 28.7252 27.0542 28.9182C26.6491 29.1112 26.3069 29.4151 26.0673 29.7945C25.8278 30.174 25.7006 30.6136 25.7006 31.0624C25.7006 31.5112 25.8278 31.9508 26.0673 32.3302C26.3069 32.7097 26.6491 33.0136 27.0542 33.2066C27.4594 33.3996 27.9109 33.4738 28.3566 33.4207C28.8022 33.3676 29.2237 33.1894 29.5721 32.9066C29.8675 33.1463 30.2162 33.3115 30.5888 33.3884C30.9613 33.4653 31.3469 33.4515 31.7131 33.3483C32.0792 33.2451 32.4152 33.0554 32.6928 32.7953C32.9703 32.5351 33.1813 32.2121 33.308 31.8534C33.4347 31.4947 33.4734 31.1108 33.4208 30.734C33.3682 30.3573 33.2259 29.9986 33.0058 29.6884C32.7857 29.3781 32.4943 29.1252 32.1561 28.951C31.8179 28.7768 31.4429 28.6864 31.0624 28.6874ZM28.0937 32.2499C27.8588 32.2499 27.6292 32.1802 27.434 32.0498C27.2387 31.9193 27.0865 31.7338 26.9966 31.5168C26.9067 31.2998 26.8832 31.0611 26.929 30.8307C26.9748 30.6004 27.0879 30.3888 27.254 30.2227C27.4201 30.0566 27.6317 29.9435 27.862 29.8977C28.0924 29.8519 28.3311 29.8754 28.5481 29.9653C28.7651 30.0552 28.9506 30.2074 29.0811 30.4026C29.2115 30.5979 29.2812 30.8275 29.2812 31.0624C29.2812 31.3773 29.1561 31.6794 28.9334 31.9021C28.7107 32.1248 28.4086 32.2499 28.0937 32.2499ZM31.0624 32.2499C30.7786 32.2506 30.5043 32.1481 30.2906 31.9613C30.4089 31.6764 30.4699 31.3709 30.4699 31.0624C30.4699 30.7539 30.4089 30.4484 30.2906 30.1635C30.5043 29.9767 30.7786 29.8742 31.0624 29.8749C31.3774 29.8749 31.6794 30 31.9021 30.2227C32.1248 30.4454 32.2499 30.7474 32.2499 31.0624C32.2499 31.3773 32.1248 31.6794 31.9021 31.9021C31.6794 32.1248 31.3774 32.2499 31.0624 32.2499Z" fill="url(#paint8_linear_1112_489)"/>
<path d="M22.75 29.875H15.0313C14.8738 29.875 14.7228 29.9376 14.6114 30.0489C14.5001 30.1603 14.4375 30.3113 14.4375 30.4688V32.25C14.4375 32.4075 14.5001 32.5585 14.6114 32.6698C14.7228 32.7812 14.8738 32.8438 15.0313 32.8438H22.75C22.9075 32.8438 23.0585 32.7812 23.1698 32.6698C23.2812 32.5585 23.3438 32.4075 23.3438 32.25V30.4688C23.3438 30.3113 23.2812 30.1603 23.1698 30.0489C23.0585 29.9376 22.9075 29.875 22.75 29.875ZM22.1563 31.6562H15.625V31.0625H22.1563V31.6562Z" fill="url(#paint9_linear_1112_489)"/>
<defs>
<linearGradient id="paint0_linear_1112_489" x1="1.96877" y1="7.3125" x2="23.3438" y2="7.3125" gradientUnits="userSpaceOnUse">
<stop stop-color="#9890E3"/>
<stop offset="1" stop-color="#B1F4CF"/>
</linearGradient>
<linearGradient id="paint1_linear_1112_489" x1="0.187988" y1="7.3125" x2="25.1255" y2="7.3125" gradientUnits="userSpaceOnUse">
<stop stop-color="#9890E3"/>
<stop offset="1" stop-color="#B1F4CF"/>
</linearGradient>
<linearGradient id="paint2_linear_1112_489" x1="9.6875" y1="7.3125" x2="15.625" y2="7.3125" gradientUnits="userSpaceOnUse">
<stop stop-color="#9890E3"/>
<stop offset="1" stop-color="#B1F4CF"/>
</linearGradient>
<linearGradient id="paint3_linear_1112_489" x1="17.4062" y1="7.3125" x2="20.375" y2="7.3125" gradientUnits="userSpaceOnUse">
<stop stop-color="#9890E3"/>
<stop offset="1" stop-color="#B1F4CF"/>
</linearGradient>
<linearGradient id="paint4_linear_1112_489" x1="4.9375" y1="7.3125" x2="7.90625" y2="7.3125" gradientUnits="userSpaceOnUse">
<stop stop-color="#9890E3"/>
<stop offset="1" stop-color="#B1F4CF"/>
</linearGradient>
<linearGradient id="paint5_linear_1112_489" x1="0.187424" y1="23.0541" x2="9.68748" y2="23.0541" gradientUnits="userSpaceOnUse">
<stop stop-color="#9890E3"/>
<stop offset="1" stop-color="#B1F4CF"/>
</linearGradient>
<linearGradient id="paint6_linear_1112_489" x1="10.875" y1="28.6875" x2="35.8125" y2="28.6875" gradientUnits="userSpaceOnUse">
<stop stop-color="#9890E3"/>
<stop offset="1" stop-color="#B1F4CF"/>
</linearGradient>
<linearGradient id="paint7_linear_1112_489" x1="26.3125" y1="12.9532" x2="35.8126" y2="12.9532" gradientUnits="userSpaceOnUse">
<stop stop-color="#9890E3"/>
<stop offset="1" stop-color="#B1F4CF"/>
</linearGradient>
<linearGradient id="paint8_linear_1112_489" x1="25.7006" y1="31.0624" x2="33.4436" y2="31.0624" gradientUnits="userSpaceOnUse">
<stop stop-color="#9890E3"/>
<stop offset="1" stop-color="#B1F4CF"/>
</linearGradient>
<linearGradient id="paint9_linear_1112_489" x1="14.4375" y1="31.3594" x2="23.3438" y2="31.3594" gradientUnits="userSpaceOnUse">
<stop stop-color="#9890E3"/>
<stop offset="1" stop-color="#B1F4CF"/>
</linearGradient>
</defs>
</svg>
