<svg width="42" height="37" viewBox="0 0 42 37" fill="none" xmlns="http://www.w3.org/2000/svg">
<path opacity="0.7" d="M39.0556 0H2.05556C1.51089 0.00162669 0.988995 0.218716 0.603855 0.603855C0.218716 0.988994 0.00162669 1.51089 0 2.05556V26.7222C0.00162669 27.2669 0.218716 27.7888 0.603855 28.1739C0.988995 28.5591 1.51089 28.7762 2.05556 28.7778H15.7593V31.5185H13.0185C12.4739 31.5201 11.952 31.7372 11.5668 32.1224C11.1817 32.5075 10.9646 33.0294 10.963 33.5741V36.3148C10.963 36.4965 11.0352 36.6708 11.1636 36.7993C11.2921 36.9278 11.4664 37 11.6481 37H29.463C29.6447 37 29.819 36.9278 29.9475 36.7993C30.076 36.6708 30.1481 36.4965 30.1481 36.3148V33.5741C30.1465 33.0294 29.9294 32.5075 29.5443 32.1224C29.1592 31.7372 28.6373 31.5201 28.0926 31.5185H25.3519V28.7778H39.0556C39.6002 28.7762 40.1221 28.5591 40.5073 28.1739C40.8924 27.7888 41.1095 27.2669 41.1111 26.7222V2.05556C41.1095 1.51089 40.8924 0.988994 40.5073 0.603855C40.1221 0.218716 39.6002 0.00162669 39.0556 0ZM28.0926 32.8889C28.2743 32.8889 28.4486 32.9611 28.5771 33.0896C28.7056 33.2181 28.7778 33.3924 28.7778 33.5741V35.6296H12.3333V33.5741C12.3333 33.3924 12.4055 33.2181 12.534 33.0896C12.6625 32.9611 12.8368 32.8889 13.0185 32.8889H28.0926ZM17.1296 31.5185V28.7778H23.9815V31.5185H17.1296ZM39.7407 26.7222C39.7407 26.9039 39.6685 27.0782 39.5401 27.2067C39.4116 27.3352 39.2373 27.4074 39.0556 27.4074H2.05556C1.87383 27.4074 1.69955 27.3352 1.57106 27.2067C1.44256 27.0782 1.37037 26.9039 1.37037 26.7222V24.6667H39.7407V26.7222ZM39.7407 23.2963H1.37037V2.05556C1.37037 1.87383 1.44256 1.69955 1.57106 1.57106C1.69955 1.44256 1.87383 1.37037 2.05556 1.37037H39.0556C39.2373 1.37037 39.4116 1.44256 39.5401 1.57106C39.6685 1.69955 39.7407 1.87383 39.7407 2.05556V23.2963Z" fill="url(#paint0_linear_1112_402)"/>
<path opacity="0.7" d="M38.3702 4.86987H2.74057C2.55885 4.86987 2.38457 4.94206 2.25608 5.07056C2.12758 5.19906 2.05539 5.37334 2.05539 5.55506V24.7402C2.05539 24.922 2.12758 25.0962 2.25608 25.2247C2.38457 25.3532 2.55885 25.4254 2.74057 25.4254H38.3702C38.5519 25.4254 38.7262 25.3532 38.8547 25.2247C38.9832 25.0962 39.0554 24.922 39.0554 24.7402V5.55506C39.0554 5.37334 38.9832 5.19906 38.8547 5.07056C38.7262 4.94206 38.5519 4.86987 38.3702 4.86987ZM22.6109 24.0551V17.8884C22.6114 17.4378 22.7608 16.9999 23.0359 16.643C23.311 16.2861 23.6964 16.0302 24.1321 15.9151L25.6806 23.1575C25.6806 23.1643 25.6806 23.1643 25.6874 23.1643L25.8724 24.0551H22.6109ZM26.2972 19.4849L25.5161 15.8328H26.2287L26.7015 17.2512L26.2972 19.4849ZM28.9078 24.0551H27.2771L27.0509 22.9999L27.9759 17.8884H28.2089L29.1339 22.9999L28.9078 24.0551ZM27.6745 15.8328H28.5104L28.2843 16.518H27.9006L27.6745 15.8328ZM29.4834 17.2512L29.9561 15.8328H30.6687L29.8876 19.4849L29.4834 17.2512ZM33.5739 24.0551H30.3124L30.4974 23.1643C30.5043 23.1643 30.5043 23.1643 30.5043 23.1575L32.0528 15.9151C32.4885 16.0302 32.8738 16.2861 33.1489 16.643C33.424 16.9999 33.5735 17.4378 33.5739 17.8884V24.0551ZM37.685 24.0551H34.9443V17.8884C34.9443 16.9798 34.5833 16.1084 33.9408 15.4659C33.2984 14.8234 32.427 14.4625 31.5184 14.4625H24.6665C23.7579 14.4625 22.8865 14.8234 22.244 15.4659C21.6015 16.1084 21.2406 16.9798 21.2406 17.8884V24.0551H3.42576V6.24024H37.685V24.0551Z" fill="url(#paint1_linear_1112_402)"/>
<path d="M36.455 26.4355H35.0847C34.9029 26.4355 34.7287 26.5077 34.6002 26.6362C34.4717 26.7647 34.3995 26.939 34.3995 27.1207C34.3995 27.3025 34.4717 27.4767 34.6002 27.6052C34.7287 27.7337 34.9029 27.8059 35.0847 27.8059H36.455C36.6368 27.8059 36.811 27.7337 36.9395 27.6052C37.068 27.4767 37.1402 27.3025 37.1402 27.1207C37.1402 26.939 37.068 26.7647 36.9395 26.6362C36.811 26.5077 36.6368 26.4355 36.455 26.4355Z" fill="url(#paint2_linear_1112_402)"/>
<path opacity="0.7" d="M16.0949 8.38493C15.9903 8.32536 15.8718 8.29461 15.7514 8.29581C15.631 8.29701 15.5131 8.33013 15.4097 8.39179L13.0184 9.82382V9.66623C13.0184 9.48451 12.9462 9.31023 12.8177 9.18173C12.6892 9.05323 12.515 8.98105 12.3332 8.98105H6.85175C6.67003 8.98105 6.49575 9.05323 6.36725 9.18173C6.23875 9.31023 6.16656 9.48451 6.16656 9.66623V13.7773C6.16656 13.9591 6.23875 14.1333 6.36725 14.2618C6.49575 14.3903 6.67003 14.4625 6.85175 14.4625H12.3332C12.515 14.4625 12.6892 14.3903 12.8177 14.2618C12.9462 14.1333 13.0184 13.9591 13.0184 13.7773V13.6198L15.4097 15.0518C15.5155 15.1145 15.6362 15.1477 15.7592 15.1477C15.8771 15.1491 15.9932 15.1183 16.0949 15.0586C16.2011 14.9996 16.2896 14.9131 16.351 14.8083C16.4125 14.7035 16.4447 14.5841 16.4443 14.4625V8.98105C16.4447 8.85952 16.4125 8.74012 16.351 8.63527C16.2896 8.53043 16.2011 8.44398 16.0949 8.38493ZM11.648 13.0922H7.53694V10.3514H11.648V13.0922ZM15.074 13.2497L13.0184 12.0164V11.4272L15.074 10.1938V13.2497Z" fill="url(#paint3_linear_1112_402)"/>
<path opacity="0.7" d="M31.5183 11.0366C31.5183 10.3591 31.3174 9.69669 30.9409 9.1333C30.5645 8.56991 30.0294 8.1308 29.4034 7.8715C28.7774 7.6122 28.0886 7.54436 27.424 7.67655C26.7594 7.80874 26.149 8.13503 25.6699 8.61415C25.1908 9.09327 24.8645 9.70372 24.7323 10.3683C24.6001 11.0328 24.6679 11.7217 24.9272 12.3477C25.1865 12.9737 25.6256 13.5088 26.189 13.8852C26.7524 14.2616 27.4148 14.4626 28.0924 14.4626C29.0006 14.4615 29.8714 14.1002 30.5137 13.4579C31.1559 12.8157 31.5172 11.9449 31.5183 11.0366ZM28.0924 13.0922C27.6858 13.0922 27.2884 12.9716 26.9504 12.7458C26.6123 12.5199 26.3489 12.1989 26.1933 11.8233C26.0377 11.4477 25.997 11.0344 26.0763 10.6356C26.1556 10.2369 26.3514 9.87062 26.6389 9.58315C26.9263 9.29567 27.2926 9.0999 27.6914 9.02059C28.0901 8.94127 28.5034 8.98198 28.879 9.13756C29.2546 9.29314 29.5756 9.55661 29.8015 9.89464C30.0274 10.2327 30.1479 10.6301 30.1479 11.0366C30.1479 11.5818 29.9314 12.1047 29.5459 12.4901C29.1604 12.8756 28.6375 13.0922 28.0924 13.0922Z" fill="url(#paint4_linear_1112_402)"/>
<defs>
<linearGradient id="paint0_linear_1112_402" x1="0" y1="18.5" x2="41.1111" y2="18.5" gradientUnits="userSpaceOnUse">
<stop stop-color="#A3BDED"/>
<stop offset="1" stop-color="#6991C7"/>
</linearGradient>
<linearGradient id="paint1_linear_1112_402" x1="2.05539" y1="15.1476" x2="39.0554" y2="15.1476" gradientUnits="userSpaceOnUse">
<stop stop-color="#A3BDED"/>
<stop offset="1" stop-color="#6991C7"/>
</linearGradient>
<linearGradient id="paint2_linear_1112_402" x1="34.3995" y1="27.1207" x2="37.1402" y2="27.1207" gradientUnits="userSpaceOnUse">
<stop stop-color="#A3BDED"/>
<stop offset="1" stop-color="#6991C7"/>
</linearGradient>
<linearGradient id="paint3_linear_1112_402" x1="6.16656" y1="11.7218" x2="16.4443" y2="11.7218" gradientUnits="userSpaceOnUse">
<stop stop-color="#A3BDED"/>
<stop offset="1" stop-color="#6991C7"/>
</linearGradient>
<linearGradient id="paint4_linear_1112_402" x1="24.6664" y1="11.0366" x2="31.5183" y2="11.0366" gradientUnits="userSpaceOnUse">
<stop stop-color="#A3BDED"/>
<stop offset="1" stop-color="#6991C7"/>
</linearGradient>
</defs>
</svg>
