<svg width="38" height="38" viewBox="0 0 38 38" fill="none" xmlns="http://www.w3.org/2000/svg">
<path d="M15.4447 14.9468L16.7748 15.744C17.0738 15.9166 17.456 15.8176 17.6339 15.5217C17.8117 15.2258 17.7198 14.8417 17.427 14.6586L16.2515 13.9526C16.8187 12.9874 17.1119 11.8859 17.1001 10.7667C17.1001 7.97303 15.3959 5.70007 13.3001 5.70007C11.2043 5.70007 9.50009 7.97303 9.50009 10.7667C9.50009 13.5605 11.2043 15.8334 13.3001 15.8334C14.1014 15.8198 14.8677 15.5031 15.4447 14.9468ZM10.7668 10.7667C10.7668 8.70717 11.927 6.96674 13.3001 6.96674C14.6731 6.96674 15.8334 8.70717 15.8334 10.7667C15.843 11.6558 15.6123 12.5313 15.1661 13.3001L14.2597 12.7567C13.9606 12.5842 13.5784 12.6831 13.4006 12.9791C13.2225 13.275 13.3146 13.6591 13.6075 13.8422L14.2894 14.2513C13.9981 14.452 13.6539 14.5618 13.3001 14.5667C11.927 14.5667 10.7668 12.8263 10.7668 10.7667Z" fill="url(#paint0_linear_1122_794)"/>
<path d="M25.2967 21.3207C25.2071 21.0683 24.968 20.8998 24.7002 20.8998C24.4324 20.8998 24.1937 21.0683 24.1037 21.3207L20.937 30.1873C20.8195 30.5167 20.9914 30.8791 21.3208 30.9966C21.6504 31.1142 22.0125 30.9425 22.1301 30.6129L23.1113 27.8668H26.2894L27.2703 30.6129C27.3603 30.8652 27.5991 31.0334 27.8669 31.0334C28.0728 31.0334 28.2661 30.9336 28.3845 30.765C28.5033 30.5968 28.5327 30.3812 28.4634 30.1873L25.2967 21.3207ZM23.5634 26.6001L24.7002 23.4164L25.8404 26.6001H23.5634Z" fill="url(#paint1_linear_1122_794)"/>
<path d="M35.4847 31.3729C37.0977 29.5233 37.9908 27.1545 38.0001 24.7C38.0001 18.9527 32.9563 14.1235 26.3892 13.4088C26.5286 12.7483 26.5994 12.0751 26.6001 11.4C26.6001 5.11429 20.6341 0 13.3001 0C5.96604 0 9.15242e-05 5.11429 9.15242e-05 11.4C0.00998735 13.6569 0.770729 15.846 2.16233 17.6226L0.041221 23.2085C-0.0326883 23.403 -0.00609337 23.6216 0.112038 23.793C0.230479 23.9643 0.425303 24.0666 0.633424 24.0666C0.720631 24.0663 0.80691 24.0484 0.886696 24.0135L6.86934 21.3827C8.36361 22.0844 9.96673 22.5266 11.6097 22.6899C11.4706 23.3507 11.4004 24.0246 11.4001 24.7C11.4001 30.986 17.366 36.1 24.7001 36.1C26.7309 36.1046 28.7419 35.7014 30.6134 34.9137L37.0989 37.9406C37.337 38.0516 37.6188 38.0043 37.8074 37.8215C37.996 37.6388 38.0523 37.3586 37.9487 37.1171L35.4847 31.3729ZM6.62998 20.1052L1.76217 22.2452L3.47198 17.7364C3.55238 17.5246 3.51373 17.2861 3.37024 17.1108C2.02441 15.5108 1.28067 13.4908 1.26676 11.4C1.26676 5.81287 6.66462 1.26667 13.3001 1.26667C19.9355 1.26667 25.3334 5.81287 25.3334 11.4C25.3334 12.209 25.2177 13.0139 24.9901 13.7901C23.6867 18.3496 18.8767 21.5333 13.3001 21.5333C13.0146 21.5333 12.7339 21.5277 12.437 21.503C10.6047 21.4081 8.8114 20.9371 7.169 20.1191C7.00015 20.0344 6.80254 20.0295 6.62998 20.1052ZM30.8896 33.6452C30.7223 33.5669 30.5293 33.566 30.3608 33.6421C28.5789 34.4334 26.6499 34.8395 24.7001 34.8333C18.0646 34.8333 12.6667 30.2874 12.6667 24.7C12.6671 24.0589 12.7394 23.4197 12.8829 22.795C13.0215 22.8 13.1603 22.8 13.3001 22.8C13.6777 22.8 14.0519 22.7864 14.4223 22.7595C14.5491 22.7505 14.67 22.7323 14.795 22.7202C15.038 22.6967 15.2817 22.6754 15.5214 22.641C15.6689 22.6194 15.8127 22.5891 15.9583 22.5637C16.1705 22.5269 16.3839 22.4929 16.5917 22.4471C16.7466 22.4137 16.8975 22.3707 17.05 22.3327C17.2445 22.2839 17.4402 22.2378 17.6317 22.1818C17.7872 22.1363 17.9387 22.0819 18.0924 22.0312C18.2743 21.9709 18.4573 21.9134 18.6355 21.8469C18.7892 21.7894 18.9388 21.7241 19.0901 21.6613C19.2605 21.5911 19.4321 21.5219 19.5966 21.4461C19.7475 21.3762 19.8932 21.2995 20.0401 21.2256C20.1996 21.1458 20.3598 21.0667 20.5151 20.981C20.6703 20.8957 20.802 20.8134 20.944 20.7277C21.0856 20.6424 21.2421 20.5499 21.3871 20.4553C21.5322 20.361 21.6614 20.2654 21.7969 20.1705C21.9326 20.0755 22.0724 19.9747 22.206 19.8721C22.3396 19.7694 22.4645 19.663 22.5916 19.5554C22.719 19.4478 22.8452 19.3426 22.968 19.2319C23.0908 19.1209 23.2086 19.0043 23.3264 18.8887C23.4442 18.7727 23.559 18.6592 23.6697 18.5408C23.7807 18.4223 23.8902 18.2965 23.9972 18.1715C24.1042 18.0469 24.2068 17.9254 24.3067 17.7992C24.4069 17.6733 24.5043 17.5388 24.6002 17.4064C24.6957 17.2741 24.7901 17.1442 24.8751 17.01C24.9598 16.8758 25.0486 16.7372 25.1284 16.5978C25.2082 16.4586 25.291 16.3185 25.3671 16.1753C25.4432 16.0322 25.514 15.8918 25.583 15.7473C25.6519 15.6029 25.7212 15.4495 25.7849 15.2983C25.8489 15.1468 25.9043 15.0061 25.9593 14.8549C25.9871 14.7788 26.0224 14.7067 26.0478 14.63C32.0811 15.2 36.7334 19.5415 36.7334 24.7C36.7182 26.98 35.8403 29.1698 34.2761 30.8289C34.1091 31.0123 34.0649 31.2767 34.1626 31.5046L36.1301 36.0904L30.8896 33.6452Z" fill="url(#paint2_linear_1122_794)"/>
<defs>
<linearGradient id="paint0_linear_1122_794" x1="9.50009" y1="10.7667" x2="17.7244" y2="10.7667" gradientUnits="userSpaceOnUse">
<stop stop-color="#9890E3"/>
<stop offset="1" stop-color="#B1F4CF"/>
</linearGradient>
<linearGradient id="paint1_linear_1122_794" x1="20.9" y1="25.9667" x2="28.5003" y2="25.9667" gradientUnits="userSpaceOnUse">
<stop stop-color="#9890E3"/>
<stop offset="1" stop-color="#B1F4CF"/>
</linearGradient>
<linearGradient id="paint2_linear_1122_794" x1="0" y1="19" x2="38.0001" y2="19" gradientUnits="userSpaceOnUse">
<stop stop-color="#9890E3"/>
<stop offset="1" stop-color="#B1F4CF"/>
</linearGradient>
</defs>
</svg>
