<svg width="37" height="37" viewBox="0 0 37 37" fill="none" xmlns="http://www.w3.org/2000/svg">
<mask id="path-1-inside-1_1112_570" fill="white">
<path d="M33.5405 25.5447C34.0307 25.0312 34.3593 24.3852 34.4856 23.6867C34.6119 22.9882 34.5304 22.268 34.2512 21.6154C33.972 20.9629 33.5073 20.4066 32.9148 20.0157C32.3224 19.6248 31.6282 19.4164 30.9184 19.4164C30.2085 19.4164 29.5143 19.6248 28.9219 20.0157C28.3294 20.4066 27.8647 20.9629 27.5855 21.6154C27.3063 22.268 27.2248 22.9882 27.3511 23.6867C27.4774 24.3852 27.806 25.0312 28.2962 25.5447C27.3339 25.7335 26.467 26.2504 25.8434 27.0072C25.2197 27.7639 24.878 28.7136 24.8765 29.6942V36.3403C24.8765 36.5006 24.9401 36.6542 25.0534 36.7675C25.1667 36.8808 25.3204 36.9445 25.4807 36.9445H36.3561C36.5163 36.9445 36.67 36.8808 36.7833 36.7675C36.8966 36.6542 36.9602 36.5006 36.9602 36.3403V29.6942C36.9587 28.7136 36.617 27.7639 35.9934 27.0072C35.3697 26.2504 34.5028 25.7335 33.5405 25.5447ZM31.5225 26.6733V27.2775H30.3142V26.6733H31.5225ZM31.4935 33.0976L30.9184 33.6734L30.3426 33.0976L30.8579 28.4859H30.9788L31.4935 33.0976ZM30.9184 20.6314C31.3963 20.6314 31.8636 20.7731 32.261 21.0387C32.6585 21.3043 32.9682 21.6817 33.1511 22.1233C33.3341 22.5649 33.3819 23.0508 33.2887 23.5196C33.1954 23.9884 32.9652 24.4191 32.6273 24.7571C32.2893 25.0951 31.8586 25.3252 31.3898 25.4185C30.921 25.5117 30.4351 25.4639 29.9935 25.2809C29.5519 25.098 29.1745 24.7883 28.9089 24.3908C28.6433 23.9934 28.5016 23.5261 28.5016 23.0482C28.5016 22.4072 28.7562 21.7925 29.2094 21.3393C29.6627 20.886 30.2774 20.6314 30.9184 20.6314ZM35.7519 35.7361H34.5435V30.2984C34.5435 30.1382 34.4798 29.9845 34.3665 29.8712C34.2532 29.7579 34.0995 29.6942 33.9393 29.6942C33.7791 29.6942 33.6254 29.7579 33.5121 29.8712C33.3988 29.9845 33.3351 30.1382 33.3351 30.2984V35.7361H28.5016V30.2984C28.5016 30.1382 28.4379 29.9845 28.3246 29.8712C28.2113 29.7579 28.0576 29.6942 27.8974 29.6942C27.7372 29.6942 27.5835 29.7579 27.4702 29.8712C27.3569 29.9845 27.2932 30.1382 27.2932 30.2984V35.7361H26.0848V29.6942C26.0858 28.8933 26.4044 28.1255 26.9707 27.5592C27.537 26.9928 28.3049 26.6743 29.1058 26.6733V27.2775C29.1063 27.4792 29.1573 27.6777 29.2542 27.8547C29.3511 28.0316 29.4907 28.1816 29.6604 28.2907L29.1094 33.2529C29.0995 33.3429 29.1099 33.434 29.1399 33.5195C29.1699 33.6049 29.2188 33.6825 29.2828 33.7465L30.4912 34.9549C30.6045 35.0682 30.7581 35.1318 30.9184 35.1318C31.0786 35.1318 31.2322 35.0682 31.3455 34.9549L32.5539 33.7465C32.6179 33.6825 32.6668 33.6049 32.6968 33.5195C32.7268 33.434 32.7372 33.3429 32.7273 33.2529L32.1763 28.2907C32.346 28.1816 32.4856 28.0316 32.5825 27.8547C32.6794 27.6777 32.7304 27.4792 32.7309 27.2775V26.6733C33.5318 26.6743 34.2997 26.9928 34.866 27.5592C35.4323 28.1255 35.7509 28.8933 35.7519 29.6942V35.7361Z"/>
</mask>
<path d="M33.5405 25.5447C34.0307 25.0312 34.3593 24.3852 34.4856 23.6867C34.6119 22.9882 34.5304 22.268 34.2512 21.6154C33.972 20.9629 33.5073 20.4066 32.9148 20.0157C32.3224 19.6248 31.6282 19.4164 30.9184 19.4164C30.2085 19.4164 29.5143 19.6248 28.9219 20.0157C28.3294 20.4066 27.8647 20.9629 27.5855 21.6154C27.3063 22.268 27.2248 22.9882 27.3511 23.6867C27.4774 24.3852 27.806 25.0312 28.2962 25.5447C27.3339 25.7335 26.467 26.2504 25.8434 27.0072C25.2197 27.7639 24.878 28.7136 24.8765 29.6942V36.3403C24.8765 36.5006 24.9401 36.6542 25.0534 36.7675C25.1667 36.8808 25.3204 36.9445 25.4807 36.9445H36.3561C36.5163 36.9445 36.67 36.8808 36.7833 36.7675C36.8966 36.6542 36.9602 36.5006 36.9602 36.3403V29.6942C36.9587 28.7136 36.617 27.7639 35.9934 27.0072C35.3697 26.2504 34.5028 25.7335 33.5405 25.5447ZM31.5225 26.6733V27.2775H30.3142V26.6733H31.5225ZM31.4935 33.0976L30.9184 33.6734L30.3426 33.0976L30.8579 28.4859H30.9788L31.4935 33.0976ZM30.9184 20.6314C31.3963 20.6314 31.8636 20.7731 32.261 21.0387C32.6585 21.3043 32.9682 21.6817 33.1511 22.1233C33.3341 22.5649 33.3819 23.0508 33.2887 23.5196C33.1954 23.9884 32.9652 24.4191 32.6273 24.7571C32.2893 25.0951 31.8586 25.3252 31.3898 25.4185C30.921 25.5117 30.4351 25.4639 29.9935 25.2809C29.5519 25.098 29.1745 24.7883 28.9089 24.3908C28.6433 23.9934 28.5016 23.5261 28.5016 23.0482C28.5016 22.4072 28.7562 21.7925 29.2094 21.3393C29.6627 20.886 30.2774 20.6314 30.9184 20.6314ZM35.7519 35.7361H34.5435V30.2984C34.5435 30.1382 34.4798 29.9845 34.3665 29.8712C34.2532 29.7579 34.0995 29.6942 33.9393 29.6942C33.7791 29.6942 33.6254 29.7579 33.5121 29.8712C33.3988 29.9845 33.3351 30.1382 33.3351 30.2984V35.7361H28.5016V30.2984C28.5016 30.1382 28.4379 29.9845 28.3246 29.8712C28.2113 29.7579 28.0576 29.6942 27.8974 29.6942C27.7372 29.6942 27.5835 29.7579 27.4702 29.8712C27.3569 29.9845 27.2932 30.1382 27.2932 30.2984V35.7361H26.0848V29.6942C26.0858 28.8933 26.4044 28.1255 26.9707 27.5592C27.537 26.9928 28.3049 26.6743 29.1058 26.6733V27.2775C29.1063 27.4792 29.1573 27.6777 29.2542 27.8547C29.3511 28.0316 29.4907 28.1816 29.6604 28.2907L29.1094 33.2529C29.0995 33.3429 29.1099 33.434 29.1399 33.5195C29.1699 33.6049 29.2188 33.6825 29.2828 33.7465L30.4912 34.9549C30.6045 35.0682 30.7581 35.1318 30.9184 35.1318C31.0786 35.1318 31.2322 35.0682 31.3455 34.9549L32.5539 33.7465C32.6179 33.6825 32.6668 33.6049 32.6968 33.5195C32.7268 33.434 32.7372 33.3429 32.7273 33.2529L32.1763 28.2907C32.346 28.1816 32.4856 28.0316 32.5825 27.8547C32.6794 27.6777 32.7304 27.4792 32.7309 27.2775V26.6733C33.5318 26.6743 34.2997 26.9928 34.866 27.5592C35.4323 28.1255 35.7509 28.8933 35.7519 29.6942V35.7361Z" fill="#F2F2F2"/>
<path d="M33.5405 25.5447L27.7539 20.0207L17.6712 30.5828L31.9999 33.3949L33.5405 25.5447ZM28.2962 25.5447L29.8368 33.3949L44.1656 30.5828L34.0828 20.0207L28.2962 25.5447ZM24.8765 29.6942L16.8765 29.6819V29.6942H24.8765ZM36.9602 29.6942H44.9603L44.9602 29.6819L36.9602 29.6942ZM31.5225 26.6733H39.5225V18.6733H31.5225V26.6733ZM31.5225 27.2775V35.2775H39.5225V27.2775H31.5225ZM30.3142 27.2775H22.3142V35.2775H30.3142V27.2775ZM30.3142 26.6733V18.6733H22.3142V26.6733H30.3142ZM31.4935 33.0976L37.1534 38.7515L39.8707 36.0313L39.4442 32.2102L31.4935 33.0976ZM30.9184 33.6734L25.2615 39.3303L30.9213 44.9901L36.5782 39.3273L30.9184 33.6734ZM30.3426 33.0976L22.3921 32.2092L21.9647 36.0335L24.6857 38.7545L30.3426 33.0976ZM30.8579 28.4859V20.4859H23.7021L22.9074 27.5974L30.8579 28.4859ZM30.9788 28.4859L38.9294 27.5984L38.1355 20.4859H30.9788V28.4859ZM35.7519 35.7361V43.7361H43.7519V35.7361H35.7519ZM34.5435 35.7361H26.5435V43.7361H34.5435V35.7361ZM33.3351 35.7361V43.7361H41.3351V35.7361H33.3351ZM28.5016 35.7361H20.5016V43.7361H28.5016V35.7361ZM27.2932 35.7361V43.7361H35.2932V35.7361H27.2932ZM26.0848 35.7361H18.0848V43.7361H26.0848V35.7361ZM26.0848 29.6942L18.0848 29.6847V29.6942H26.0848ZM29.1058 26.6733H37.1058V18.6637L29.0962 18.6733L29.1058 26.6733ZM29.1058 27.2775H21.1058V27.2876L21.1058 27.2977L29.1058 27.2775ZM29.6604 28.2907L37.6116 29.1736L38.1588 24.2452L33.9884 21.5625L29.6604 28.2907ZM29.1094 33.2529L21.1583 32.37L21.1577 32.3749L29.1094 33.2529ZM29.2828 33.7465L34.9397 28.0897L34.9385 28.0885L29.2828 33.7465ZM30.4912 34.9549L24.8343 40.6118L24.8352 40.6126L30.4912 34.9549ZM31.3455 34.9549L37.0015 40.6126L37.0024 40.6118L31.3455 34.9549ZM32.5539 33.7465L26.8982 28.0885L26.897 28.0897L32.5539 33.7465ZM32.7273 33.2529L40.679 32.3749L40.6784 32.37L32.7273 33.2529ZM32.1763 28.2907L27.8483 21.5625L23.6779 24.2452L24.2251 29.1736L32.1763 28.2907ZM32.7309 27.2775L40.7309 27.2977L40.7309 27.2876V27.2775H32.7309ZM32.7309 26.6733L32.7405 18.6733L24.7309 18.6637V26.6733H32.7309ZM35.7519 29.6942H43.7519L43.7519 29.6847L35.7519 29.6942ZM39.3272 31.0687C40.899 29.4222 41.9527 27.3505 42.3579 25.1106L26.6133 22.2629C26.7658 21.4199 27.1624 20.6403 27.7539 20.0207L39.3272 31.0687ZM42.3579 25.1106C42.763 22.8707 42.5016 20.5611 41.6062 18.4684L26.8962 24.7625C26.5592 23.975 26.4609 23.1058 26.6133 22.2629L42.3579 25.1106ZM41.6062 18.4684C40.7108 16.3756 39.2206 14.5918 37.3207 13.3382L28.509 26.6931C27.794 26.2214 27.2332 25.5501 26.8962 24.7625L41.6062 18.4684ZM37.3207 13.3382C35.4208 12.0846 33.1946 11.4164 30.9184 11.4164V27.4164C30.0617 27.4164 29.224 27.1649 28.509 26.6931L37.3207 13.3382ZM30.9184 11.4164C28.6421 11.4164 26.4159 12.0846 24.516 13.3382L33.3277 26.6931C32.6127 27.1649 31.775 27.4164 30.9184 27.4164V11.4164ZM24.516 13.3382C22.6161 14.5918 21.1259 16.3756 20.2305 18.4684L34.9405 24.7625C34.6035 25.5501 34.0427 26.2214 33.3277 26.6931L24.516 13.3382ZM20.2305 18.4684C19.3351 20.5611 19.0737 22.8707 19.4788 25.1106L35.2234 22.2629C35.3758 23.1058 35.2775 23.975 34.9405 24.7625L20.2305 18.4684ZM19.4788 25.1106C19.884 27.3505 20.9378 29.4222 22.5095 31.0687L34.0828 20.0207C34.6743 20.6403 35.0709 21.4199 35.2234 22.2629L19.4788 25.1106ZM26.7555 17.6944C23.9757 18.24 21.4713 19.7332 19.6697 21.9194L32.017 32.095C31.4627 32.7676 30.6921 33.2271 29.8368 33.3949L26.7555 17.6944ZM19.6697 21.9194C17.868 24.1055 16.8808 26.8491 16.8765 29.6819L32.8765 29.7065C32.8751 30.5782 32.5714 31.4223 32.017 32.095L19.6697 21.9194ZM16.8765 29.6942V36.3403H32.8765V29.6942H16.8765ZM16.8765 36.3403C16.8765 38.6223 17.783 40.8108 19.3966 42.4244L30.7103 31.1107C32.0973 32.4977 32.8765 34.3788 32.8765 36.3403H16.8765ZM19.3966 42.4244C21.0102 44.038 23.1987 44.9445 25.4807 44.9445V28.9445C27.4421 28.9445 29.3233 29.7237 30.7103 31.1107L19.3966 42.4244ZM25.4807 44.9445H36.3561V28.9445H25.4807V44.9445ZM36.3561 44.9445C38.638 44.9445 40.8265 44.038 42.4401 42.4244L31.1264 31.1107C32.5134 29.7237 34.3946 28.9445 36.3561 28.9445V44.9445ZM42.4401 42.4244C44.0537 40.8108 44.9602 38.6223 44.9602 36.3403H28.9602C28.9602 34.3788 29.7394 32.4977 31.1264 31.1107L42.4401 42.4244ZM44.9602 36.3403V29.6942H28.9602V36.3403H44.9602ZM44.9602 29.6819C44.9559 26.8491 43.9687 24.1055 42.167 21.9194L29.8197 32.095C29.2653 31.4223 28.9616 30.5782 28.9603 29.7065L44.9602 29.6819ZM42.167 21.9194C40.3654 19.7332 37.861 18.24 35.0812 17.6944L31.9999 33.3949C31.1446 33.2271 30.374 32.7676 29.8197 32.095L42.167 21.9194ZM23.5225 26.6733V27.2775H39.5225V26.6733H23.5225ZM31.5225 19.2775H30.3142V35.2775H31.5225V19.2775ZM38.3142 27.2775V26.6733H22.3142V27.2775H38.3142ZM30.3142 34.6733H31.5225V18.6733H30.3142V34.6733ZM25.8337 27.4437L25.2585 28.0195L36.5782 39.3273L37.1534 38.7515L25.8337 27.4437ZM36.5752 28.0166L35.9994 27.4408L24.6857 38.7545L25.2615 39.3303L36.5752 28.0166ZM38.2931 33.9861L38.8084 29.3743L22.9074 27.5974L22.3921 32.2092L38.2931 33.9861ZM30.8579 36.4859H30.9788V20.4859H30.8579V36.4859ZM23.0281 29.3733L23.5429 33.9851L39.4442 32.2102L38.9294 27.5984L23.0281 29.3733ZM30.9184 28.6314C29.8141 28.6314 28.7346 28.304 27.8165 27.6905L36.7056 14.3869C34.9926 13.2423 32.9786 12.6314 30.9184 12.6314V28.6314ZM27.8165 27.6905C26.8983 27.077 26.1827 26.205 25.7601 25.1848L40.5422 19.0618C39.7538 17.1584 38.4186 15.5316 36.7056 14.3869L27.8165 27.6905ZM25.7601 25.1848C25.3375 24.1646 25.227 23.042 25.4424 21.9589L41.135 25.0804C41.5369 23.0597 41.3306 20.9653 40.5422 19.0618L25.7601 25.1848ZM25.4424 21.9589C25.6578 20.8759 26.1896 19.881 26.9704 19.1002L38.2841 30.4139C39.7409 28.9571 40.733 27.101 41.135 25.0804L25.4424 21.9589ZM26.9704 19.1002C27.7512 18.3194 28.7461 17.7876 29.8291 17.5722L32.9506 33.2648C34.9712 32.8628 36.8273 31.8707 38.2841 30.4139L26.9704 19.1002ZM29.8291 17.5722C30.9122 17.3568 32.0348 17.4673 33.055 17.8899L26.932 32.672C28.8354 33.4604 30.9299 33.6667 32.9506 33.2648L29.8291 17.5722ZM33.055 17.8899C34.0752 18.3125 34.9472 19.0281 35.5607 19.9463L22.2571 28.8354C23.4017 30.5484 25.0286 31.8836 26.932 32.672L33.055 17.8899ZM35.5607 19.9463C36.1741 20.8644 36.5016 21.9439 36.5016 23.0482H20.5016C20.5016 25.1084 21.1125 27.1224 22.2571 28.8354L35.5607 19.9463ZM36.5016 23.0482C36.5016 24.5289 35.9134 25.949 34.8663 26.9961L23.5526 15.6824C21.5991 17.6359 20.5016 20.2855 20.5016 23.0482H36.5016ZM34.8663 26.9961C33.8192 28.0432 32.3991 28.6314 30.9184 28.6314V12.6314C28.1557 12.6314 25.5061 13.7289 23.5526 15.6824L34.8663 26.9961ZM35.7519 27.7361H34.5435V43.7361H35.7519V27.7361ZM42.5435 35.7361V30.2984H26.5435V35.7361H42.5435ZM42.5435 30.2984C42.5435 28.0165 41.637 25.828 40.0234 24.2143L28.7097 35.5281C27.3227 34.1411 26.5435 32.2599 26.5435 30.2984H42.5435ZM40.0234 24.2143C38.4098 22.6007 36.2212 21.6942 33.9393 21.6942V37.6942C31.9778 37.6942 30.0967 36.9151 28.7097 35.5281L40.0234 24.2143ZM33.9393 21.6942C31.6573 21.6942 29.4688 22.6007 27.8552 24.2143L39.1689 35.5281C37.7819 36.9151 35.9008 37.6942 33.9393 37.6942V21.6942ZM27.8552 24.2143C26.2416 25.828 25.3351 28.0165 25.3351 30.2984H41.3351C41.3351 32.2599 40.5559 34.1411 39.1689 35.5281L27.8552 24.2143ZM25.3351 30.2984V35.7361H41.3351V30.2984H25.3351ZM33.3351 27.7361H28.5016V43.7361H33.3351V27.7361ZM36.5016 35.7361V30.2984H20.5016V35.7361H36.5016ZM36.5016 30.2984C36.5016 28.0165 35.5951 25.828 33.9815 24.2143L22.6678 35.5281C21.2808 34.1411 20.5016 32.2599 20.5016 30.2984H36.5016ZM33.9815 24.2143C32.3679 22.6007 30.1794 21.6942 27.8974 21.6942V37.6942C25.9359 37.6942 24.0548 36.9151 22.6678 35.5281L33.9815 24.2143ZM27.8974 21.6942C25.6155 21.6942 23.4269 22.6007 21.8133 24.2143L33.127 35.5281C31.74 36.9151 29.8589 37.6942 27.8974 37.6942V21.6942ZM21.8133 24.2143C20.1997 25.828 19.2932 28.0165 19.2932 30.2984H35.2932C35.2932 32.2599 34.514 34.1411 33.127 35.5281L21.8133 24.2143ZM19.2932 30.2984V35.7361H35.2932V30.2984H19.2932ZM27.2932 27.7361H26.0848V43.7361H27.2932V27.7361ZM34.0848 35.7361V29.6942H18.0848V35.7361H34.0848ZM34.0848 29.7038C34.0833 31.0213 33.5592 32.2844 32.6276 33.216L21.3139 21.9023C19.2496 23.9666 18.0883 26.7653 18.0848 29.6847L34.0848 29.7038ZM32.6276 33.216C31.696 34.1476 30.4329 34.6717 29.1154 34.6733L29.0962 18.6733C26.1769 18.6768 23.3781 19.838 21.3139 21.9023L32.6276 33.216ZM21.1058 26.6733V27.2775H37.1058V26.6733H21.1058ZM21.1058 27.2977C21.1097 28.8352 21.4985 30.3473 22.2368 31.696L36.2716 24.0133C36.8161 25.008 37.1029 26.1233 37.1058 27.2573L21.1058 27.2977ZM22.2368 31.696C22.9751 33.0447 24.0393 34.1871 25.3325 35.0189L33.9884 21.5625C34.9421 22.176 35.7271 23.0186 36.2716 24.0133L22.2368 31.696ZM21.7093 27.4078L21.1583 32.37L37.0605 34.1358L37.6116 29.1736L21.7093 27.4078ZM21.1577 32.3749C21.0162 33.6568 21.1646 34.9541 21.5921 36.1709L36.6877 30.868C37.0552 31.9139 37.1827 33.029 37.0611 34.1309L21.1577 32.3749ZM21.5921 36.1709C22.0195 37.3876 22.715 38.4928 23.6271 39.4046L34.9385 28.0885C35.7226 28.8722 36.3204 29.8222 36.6877 30.868L21.5921 36.1709ZM23.626 39.4034L24.8343 40.6118L36.148 29.2981L34.9397 28.0897L23.626 39.4034ZM24.8352 40.6126C26.4487 42.2257 28.6369 43.1318 30.9184 43.1318V27.1318C32.8794 27.1318 34.7603 27.9107 36.1472 29.2972L24.8352 40.6126ZM30.9184 43.1318C33.1999 43.1318 35.388 42.2257 37.0015 40.6126L25.6895 29.2972C27.0764 27.9107 28.9573 27.1318 30.9184 27.1318V43.1318ZM37.0024 40.6118L38.2107 39.4034L26.897 28.0897L25.6887 29.2981L37.0024 40.6118ZM38.2096 39.4046C39.1217 38.4928 39.8172 37.3876 40.2446 36.1709L25.149 30.868C25.5163 29.8222 26.1142 28.8722 26.8982 28.0885L38.2096 39.4046ZM40.2446 36.1709C40.6721 34.9541 40.8205 33.6568 40.679 32.3749L24.7756 34.1309C24.654 33.029 24.7815 31.9139 25.149 30.868L40.2446 36.1709ZM40.6784 32.37L40.1274 27.4078L24.2251 29.1736L24.7762 34.1358L40.6784 32.37ZM36.5042 35.0189C37.7974 34.1871 38.8616 33.0447 39.5999 31.696L25.5651 24.0133C26.1096 23.0186 26.8946 22.176 27.8483 21.5625L36.5042 35.0189ZM39.5999 31.696C40.3382 30.3473 40.727 28.8352 40.7309 27.2977L24.7309 27.2573C24.7338 26.1233 25.0206 25.008 25.5651 24.0133L39.5999 31.696ZM40.7309 27.2775V26.6733H24.7309V27.2775H40.7309ZM32.7213 34.6733C31.4038 34.6717 30.1407 34.1476 29.2091 33.216L40.5228 21.9023C38.4586 19.838 35.6598 18.6768 32.7405 18.6733L32.7213 34.6733ZM29.2091 33.216C28.2775 32.2844 27.7534 31.0213 27.7519 29.7038L43.7519 29.6847C43.7484 26.7653 42.5871 23.9666 40.5228 21.9023L29.2091 33.216ZM27.7519 29.6942V35.7361H43.7519V29.6942H27.7519Z" fill="url(#paint0_linear_1112_570)" mask="url(#path-1-inside-1_1112_570)"/>
<mask id="path-3-inside-2_1112_570" fill="white">
<path d="M33.5405 6.81481C34.0307 6.30137 34.3593 5.65535 34.4856 4.95686C34.612 4.25838 34.5305 3.53818 34.2512 2.88559C33.972 2.233 33.5073 1.67675 32.9149 1.28583C32.3224 0.894908 31.6282 0.686523 30.9184 0.686523C30.2085 0.686523 29.5144 0.894908 28.9219 1.28583C28.3294 1.67675 27.8647 2.233 27.5855 2.88559C27.3063 3.53818 27.2248 4.25838 27.3511 4.95686C27.4774 5.65535 27.8061 6.30137 28.2962 6.81481C27.3339 7.00365 26.467 7.52055 25.8434 8.2773C25.2197 9.03405 24.878 9.98376 24.8765 10.9644V12.9582C24.0113 12.18 22.9186 11.701 21.7601 11.5921C22.3697 11.0081 22.7906 10.255 22.9685 9.42981C23.1465 8.60458 23.0735 7.74497 22.7588 6.96161C22.4441 6.17825 21.9022 5.50699 21.2028 5.03421C20.5034 4.56144 19.6785 4.3088 18.8343 4.3088C17.9901 4.3088 17.1652 4.56144 16.4658 5.03421C15.7664 5.50699 15.2245 6.17825 14.9098 6.96161C14.5951 7.74497 14.522 8.60458 14.7 9.42981C14.878 10.255 15.2989 11.0081 15.9085 11.5921C14.7502 11.7011 13.6577 12.1801 12.7927 12.9582V10.9644C12.7912 9.98376 12.4495 9.03405 11.8258 8.2773C11.2022 7.52055 10.3353 7.00365 9.37299 6.81481C9.86312 6.30137 10.1917 5.65535 10.3181 4.95686C10.4444 4.25838 10.3629 3.53818 10.0837 2.88559C9.80444 2.233 9.33977 1.67675 8.7473 1.28583C8.15483 0.894908 7.46063 0.686523 6.75081 0.686523C6.041 0.686523 5.3468 0.894908 4.75433 1.28583C4.16186 1.67675 3.69719 2.233 3.41796 2.88559C3.13873 3.53818 3.05722 4.25838 3.18356 4.95686C3.30989 5.65535 3.6385 6.30137 4.12863 6.81481C3.16637 7.00365 2.29946 7.52055 1.67581 8.2773C1.05216 9.03405 0.710431 9.98376 0.708923 10.9644V17.6105C0.708923 17.7707 0.772579 17.9244 0.885886 18.0377C0.999194 18.151 1.15287 18.2146 1.31311 18.2146H10.9801V24.8607C10.9801 25.021 11.0438 25.1746 11.1571 25.2879C11.2704 25.4013 11.4241 25.4649 11.5843 25.4649H14.0011V36.3403C14.0011 36.5005 14.0647 36.6542 14.178 36.7675C14.2913 36.8808 14.445 36.9445 14.6053 36.9445H23.0639C23.2242 36.9445 23.3778 36.8808 23.4911 36.7675C23.6044 36.6542 23.6681 36.5005 23.6681 36.3403V25.4649H26.0849C26.2451 25.4649 26.3988 25.4013 26.5121 25.2879C26.6254 25.1746 26.689 25.021 26.689 24.8607V18.2146H36.3561C36.5163 18.2146 36.67 18.151 36.7833 18.0377C36.8966 17.9244 36.9603 17.7707 36.9603 17.6105V10.9644C36.9587 9.98376 36.617 9.03405 35.9934 8.2773C35.3697 7.52055 34.5028 7.00365 33.5405 6.81481ZM30.9184 1.90154C31.3964 1.90154 31.8636 2.04328 32.261 2.30884C32.6585 2.5744 32.9682 2.95184 33.1512 3.39345C33.3341 3.83505 33.3819 4.32098 33.2887 4.78978C33.1954 5.25859 32.9653 5.68921 32.6273 6.0272C32.2893 6.36519 31.8587 6.59537 31.3899 6.68862C30.921 6.78187 30.4351 6.73401 29.9935 6.55109C29.5519 6.36817 29.1745 6.05841 28.9089 5.66098C28.6434 5.26354 28.5016 4.79629 28.5016 4.3183C28.5016 3.67734 28.7562 3.06262 29.2095 2.60939C29.6627 2.15617 30.2774 1.90154 30.9184 1.90154ZM30.3142 8.54762V7.94343H31.5226V8.54762H30.3142ZM31.4942 14.3678L30.9184 14.9436L30.3426 14.3678L30.8579 9.756H30.9788L31.4942 14.3678ZM15.8136 8.54762C15.8136 7.95013 15.9908 7.36607 16.3228 6.86927C16.6547 6.37248 17.1265 5.98528 17.6785 5.75663C18.2305 5.52798 18.8379 5.46816 19.4239 5.58472C20.01 5.70129 20.5482 5.989 20.9707 6.41149C21.3932 6.83398 21.6809 7.37226 21.7975 7.95826C21.9141 8.54427 21.8542 9.15168 21.6256 9.70369C21.3969 10.2557 21.0097 10.7275 20.5129 11.0594C20.0161 11.3914 19.4321 11.5686 18.8346 11.5686C18.0337 11.5676 17.2658 11.249 16.6995 10.6827C16.1332 10.1164 15.8146 9.34853 15.8136 8.54762ZM19.4388 13.3811H18.2304C18.0702 13.3811 17.9165 13.3175 17.8032 13.2042C17.6899 13.0909 17.6262 12.9372 17.6262 12.7769H20.043C20.043 12.9372 19.9793 13.0909 19.866 13.2042C19.7527 13.3175 19.599 13.3811 19.4388 13.3811ZM20.0055 20.4804L18.8346 22.041L17.6637 20.4804L18.7343 14.5895H18.9349L20.0055 20.4804ZM6.75081 1.90154C7.2288 1.90154 7.69606 2.04328 8.09349 2.30884C8.49092 2.5744 8.80068 2.95184 8.9836 3.39345C9.16652 3.83505 9.21438 4.32098 9.12113 4.78978C9.02788 5.25859 8.79771 5.68921 8.45972 6.0272C8.12173 6.36519 7.6911 6.59537 7.2223 6.68862C6.75349 6.78187 6.26756 6.73401 5.82596 6.55109C5.38436 6.36817 5.00691 6.05841 4.74135 5.66098C4.4758 5.26354 4.33406 4.79629 4.33406 4.3183C4.33406 3.67734 4.58868 3.06262 5.04191 2.60939C5.49514 2.15617 6.10985 1.90154 6.75081 1.90154ZM6.14662 8.54762V7.94343H7.355V8.54762H6.14662ZM7.3266 14.3678L6.75081 14.9436L6.17502 14.3678L6.69039 9.756H6.81727L7.3266 14.3678ZM11.5843 14.5206C11.1866 15.2888 10.9794 16.1413 10.9801 17.0063H10.3759V11.5686C10.3759 11.4083 10.3123 11.2546 10.199 11.1413C10.0857 11.028 9.932 10.9644 9.77176 10.9644C9.61152 10.9644 9.45784 11.028 9.34453 11.1413C9.23122 11.2546 9.16757 11.4083 9.16757 11.5686V17.0063H4.33406V11.5686C4.33406 11.4083 4.2704 11.2546 4.15709 11.1413C4.04379 11.028 3.89011 10.9644 3.72987 10.9644C3.56963 10.9644 3.41595 11.028 3.30264 11.1413C3.18933 11.2546 3.12568 11.4083 3.12568 11.5686V17.0063H1.9173V10.9644C1.91826 10.1635 2.23685 9.39563 2.80317 8.82931C3.3695 8.26298 4.13734 7.94439 4.93825 7.94343V8.54762C4.93872 8.74955 4.98979 8.94813 5.08678 9.12523C5.18378 9.30234 5.32361 9.45231 5.49349 9.56145L4.94187 14.523C4.93193 14.6131 4.94236 14.7042 4.97237 14.7896C5.00239 14.875 5.05122 14.9526 5.11527 15.0167L6.32365 16.225C6.43695 16.3383 6.5906 16.4019 6.75081 16.4019C6.91102 16.4019 7.06467 16.3383 7.17797 16.225L8.38635 15.0167C8.4504 14.9526 8.49924 14.875 8.52925 14.7896C8.55927 14.7042 8.56969 14.6131 8.55975 14.523L8.00813 9.56145C8.17802 9.45231 8.31785 9.30234 8.41484 9.12523C8.51184 8.94813 8.5629 8.74955 8.56338 8.54762V7.94343C9.36429 7.94439 10.1321 8.26298 10.6985 8.82931C11.2648 9.39563 11.5834 10.1635 11.5843 10.9644V14.5206ZM25.4807 24.2565H23.6681V16.4021C23.6681 16.2418 23.6044 16.0882 23.4911 15.9748C23.3778 15.8615 23.2242 15.7979 23.0639 15.7979C22.9037 15.7979 22.75 15.8615 22.6367 15.9748C22.5234 16.0882 22.4597 16.2418 22.4597 16.4021V35.7361H19.4388V26.0691C19.4388 25.9089 19.3751 25.7552 19.2618 25.6419C19.1485 25.5286 18.9948 25.4649 18.8346 25.4649C18.6743 25.4649 18.5207 25.5286 18.4074 25.6419C18.2941 25.7552 18.2304 25.9089 18.2304 26.0691V35.7361H15.2095V16.4021C15.2095 16.2418 15.1458 16.0882 15.0325 15.9748C14.9192 15.8615 14.7655 15.7979 14.6053 15.7979C14.445 15.7979 14.2913 15.8615 14.178 15.9748C14.0647 16.0882 14.0011 16.2418 14.0011 16.4021V24.2565H12.1885V17.0063C12.1898 15.885 12.6358 14.81 13.4287 14.0171C14.2215 13.2242 15.2965 12.7782 16.4178 12.7769C16.418 13.1344 16.5238 13.4839 16.7221 13.7813C16.9203 14.0788 17.2021 14.311 17.532 14.4487L16.4275 20.5232C16.4126 20.6051 16.4148 20.6892 16.4339 20.7702C16.4531 20.8512 16.4887 20.9273 16.5387 20.9939L18.3512 23.4107C18.4075 23.4857 18.4805 23.5466 18.5644 23.5886C18.6483 23.6305 18.7408 23.6523 18.8346 23.6523C18.9284 23.6523 19.0209 23.6305 19.1048 23.5886C19.1887 23.5466 19.2617 23.4857 19.3179 23.4107L21.1305 20.9939C21.1803 20.9273 21.2159 20.8511 21.2349 20.7701C21.2539 20.6891 21.256 20.6051 21.2411 20.5232L20.1366 14.4487C20.4666 14.3111 20.7485 14.0789 20.9468 13.7814C21.1452 13.484 21.2511 13.1345 21.2513 12.7769C22.3726 12.7782 23.4476 13.2242 24.2405 14.0171C25.0334 14.81 25.4794 15.885 25.4807 17.0063V24.2565ZM35.7519 17.0063H34.5435V11.5686C34.5435 11.4083 34.4798 11.2546 34.3665 11.1413C34.2532 11.028 34.0996 10.9644 33.9393 10.9644C33.7791 10.9644 33.6254 11.028 33.5121 11.1413C33.3988 11.2546 33.3351 11.4083 33.3351 11.5686V17.0063H28.5016V11.5686C28.5016 11.4083 28.438 11.2546 28.3246 11.1413C28.2113 11.028 28.0577 10.9644 27.8974 10.9644C27.7372 10.9644 27.5835 11.028 27.4702 11.1413C27.3569 11.2546 27.2932 11.4083 27.2932 11.5686V17.0063H26.689C26.6898 16.1413 26.4826 15.2888 26.0849 14.5206V10.9644C26.0858 10.1635 26.4044 9.39563 26.9707 8.82931C27.5371 8.26298 28.3049 7.94439 29.1058 7.94343V8.54762C29.1063 8.74939 29.1573 8.94781 29.2542 9.1248C29.3511 9.30178 29.4908 9.45169 29.6604 9.56085L29.1094 14.523C29.0995 14.6131 29.1099 14.7042 29.1399 14.7896C29.1699 14.875 29.2188 14.9526 29.2828 15.0167L30.4912 16.225C30.6045 16.3383 30.7582 16.4019 30.9184 16.4019C31.0786 16.4019 31.2322 16.3383 31.3455 16.225L32.5539 15.0167C32.618 14.9526 32.6668 14.875 32.6968 14.7896C32.7268 14.7042 32.7372 14.6131 32.7273 14.523L32.1763 9.56085C32.346 9.45169 32.4856 9.30178 32.5825 9.1248C32.6794 8.94781 32.7304 8.74939 32.7309 8.54762V7.94343C33.5318 7.94439 34.2997 8.26298 34.866 8.82931C35.4323 9.39563 35.7509 10.1635 35.7519 10.9644V17.0063Z"/>
</mask>
<path d="M33.5405 6.81481C34.0307 6.30137 34.3593 5.65535 34.4856 4.95686C34.612 4.25838 34.5305 3.53818 34.2512 2.88559C33.972 2.233 33.5073 1.67675 32.9149 1.28583C32.3224 0.894908 31.6282 0.686523 30.9184 0.686523C30.2085 0.686523 29.5144 0.894908 28.9219 1.28583C28.3294 1.67675 27.8647 2.233 27.5855 2.88559C27.3063 3.53818 27.2248 4.25838 27.3511 4.95686C27.4774 5.65535 27.8061 6.30137 28.2962 6.81481C27.3339 7.00365 26.467 7.52055 25.8434 8.2773C25.2197 9.03405 24.878 9.98376 24.8765 10.9644V12.9582C24.0113 12.18 22.9186 11.701 21.7601 11.5921C22.3697 11.0081 22.7906 10.255 22.9685 9.42981C23.1465 8.60458 23.0735 7.74497 22.7588 6.96161C22.4441 6.17825 21.9022 5.50699 21.2028 5.03421C20.5034 4.56144 19.6785 4.3088 18.8343 4.3088C17.9901 4.3088 17.1652 4.56144 16.4658 5.03421C15.7664 5.50699 15.2245 6.17825 14.9098 6.96161C14.5951 7.74497 14.522 8.60458 14.7 9.42981C14.878 10.255 15.2989 11.0081 15.9085 11.5921C14.7502 11.7011 13.6577 12.1801 12.7927 12.9582V10.9644C12.7912 9.98376 12.4495 9.03405 11.8258 8.2773C11.2022 7.52055 10.3353 7.00365 9.37299 6.81481C9.86312 6.30137 10.1917 5.65535 10.3181 4.95686C10.4444 4.25838 10.3629 3.53818 10.0837 2.88559C9.80444 2.233 9.33977 1.67675 8.7473 1.28583C8.15483 0.894908 7.46063 0.686523 6.75081 0.686523C6.041 0.686523 5.3468 0.894908 4.75433 1.28583C4.16186 1.67675 3.69719 2.233 3.41796 2.88559C3.13873 3.53818 3.05722 4.25838 3.18356 4.95686C3.30989 5.65535 3.6385 6.30137 4.12863 6.81481C3.16637 7.00365 2.29946 7.52055 1.67581 8.2773C1.05216 9.03405 0.710431 9.98376 0.708923 10.9644V17.6105C0.708923 17.7707 0.772579 17.9244 0.885886 18.0377C0.999194 18.151 1.15287 18.2146 1.31311 18.2146H10.9801V24.8607C10.9801 25.021 11.0438 25.1746 11.1571 25.2879C11.2704 25.4013 11.4241 25.4649 11.5843 25.4649H14.0011V36.3403C14.0011 36.5005 14.0647 36.6542 14.178 36.7675C14.2913 36.8808 14.445 36.9445 14.6053 36.9445H23.0639C23.2242 36.9445 23.3778 36.8808 23.4911 36.7675C23.6044 36.6542 23.6681 36.5005 23.6681 36.3403V25.4649H26.0849C26.2451 25.4649 26.3988 25.4013 26.5121 25.2879C26.6254 25.1746 26.689 25.021 26.689 24.8607V18.2146H36.3561C36.5163 18.2146 36.67 18.151 36.7833 18.0377C36.8966 17.9244 36.9603 17.7707 36.9603 17.6105V10.9644C36.9587 9.98376 36.617 9.03405 35.9934 8.2773C35.3697 7.52055 34.5028 7.00365 33.5405 6.81481ZM30.9184 1.90154C31.3964 1.90154 31.8636 2.04328 32.261 2.30884C32.6585 2.5744 32.9682 2.95184 33.1512 3.39345C33.3341 3.83505 33.3819 4.32098 33.2887 4.78978C33.1954 5.25859 32.9653 5.68921 32.6273 6.0272C32.2893 6.36519 31.8587 6.59537 31.3899 6.68862C30.921 6.78187 30.4351 6.73401 29.9935 6.55109C29.5519 6.36817 29.1745 6.05841 28.9089 5.66098C28.6434 5.26354 28.5016 4.79629 28.5016 4.3183C28.5016 3.67734 28.7562 3.06262 29.2095 2.60939C29.6627 2.15617 30.2774 1.90154 30.9184 1.90154ZM30.3142 8.54762V7.94343H31.5226V8.54762H30.3142ZM31.4942 14.3678L30.9184 14.9436L30.3426 14.3678L30.8579 9.756H30.9788L31.4942 14.3678ZM15.8136 8.54762C15.8136 7.95013 15.9908 7.36607 16.3228 6.86927C16.6547 6.37248 17.1265 5.98528 17.6785 5.75663C18.2305 5.52798 18.8379 5.46816 19.4239 5.58472C20.01 5.70129 20.5482 5.989 20.9707 6.41149C21.3932 6.83398 21.6809 7.37226 21.7975 7.95826C21.9141 8.54427 21.8542 9.15168 21.6256 9.70369C21.3969 10.2557 21.0097 10.7275 20.5129 11.0594C20.0161 11.3914 19.4321 11.5686 18.8346 11.5686C18.0337 11.5676 17.2658 11.249 16.6995 10.6827C16.1332 10.1164 15.8146 9.34853 15.8136 8.54762ZM19.4388 13.3811H18.2304C18.0702 13.3811 17.9165 13.3175 17.8032 13.2042C17.6899 13.0909 17.6262 12.9372 17.6262 12.7769H20.043C20.043 12.9372 19.9793 13.0909 19.866 13.2042C19.7527 13.3175 19.599 13.3811 19.4388 13.3811ZM20.0055 20.4804L18.8346 22.041L17.6637 20.4804L18.7343 14.5895H18.9349L20.0055 20.4804ZM6.75081 1.90154C7.2288 1.90154 7.69606 2.04328 8.09349 2.30884C8.49092 2.5744 8.80068 2.95184 8.9836 3.39345C9.16652 3.83505 9.21438 4.32098 9.12113 4.78978C9.02788 5.25859 8.79771 5.68921 8.45972 6.0272C8.12173 6.36519 7.6911 6.59537 7.2223 6.68862C6.75349 6.78187 6.26756 6.73401 5.82596 6.55109C5.38436 6.36817 5.00691 6.05841 4.74135 5.66098C4.4758 5.26354 4.33406 4.79629 4.33406 4.3183C4.33406 3.67734 4.58868 3.06262 5.04191 2.60939C5.49514 2.15617 6.10985 1.90154 6.75081 1.90154ZM6.14662 8.54762V7.94343H7.355V8.54762H6.14662ZM7.3266 14.3678L6.75081 14.9436L6.17502 14.3678L6.69039 9.756H6.81727L7.3266 14.3678ZM11.5843 14.5206C11.1866 15.2888 10.9794 16.1413 10.9801 17.0063H10.3759V11.5686C10.3759 11.4083 10.3123 11.2546 10.199 11.1413C10.0857 11.028 9.932 10.9644 9.77176 10.9644C9.61152 10.9644 9.45784 11.028 9.34453 11.1413C9.23122 11.2546 9.16757 11.4083 9.16757 11.5686V17.0063H4.33406V11.5686C4.33406 11.4083 4.2704 11.2546 4.15709 11.1413C4.04379 11.028 3.89011 10.9644 3.72987 10.9644C3.56963 10.9644 3.41595 11.028 3.30264 11.1413C3.18933 11.2546 3.12568 11.4083 3.12568 11.5686V17.0063H1.9173V10.9644C1.91826 10.1635 2.23685 9.39563 2.80317 8.82931C3.3695 8.26298 4.13734 7.94439 4.93825 7.94343V8.54762C4.93872 8.74955 4.98979 8.94813 5.08678 9.12523C5.18378 9.30234 5.32361 9.45231 5.49349 9.56145L4.94187 14.523C4.93193 14.6131 4.94236 14.7042 4.97237 14.7896C5.00239 14.875 5.05122 14.9526 5.11527 15.0167L6.32365 16.225C6.43695 16.3383 6.5906 16.4019 6.75081 16.4019C6.91102 16.4019 7.06467 16.3383 7.17797 16.225L8.38635 15.0167C8.4504 14.9526 8.49924 14.875 8.52925 14.7896C8.55927 14.7042 8.56969 14.6131 8.55975 14.523L8.00813 9.56145C8.17802 9.45231 8.31785 9.30234 8.41484 9.12523C8.51184 8.94813 8.5629 8.74955 8.56338 8.54762V7.94343C9.36429 7.94439 10.1321 8.26298 10.6985 8.82931C11.2648 9.39563 11.5834 10.1635 11.5843 10.9644V14.5206ZM25.4807 24.2565H23.6681V16.4021C23.6681 16.2418 23.6044 16.0882 23.4911 15.9748C23.3778 15.8615 23.2242 15.7979 23.0639 15.7979C22.9037 15.7979 22.75 15.8615 22.6367 15.9748C22.5234 16.0882 22.4597 16.2418 22.4597 16.4021V35.7361H19.4388V26.0691C19.4388 25.9089 19.3751 25.7552 19.2618 25.6419C19.1485 25.5286 18.9948 25.4649 18.8346 25.4649C18.6743 25.4649 18.5207 25.5286 18.4074 25.6419C18.2941 25.7552 18.2304 25.9089 18.2304 26.0691V35.7361H15.2095V16.4021C15.2095 16.2418 15.1458 16.0882 15.0325 15.9748C14.9192 15.8615 14.7655 15.7979 14.6053 15.7979C14.445 15.7979 14.2913 15.8615 14.178 15.9748C14.0647 16.0882 14.0011 16.2418 14.0011 16.4021V24.2565H12.1885V17.0063C12.1898 15.885 12.6358 14.81 13.4287 14.0171C14.2215 13.2242 15.2965 12.7782 16.4178 12.7769C16.418 13.1344 16.5238 13.4839 16.7221 13.7813C16.9203 14.0788 17.2021 14.311 17.532 14.4487L16.4275 20.5232C16.4126 20.6051 16.4148 20.6892 16.4339 20.7702C16.4531 20.8512 16.4887 20.9273 16.5387 20.9939L18.3512 23.4107C18.4075 23.4857 18.4805 23.5466 18.5644 23.5886C18.6483 23.6305 18.7408 23.6523 18.8346 23.6523C18.9284 23.6523 19.0209 23.6305 19.1048 23.5886C19.1887 23.5466 19.2617 23.4857 19.3179 23.4107L21.1305 20.9939C21.1803 20.9273 21.2159 20.8511 21.2349 20.7701C21.2539 20.6891 21.256 20.6051 21.2411 20.5232L20.1366 14.4487C20.4666 14.3111 20.7485 14.0789 20.9468 13.7814C21.1452 13.484 21.2511 13.1345 21.2513 12.7769C22.3726 12.7782 23.4476 13.2242 24.2405 14.0171C25.0334 14.81 25.4794 15.885 25.4807 17.0063V24.2565ZM35.7519 17.0063H34.5435V11.5686C34.5435 11.4083 34.4798 11.2546 34.3665 11.1413C34.2532 11.028 34.0996 10.9644 33.9393 10.9644C33.7791 10.9644 33.6254 11.028 33.5121 11.1413C33.3988 11.2546 33.3351 11.4083 33.3351 11.5686V17.0063H28.5016V11.5686C28.5016 11.4083 28.438 11.2546 28.3246 11.1413C28.2113 11.028 28.0577 10.9644 27.8974 10.9644C27.7372 10.9644 27.5835 11.028 27.4702 11.1413C27.3569 11.2546 27.2932 11.4083 27.2932 11.5686V17.0063H26.689C26.6898 16.1413 26.4826 15.2888 26.0849 14.5206V10.9644C26.0858 10.1635 26.4044 9.39563 26.9707 8.82931C27.5371 8.26298 28.3049 7.94439 29.1058 7.94343V8.54762C29.1063 8.74939 29.1573 8.94781 29.2542 9.1248C29.3511 9.30178 29.4908 9.45169 29.6604 9.56085L29.1094 14.523C29.0995 14.6131 29.1099 14.7042 29.1399 14.7896C29.1699 14.875 29.2188 14.9526 29.2828 15.0167L30.4912 16.225C30.6045 16.3383 30.7582 16.4019 30.9184 16.4019C31.0786 16.4019 31.2322 16.3383 31.3455 16.225L32.5539 15.0167C32.618 14.9526 32.6668 14.875 32.6968 14.7896C32.7268 14.7042 32.7372 14.6131 32.7273 14.523L32.1763 9.56085C32.346 9.45169 32.4856 9.30178 32.5825 9.1248C32.6794 8.94781 32.7304 8.74939 32.7309 8.54762V7.94343C33.5318 7.94439 34.2997 8.26298 34.866 8.82931C35.4323 9.39563 35.7509 10.1635 35.7519 10.9644V17.0063Z" fill="#F2F2F2" stroke="url(#paint1_linear_1112_570)" stroke-width="16" mask="url(#path-3-inside-2_1112_570)"/>
<mask id="path-4-inside-3_1112_570" fill="white">
<path d="M9.37299 25.5447C9.86312 25.0312 10.1917 24.3852 10.3181 23.6867C10.4444 22.9882 10.3629 22.268 10.0837 21.6154C9.80444 20.9629 9.33977 20.4066 8.7473 20.0157C8.15483 19.6248 7.46063 19.4164 6.75081 19.4164C6.041 19.4164 5.3468 19.6248 4.75433 20.0157C4.16186 20.4066 3.69719 20.9629 3.41796 21.6154C3.13873 22.268 3.05722 22.9882 3.18356 23.6867C3.30989 24.3852 3.6385 25.0312 4.12863 25.5447C3.16637 25.7335 2.29946 26.2504 1.67581 27.0072C1.05216 27.7639 0.710431 28.7136 0.708923 29.6942V36.3403C0.708923 36.5006 0.772579 36.6542 0.885886 36.7675C0.999193 36.8808 1.15287 36.9445 1.31311 36.9445H12.1885C12.3488 36.9445 12.5024 36.8808 12.6157 36.7675C12.729 36.6542 12.7927 36.5006 12.7927 36.3403V29.6942C12.7912 28.7136 12.4495 27.7639 11.8258 27.0072C11.2022 26.2504 10.3352 25.7335 9.37299 25.5447ZM7.355 26.6733V27.2775H6.14662V26.6733H7.355ZM7.3266 33.0976L6.75081 33.6734L6.17502 33.0976L6.69039 28.4859H6.81727L7.3266 33.0976ZM6.75081 20.6314C7.2288 20.6314 7.69605 20.7731 8.09349 21.0387C8.49092 21.3043 8.80068 21.6817 8.9836 22.1233C9.16652 22.5649 9.21438 23.0508 9.12113 23.5196C9.02788 23.9884 8.7977 24.4191 8.45972 24.7571C8.12173 25.0951 7.6911 25.3252 7.2223 25.4185C6.75349 25.5117 6.26756 25.4639 5.82596 25.2809C5.38435 25.098 5.00691 24.7883 4.74135 24.3908C4.4758 23.9934 4.33406 23.5261 4.33406 23.0482C4.33406 22.4072 4.58868 21.7925 5.04191 21.3393C5.49514 20.886 6.10985 20.6314 6.75081 20.6314ZM11.5843 35.7361H10.3759V30.2984C10.3759 30.1382 10.3123 29.9845 10.199 29.8712C10.0857 29.7579 9.932 29.6942 9.77176 29.6942C9.61151 29.6942 9.45784 29.7579 9.34453 29.8712C9.23122 29.9845 9.16757 30.1382 9.16757 30.2984V35.7361H4.33406V30.2984C4.33406 30.1382 4.2704 29.9845 4.15709 29.8712C4.04379 29.7579 3.89011 29.6942 3.72987 29.6942C3.56963 29.6942 3.41595 29.7579 3.30264 29.8712C3.18933 29.9845 3.12568 30.1382 3.12568 30.2984V35.7361H1.9173V29.6942C1.91826 28.8933 2.23685 28.1255 2.80317 27.5592C3.3695 26.9928 4.13734 26.6743 4.93824 26.6733V27.2775C4.93872 27.4794 4.98979 27.678 5.08678 27.8551C5.18378 28.0322 5.32361 28.1822 5.49349 28.2913L4.94187 33.2529C4.93193 33.3429 4.94236 33.434 4.97237 33.5195C5.00238 33.6049 5.05122 33.6825 5.11527 33.7465L6.32365 34.9549C6.43695 35.0682 6.5906 35.1318 6.75081 35.1318C6.91102 35.1318 7.06467 35.0682 7.17797 34.9549L8.38635 33.7465C8.4504 33.6825 8.49924 33.6049 8.52925 33.5195C8.55927 33.434 8.56969 33.3429 8.55975 33.2529L8.00813 28.2913C8.17802 28.1822 8.31785 28.0322 8.41484 27.8551C8.51184 27.678 8.5629 27.4794 8.56338 27.2775V26.6733C9.36429 26.6743 10.1321 26.9928 10.6984 27.5592C11.2648 28.1255 11.5834 28.8933 11.5843 29.6942V35.7361Z"/>
</mask>
<path d="M9.37299 25.5447C9.86312 25.0312 10.1917 24.3852 10.3181 23.6867C10.4444 22.9882 10.3629 22.268 10.0837 21.6154C9.80444 20.9629 9.33977 20.4066 8.7473 20.0157C8.15483 19.6248 7.46063 19.4164 6.75081 19.4164C6.041 19.4164 5.3468 19.6248 4.75433 20.0157C4.16186 20.4066 3.69719 20.9629 3.41796 21.6154C3.13873 22.268 3.05722 22.9882 3.18356 23.6867C3.30989 24.3852 3.6385 25.0312 4.12863 25.5447C3.16637 25.7335 2.29946 26.2504 1.67581 27.0072C1.05216 27.7639 0.710431 28.7136 0.708923 29.6942V36.3403C0.708923 36.5006 0.772579 36.6542 0.885886 36.7675C0.999193 36.8808 1.15287 36.9445 1.31311 36.9445H12.1885C12.3488 36.9445 12.5024 36.8808 12.6157 36.7675C12.729 36.6542 12.7927 36.5006 12.7927 36.3403V29.6942C12.7912 28.7136 12.4495 27.7639 11.8258 27.0072C11.2022 26.2504 10.3352 25.7335 9.37299 25.5447ZM7.355 26.6733V27.2775H6.14662V26.6733H7.355ZM7.3266 33.0976L6.75081 33.6734L6.17502 33.0976L6.69039 28.4859H6.81727L7.3266 33.0976ZM6.75081 20.6314C7.2288 20.6314 7.69605 20.7731 8.09349 21.0387C8.49092 21.3043 8.80068 21.6817 8.9836 22.1233C9.16652 22.5649 9.21438 23.0508 9.12113 23.5196C9.02788 23.9884 8.7977 24.4191 8.45972 24.7571C8.12173 25.0951 7.6911 25.3252 7.2223 25.4185C6.75349 25.5117 6.26756 25.4639 5.82596 25.2809C5.38435 25.098 5.00691 24.7883 4.74135 24.3908C4.4758 23.9934 4.33406 23.5261 4.33406 23.0482C4.33406 22.4072 4.58868 21.7925 5.04191 21.3393C5.49514 20.886 6.10985 20.6314 6.75081 20.6314ZM11.5843 35.7361H10.3759V30.2984C10.3759 30.1382 10.3123 29.9845 10.199 29.8712C10.0857 29.7579 9.932 29.6942 9.77176 29.6942C9.61151 29.6942 9.45784 29.7579 9.34453 29.8712C9.23122 29.9845 9.16757 30.1382 9.16757 30.2984V35.7361H4.33406V30.2984C4.33406 30.1382 4.2704 29.9845 4.15709 29.8712C4.04379 29.7579 3.89011 29.6942 3.72987 29.6942C3.56963 29.6942 3.41595 29.7579 3.30264 29.8712C3.18933 29.9845 3.12568 30.1382 3.12568 30.2984V35.7361H1.9173V29.6942C1.91826 28.8933 2.23685 28.1255 2.80317 27.5592C3.3695 26.9928 4.13734 26.6743 4.93824 26.6733V27.2775C4.93872 27.4794 4.98979 27.678 5.08678 27.8551C5.18378 28.0322 5.32361 28.1822 5.49349 28.2913L4.94187 33.2529C4.93193 33.3429 4.94236 33.434 4.97237 33.5195C5.00238 33.6049 5.05122 33.6825 5.11527 33.7465L6.32365 34.9549C6.43695 35.0682 6.5906 35.1318 6.75081 35.1318C6.91102 35.1318 7.06467 35.0682 7.17797 34.9549L8.38635 33.7465C8.4504 33.6825 8.49924 33.6049 8.52925 33.5195C8.55927 33.434 8.56969 33.3429 8.55975 33.2529L8.00813 28.2913C8.17802 28.1822 8.31785 28.0322 8.41484 27.8551C8.51184 27.678 8.5629 27.4794 8.56338 27.2775V26.6733C9.36429 26.6743 10.1321 26.9928 10.6984 27.5592C11.2648 28.1255 11.5834 28.8933 11.5843 29.6942V35.7361Z" fill="#F2F2F2"/>
<path d="M4.12863 25.5447L5.66928 33.3949L19.998 30.5828L9.9153 20.0207L4.12863 25.5447ZM0.708923 29.6942L-7.29108 29.6819V29.6942H0.708923ZM0.708923 36.3403H-7.29108H0.708923ZM12.7927 29.6942H20.7927L20.7927 29.6819L12.7927 29.6942ZM7.355 26.6733H15.355V18.6733H7.355V26.6733ZM7.355 27.2775V35.2775H15.355V27.2775H7.355ZM6.14662 27.2775H-1.85338V35.2775H6.14662V27.2775ZM6.14662 26.6733V18.6733H-1.85338V26.6733H6.14662ZM7.3266 33.0976L12.9835 38.7545L15.7 36.038L15.2783 32.2194L7.3266 33.0976ZM6.75081 33.6734L1.09396 39.3303L6.75081 44.9871L12.4077 39.3303L6.75081 33.6734ZM6.17502 33.0976L-1.77549 32.2092L-2.20286 36.0335L0.518167 38.7545L6.17502 33.0976ZM6.69039 28.4859V20.4859H-0.465394L-1.26012 27.5974L6.69039 28.4859ZM6.81727 28.4859L14.7689 27.6077L13.9824 20.4859H6.81727V28.4859ZM11.5843 35.7361V43.7361H19.5843V35.7361H11.5843ZM10.3759 35.7361H2.37594V43.7361H10.3759V35.7361ZM9.16757 35.7361V43.7361H17.1676V35.7361H9.16757ZM4.33406 35.7361H-3.66594V43.7361H4.33406V35.7361ZM3.12568 35.7361V43.7361H11.1257V35.7361H3.12568ZM1.9173 35.7361H-6.0827V43.7361H1.9173V35.7361ZM1.9173 29.6942L-6.0827 29.6847V29.6942H1.9173ZM4.93824 26.6733H12.9382V18.6637L4.92866 18.6733L4.93824 26.6733ZM4.93824 27.2775H-3.06176V27.2869L-3.06173 27.2962L4.93824 27.2775ZM5.49349 28.2913L13.4445 29.1753L13.9929 24.2429L9.81747 21.5605L5.49349 28.2913ZM4.94187 33.2529L-3.00914 32.3689L-3.00981 32.3749L4.94187 33.2529ZM5.11527 33.7465L10.7721 28.0897L10.771 28.0885L5.11527 33.7465ZM6.32365 34.9549L0.666795 40.6118L0.667649 40.6126L6.32365 34.9549ZM6.75081 35.1318L6.75081 27.1318L6.75081 35.1318ZM7.17797 34.9549L12.834 40.6126L12.8348 40.6118L7.17797 34.9549ZM8.38635 33.7465L2.73067 28.0885L2.7295 28.0897L8.38635 33.7465ZM8.55975 33.2529L16.5114 32.3749L16.5108 32.3689L8.55975 33.2529ZM8.00813 28.2913L3.68415 21.5605L-0.491259 24.2429L0.0571176 29.1753L8.00813 28.2913ZM8.56338 27.2775L16.5634 27.2962L16.5634 27.2869V27.2775H8.56338ZM8.56338 26.6733L8.57296 18.6733L0.563378 18.6637V26.6733H8.56338ZM11.5843 29.6942H19.5843L19.5843 29.6847L11.5843 29.6942ZM15.1597 31.0687C16.7314 29.4222 17.7852 27.3505 18.1903 25.1106L2.44579 22.2629C2.59826 21.4199 2.99483 20.6403 3.58632 20.0207L15.1597 31.0687ZM18.1903 25.1106C18.5955 22.8707 18.3341 20.5611 17.4387 18.4684L2.72867 24.7625C2.39169 23.975 2.29333 23.1058 2.44579 22.2629L18.1903 25.1106ZM17.4387 18.4684C16.5432 16.3757 15.0531 14.5918 13.1532 13.3382L4.34142 26.6931C3.62642 26.2214 3.06565 25.5501 2.72867 24.7625L17.4387 18.4684ZM13.1532 13.3382C11.2532 12.0846 9.02706 11.4164 6.75081 11.4164V27.4164C5.89419 27.4164 5.05642 27.1649 4.34142 26.6931L13.1532 13.3382ZM6.75081 11.4164C4.47456 11.4164 2.24839 12.0846 0.348451 13.3382L9.1602 26.6931C8.4452 27.1649 7.60743 27.4164 6.75081 27.4164V11.4164ZM0.348451 13.3382C-1.55149 14.5918 -3.0416 16.3756 -3.93704 18.4684L10.773 24.7625C10.436 25.5501 9.8752 26.2214 9.1602 26.6931L0.348451 13.3382ZM-3.93704 18.4684C-4.83248 20.5611 -5.09384 22.8707 -4.68871 25.1106L11.0558 22.2629C11.2083 23.1058 11.1099 23.975 10.773 24.7625L-3.93704 18.4684ZM-4.68871 25.1106C-4.28358 27.3505 -3.22978 29.4222 -1.65804 31.0687L9.9153 20.0207C10.5068 20.6403 10.9034 21.4199 11.0558 22.2629L-4.68871 25.1106ZM2.58798 17.6944C-0.191852 18.24 -2.69624 19.7332 -4.49787 21.9194L7.84949 32.095C7.29516 32.7676 6.5246 33.2271 5.66928 33.3949L2.58798 17.6944ZM-4.49787 21.9194C-6.29949 24.1055 -7.28671 26.8491 -7.29107 29.6819L8.70891 29.7065C8.70757 30.5782 8.40382 31.4223 7.84949 32.095L-4.49787 21.9194ZM-7.29108 29.6942V36.3403H8.70892V29.6942H-7.29108ZM-7.29108 36.3403C-7.29108 38.6223 -6.38457 40.8108 -4.77097 42.4244L6.54274 31.1107C7.92973 32.4977 8.70892 34.3788 8.70892 36.3403H-7.29108ZM-4.77097 42.4244C-3.15736 44.038 -0.968845 44.9445 1.31311 44.9445V28.9445C3.27459 28.9445 5.15575 29.7237 6.54274 31.1107L-4.77097 42.4244ZM1.31311 44.9445H12.1885V28.9445H1.31311V44.9445ZM12.1885 44.9445C14.4705 44.9445 16.659 44.038 18.2726 42.4244L6.95888 31.1107C8.34588 29.7237 10.227 28.9445 12.1885 28.9445V44.9445ZM18.2726 42.4244C19.8862 40.8108 20.7927 38.6223 20.7927 36.3403H4.7927C4.7927 34.3788 5.57188 32.4977 6.95888 31.1107L18.2726 42.4244ZM20.7927 36.3403V29.6942H4.7927V36.3403H20.7927ZM20.7927 29.6819C20.7883 26.8491 19.8011 24.1055 17.9995 21.9194L5.65213 32.095C5.0978 31.4223 4.79405 30.5782 4.79271 29.7065L20.7927 29.6819ZM17.9995 21.9194C16.1979 19.7332 13.6935 18.24 10.9136 17.6944L7.83234 33.3949C6.97703 33.2271 6.20646 32.7676 5.65213 32.095L17.9995 21.9194ZM-0.645 26.6733V27.2775H15.355V26.6733H-0.645ZM7.355 19.2775H6.14662V35.2775H7.355V19.2775ZM14.1466 27.2775V26.6733H-1.85338V27.2775H14.1466ZM6.14662 34.6733H7.355V18.6733H6.14662V34.6733ZM1.66975 27.4408L1.09396 28.0166L12.4077 39.3303L12.9835 38.7545L1.66975 27.4408ZM12.4077 28.0166L11.8319 27.4408L0.518167 38.7545L1.09396 39.3303L12.4077 28.0166ZM14.1255 33.9861L14.6409 29.3743L-1.26012 27.5974L-1.77549 32.2092L14.1255 33.9861ZM6.69039 36.4859H6.81727V20.4859H6.69039V36.4859ZM-1.13438 29.3641L-0.625049 33.9758L15.2783 32.2194L14.7689 27.6077L-1.13438 29.3641ZM6.75081 28.6314C5.64655 28.6314 4.56708 28.3039 3.64893 27.6905L12.5381 14.3869C10.825 13.2423 8.81105 12.6314 6.75081 12.6314V28.6314ZM3.64893 27.6905C2.73078 27.077 2.01515 26.205 1.59257 25.1848L16.3746 19.0618C15.5862 17.1584 14.2511 15.5315 12.5381 14.3869L3.64893 27.6905ZM1.59257 25.1848C1.16998 24.1646 1.05942 23.042 1.27485 21.9589L16.9674 25.0804C17.3693 23.0597 17.1631 20.9653 16.3746 19.0618L1.59257 25.1848ZM1.27485 21.9589C1.49028 20.8759 2.02203 19.881 2.80286 19.1002L14.1166 30.4139C15.5734 28.9571 16.5655 27.101 16.9674 25.0804L1.27485 21.9589ZM2.80286 19.1002C3.58369 18.3194 4.57852 17.7876 5.66157 17.5722L8.78302 33.2648C10.8037 32.8628 12.6598 31.8707 14.1166 30.4139L2.80286 19.1002ZM5.66157 17.5722C6.74462 17.3568 7.86722 17.4673 8.88743 17.8899L2.76449 32.672C4.6679 33.4604 6.76237 33.6667 8.78302 33.2648L5.66157 17.5722ZM8.88743 17.8899C9.90763 18.3125 10.7796 19.0281 11.3931 19.9463L-1.9104 28.8354C-0.765795 30.5484 0.86108 31.8836 2.76449 32.672L8.88743 17.8899ZM11.3931 19.9463C12.0066 20.8644 12.3341 21.9439 12.3341 23.0482H-3.66594C-3.66594 25.1084 -3.05501 27.1224 -1.9104 28.8354L11.3931 19.9463ZM12.3341 23.0482C12.3341 24.5289 11.7458 25.949 10.6988 26.9961L-0.614948 15.6824C-2.56847 17.6359 -3.66594 20.2855 -3.66594 23.0482H12.3341ZM10.6988 26.9961C9.6517 28.0432 8.23158 28.6314 6.75081 28.6314V12.6314C3.98811 12.6314 1.33857 13.7289 -0.614948 15.6824L10.6988 26.9961ZM11.5843 27.7361H10.3759V43.7361H11.5843V27.7361ZM18.3759 35.7361V30.2984H2.37594V35.7361H18.3759ZM18.3759 30.2984C18.3759 28.0165 17.4694 25.828 15.8558 24.2143L4.54213 35.5281C3.15513 34.1411 2.37594 32.2599 2.37594 30.2984H18.3759ZM15.8558 24.2143C14.2422 22.6007 12.0537 21.6942 9.77176 21.6942V37.6942C7.81029 37.6942 5.92913 36.9151 4.54213 35.5281L15.8558 24.2143ZM9.77176 21.6942C7.4898 21.6942 5.30129 22.6007 3.68767 24.2143L15.0014 35.5281C13.6144 36.9151 11.7332 37.6942 9.77176 37.6942V21.6942ZM3.68767 24.2143C2.07406 25.828 1.16757 28.0165 1.16757 30.2984H17.1676C17.1676 32.2599 16.3884 34.1411 15.0014 35.5281L3.68767 24.2143ZM1.16757 30.2984V35.7361H17.1676V30.2984H1.16757ZM9.16757 27.7361H4.33406V43.7361H9.16757V27.7361ZM12.3341 35.7361V30.2984H-3.66594V35.7361H12.3341ZM12.3341 30.2984C12.3341 28.0165 11.4275 25.8279 9.81395 24.2143L-1.49976 35.5281C-2.88675 34.1411 -3.66594 32.2599 -3.66594 30.2984H12.3341ZM9.81395 24.2143C8.20034 22.6007 6.01183 21.6942 3.72987 21.6942V37.6942C1.76839 37.6942 -0.112769 36.915 -1.49976 35.5281L9.81395 24.2143ZM3.72987 21.6942C1.44791 21.6942 -0.740606 22.6007 -2.35421 24.2143L8.9595 35.5281C7.5725 36.915 5.69135 37.6942 3.72987 37.6942V21.6942ZM-2.35421 24.2143C-3.96781 25.8279 -4.87432 28.0165 -4.87432 30.2984H11.1257C11.1257 32.2599 10.3465 34.1411 8.9595 35.5281L-2.35421 24.2143ZM-4.87432 30.2984V35.7361H11.1257V30.2984H-4.87432ZM3.12568 27.7361H1.9173V43.7361H3.12568V27.7361ZM9.9173 35.7361V29.6942H-6.0827V35.7361H9.9173ZM9.9173 29.7038C9.91572 31.0213 9.39164 32.2844 8.46003 33.216L-2.85368 21.9023C-4.91795 23.9666 -6.0792 26.7653 -6.08269 29.6847L9.9173 29.7038ZM8.46003 33.216C7.52842 34.1476 6.26533 34.6717 4.94783 34.6733L4.92866 18.6733C2.00934 18.6768 -0.789411 19.838 -2.85368 21.9023L8.46003 33.216ZM-3.06176 26.6733V27.2775H12.9382V26.6733H-3.06176ZM-3.06173 27.2962C-3.05812 28.835 -2.66896 30.3483 -1.92982 31.6979L12.1034 24.0123C12.6485 25.0077 12.9356 26.1238 12.9382 27.2587L-3.06173 27.2962ZM-1.92982 31.6979C-1.19069 33.0475 -0.125141 34.1904 1.16952 35.0221L9.81747 21.5605C10.7724 22.174 11.5582 23.0169 12.1034 24.0123L-1.92982 31.6979ZM-2.45752 27.4073L-3.00914 32.3689L12.8929 34.1369L13.4445 29.1753L-2.45752 27.4073ZM-3.00981 32.3749C-3.15135 33.6569 -3.0029 34.9542 -2.57547 36.1709L12.5202 30.868C12.8876 31.9139 13.0152 33.029 12.8935 34.1309L-3.00981 32.3749ZM-2.57547 36.1709C-2.14804 37.3877 -1.45254 38.4928 -0.540406 39.4046L10.771 28.0885C11.555 28.8722 12.1528 29.8221 12.5202 30.868L-2.57547 36.1709ZM-0.541583 39.4034L0.666795 40.6118L11.9805 29.2981L10.7721 28.0897L-0.541583 39.4034ZM0.667649 40.6126C2.28118 42.2257 4.4693 43.1318 6.75081 43.1318L6.75081 27.1318C8.7119 27.1318 10.5927 27.9107 11.9797 29.2972L0.667649 40.6126ZM6.75081 43.1318C9.03232 43.1318 11.2204 42.2257 12.834 40.6126L1.52197 29.2972C2.9089 27.9107 4.78972 27.1318 6.75081 27.1318V43.1318ZM12.8348 40.6118L14.0432 39.4034L2.7295 28.0897L1.52112 29.2981L12.8348 40.6118ZM14.042 39.4046C14.9542 38.4928 15.6497 37.3877 16.0771 36.1709L0.981415 30.868C1.34882 29.8221 1.94663 28.8722 2.73067 28.0885L14.042 39.4046ZM16.0771 36.1709C16.5045 34.9542 16.653 33.6569 16.5114 32.3749L0.608076 34.1309C0.486414 33.029 0.614017 31.9139 0.981415 30.868L16.0771 36.1709ZM16.5108 32.3689L15.9591 27.4073L0.0571176 29.1753L0.608742 34.1369L16.5108 32.3689ZM12.3321 35.0221C13.6268 34.1904 14.6923 33.0475 15.4314 31.6979L1.39824 24.0123C1.94338 23.0169 2.72927 22.174 3.68415 21.5605L12.3321 35.0221ZM15.4314 31.6979C16.1706 30.3483 16.5597 28.835 16.5634 27.2962L0.5634 27.2587C0.566062 26.1238 0.853087 25.0077 1.39824 24.0123L15.4314 31.6979ZM16.5634 27.2775V26.6733H0.563378V27.2775H16.5634ZM8.55379 34.6733C7.23629 34.6717 5.97321 34.1476 5.04159 33.216L16.3553 21.9023C14.291 19.838 11.4923 18.6768 8.57296 18.6733L8.55379 34.6733ZM5.04159 33.216C4.10998 32.2844 3.58591 31.0213 3.58433 29.7038L19.5843 29.6847C19.5808 26.7653 18.4196 23.9666 16.3553 21.9023L5.04159 33.216ZM3.58432 29.6942V35.7361H19.5843V29.6942H3.58432Z" fill="url(#paint2_linear_1112_570)" mask="url(#path-4-inside-3_1112_570)"/>
<defs>
<linearGradient id="paint0_linear_1112_570" x1="24.8765" y1="28.1804" x2="36.9602" y2="28.1804" gradientUnits="userSpaceOnUse">
<stop stop-color="#9890E3"/>
<stop offset="1" stop-color="#B1F4CF"/>
</linearGradient>
<linearGradient id="paint1_linear_1112_570" x1="0.708923" y1="18.8155" x2="36.9603" y2="18.8155" gradientUnits="userSpaceOnUse">
<stop stop-color="#9890E3"/>
<stop offset="1" stop-color="#B1F4CF"/>
</linearGradient>
<linearGradient id="paint2_linear_1112_570" x1="0.708923" y1="28.1804" x2="12.7927" y2="28.1804" gradientUnits="userSpaceOnUse">
<stop stop-color="#9890E3"/>
<stop offset="1" stop-color="#B1F4CF"/>
</linearGradient>
</defs>
</svg>
