<svg width="40" height="40" viewBox="0 0 40 40" fill="none" xmlns="http://www.w3.org/2000/svg">
<g opacity="0.7">
<mask id="path-1-inside-1_1112_455" fill="white">
<path d="M5.95957 3.96346V4.36808C5.63093 4.36808 5.31574 4.49597 5.08335 4.72362C4.85097 4.95126 4.72041 5.26001 4.72041 5.58195C4.72041 5.90389 4.85097 6.21264 5.08335 6.44029C5.31574 6.66793 5.63093 6.79582 5.95957 6.79582H6.78567C6.89522 6.79582 7.00028 6.83845 7.07775 6.91433C7.15521 6.99021 7.19873 7.09313 7.19873 7.20044C7.19873 7.30775 7.15521 7.41067 7.07775 7.48655C7.00028 7.56243 6.89522 7.60506 6.78567 7.60506H5.95957C5.85002 7.60506 5.74496 7.56243 5.6675 7.48655C5.59004 7.41067 5.54652 7.30775 5.54652 7.20044C5.54652 7.09313 5.503 6.99021 5.42554 6.91433C5.34808 6.83845 5.24301 6.79582 5.13347 6.79582C5.02392 6.79582 4.91886 6.83845 4.84139 6.91433C4.76393 6.99021 4.72041 7.09313 4.72041 7.20044C4.72041 7.52238 4.85097 7.83113 5.08335 8.05878C5.31574 8.28642 5.63093 8.41431 5.95957 8.41431V8.81893C5.95957 8.92624 6.00309 9.02916 6.08055 9.10504C6.15801 9.18093 6.26307 9.22356 6.37262 9.22356C6.48217 9.22356 6.58723 9.18093 6.66469 9.10504C6.74216 9.02916 6.78567 8.92624 6.78567 8.81893V8.41431C7.11432 8.41431 7.4295 8.28642 7.66189 8.05878C7.89428 7.83113 8.02483 7.52238 8.02483 7.20044C8.02483 6.8785 7.89428 6.56975 7.66189 6.34211C7.4295 6.11446 7.11432 5.98657 6.78567 5.98657H5.95957C5.85002 5.98657 5.74496 5.94394 5.6675 5.86806C5.59004 5.79218 5.54652 5.68926 5.54652 5.58195C5.54652 5.47464 5.59004 5.37172 5.6675 5.29584C5.74496 5.21996 5.85002 5.17733 5.95957 5.17733H6.78567C6.89522 5.17733 7.00028 5.21996 7.07775 5.29584C7.15521 5.37172 7.19873 5.47464 7.19873 5.58195C7.19873 5.68926 7.24225 5.79218 7.31971 5.86806C7.39717 5.94394 7.50223 5.98657 7.61178 5.98657C7.72133 5.98657 7.82639 5.94394 7.90385 5.86806C7.98131 5.79218 8.02483 5.68926 8.02483 5.58195C8.02483 5.26001 7.89428 4.95126 7.66189 4.72362C7.4295 4.49597 7.11432 4.36808 6.78567 4.36808V3.96346C6.78567 3.85615 6.74216 3.75323 6.66469 3.67735C6.58723 3.60147 6.48217 3.55884 6.37262 3.55884C6.26307 3.55884 6.15801 3.60147 6.08055 3.67735C6.00309 3.75323 5.95957 3.85615 5.95957 3.96346Z"/>
</mask>
<path d="M5.95957 3.96346V4.36808C5.63093 4.36808 5.31574 4.49597 5.08335 4.72362C4.85097 4.95126 4.72041 5.26001 4.72041 5.58195C4.72041 5.90389 4.85097 6.21264 5.08335 6.44029C5.31574 6.66793 5.63093 6.79582 5.95957 6.79582H6.78567C6.89522 6.79582 7.00028 6.83845 7.07775 6.91433C7.15521 6.99021 7.19873 7.09313 7.19873 7.20044C7.19873 7.30775 7.15521 7.41067 7.07775 7.48655C7.00028 7.56243 6.89522 7.60506 6.78567 7.60506H5.95957C5.85002 7.60506 5.74496 7.56243 5.6675 7.48655C5.59004 7.41067 5.54652 7.30775 5.54652 7.20044C5.54652 7.09313 5.503 6.99021 5.42554 6.91433C5.34808 6.83845 5.24301 6.79582 5.13347 6.79582C5.02392 6.79582 4.91886 6.83845 4.84139 6.91433C4.76393 6.99021 4.72041 7.09313 4.72041 7.20044C4.72041 7.52238 4.85097 7.83113 5.08335 8.05878C5.31574 8.28642 5.63093 8.41431 5.95957 8.41431V8.81893C5.95957 8.92624 6.00309 9.02916 6.08055 9.10504C6.15801 9.18093 6.26307 9.22356 6.37262 9.22356C6.48217 9.22356 6.58723 9.18093 6.66469 9.10504C6.74216 9.02916 6.78567 8.92624 6.78567 8.81893V8.41431C7.11432 8.41431 7.4295 8.28642 7.66189 8.05878C7.89428 7.83113 8.02483 7.52238 8.02483 7.20044C8.02483 6.8785 7.89428 6.56975 7.66189 6.34211C7.4295 6.11446 7.11432 5.98657 6.78567 5.98657H5.95957C5.85002 5.98657 5.74496 5.94394 5.6675 5.86806C5.59004 5.79218 5.54652 5.68926 5.54652 5.58195C5.54652 5.47464 5.59004 5.37172 5.6675 5.29584C5.74496 5.21996 5.85002 5.17733 5.95957 5.17733H6.78567C6.89522 5.17733 7.00028 5.21996 7.07775 5.29584C7.15521 5.37172 7.19873 5.47464 7.19873 5.58195C7.19873 5.68926 7.24225 5.79218 7.31971 5.86806C7.39717 5.94394 7.50223 5.98657 7.61178 5.98657C7.72133 5.98657 7.82639 5.94394 7.90385 5.86806C7.98131 5.79218 8.02483 5.68926 8.02483 5.58195C8.02483 5.26001 7.89428 4.95126 7.66189 4.72362C7.4295 4.49597 7.11432 4.36808 6.78567 4.36808V3.96346C6.78567 3.85615 6.74216 3.75323 6.66469 3.67735C6.58723 3.60147 6.48217 3.55884 6.37262 3.55884C6.26307 3.55884 6.15801 3.60147 6.08055 3.67735C6.00309 3.75323 5.95957 3.85615 5.95957 3.96346Z" fill="#F2F2F2"/>
<path d="M5.95957 4.36808V12.3681H13.9596V4.36808H5.95957ZM5.95957 6.79582V14.7958V6.79582ZM7.07775 7.48655L1.47951 1.77168L7.07775 7.48655ZM5.6675 7.48655L11.2657 1.77168L5.6675 7.48655ZM5.95957 8.41431H13.9596V0.41431H5.95957V8.41431ZM6.78567 8.41431V0.41431H-1.21432V8.41431H6.78567ZM5.95957 5.17733V13.1773V5.17733ZM6.78567 5.17733V13.1773V5.17733ZM6.78567 4.36808H-1.21432V12.3681H6.78567V4.36808ZM6.37262 3.55884V-4.44116V3.55884ZM-2.04043 3.96346V4.36808H13.9596V3.96346H-2.04043ZM5.95957 -3.63192C3.56181 -3.63192 1.22987 -2.7004 -0.514884 -0.991252L10.6816 10.4385C9.40161 11.6923 7.70004 12.3681 5.95957 12.3681V-3.63192ZM-0.514884 -0.991252C-2.26524 0.723378 -3.27959 3.08443 -3.27959 5.58195H12.7204C12.7204 7.4356 11.9672 9.17914 10.6816 10.4385L-0.514884 -0.991252ZM-3.27959 5.58195C-3.27959 8.07947 -2.26524 10.4405 -0.514884 12.1552L10.6816 0.725417C11.9672 1.98476 12.7204 3.72831 12.7204 5.58195H-3.27959ZM-0.514884 12.1552C1.22987 13.8643 3.56181 14.7958 5.95957 14.7958V-1.20418C7.70004 -1.20418 9.40161 -0.528444 10.6816 0.725417L-0.514884 12.1552ZM5.95957 14.7958H6.78567V-1.20418H5.95957V14.7958ZM6.78567 14.7958C4.8261 14.7958 2.91441 14.0348 1.47951 12.6292L12.676 1.19946C11.0862 -0.357919 8.96434 -1.20418 6.78567 -1.20418V14.7958ZM1.47951 12.6292C0.0390096 11.2181 -0.801273 9.26872 -0.801273 7.20044H15.1987C15.1987 4.91754 14.2714 2.76233 12.676 1.19946L1.47951 12.6292ZM-0.801273 7.20044C-0.801273 5.13217 0.0390096 3.18279 1.47951 1.77168L12.676 13.2014C14.2714 11.6386 15.1987 9.48334 15.1987 7.20044H-0.801273ZM1.47951 1.77168C2.91441 0.366066 4.8261 -0.394936 6.78567 -0.394936V15.6051C8.96434 15.6051 11.0862 14.7588 12.676 13.2014L1.47951 1.77168ZM6.78567 -0.394936H5.95957V15.6051H6.78567V-0.394936ZM5.95957 -0.394936C7.91914 -0.394936 9.83083 0.366066 11.2657 1.77168L0.0692596 13.2014C1.65909 14.7588 3.7809 15.6051 5.95957 15.6051V-0.394936ZM11.2657 1.77168C12.7062 3.18279 13.5465 5.13217 13.5465 7.20044H-2.45348C-2.45348 9.48334 -1.52616 11.6386 0.0692596 13.2014L11.2657 1.77168ZM13.5465 7.20044C13.5465 4.91754 12.6192 2.76233 11.0238 1.19946L-0.172701 12.6292C-1.6132 11.2181 -2.45348 9.26872 -2.45348 7.20044H13.5465ZM11.0238 1.19946C9.43395 -0.357919 7.31213 -1.20418 5.13347 -1.20418V14.7958C3.17389 14.7958 1.2622 14.0348 -0.172701 12.6292L11.0238 1.19946ZM5.13347 -1.20418C2.9548 -1.20418 0.832981 -0.357919 -0.756845 1.19946L10.4396 12.6292C9.00473 14.0348 7.09304 14.7958 5.13347 14.7958V-1.20418ZM-0.756845 1.19946C-2.35227 2.76233 -3.27959 4.91754 -3.27959 7.20044H12.7204C12.7204 9.26872 11.8801 11.2181 10.4396 12.6292L-0.756845 1.19946ZM-3.27959 7.20044C-3.27959 9.69796 -2.26524 12.059 -0.514884 13.7736L10.6816 2.34391C11.9672 3.60325 12.7204 5.3468 12.7204 7.20044H-3.27959ZM-0.514884 13.7736C1.22987 15.4828 3.56181 16.4143 5.95957 16.4143V0.41431C7.70004 0.41431 9.40161 1.09005 10.6816 2.34391L-0.514884 13.7736ZM-2.04043 8.41431V8.81893H13.9596V8.41431H-2.04043ZM-2.04043 8.81893C-2.04043 11.1018 -1.11312 13.257 0.482312 14.8199L11.6788 3.39018C13.1193 4.80128 13.9596 6.75066 13.9596 8.81893H-2.04043ZM0.482312 14.8199C2.07215 16.3773 4.19397 17.2236 6.37262 17.2236V1.22355C8.33218 1.22355 10.2439 1.98454 11.6788 3.39018L0.482312 14.8199ZM6.37262 17.2236C8.55127 17.2236 10.6731 16.3773 12.2629 14.8199L1.06646 3.39018C2.50137 1.98454 4.41307 1.22355 6.37262 1.22355V17.2236ZM12.2629 14.8199C13.8584 13.257 14.7857 11.1018 14.7857 8.81893H-1.21432C-1.21432 6.75066 -0.374049 4.80128 1.06646 3.39018L12.2629 14.8199ZM14.7857 8.81893V8.41431H-1.21432V8.81893H14.7857ZM6.78567 16.4143C9.18343 16.4143 11.5154 15.4828 13.2601 13.7736L2.06365 2.34391C3.34364 1.09005 5.04521 0.41431 6.78567 0.41431V16.4143ZM13.2601 13.7736C15.0105 12.059 16.0248 9.69796 16.0248 7.20044H0.0248318C0.0248318 5.3468 0.778072 3.60325 2.06365 2.34391L13.2601 13.7736ZM16.0248 7.20044C16.0248 4.70292 15.0105 2.34187 13.2601 0.627238L2.06365 12.057C0.778072 10.7976 0.0248318 9.05408 0.0248318 7.20044H16.0248ZM13.2601 0.627238C11.5154 -1.08191 9.18343 -2.01343 6.78567 -2.01343V13.9866C5.04521 13.9866 3.34364 13.3108 2.06365 12.057L13.2601 0.627238ZM6.78567 -2.01343H5.95957V13.9866H6.78567V-2.01343ZM5.95957 -2.01343C7.91914 -2.01343 9.83083 -1.25242 11.2657 0.153193L0.0692596 11.5829C1.65909 13.1403 3.7809 13.9866 5.95957 13.9866V-2.01343ZM11.2657 0.153193C12.7062 1.56429 13.5465 3.51367 13.5465 5.58195H-2.45348C-2.45348 7.86485 -1.52616 10.0201 0.0692596 11.5829L11.2657 0.153193ZM13.5465 5.58195C13.5465 7.65023 12.7062 9.59961 11.2657 11.0107L0.0692596 -0.419029C-1.52616 1.14383 -2.45348 3.29905 -2.45348 5.58195H13.5465ZM11.2657 11.0107C9.83083 12.4163 7.91914 13.1773 5.95957 13.1773V-2.82267C3.7809 -2.82267 1.65909 -1.97641 0.0692596 -0.419029L11.2657 11.0107ZM5.95957 13.1773H6.78567V-2.82267H5.95957V13.1773ZM6.78567 13.1773C4.8261 13.1773 2.91441 12.4163 1.47951 11.0107L12.676 -0.419029C11.0862 -1.97641 8.96434 -2.82267 6.78567 -2.82267V13.1773ZM1.47951 11.0107C0.0390096 9.59961 -0.801273 7.65023 -0.801273 5.58195H15.1987C15.1987 3.29905 14.2714 1.14383 12.676 -0.419029L1.47951 11.0107ZM-0.801273 5.58195C-0.801273 7.86485 0.126045 10.0201 1.72147 11.5829L12.9179 0.153193C14.3584 1.56429 15.1987 3.51367 15.1987 5.58195H-0.801273ZM1.72147 11.5829C3.3113 13.1403 5.43311 13.9866 7.61178 13.9866V-2.01343C9.57135 -2.01343 11.483 -1.25242 12.9179 0.153193L1.72147 11.5829ZM7.61178 13.9866C9.79045 13.9866 11.9123 13.1403 13.5021 11.5829L2.30561 0.153193C3.74051 -1.25242 5.65221 -2.01343 7.61178 -2.01343V13.9866ZM13.5021 11.5829C15.0975 10.0201 16.0248 7.86485 16.0248 5.58195H0.0248318C0.0248318 3.51367 0.865114 1.56429 2.30561 0.153193L13.5021 11.5829ZM16.0248 5.58195C16.0248 3.08443 15.0105 0.723381 13.2601 -0.991252L2.06365 10.4385C0.778073 9.17914 0.0248318 7.43559 0.0248318 5.58195H16.0248ZM13.2601 -0.991252C11.5154 -2.7004 9.18343 -3.63192 6.78567 -3.63192V12.3681C5.0452 12.3681 3.34363 11.6923 2.06365 10.4385L13.2601 -0.991252ZM14.7857 4.36808V3.96346H-1.21432V4.36808H14.7857ZM14.7857 3.96346C14.7857 1.68056 13.8584 -0.474656 12.2629 -2.03752L1.06646 9.39222C-0.374043 7.98112 -1.21432 6.03174 -1.21432 3.96346H14.7857ZM12.2629 -2.03752C10.6731 -3.5949 8.55129 -4.44116 6.37262 -4.44116V11.5588C4.41305 11.5588 2.50136 10.7978 1.06646 9.39222L12.2629 -2.03752ZM6.37262 -4.44116C4.19395 -4.44116 2.07214 -3.5949 0.482312 -2.03752L11.6788 9.39222C10.2439 10.7978 8.3322 11.5588 6.37262 11.5588V-4.44116ZM0.482312 -2.03752C-1.11311 -0.474656 -2.04043 1.68056 -2.04043 3.96346H13.9596C13.9596 6.03174 13.1193 7.98112 11.6788 9.39222L0.482312 -2.03752Z" fill="url(#paint0_linear_1112_455)" mask="url(#path-1-inside-1_1112_455)"/>
<mask id="path-3-inside-2_1112_455" fill="white">
<path d="M12.0846 24.5969C12.083 24.0841 11.8786 23.5927 11.516 23.2301C11.1534 22.8674 10.662 22.663 10.1491 22.6615H2.40735C1.89451 22.663 1.40311 22.8674 1.04048 23.2301C0.677844 23.5927 0.47344 24.0841 0.471909 24.5969V25.8872C0.473155 26.365 0.652593 26.8251 0.975124 27.1775C0.652593 27.53 0.473155 27.9901 0.471909 28.4678V29.7581C0.473155 30.2359 0.652593 30.696 0.975124 31.0484C0.652593 31.4009 0.473155 31.861 0.471909 32.3387V33.629C0.473155 34.1068 0.652593 34.5669 0.975124 34.9193C0.652593 35.2718 0.473155 35.7319 0.471909 36.2096V37.4999C0.47344 38.0128 0.677844 38.5042 1.04048 38.8668C1.40311 39.2294 1.89451 39.4338 2.40735 39.4354H10.1491C10.662 39.4338 11.1534 39.2294 11.516 38.8668C11.8786 38.5042 12.083 38.0128 12.0846 37.4999V36.2096C12.0833 35.7319 11.9039 35.2718 11.5814 34.9193C11.9039 34.5669 12.0833 34.1068 12.0846 33.629V32.3387C12.0833 31.861 11.9039 31.4009 11.5814 31.0484C11.9039 30.696 12.0833 30.2359 12.0846 29.7581V28.4678C12.0833 27.9901 11.9039 27.53 11.5814 27.1775C11.9039 26.8251 12.0833 26.365 12.0846 25.8872V24.5969ZM10.7943 37.4999C10.7943 37.671 10.7263 37.8351 10.6053 37.9561C10.4843 38.0771 10.3202 38.1451 10.1491 38.1451H9.50399V36.8548H8.21369V38.1451H6.92339V36.8548H5.6331V38.1451H4.3428V36.8548H3.0525V38.1451H2.40735C2.23625 38.1451 2.07215 38.0771 1.95117 37.9561C1.83018 37.8351 1.76221 37.671 1.76221 37.4999V36.2096C1.76221 36.0385 1.83018 35.8744 1.95117 35.7534C2.07215 35.6324 2.23625 35.5645 2.40735 35.5645H10.1491C10.3202 35.5645 10.4843 35.6324 10.6053 35.7534C10.7263 35.8744 10.7943 36.0385 10.7943 36.2096V37.4999ZM10.7943 33.629C10.7943 33.8001 10.7263 33.9642 10.6053 34.0852C10.4843 34.2062 10.3202 34.2742 10.1491 34.2742H9.50399V32.9839H8.21369V34.2742H6.92339V32.9839H5.6331V34.2742H4.3428V32.9839H3.0525V34.2742H2.40735C2.23625 34.2742 2.07215 34.2062 1.95117 34.0852C1.83018 33.9642 1.76221 33.8001 1.76221 33.629V32.3387C1.76221 32.1676 1.83018 32.0035 1.95117 31.8825C2.07215 31.7615 2.23625 31.6936 2.40735 31.6936H10.1491C10.3202 31.6936 10.4843 31.7615 10.6053 31.8825C10.7263 32.0035 10.7943 32.1676 10.7943 32.3387V33.629ZM10.7943 29.7581C10.7943 29.9292 10.7263 30.0933 10.6053 30.2143C10.4843 30.3353 10.3202 30.4033 10.1491 30.4033H9.50399V29.113H8.21369V30.4033H6.92339V29.113H5.6331V30.4033H4.3428V29.113H3.0525V30.4033H2.40735C2.23625 30.4033 2.07215 30.3353 1.95117 30.2143C1.83018 30.0933 1.76221 29.9292 1.76221 29.7581V28.4678C1.76221 28.2967 1.83018 28.1326 1.95117 28.0116C2.07215 27.8907 2.23625 27.8227 2.40735 27.8227H10.1491C10.3202 27.8227 10.4843 27.8907 10.6053 28.0116C10.7263 28.1326 10.7943 28.2967 10.7943 28.4678V29.7581ZM10.7943 25.8872C10.7943 26.0583 10.7263 26.2224 10.6053 26.3434C10.4843 26.4644 10.3202 26.5324 10.1491 26.5324H9.50399V25.2421H8.21369V26.5324H6.92339V25.2421H5.6331V26.5324H4.3428V25.2421H3.0525V26.5324H2.40735C2.23625 26.5324 2.07215 26.4644 1.95117 26.3434C1.83018 26.2224 1.76221 26.0583 1.76221 25.8872V24.5969C1.76221 24.4258 1.83018 24.2617 1.95117 24.1408C2.07215 24.0198 2.23625 23.9518 2.40735 23.9518H10.1491C10.3202 23.9518 10.4843 24.0198 10.6053 24.1408C10.7263 24.2617 10.7943 24.4258 10.7943 24.5969V25.8872Z"/>
</mask>
<path d="M12.0846 24.5969C12.083 24.0841 11.8786 23.5927 11.516 23.2301C11.1534 22.8674 10.662 22.663 10.1491 22.6615H2.40735C1.89451 22.663 1.40311 22.8674 1.04048 23.2301C0.677844 23.5927 0.47344 24.0841 0.471909 24.5969V25.8872C0.473155 26.365 0.652593 26.8251 0.975124 27.1775C0.652593 27.53 0.473155 27.9901 0.471909 28.4678V29.7581C0.473155 30.2359 0.652593 30.696 0.975124 31.0484C0.652593 31.4009 0.473155 31.861 0.471909 32.3387V33.629C0.473155 34.1068 0.652593 34.5669 0.975124 34.9193C0.652593 35.2718 0.473155 35.7319 0.471909 36.2096V37.4999C0.47344 38.0128 0.677844 38.5042 1.04048 38.8668C1.40311 39.2294 1.89451 39.4338 2.40735 39.4354H10.1491C10.662 39.4338 11.1534 39.2294 11.516 38.8668C11.8786 38.5042 12.083 38.0128 12.0846 37.4999V36.2096C12.0833 35.7319 11.9039 35.2718 11.5814 34.9193C11.9039 34.5669 12.0833 34.1068 12.0846 33.629V32.3387C12.0833 31.861 11.9039 31.4009 11.5814 31.0484C11.9039 30.696 12.0833 30.2359 12.0846 29.7581V28.4678C12.0833 27.9901 11.9039 27.53 11.5814 27.1775C11.9039 26.8251 12.0833 26.365 12.0846 25.8872V24.5969ZM10.7943 37.4999C10.7943 37.671 10.7263 37.8351 10.6053 37.9561C10.4843 38.0771 10.3202 38.1451 10.1491 38.1451H9.50399V36.8548H8.21369V38.1451H6.92339V36.8548H5.6331V38.1451H4.3428V36.8548H3.0525V38.1451H2.40735C2.23625 38.1451 2.07215 38.0771 1.95117 37.9561C1.83018 37.8351 1.76221 37.671 1.76221 37.4999V36.2096C1.76221 36.0385 1.83018 35.8744 1.95117 35.7534C2.07215 35.6324 2.23625 35.5645 2.40735 35.5645H10.1491C10.3202 35.5645 10.4843 35.6324 10.6053 35.7534C10.7263 35.8744 10.7943 36.0385 10.7943 36.2096V37.4999ZM10.7943 33.629C10.7943 33.8001 10.7263 33.9642 10.6053 34.0852C10.4843 34.2062 10.3202 34.2742 10.1491 34.2742H9.50399V32.9839H8.21369V34.2742H6.92339V32.9839H5.6331V34.2742H4.3428V32.9839H3.0525V34.2742H2.40735C2.23625 34.2742 2.07215 34.2062 1.95117 34.0852C1.83018 33.9642 1.76221 33.8001 1.76221 33.629V32.3387C1.76221 32.1676 1.83018 32.0035 1.95117 31.8825C2.07215 31.7615 2.23625 31.6936 2.40735 31.6936H10.1491C10.3202 31.6936 10.4843 31.7615 10.6053 31.8825C10.7263 32.0035 10.7943 32.1676 10.7943 32.3387V33.629ZM10.7943 29.7581C10.7943 29.9292 10.7263 30.0933 10.6053 30.2143C10.4843 30.3353 10.3202 30.4033 10.1491 30.4033H9.50399V29.113H8.21369V30.4033H6.92339V29.113H5.6331V30.4033H4.3428V29.113H3.0525V30.4033H2.40735C2.23625 30.4033 2.07215 30.3353 1.95117 30.2143C1.83018 30.0933 1.76221 29.9292 1.76221 29.7581V28.4678C1.76221 28.2967 1.83018 28.1326 1.95117 28.0116C2.07215 27.8907 2.23625 27.8227 2.40735 27.8227H10.1491C10.3202 27.8227 10.4843 27.8907 10.6053 28.0116C10.7263 28.1326 10.7943 28.2967 10.7943 28.4678V29.7581ZM10.7943 25.8872C10.7943 26.0583 10.7263 26.2224 10.6053 26.3434C10.4843 26.4644 10.3202 26.5324 10.1491 26.5324H9.50399V25.2421H8.21369V26.5324H6.92339V25.2421H5.6331V26.5324H4.3428V25.2421H3.0525V26.5324H2.40735C2.23625 26.5324 2.07215 26.4644 1.95117 26.3434C1.83018 26.2224 1.76221 26.0583 1.76221 25.8872V24.5969C1.76221 24.4258 1.83018 24.2617 1.95117 24.1408C2.07215 24.0198 2.23625 23.9518 2.40735 23.9518H10.1491C10.3202 23.9518 10.4843 24.0198 10.6053 24.1408C10.7263 24.2617 10.7943 24.4258 10.7943 24.5969V25.8872Z" fill="#F2F2F2" stroke="url(#paint1_linear_1112_455)" stroke-width="16" mask="url(#path-3-inside-2_1112_455)"/>
<mask id="path-4-inside-3_1112_455" fill="white">
<path d="M25.6327 20.726C25.6312 20.2131 25.4268 19.7217 25.0641 19.3591C24.7015 18.9965 24.2101 18.7921 23.6972 18.7905H15.9555C15.4426 18.7921 14.9512 18.9965 14.5886 19.3591C14.226 19.7217 14.0216 20.2131 14.02 20.726V22.0163C14.0213 22.494 14.2007 22.9541 14.5232 23.3066C14.2007 23.659 14.0213 24.1191 14.02 24.5969V25.8872C14.0213 26.3649 14.2007 26.825 14.5232 27.1775C14.2007 27.5299 14.0213 27.99 14.02 28.4678V29.7581C14.0213 30.2358 14.2007 30.6959 14.5232 31.0483C14.2007 31.4008 14.0213 31.8609 14.02 32.3386V33.6289C14.0213 34.1067 14.2007 34.5668 14.5232 34.9192C14.2007 35.2717 14.0213 35.7318 14.02 36.2095V37.4998C14.0216 38.0127 14.226 38.5041 14.5886 38.8667C14.9512 39.2293 15.4426 39.4337 15.9555 39.4353H23.6972C24.2101 39.4337 24.7015 39.2293 25.0641 38.8667C25.4268 38.5041 25.6312 38.0127 25.6327 37.4998V36.2095C25.6314 35.7318 25.452 35.2717 25.1295 34.9192C25.452 34.5668 25.6314 34.1067 25.6327 33.6289V32.3386C25.6314 31.8609 25.452 31.4008 25.1295 31.0483C25.452 30.6959 25.6314 30.2358 25.6327 29.7581V28.4678C25.6314 27.99 25.452 27.5299 25.1295 27.1775C25.452 26.825 25.6314 26.3649 25.6327 25.8872V24.5969C25.6314 24.1191 25.452 23.659 25.1295 23.3066C25.452 22.9541 25.6314 22.494 25.6327 22.0163V20.726ZM24.3424 37.4998C24.3424 37.6709 24.2744 37.835 24.1534 37.956C24.0324 38.077 23.8684 38.145 23.6972 38.145H23.0521V36.8547H21.7618V38.145H20.4715V36.8547H19.1812V38.145H17.8909V36.8547H16.6006V38.145H15.9555C15.7844 38.145 15.6203 38.077 15.4993 37.956C15.3783 37.835 15.3103 37.6709 15.3103 37.4998V36.2095C15.3103 36.0384 15.3783 35.8743 15.4993 35.7533C15.6203 35.6324 15.7844 35.5644 15.9555 35.5644H23.6972C23.8684 35.5644 24.0324 35.6324 24.1534 35.7533C24.2744 35.8743 24.3424 36.0384 24.3424 36.2095V37.4998ZM24.3424 33.6289C24.3424 33.8 24.2744 33.9641 24.1534 34.0851C24.0324 34.2061 23.8684 34.2741 23.6972 34.2741H23.0521V32.9838H21.7618V34.2741H20.4715V32.9838H19.1812V34.2741H17.8909V32.9838H16.6006V34.2741H15.9555C15.7844 34.2741 15.6203 34.2061 15.4993 34.0851C15.3783 33.9641 15.3103 33.8 15.3103 33.6289V32.3386C15.3103 32.1675 15.3783 32.0034 15.4993 31.8825C15.6203 31.7615 15.7844 31.6935 15.9555 31.6935H23.6972C23.8684 31.6935 24.0324 31.7615 24.1534 31.8825C24.2744 32.0034 24.3424 32.1675 24.3424 32.3386V33.6289ZM24.3424 29.7581C24.3424 29.9292 24.2744 30.0933 24.1534 30.2142C24.0324 30.3352 23.8684 30.4032 23.6972 30.4032H23.0521V29.1129H21.7618V30.4032H20.4715V29.1129H19.1812V30.4032H17.8909V29.1129H16.6006V30.4032H15.9555C15.7844 30.4032 15.6203 30.3352 15.4993 30.2142C15.3783 30.0933 15.3103 29.9292 15.3103 29.7581V28.4678C15.3103 28.2966 15.3783 28.1326 15.4993 28.0116C15.6203 27.8906 15.7844 27.8226 15.9555 27.8226H23.6972C23.8684 27.8226 24.0324 27.8906 24.1534 28.0116C24.2744 28.1326 24.3424 28.2966 24.3424 28.4678V29.7581ZM24.3424 25.8872C24.3424 26.0583 24.2744 26.2224 24.1534 26.3433C24.0324 26.4643 23.8684 26.5323 23.6972 26.5323H23.0521V25.242H21.7618V26.5323H20.4715V25.242H19.1812V26.5323H17.8909V25.242H16.6006V26.5323H15.9555C15.7844 26.5323 15.6203 26.4643 15.4993 26.3433C15.3783 26.2224 15.3103 26.0583 15.3103 25.8872V24.5969C15.3103 24.4258 15.3783 24.2617 15.4993 24.1407C15.6203 24.0197 15.7844 23.9517 15.9555 23.9517H23.6972C23.8684 23.9517 24.0324 24.0197 24.1534 24.1407C24.2744 24.2617 24.3424 24.4258 24.3424 24.5969V25.8872ZM24.3424 22.0163C24.3424 22.1874 24.2744 22.3515 24.1534 22.4725C24.0324 22.5934 23.8684 22.6614 23.6972 22.6614H23.0521V21.3711H21.7618V22.6614H20.4715V21.3711H19.1812V22.6614H17.8909V21.3711H16.6006V22.6614H15.9555C15.7844 22.6614 15.6203 22.5934 15.4993 22.4725C15.3783 22.3515 15.3103 22.1874 15.3103 22.0163V20.726C15.3103 20.5549 15.3783 20.3908 15.4993 20.2698C15.6203 20.1488 15.7844 20.0808 15.9555 20.0808H23.6972C23.8684 20.0808 24.0324 20.1488 24.1534 20.2698C24.2744 20.3908 24.3424 20.5549 24.3424 20.726V22.0163Z"/>
</mask>
<path d="M25.6327 20.726C25.6312 20.2131 25.4268 19.7217 25.0641 19.3591C24.7015 18.9965 24.2101 18.7921 23.6972 18.7905H15.9555C15.4426 18.7921 14.9512 18.9965 14.5886 19.3591C14.226 19.7217 14.0216 20.2131 14.02 20.726V22.0163C14.0213 22.494 14.2007 22.9541 14.5232 23.3066C14.2007 23.659 14.0213 24.1191 14.02 24.5969V25.8872C14.0213 26.3649 14.2007 26.825 14.5232 27.1775C14.2007 27.5299 14.0213 27.99 14.02 28.4678V29.7581C14.0213 30.2358 14.2007 30.6959 14.5232 31.0483C14.2007 31.4008 14.0213 31.8609 14.02 32.3386V33.6289C14.0213 34.1067 14.2007 34.5668 14.5232 34.9192C14.2007 35.2717 14.0213 35.7318 14.02 36.2095V37.4998C14.0216 38.0127 14.226 38.5041 14.5886 38.8667C14.9512 39.2293 15.4426 39.4337 15.9555 39.4353H23.6972C24.2101 39.4337 24.7015 39.2293 25.0641 38.8667C25.4268 38.5041 25.6312 38.0127 25.6327 37.4998V36.2095C25.6314 35.7318 25.452 35.2717 25.1295 34.9192C25.452 34.5668 25.6314 34.1067 25.6327 33.6289V32.3386C25.6314 31.8609 25.452 31.4008 25.1295 31.0483C25.452 30.6959 25.6314 30.2358 25.6327 29.7581V28.4678C25.6314 27.99 25.452 27.5299 25.1295 27.1775C25.452 26.825 25.6314 26.3649 25.6327 25.8872V24.5969C25.6314 24.1191 25.452 23.659 25.1295 23.3066C25.452 22.9541 25.6314 22.494 25.6327 22.0163V20.726ZM24.3424 37.4998C24.3424 37.6709 24.2744 37.835 24.1534 37.956C24.0324 38.077 23.8684 38.145 23.6972 38.145H23.0521V36.8547H21.7618V38.145H20.4715V36.8547H19.1812V38.145H17.8909V36.8547H16.6006V38.145H15.9555C15.7844 38.145 15.6203 38.077 15.4993 37.956C15.3783 37.835 15.3103 37.6709 15.3103 37.4998V36.2095C15.3103 36.0384 15.3783 35.8743 15.4993 35.7533C15.6203 35.6324 15.7844 35.5644 15.9555 35.5644H23.6972C23.8684 35.5644 24.0324 35.6324 24.1534 35.7533C24.2744 35.8743 24.3424 36.0384 24.3424 36.2095V37.4998ZM24.3424 33.6289C24.3424 33.8 24.2744 33.9641 24.1534 34.0851C24.0324 34.2061 23.8684 34.2741 23.6972 34.2741H23.0521V32.9838H21.7618V34.2741H20.4715V32.9838H19.1812V34.2741H17.8909V32.9838H16.6006V34.2741H15.9555C15.7844 34.2741 15.6203 34.2061 15.4993 34.0851C15.3783 33.9641 15.3103 33.8 15.3103 33.6289V32.3386C15.3103 32.1675 15.3783 32.0034 15.4993 31.8825C15.6203 31.7615 15.7844 31.6935 15.9555 31.6935H23.6972C23.8684 31.6935 24.0324 31.7615 24.1534 31.8825C24.2744 32.0034 24.3424 32.1675 24.3424 32.3386V33.6289ZM24.3424 29.7581C24.3424 29.9292 24.2744 30.0933 24.1534 30.2142C24.0324 30.3352 23.8684 30.4032 23.6972 30.4032H23.0521V29.1129H21.7618V30.4032H20.4715V29.1129H19.1812V30.4032H17.8909V29.1129H16.6006V30.4032H15.9555C15.7844 30.4032 15.6203 30.3352 15.4993 30.2142C15.3783 30.0933 15.3103 29.9292 15.3103 29.7581V28.4678C15.3103 28.2966 15.3783 28.1326 15.4993 28.0116C15.6203 27.8906 15.7844 27.8226 15.9555 27.8226H23.6972C23.8684 27.8226 24.0324 27.8906 24.1534 28.0116C24.2744 28.1326 24.3424 28.2966 24.3424 28.4678V29.7581ZM24.3424 25.8872C24.3424 26.0583 24.2744 26.2224 24.1534 26.3433C24.0324 26.4643 23.8684 26.5323 23.6972 26.5323H23.0521V25.242H21.7618V26.5323H20.4715V25.242H19.1812V26.5323H17.8909V25.242H16.6006V26.5323H15.9555C15.7844 26.5323 15.6203 26.4643 15.4993 26.3433C15.3783 26.2224 15.3103 26.0583 15.3103 25.8872V24.5969C15.3103 24.4258 15.3783 24.2617 15.4993 24.1407C15.6203 24.0197 15.7844 23.9517 15.9555 23.9517H23.6972C23.8684 23.9517 24.0324 24.0197 24.1534 24.1407C24.2744 24.2617 24.3424 24.4258 24.3424 24.5969V25.8872ZM24.3424 22.0163C24.3424 22.1874 24.2744 22.3515 24.1534 22.4725C24.0324 22.5934 23.8684 22.6614 23.6972 22.6614H23.0521V21.3711H21.7618V22.6614H20.4715V21.3711H19.1812V22.6614H17.8909V21.3711H16.6006V22.6614H15.9555C15.7844 22.6614 15.6203 22.5934 15.4993 22.4725C15.3783 22.3515 15.3103 22.1874 15.3103 22.0163V20.726C15.3103 20.5549 15.3783 20.3908 15.4993 20.2698C15.6203 20.1488 15.7844 20.0808 15.9555 20.0808H23.6972C23.8684 20.0808 24.0324 20.1488 24.1534 20.2698C24.2744 20.3908 24.3424 20.5549 24.3424 20.726V22.0163Z" fill="#F2F2F2" stroke="url(#paint2_linear_1112_455)" stroke-width="16" mask="url(#path-4-inside-3_1112_455)"/>
<mask id="path-5-inside-4_1112_455" fill="white">
<path d="M39.1808 12.9843C39.1793 12.4714 38.9749 11.98 38.6123 11.6174C38.2496 11.2548 37.7582 11.0504 37.2454 11.0488H29.5036C28.9908 11.0504 28.4994 11.2548 28.1367 11.6174C27.7741 11.98 27.5697 12.4714 27.5682 12.9843V14.2746C27.5694 14.7523 27.7488 15.2124 28.0714 15.5649C27.7488 15.9173 27.5694 16.3774 27.5682 16.8552V18.1455C27.5694 18.6232 27.7488 19.0833 28.0714 19.4358C27.7488 19.7882 27.5694 20.2483 27.5682 20.7261V22.0164C27.5694 22.4941 27.7488 22.9542 28.0714 23.3066C27.7488 23.6591 27.5694 24.1192 27.5682 24.5969V25.8872C27.5694 26.365 27.7488 26.8251 28.0714 27.1775C27.7488 27.53 27.5694 27.9901 27.5682 28.4678V29.7581C27.5694 30.2359 27.7488 30.696 28.0714 31.0484C27.7488 31.4009 27.5694 31.861 27.5682 32.3387V33.629C27.5694 34.1068 27.7488 34.5669 28.0714 34.9193C27.7488 35.2718 27.5694 35.7319 27.5682 36.2096V37.4999C27.5697 38.0128 27.7741 38.5042 28.1367 38.8668C28.4994 39.2294 28.9908 39.4338 29.5036 39.4354H37.2454C37.7582 39.4338 38.2496 39.2294 38.6123 38.8668C38.9749 38.5042 39.1793 38.0128 39.1808 37.4999V36.2096C39.1796 35.7319 39.0001 35.2718 38.6776 34.9193C39.0001 34.5669 39.1796 34.1068 39.1808 33.629V32.3387C39.1796 31.861 39.0001 31.4009 38.6776 31.0484C39.0001 30.696 39.1796 30.2359 39.1808 29.7581V28.4678C39.1796 27.9901 39.0001 27.53 38.6776 27.1775C39.0001 26.8251 39.1796 26.365 39.1808 25.8872V24.5969C39.1796 24.1192 39.0001 23.6591 38.6776 23.3066C39.0001 22.9542 39.1796 22.4941 39.1808 22.0164V20.7261C39.1796 20.2483 39.0001 19.7882 38.6776 19.4358C39.0001 19.0833 39.1796 18.6232 39.1808 18.1455V16.8552C39.1796 16.3774 39.0001 15.9173 38.6776 15.5649C39.0001 15.2124 39.1796 14.7523 39.1808 14.2746V12.9843ZM37.8905 37.4999C37.8905 37.671 37.8226 37.8351 37.7016 37.9561C37.5806 38.0771 37.4165 38.1451 37.2454 38.1451H36.6002V36.8548H35.3099V38.1451H34.0196V36.8548H32.7293V38.1451H31.4391V36.8548H30.1488V38.1451H29.5036C29.3325 38.1451 29.1684 38.0771 29.0474 37.9561C28.9264 37.8351 28.8585 37.671 28.8585 37.4999V36.2096C28.8585 36.0385 28.9264 35.8744 29.0474 35.7534C29.1684 35.6324 29.3325 35.5645 29.5036 35.5645H37.2454C37.4165 35.5645 37.5806 35.6324 37.7016 35.7534C37.8226 35.8744 37.8905 36.0385 37.8905 36.2096V37.4999ZM37.8905 33.629C37.8905 33.8001 37.8226 33.9642 37.7016 34.0852C37.5806 34.2062 37.4165 34.2742 37.2454 34.2742H36.6002V32.9839H35.3099V34.2742H34.0196V32.9839H32.7293V34.2742H31.4391V32.9839H30.1488V34.2742H29.5036C29.3325 34.2742 29.1684 34.2062 29.0474 34.0852C28.9264 33.9642 28.8585 33.8001 28.8585 33.629V32.3387C28.8585 32.1676 28.9264 32.0035 29.0474 31.8825C29.1684 31.7615 29.3325 31.6936 29.5036 31.6936H37.2454C37.4165 31.6936 37.5806 31.7615 37.7016 31.8825C37.8226 32.0035 37.8905 32.1676 37.8905 32.3387V33.629ZM37.8905 29.7581C37.8905 29.9292 37.8226 30.0933 37.7016 30.2143C37.5806 30.3353 37.4165 30.4033 37.2454 30.4033H36.6002V29.113H35.3099V30.4033H34.0196V29.113H32.7293V30.4033H31.4391V29.113H30.1488V30.4033H29.5036C29.3325 30.4033 29.1684 30.3353 29.0474 30.2143C28.9264 30.0933 28.8585 29.9292 28.8585 29.7581V28.4678C28.8585 28.2967 28.9264 28.1326 29.0474 28.0116C29.1684 27.8907 29.3325 27.8227 29.5036 27.8227H37.2454C37.4165 27.8227 37.5806 27.8907 37.7016 28.0116C37.8226 28.1326 37.8905 28.2967 37.8905 28.4678V29.7581ZM37.8905 25.8872C37.8905 26.0583 37.8226 26.2224 37.7016 26.3434C37.5806 26.4644 37.4165 26.5324 37.2454 26.5324H36.6002V25.2421H35.3099V26.5324H34.0196V25.2421H32.7293V26.5324H31.4391V25.2421H30.1488V26.5324H29.5036C29.3325 26.5324 29.1684 26.4644 29.0474 26.3434C28.9264 26.2224 28.8585 26.0583 28.8585 25.8872V24.5969C28.8585 24.4258 28.9264 24.2617 29.0474 24.1408C29.1684 24.0198 29.3325 23.9518 29.5036 23.9518H37.2454C37.4165 23.9518 37.5806 24.0198 37.7016 24.1408C37.8226 24.2617 37.8905 24.4258 37.8905 24.5969V25.8872ZM37.8905 22.0164C37.8905 22.1875 37.8226 22.3516 37.7016 22.4725C37.5806 22.5935 37.4165 22.6615 37.2454 22.6615H36.6002V21.3712H35.3099V22.6615H34.0196V21.3712H32.7293V22.6615H31.4391V21.3712H30.1488V22.6615H29.5036C29.3325 22.6615 29.1684 22.5935 29.0474 22.4725C28.9264 22.3516 28.8585 22.1875 28.8585 22.0164V20.7261C28.8585 20.5549 28.9264 20.3909 29.0474 20.2699C29.1684 20.1489 29.3325 20.0809 29.5036 20.0809H37.2454C37.4165 20.0809 37.5806 20.1489 37.7016 20.2699C37.8226 20.3909 37.8905 20.5549 37.8905 20.7261V22.0164ZM37.8905 18.1455C37.8905 18.3166 37.8226 18.4807 37.7016 18.6016C37.5806 18.7226 37.4165 18.7906 37.2454 18.7906H36.6002V17.5003H35.3099V18.7906H34.0196V17.5003H32.7293V18.7906H31.4391V17.5003H30.1488V18.7906H29.5036C29.3325 18.7906 29.1684 18.7226 29.0474 18.6016C28.9264 18.4807 28.8585 18.3166 28.8585 18.1455V16.8552C28.8585 16.6841 28.9264 16.52 29.0474 16.399C29.1684 16.278 29.3325 16.21 29.5036 16.21H37.2454C37.4165 16.21 37.5806 16.278 37.7016 16.399C37.8226 16.52 37.8905 16.6841 37.8905 16.8552V18.1455ZM37.8905 14.2746C37.8905 14.4457 37.8226 14.6098 37.7016 14.7308C37.5806 14.8517 37.4165 14.9197 37.2454 14.9197H36.6002V13.6294H35.3099V14.9197H34.0196V13.6294H32.7293V14.9197H31.4391V13.6294H30.1488V14.9197H29.5036C29.3325 14.9197 29.1684 14.8517 29.0474 14.7308C28.9264 14.6098 28.8585 14.4457 28.8585 14.2746V12.9843C28.8585 12.8132 28.9264 12.6491 29.0474 12.5281C29.1684 12.4071 29.3325 12.3391 29.5036 12.3391H37.2454C37.4165 12.3391 37.5806 12.4071 37.7016 12.5281C37.8226 12.6491 37.8905 12.8132 37.8905 12.9843V14.2746Z"/>
</mask>
<path d="M39.1808 12.9843C39.1793 12.4714 38.9749 11.98 38.6123 11.6174C38.2496 11.2548 37.7582 11.0504 37.2454 11.0488H29.5036C28.9908 11.0504 28.4994 11.2548 28.1367 11.6174C27.7741 11.98 27.5697 12.4714 27.5682 12.9843V14.2746C27.5694 14.7523 27.7488 15.2124 28.0714 15.5649C27.7488 15.9173 27.5694 16.3774 27.5682 16.8552V18.1455C27.5694 18.6232 27.7488 19.0833 28.0714 19.4358C27.7488 19.7882 27.5694 20.2483 27.5682 20.7261V22.0164C27.5694 22.4941 27.7488 22.9542 28.0714 23.3066C27.7488 23.6591 27.5694 24.1192 27.5682 24.5969V25.8872C27.5694 26.365 27.7488 26.8251 28.0714 27.1775C27.7488 27.53 27.5694 27.9901 27.5682 28.4678V29.7581C27.5694 30.2359 27.7488 30.696 28.0714 31.0484C27.7488 31.4009 27.5694 31.861 27.5682 32.3387V33.629C27.5694 34.1068 27.7488 34.5669 28.0714 34.9193C27.7488 35.2718 27.5694 35.7319 27.5682 36.2096V37.4999C27.5697 38.0128 27.7741 38.5042 28.1367 38.8668C28.4994 39.2294 28.9908 39.4338 29.5036 39.4354H37.2454C37.7582 39.4338 38.2496 39.2294 38.6123 38.8668C38.9749 38.5042 39.1793 38.0128 39.1808 37.4999V36.2096C39.1796 35.7319 39.0001 35.2718 38.6776 34.9193C39.0001 34.5669 39.1796 34.1068 39.1808 33.629V32.3387C39.1796 31.861 39.0001 31.4009 38.6776 31.0484C39.0001 30.696 39.1796 30.2359 39.1808 29.7581V28.4678C39.1796 27.9901 39.0001 27.53 38.6776 27.1775C39.0001 26.8251 39.1796 26.365 39.1808 25.8872V24.5969C39.1796 24.1192 39.0001 23.6591 38.6776 23.3066C39.0001 22.9542 39.1796 22.4941 39.1808 22.0164V20.7261C39.1796 20.2483 39.0001 19.7882 38.6776 19.4358C39.0001 19.0833 39.1796 18.6232 39.1808 18.1455V16.8552C39.1796 16.3774 39.0001 15.9173 38.6776 15.5649C39.0001 15.2124 39.1796 14.7523 39.1808 14.2746V12.9843ZM37.8905 37.4999C37.8905 37.671 37.8226 37.8351 37.7016 37.9561C37.5806 38.0771 37.4165 38.1451 37.2454 38.1451H36.6002V36.8548H35.3099V38.1451H34.0196V36.8548H32.7293V38.1451H31.4391V36.8548H30.1488V38.1451H29.5036C29.3325 38.1451 29.1684 38.0771 29.0474 37.9561C28.9264 37.8351 28.8585 37.671 28.8585 37.4999V36.2096C28.8585 36.0385 28.9264 35.8744 29.0474 35.7534C29.1684 35.6324 29.3325 35.5645 29.5036 35.5645H37.2454C37.4165 35.5645 37.5806 35.6324 37.7016 35.7534C37.8226 35.8744 37.8905 36.0385 37.8905 36.2096V37.4999ZM37.8905 33.629C37.8905 33.8001 37.8226 33.9642 37.7016 34.0852C37.5806 34.2062 37.4165 34.2742 37.2454 34.2742H36.6002V32.9839H35.3099V34.2742H34.0196V32.9839H32.7293V34.2742H31.4391V32.9839H30.1488V34.2742H29.5036C29.3325 34.2742 29.1684 34.2062 29.0474 34.0852C28.9264 33.9642 28.8585 33.8001 28.8585 33.629V32.3387C28.8585 32.1676 28.9264 32.0035 29.0474 31.8825C29.1684 31.7615 29.3325 31.6936 29.5036 31.6936H37.2454C37.4165 31.6936 37.5806 31.7615 37.7016 31.8825C37.8226 32.0035 37.8905 32.1676 37.8905 32.3387V33.629ZM37.8905 29.7581C37.8905 29.9292 37.8226 30.0933 37.7016 30.2143C37.5806 30.3353 37.4165 30.4033 37.2454 30.4033H36.6002V29.113H35.3099V30.4033H34.0196V29.113H32.7293V30.4033H31.4391V29.113H30.1488V30.4033H29.5036C29.3325 30.4033 29.1684 30.3353 29.0474 30.2143C28.9264 30.0933 28.8585 29.9292 28.8585 29.7581V28.4678C28.8585 28.2967 28.9264 28.1326 29.0474 28.0116C29.1684 27.8907 29.3325 27.8227 29.5036 27.8227H37.2454C37.4165 27.8227 37.5806 27.8907 37.7016 28.0116C37.8226 28.1326 37.8905 28.2967 37.8905 28.4678V29.7581ZM37.8905 25.8872C37.8905 26.0583 37.8226 26.2224 37.7016 26.3434C37.5806 26.4644 37.4165 26.5324 37.2454 26.5324H36.6002V25.2421H35.3099V26.5324H34.0196V25.2421H32.7293V26.5324H31.4391V25.2421H30.1488V26.5324H29.5036C29.3325 26.5324 29.1684 26.4644 29.0474 26.3434C28.9264 26.2224 28.8585 26.0583 28.8585 25.8872V24.5969C28.8585 24.4258 28.9264 24.2617 29.0474 24.1408C29.1684 24.0198 29.3325 23.9518 29.5036 23.9518H37.2454C37.4165 23.9518 37.5806 24.0198 37.7016 24.1408C37.8226 24.2617 37.8905 24.4258 37.8905 24.5969V25.8872ZM37.8905 22.0164C37.8905 22.1875 37.8226 22.3516 37.7016 22.4725C37.5806 22.5935 37.4165 22.6615 37.2454 22.6615H36.6002V21.3712H35.3099V22.6615H34.0196V21.3712H32.7293V22.6615H31.4391V21.3712H30.1488V22.6615H29.5036C29.3325 22.6615 29.1684 22.5935 29.0474 22.4725C28.9264 22.3516 28.8585 22.1875 28.8585 22.0164V20.7261C28.8585 20.5549 28.9264 20.3909 29.0474 20.2699C29.1684 20.1489 29.3325 20.0809 29.5036 20.0809H37.2454C37.4165 20.0809 37.5806 20.1489 37.7016 20.2699C37.8226 20.3909 37.8905 20.5549 37.8905 20.7261V22.0164ZM37.8905 18.1455C37.8905 18.3166 37.8226 18.4807 37.7016 18.6016C37.5806 18.7226 37.4165 18.7906 37.2454 18.7906H36.6002V17.5003H35.3099V18.7906H34.0196V17.5003H32.7293V18.7906H31.4391V17.5003H30.1488V18.7906H29.5036C29.3325 18.7906 29.1684 18.7226 29.0474 18.6016C28.9264 18.4807 28.8585 18.3166 28.8585 18.1455V16.8552C28.8585 16.6841 28.9264 16.52 29.0474 16.399C29.1684 16.278 29.3325 16.21 29.5036 16.21H37.2454C37.4165 16.21 37.5806 16.278 37.7016 16.399C37.8226 16.52 37.8905 16.6841 37.8905 16.8552V18.1455ZM37.8905 14.2746C37.8905 14.4457 37.8226 14.6098 37.7016 14.7308C37.5806 14.8517 37.4165 14.9197 37.2454 14.9197H36.6002V13.6294H35.3099V14.9197H34.0196V13.6294H32.7293V14.9197H31.4391V13.6294H30.1488V14.9197H29.5036C29.3325 14.9197 29.1684 14.8517 29.0474 14.7308C28.9264 14.6098 28.8585 14.4457 28.8585 14.2746V12.9843C28.8585 12.8132 28.9264 12.6491 29.0474 12.5281C29.1684 12.4071 29.3325 12.3391 29.5036 12.3391H37.2454C37.4165 12.3391 37.5806 12.4071 37.7016 12.5281C37.8226 12.6491 37.8905 12.8132 37.8905 12.9843V14.2746Z" fill="#F2F2F2" stroke="url(#paint3_linear_1112_455)" stroke-width="16" mask="url(#path-5-inside-4_1112_455)"/>
<mask id="path-6-inside-5_1112_455" fill="white">
<path d="M5.80473 19.8731C5.86484 19.9388 5.93801 19.9912 6.01956 20.027C6.1011 20.0628 6.18922 20.0811 6.27827 20.0809C6.44059 20.081 6.59701 20.02 6.71632 19.9099L14.6478 12.5888L19.3703 17.3112C19.4912 17.4322 19.6553 17.5001 19.8264 17.5001C19.9975 17.5001 20.1615 17.4322 20.2825 17.3112L32.7293 4.8644V7.82305C32.7293 7.99416 32.7973 8.15825 32.9183 8.27924C33.0393 8.40023 33.2034 8.4682 33.3745 8.4682C33.5456 8.4682 33.7097 8.40023 33.8307 8.27924C33.9517 8.15825 34.0196 7.99416 34.0196 7.82305V3.30701C34.0196 3.13591 33.9517 2.97181 33.8307 2.85082C33.7097 2.72984 33.5456 2.66187 33.3745 2.66187H28.8585C28.6874 2.66187 28.5233 2.72984 28.4023 2.85082C28.2813 2.97181 28.2133 3.13591 28.2133 3.30701C28.2133 3.47812 28.2813 3.64221 28.4023 3.7632C28.5233 3.88419 28.6874 3.95216 28.8585 3.95216H31.8171L19.8264 15.9429L15.1213 11.2378C15.0035 11.1198 14.8446 11.0521 14.6779 11.0487C14.5112 11.0453 14.3496 11.1066 14.2271 11.2198L5.84021 18.9615C5.71464 19.0777 5.64035 19.239 5.6337 19.41C5.62704 19.5809 5.68856 19.7475 5.80473 19.8731Z"/>
</mask>
<path d="M5.80473 19.8731C5.86484 19.9388 5.93801 19.9912 6.01956 20.027C6.1011 20.0628 6.18922 20.0811 6.27827 20.0809C6.44059 20.081 6.59701 20.02 6.71632 19.9099L14.6478 12.5888L19.3703 17.3112C19.4912 17.4322 19.6553 17.5001 19.8264 17.5001C19.9975 17.5001 20.1615 17.4322 20.2825 17.3112L32.7293 4.8644V7.82305C32.7293 7.99416 32.7973 8.15825 32.9183 8.27924C33.0393 8.40023 33.2034 8.4682 33.3745 8.4682C33.5456 8.4682 33.7097 8.40023 33.8307 8.27924C33.9517 8.15825 34.0196 7.99416 34.0196 7.82305V3.30701C34.0196 3.13591 33.9517 2.97181 33.8307 2.85082C33.7097 2.72984 33.5456 2.66187 33.3745 2.66187H28.8585C28.6874 2.66187 28.5233 2.72984 28.4023 2.85082C28.2813 2.97181 28.2133 3.13591 28.2133 3.30701C28.2133 3.47812 28.2813 3.64221 28.4023 3.7632C28.5233 3.88419 28.6874 3.95216 28.8585 3.95216H31.8171L19.8264 15.9429L15.1213 11.2378C15.0035 11.1198 14.8446 11.0521 14.6779 11.0487C14.5112 11.0453 14.3496 11.1066 14.2271 11.2198L5.84021 18.9615C5.71464 19.0777 5.64035 19.239 5.6337 19.41C5.62704 19.5809 5.68856 19.7475 5.80473 19.8731Z" fill="#F2F2F2"/>
<path d="M5.80473 19.8731L11.7067 14.4726L11.6924 14.4568L11.6779 14.4412L5.80473 19.8731ZM6.27827 20.0809L6.28572 12.0809L6.27034 12.0809L6.25496 12.0809L6.27827 20.0809ZM6.71632 19.9099L12.1409 25.7899L12.1425 25.7884L6.71632 19.9099ZM14.6478 12.5888L20.3046 6.93191L14.8696 1.49688L9.22161 6.71026L14.6478 12.5888ZM19.3703 17.3112L13.7134 22.9681L13.7143 22.969L19.3703 17.3112ZM20.2825 17.3112L25.9385 22.969L25.9394 22.9681L20.2825 17.3112ZM32.7293 4.8644H40.7293V-14.4493L27.0725 -0.792453L32.7293 4.8644ZM31.8171 3.95216L37.474 9.60902L51.1308 -4.04784H31.8171V3.95216ZM19.8264 15.9429L14.1695 21.5997L19.8264 27.2566L25.4832 21.5997L19.8264 15.9429ZM15.1213 11.2378L9.46084 16.8911L9.46446 16.8947L15.1213 11.2378ZM14.2271 11.2198L19.6534 17.0982L19.6547 17.097L14.2271 11.2198ZM5.84021 18.9615L0.413965 13.0831L0.407063 13.0895L5.84021 18.9615ZM-0.0972924 25.2737C0.714977 26.1614 1.70374 26.8696 2.80568 27.3531L9.23344 12.701C10.1723 13.1128 11.0147 13.7163 11.7067 14.4726L-0.0972924 25.2737ZM2.80568 27.3531C3.90761 27.8365 5.09834 28.0843 6.30157 28.0808L6.25496 12.0809C7.2801 12.0779 8.2946 12.2891 9.23344 12.701L2.80568 27.3531ZM6.27081 28.0809C8.44602 28.0829 10.5421 27.2649 12.1409 25.7899L1.29178 14.0299C2.65196 12.7751 4.43517 12.0791 6.28572 12.0809L6.27081 28.0809ZM12.1425 25.7884L20.0739 18.4673L9.22161 6.71026L1.29016 14.0314L12.1425 25.7884ZM8.99092 18.2456L13.7134 22.9681L25.0271 11.6544L20.3046 6.93191L8.99092 18.2456ZM13.7143 22.969C15.3355 24.5897 17.534 25.5001 19.8264 25.5001V9.50014C21.7766 9.50014 23.647 10.2747 25.0263 11.6535L13.7143 22.969ZM19.8264 25.5001C22.1187 25.5001 24.3173 24.5897 25.9385 22.969L14.6265 11.6535C16.0058 10.2747 17.8762 9.50014 19.8264 9.50014V25.5001ZM25.9394 22.9681L38.3862 10.5213L27.0725 -0.792453L14.6256 11.6544L25.9394 22.9681ZM24.7293 4.8644V7.82305H40.7293V4.8644H24.7293ZM24.7293 7.82305C24.7293 10.1159 25.6402 12.3148 27.2615 13.9361L38.5752 2.62239C39.9545 4.0017 40.7293 5.87244 40.7293 7.82305H24.7293ZM27.2615 13.9361C28.8827 15.5574 31.0817 16.4682 33.3745 16.4682V0.4682C35.3251 0.4682 37.1959 1.24308 38.5752 2.62239L27.2615 13.9361ZM33.3745 16.4682C35.6673 16.4682 37.8663 15.5574 39.4875 13.9361L28.1738 2.62239C29.5531 1.24308 31.4239 0.4682 33.3745 0.4682V16.4682ZM39.4875 13.9361C41.1088 12.3148 42.0196 10.1159 42.0196 7.82305H26.0196C26.0196 5.87244 26.7945 4.0017 28.1738 2.62239L39.4875 13.9361ZM42.0196 7.82305V3.30701H26.0196V7.82305H42.0196ZM42.0196 3.30701C42.0196 1.01419 41.1088 -1.18474 39.4875 -2.80603L28.1738 8.50768C26.7945 7.12837 26.0196 5.25763 26.0196 3.30701H42.0196ZM39.4875 -2.80603C37.8663 -4.42731 35.6673 -5.33813 33.3745 -5.33813V10.6619C31.4239 10.6619 29.5531 9.88698 28.1738 8.50768L39.4875 -2.80603ZM33.3745 -5.33813H28.8585V10.6619H33.3745V-5.33813ZM28.8585 -5.33813C26.5656 -5.33813 24.3667 -4.42731 22.7454 -2.80603L34.0591 8.50768C32.6798 9.88698 30.8091 10.6619 28.8585 10.6619V-5.33813ZM22.7454 -2.80603C21.1241 -1.18474 20.2133 1.01419 20.2133 3.30701H36.2133C36.2133 5.25763 35.4384 7.12837 34.0591 8.50768L22.7454 -2.80603ZM20.2133 3.30701C20.2133 5.59984 21.1241 7.79877 22.7454 9.42006L34.0591 -1.89365C35.4384 -0.51434 36.2133 1.3564 36.2133 3.30701H20.2133ZM22.7454 9.42006C24.3667 11.0413 26.5656 11.9522 28.8585 11.9522V-4.04784C30.8091 -4.04784 32.6798 -3.27296 34.0591 -1.89365L22.7454 9.42006ZM28.8585 11.9522H31.8171V-4.04784H28.8585V11.9522ZM26.1603 -1.70469L14.1695 10.286L25.4832 21.5997L37.474 9.60902L26.1603 -1.70469ZM25.4832 10.286L20.7782 5.58097L9.46446 16.8947L14.1695 21.5997L25.4832 10.286ZM20.7818 5.58458C19.2029 4.00367 17.0733 3.09546 14.8394 3.05033L14.5163 19.0471C12.6159 19.0087 10.8041 18.236 9.46084 16.8911L20.7818 5.58458ZM14.8394 3.05033C12.6056 3.00521 10.4411 3.82666 8.79961 5.34252L19.6547 17.097C18.2582 18.3866 16.4167 19.0855 14.5163 19.0471L14.8394 3.05033ZM8.8009 5.34133L0.413969 13.0831L11.2665 24.84L19.6534 17.0982L8.8009 5.34133ZM0.407063 13.0895C-1.27568 14.6465 -2.27108 16.808 -2.36025 19.0988L13.6276 19.7211C13.5518 21.67 12.7049 23.509 11.2734 24.8336L0.407063 13.0895ZM-2.36025 19.0988C-2.44942 21.3896 -1.62503 23.622 -0.0684209 25.3051L11.6779 14.4412C13.0022 15.873 13.7035 17.7723 13.6276 19.7211L-2.36025 19.0988Z" fill="url(#paint4_linear_1112_455)" mask="url(#path-6-inside-5_1112_455)"/>
<mask id="path-8-inside-6_1112_455" fill="white">
<path d="M6.27823 12.3391C7.42661 12.3391 8.54921 11.9986 9.50406 11.3606C10.4589 10.7226 11.2031 9.81574 11.6426 8.75477C12.0821 7.6938 12.197 6.52634 11.973 5.40002C11.749 4.2737 11.196 3.23911 10.3839 2.42708C9.5719 1.61505 8.53731 1.06205 7.41099 0.83801C6.28467 0.613971 5.11721 0.728956 4.05624 1.16842C2.99527 1.60789 2.08845 2.3521 1.45044 3.30695C0.812429 4.2618 0.471893 5.38439 0.471893 6.53278C0.473601 8.07219 1.08589 9.54806 2.17442 10.6366C3.26294 11.7251 4.73882 12.3374 6.27823 12.3391ZM6.27823 2.01674C7.17142 2.01674 8.04455 2.2816 8.78721 2.77783C9.52986 3.27406 10.1087 3.97937 10.4505 4.80457C10.7923 5.62976 10.8817 6.53779 10.7075 7.41381C10.5332 8.28984 10.1031 9.09452 9.47155 9.7261C8.83997 10.3577 8.03529 10.7878 7.15926 10.962C6.28324 11.1363 5.37521 11.0469 4.55002 10.7051C3.72482 10.3632 3.01951 9.78441 2.52328 9.04175C2.02705 8.2991 1.76219 7.42597 1.76219 6.53278C1.76356 5.33547 2.23979 4.18759 3.08642 3.34097C3.93304 2.49434 5.08092 2.01811 6.27823 2.01674Z"/>
</mask>
<path d="M6.27823 12.3391C7.42661 12.3391 8.54921 11.9986 9.50406 11.3606C10.4589 10.7226 11.2031 9.81574 11.6426 8.75477C12.0821 7.6938 12.197 6.52634 11.973 5.40002C11.749 4.2737 11.196 3.23911 10.3839 2.42708C9.5719 1.61505 8.53731 1.06205 7.41099 0.83801C6.28467 0.613971 5.11721 0.728956 4.05624 1.16842C2.99527 1.60789 2.08845 2.3521 1.45044 3.30695C0.812429 4.2618 0.471893 5.38439 0.471893 6.53278C0.473601 8.07219 1.08589 9.54806 2.17442 10.6366C3.26294 11.7251 4.73882 12.3374 6.27823 12.3391ZM6.27823 2.01674C7.17142 2.01674 8.04455 2.2816 8.78721 2.77783C9.52986 3.27406 10.1087 3.97937 10.4505 4.80457C10.7923 5.62976 10.8817 6.53779 10.7075 7.41381C10.5332 8.28984 10.1031 9.09452 9.47155 9.7261C8.83997 10.3577 8.03529 10.7878 7.15926 10.962C6.28324 11.1363 5.37521 11.0469 4.55002 10.7051C3.72482 10.3632 3.01951 9.78441 2.52328 9.04175C2.02705 8.2991 1.76219 7.42597 1.76219 6.53278C1.76356 5.33547 2.23979 4.18759 3.08642 3.34097C3.93304 2.49434 5.08092 2.01811 6.27823 2.01674Z" fill="#F2F2F2"/>
<path d="M0.471893 6.53278H-7.52811L-7.5281 6.54165L0.471893 6.53278ZM6.27823 2.01674V-5.98327L6.2691 -5.98325L6.27823 2.01674ZM1.76219 6.53278L-6.23781 6.52365V6.53278H1.76219ZM6.27823 20.3391C9.00886 20.3391 11.6782 19.5294 13.9486 18.0123L5.05949 4.70881C5.42024 4.46777 5.84436 4.33911 6.27823 4.33911V20.3391ZM13.9486 18.0123C16.2191 16.4953 17.9886 14.339 19.0336 11.8162L4.25155 5.6933C4.41758 5.29246 4.69875 4.94985 5.05949 4.70881L13.9486 18.0123ZM19.0336 11.8162C20.0786 9.29346 20.352 6.51746 19.8193 3.8393L4.12672 6.96074C4.04207 6.53521 4.08551 6.09414 4.25155 5.6933L19.0336 11.8162ZM19.8193 3.8393C19.2866 1.16113 17.9716 -1.29893 16.0408 -3.22977L4.72707 8.08393C4.42029 7.77715 4.21136 7.38627 4.12672 6.96074L19.8193 3.8393ZM16.0408 -3.22977C14.1099 -5.16063 11.6499 -6.47555 8.97171 -7.00827L5.85027 8.68429C5.42474 8.59965 5.03386 8.39072 4.72707 8.08393L16.0408 -3.22977ZM8.97171 -7.00827C6.29354 -7.54099 3.51755 -7.26758 0.994773 -6.22261L7.11771 8.55946C6.71687 8.72549 6.27579 8.76894 5.85027 8.68429L8.97171 -7.00827ZM0.994773 -6.22261C-1.52801 -5.17764 -3.68426 -3.40805 -5.20132 -1.13761L8.10219 7.75151C7.86115 8.11226 7.51855 8.39343 7.11771 8.55946L0.994773 -6.22261ZM-5.20132 -1.13761C-6.71838 1.13283 -7.52811 3.80214 -7.52811 6.53278H8.47189C8.47189 6.96664 8.34324 7.39077 8.10219 7.75151L-5.20132 -1.13761ZM-7.5281 6.54165C-7.52404 10.1997 -6.06909 13.7068 -3.48244 16.2934L7.83127 4.97974C8.24086 5.38933 8.47125 5.94466 8.47189 6.5239L-7.5281 6.54165ZM-3.48244 16.2934C-0.895792 18.8801 2.61129 20.3351 6.26935 20.3391L6.2871 4.33912C6.86635 4.33976 7.42168 4.57015 7.83127 4.97974L-3.48244 16.2934ZM6.27823 10.0167C5.58917 10.0167 4.91558 9.81241 4.34264 9.42959L13.2318 -3.87393C11.1735 -5.24921 8.75367 -5.98326 6.27823 -5.98326V10.0167ZM4.34264 9.42959C3.76971 9.04677 3.32316 8.50265 3.05947 7.86603L17.8415 1.7431C16.8942 -0.543912 15.29 -2.49865 13.2318 -3.87393L4.34264 9.42959ZM3.05947 7.86603C2.79578 7.22942 2.72678 6.52891 2.86121 5.85309L18.5538 8.97454C19.0367 6.54666 18.7889 4.0301 17.8415 1.7431L3.05947 7.86603ZM2.86121 5.85309C2.99564 5.17727 3.32746 4.55648 3.8147 4.06925L15.1284 15.383C16.8788 13.6326 18.0708 11.4024 18.5538 8.97454L2.86121 5.85309ZM3.8147 4.06925C4.30193 3.58201 4.92272 3.25019 5.59854 3.11576L8.71999 18.8083C11.1479 18.3254 13.378 17.1334 15.1284 15.383L3.8147 4.06925ZM5.59854 3.11576C6.27436 2.98133 6.97487 3.05033 7.61148 3.31402L1.48855 18.0961C3.77556 19.0434 6.29211 19.2913 8.71999 18.8083L5.59854 3.11576ZM7.61148 3.31402C8.2481 3.57771 8.79222 4.02426 9.17504 4.59719L-4.12848 13.4863C-2.7532 15.5446 -0.798463 17.1488 1.48855 18.0961L7.61148 3.31402ZM9.17504 4.59719C9.55786 5.17013 9.76219 5.84372 9.76219 6.53278H-6.23781C-6.23781 9.00822 -5.50376 11.4281 -4.12848 13.4863L9.17504 4.59719ZM9.76219 6.54191C9.76113 7.46317 9.3947 8.34639 8.74327 8.99782L-2.57044 -2.31589C-4.91512 0.0287911 -6.23402 3.20777 -6.2378 6.52365L9.76219 6.54191ZM8.74327 8.99782C8.09184 9.64925 7.20862 10.0157 6.28736 10.0167L6.2691 -5.98325C2.95322 -5.97947 -0.225759 -4.66057 -2.57044 -2.31589L8.74327 8.99782Z" fill="url(#paint5_linear_1112_455)" mask="url(#path-8-inside-6_1112_455)"/>
</g>
<defs>
<linearGradient id="paint0_linear_1112_455" x1="4.72041" y1="6.3912" x2="8.02483" y2="6.3912" gradientUnits="userSpaceOnUse">
<stop stop-color="#A3BDED"/>
<stop offset="1" stop-color="#6991C7"/>
</linearGradient>
<linearGradient id="paint1_linear_1112_455" x1="0.471909" y1="31.0484" x2="12.0846" y2="31.0484" gradientUnits="userSpaceOnUse">
<stop stop-color="#A3BDED"/>
<stop offset="1" stop-color="#6991C7"/>
</linearGradient>
<linearGradient id="paint2_linear_1112_455" x1="14.02" y1="29.1129" x2="25.6327" y2="29.1129" gradientUnits="userSpaceOnUse">
<stop stop-color="#A3BDED"/>
<stop offset="1" stop-color="#6991C7"/>
</linearGradient>
<linearGradient id="paint3_linear_1112_455" x1="27.5682" y1="25.2421" x2="39.1808" y2="25.2421" gradientUnits="userSpaceOnUse">
<stop stop-color="#A3BDED"/>
<stop offset="1" stop-color="#6991C7"/>
</linearGradient>
<linearGradient id="paint4_linear_1112_455" x1="5.63321" y1="11.3714" x2="34.0196" y2="11.3714" gradientUnits="userSpaceOnUse">
<stop stop-color="#A3BDED"/>
<stop offset="1" stop-color="#6991C7"/>
</linearGradient>
<linearGradient id="paint5_linear_1112_455" x1="0.471893" y1="6.53278" x2="12.0846" y2="6.53278" gradientUnits="userSpaceOnUse">
<stop stop-color="#A3BDED"/>
<stop offset="1" stop-color="#6991C7"/>
</linearGradient>
</defs>
</svg>
