<svg width="37" height="38" viewBox="0 0 37 38" fill="none" xmlns="http://www.w3.org/2000/svg">
<mask id="path-1-inside-1_1112_609" fill="white">
<path d="M35.8534 30.5806L36.4528 29.6809C36.784 29.185 36.9606 28.6019 36.9603 28.0055V19.6743C36.9601 19.6215 36.9532 19.5689 36.9397 19.5179L33.6542 7.26853C33.5183 6.75253 33.2152 6.29611 32.7924 5.97067C32.3695 5.64522 31.8507 5.46911 31.3172 5.46986C31.1071 5.46918 30.8978 5.49641 30.6948 5.55082C30.0763 5.71773 29.5492 6.12313 29.2291 6.67812C28.909 7.2331 28.8221 7.89237 28.9874 8.51135L30.7643 15.1514C30.6641 15.1928 30.5666 15.2406 30.4725 15.2946C30.197 15.453 29.9558 15.6645 29.7627 15.9168C29.5695 16.1691 29.4284 16.4573 29.3475 16.7646L27.3114 24.361L27.251 24.61C26.8666 26.1491 27.0451 27.7749 27.7543 29.1939L28.4412 30.5642C28.4815 30.6488 28.5022 30.7413 28.5016 30.8349V31.1539H27.8975C27.7372 31.1539 27.5835 31.2176 27.4702 31.3309C27.3569 31.4442 27.2933 31.5979 27.2933 31.7581V36.5916C27.2933 36.7519 27.3569 36.9055 27.4702 37.0189C27.5835 37.1322 27.7372 37.1958 27.8975 37.1958H36.3561C36.5163 37.1958 36.67 37.1322 36.7833 37.0189C36.8966 36.9055 36.9603 36.7519 36.9603 36.5916V31.7581C36.9603 31.5979 36.8966 31.4442 36.7833 31.3309C36.67 31.2176 36.5163 31.1539 36.3561 31.1539H35.7519V30.9123C35.7524 30.7941 35.7877 30.6787 35.8534 30.5806ZM35.7519 35.9874H28.5016V32.3623H35.7519V35.9874ZM29.71 31.1539V30.8349C29.7097 30.5535 29.6444 30.276 29.5191 30.0241L28.8333 28.6532C28.2533 27.4922 28.1071 26.1622 28.4213 24.903L30.5142 17.0763C30.602 16.7723 30.8055 16.5149 31.0811 16.3593C31.3566 16.2038 31.6822 16.1625 31.9879 16.2444C32.2935 16.3263 32.5548 16.5248 32.7157 16.7973C32.8766 17.0698 32.9241 17.3945 32.8482 17.7017L31.7147 21.931C31.6732 22.0858 31.6949 22.2507 31.775 22.3895C31.8551 22.5283 31.9871 22.6296 32.1419 22.6711C32.2967 22.7126 32.4616 22.6909 32.6004 22.6108C32.7392 22.5307 32.8405 22.3987 32.882 22.244L34.0155 18.0146C34.0977 17.7081 34.1187 17.3883 34.0774 17.0736C34.036 16.7588 33.9331 16.4554 33.7744 16.1804C33.6157 15.9055 33.4045 15.6645 33.1526 15.4713C32.9008 15.278 32.6134 15.1363 32.3068 15.0541C32.1967 15.0248 32.0846 15.003 31.9715 14.9889L30.1547 8.20079C30.1132 8.04734 30.1024 7.88721 30.1229 7.72958C30.1434 7.57195 30.1948 7.41991 30.2742 7.28218C30.3536 7.14445 30.4593 7.02373 30.5854 6.92694C30.7115 6.83015 30.8555 6.75918 31.009 6.71812C31.1094 6.69085 31.2131 6.67744 31.3172 6.67824C31.5839 6.67819 31.8432 6.76641 32.0546 6.92914C32.2659 7.09187 32.4175 7.31997 32.4857 7.57788L35.7519 19.7541V28.0055C35.753 28.3631 35.6478 28.7131 35.4498 29.0109L34.8456 29.9099C34.6476 30.2077 34.5425 30.5576 34.5435 30.9153V31.1539H29.71Z"/>
</mask>
<path d="M35.8534 30.5806L36.4528 29.6809C36.784 29.185 36.9606 28.6019 36.9603 28.0055V19.6743C36.9601 19.6215 36.9532 19.5689 36.9397 19.5179L33.6542 7.26853C33.5183 6.75253 33.2152 6.29611 32.7924 5.97067C32.3695 5.64522 31.8507 5.46911 31.3172 5.46986C31.1071 5.46918 30.8978 5.49641 30.6948 5.55082C30.0763 5.71773 29.5492 6.12313 29.2291 6.67812C28.909 7.2331 28.8221 7.89237 28.9874 8.51135L30.7643 15.1514C30.6641 15.1928 30.5666 15.2406 30.4725 15.2946C30.197 15.453 29.9558 15.6645 29.7627 15.9168C29.5695 16.1691 29.4284 16.4573 29.3475 16.7646L27.3114 24.361L27.251 24.61C26.8666 26.1491 27.0451 27.7749 27.7543 29.1939L28.4412 30.5642C28.4815 30.6488 28.5022 30.7413 28.5016 30.8349V31.1539H27.8975C27.7372 31.1539 27.5835 31.2176 27.4702 31.3309C27.3569 31.4442 27.2933 31.5979 27.2933 31.7581V36.5916C27.2933 36.7519 27.3569 36.9055 27.4702 37.0189C27.5835 37.1322 27.7372 37.1958 27.8975 37.1958H36.3561C36.5163 37.1958 36.67 37.1322 36.7833 37.0189C36.8966 36.9055 36.9603 36.7519 36.9603 36.5916V31.7581C36.9603 31.5979 36.8966 31.4442 36.7833 31.3309C36.67 31.2176 36.5163 31.1539 36.3561 31.1539H35.7519V30.9123C35.7524 30.7941 35.7877 30.6787 35.8534 30.5806ZM35.7519 35.9874H28.5016V32.3623H35.7519V35.9874ZM29.71 31.1539V30.8349C29.7097 30.5535 29.6444 30.276 29.5191 30.0241L28.8333 28.6532C28.2533 27.4922 28.1071 26.1622 28.4213 24.903L30.5142 17.0763C30.602 16.7723 30.8055 16.5149 31.0811 16.3593C31.3566 16.2038 31.6822 16.1625 31.9879 16.2444C32.2935 16.3263 32.5548 16.5248 32.7157 16.7973C32.8766 17.0698 32.9241 17.3945 32.8482 17.7017L31.7147 21.931C31.6732 22.0858 31.6949 22.2507 31.775 22.3895C31.8551 22.5283 31.9871 22.6296 32.1419 22.6711C32.2967 22.7126 32.4616 22.6909 32.6004 22.6108C32.7392 22.5307 32.8405 22.3987 32.882 22.244L34.0155 18.0146C34.0977 17.7081 34.1187 17.3883 34.0774 17.0736C34.036 16.7588 33.9331 16.4554 33.7744 16.1804C33.6157 15.9055 33.4045 15.6645 33.1526 15.4713C32.9008 15.278 32.6134 15.1363 32.3068 15.0541C32.1967 15.0248 32.0846 15.003 31.9715 14.9889L30.1547 8.20079C30.1132 8.04734 30.1024 7.88721 30.1229 7.72958C30.1434 7.57195 30.1948 7.41991 30.2742 7.28218C30.3536 7.14445 30.4593 7.02373 30.5854 6.92694C30.7115 6.83015 30.8555 6.75918 31.009 6.71812C31.1094 6.69085 31.2131 6.67744 31.3172 6.67824C31.5839 6.67819 31.8432 6.76641 32.0546 6.92914C32.2659 7.09187 32.4175 7.31997 32.4857 7.57788L35.7519 19.7541V28.0055C35.753 28.3631 35.6478 28.7131 35.4498 29.0109L34.8456 29.9099C34.6476 30.2077 34.5425 30.5576 34.5435 30.9153V31.1539H29.71Z" fill="#F2F2F2"/>
<path d="M36.4528 29.6809L29.8003 25.2375L29.795 25.2454L36.4528 29.6809ZM36.9603 28.0055H28.9603L28.9603 28.0104L36.9603 28.0055ZM36.9603 19.6743H44.9603V19.6613L44.9602 19.6483L36.9603 19.6743ZM36.9397 19.5179L44.6754 17.4782L44.671 17.4618L44.6666 17.4453L36.9397 19.5179ZM33.6542 7.26853L25.9179 9.30558L25.9225 9.32334L25.9273 9.34107L33.6542 7.26853ZM31.3172 5.46986L31.2913 13.4698L31.3099 13.4699L31.3285 13.4699L31.3172 5.46986ZM30.6948 5.55082L28.6229 -2.17623L28.6106 -2.17291L30.6948 5.55082ZM28.9874 8.51135L21.2583 10.5754L21.2593 10.5794L28.9874 8.51135ZM30.7643 15.1514L33.8155 22.5467L40.308 19.868L38.4924 13.0833L30.7643 15.1514ZM30.4725 15.2946L26.4903 8.35613L26.4846 8.35938L30.4725 15.2946ZM29.3475 16.7646L37.0747 18.8357L37.0793 18.8188L37.0837 18.8019L29.3475 16.7646ZM27.3114 24.361L19.5841 22.2899L19.5595 22.3817L19.5371 22.4741L27.3114 24.361ZM27.251 24.61L35.0126 26.5484L35.019 26.5227L35.0253 26.4969L27.251 24.61ZM27.7543 29.1939L20.5982 32.7703L20.6026 32.7792L27.7543 29.1939ZM28.4412 30.5642L35.6621 27.1206L35.6282 27.0494L35.5929 26.979L28.4412 30.5642ZM28.5016 30.8349L20.5018 30.7888L20.5016 30.8118V30.8349H28.5016ZM28.5016 31.1539V39.1539H36.5016V31.1539H28.5016ZM35.7519 31.1539H27.7519V39.1539H35.7519V31.1539ZM35.7519 30.9123L27.752 30.8803L27.7519 30.8963V30.9123H35.7519ZM35.7519 35.9874V43.9874H43.7519V35.9874H35.7519ZM28.5016 35.9874H20.5016V43.9874H28.5016V35.9874ZM28.5016 32.3623V24.3623H20.5016V32.3623H28.5016ZM35.7519 32.3623H43.7519V24.3623H35.7519V32.3623ZM29.71 31.1539H21.71V39.1539H29.71V31.1539ZM29.71 30.8349H37.71L37.71 30.826L29.71 30.8349ZM29.5191 30.0241L36.6826 26.4625L36.6782 26.4538L36.6739 26.4451L29.5191 30.0241ZM28.8333 28.6532L21.677 32.229L21.6786 32.2322L28.8333 28.6532ZM28.4213 24.903L20.6928 22.8363L20.6755 22.9012L20.6592 22.9664L28.4213 24.903ZM30.5142 17.0763L22.8283 14.8566L22.8063 14.9329L22.7857 15.0097L30.5142 17.0763ZM32.8482 17.7017L40.5755 19.7726L40.5956 19.6975L40.6143 19.6219L32.8482 17.7017ZM31.7147 21.931L39.4418 24.0027L39.442 24.0019L31.7147 21.931ZM32.882 22.244L40.6091 24.3157L40.6093 24.3149L32.882 22.244ZM34.0155 18.0146L26.2886 15.942L26.2882 15.9437L34.0155 18.0146ZM32.3068 15.0541L34.3777 7.32677L34.3664 7.32378L32.3068 15.0541ZM31.9715 14.9889L24.2435 17.0572L25.6363 22.2611L30.982 22.9274L31.9715 14.9889ZM30.1547 8.20079L37.8827 6.13243L37.8801 6.12281L37.8775 6.1132L30.1547 8.20079ZM31.009 6.71812L33.0758 14.4465L33.0904 14.4426L33.105 14.4387L31.009 6.71812ZM31.3172 6.67824L31.2556 14.678L31.2871 14.6782L31.3187 14.6782L31.3172 6.67824ZM32.4857 7.57788L24.7512 9.62188L24.755 9.63624L24.7588 9.65058L32.4857 7.57788ZM35.7519 19.7541H43.7519V18.6997L43.4787 17.6814L35.7519 19.7541ZM35.7519 28.0055H27.7519V28.0175L27.7519 28.0296L35.7519 28.0055ZM35.4498 29.0109L42.0897 33.4731L42.1007 33.4568L42.1115 33.4405L35.4498 29.0109ZM34.8456 29.9099L28.2057 25.4476L28.1948 25.4639L28.1839 25.4803L34.8456 29.9099ZM34.5435 30.9153H42.5435V30.9032L42.5435 30.8912L34.5435 30.9153ZM34.5435 31.1539V39.1539H42.5435V31.1539H34.5435ZM42.5112 35.0161L43.1105 34.1165L29.795 25.2454L29.1956 26.145L42.5112 35.0161ZM43.1053 34.1244C44.316 32.3117 44.9616 30.1805 44.9603 28.0006L28.9603 28.0104C28.9597 27.0233 29.252 26.0583 29.8003 25.2375L43.1053 34.1244ZM44.9603 28.0055V19.6743H28.9603V28.0055H44.9603ZM44.9602 19.6483C44.9579 18.9157 44.8621 18.1865 44.6754 17.4782L29.2041 21.5575C29.0443 20.9514 28.9624 20.3273 28.9603 19.7004L44.9602 19.6483ZM44.6666 17.4453L41.381 5.19599L25.9273 9.34107L29.2129 21.5904L44.6666 17.4453ZM41.3905 5.23148C40.8042 3.00485 39.4964 1.03532 37.6717 -0.369042L27.913 12.3104C26.9341 11.5569 26.2324 10.5002 25.9179 9.30558L41.3905 5.23148ZM37.6717 -0.369042C35.8471 -1.7734 33.6084 -2.53339 31.3058 -2.53013L31.3285 13.4699C30.0931 13.4716 28.892 13.0639 27.913 12.3104L37.6717 -0.369042ZM31.343 -2.5301C30.4247 -2.53307 29.51 -2.41407 28.6229 -2.17622L32.7667 13.2779C32.2856 13.4069 31.7894 13.4714 31.2913 13.4698L31.343 -2.5301ZM28.6106 -2.17291C25.9471 -1.45418 23.6774 0.291507 22.2991 2.68132L36.1592 10.6749C35.421 11.9548 34.2055 12.8896 32.7791 13.2746L28.6106 -2.17291ZM22.2991 2.68132C20.9208 5.07112 20.5465 7.90999 21.2583 10.5754L36.7166 6.44732C37.0977 7.87474 36.8973 9.39508 36.1592 10.6749L22.2991 2.68132ZM21.2593 10.5794L23.0363 17.2195L38.4924 13.0833L36.7155 6.44326L21.2593 10.5794ZM27.7132 7.75607C27.293 7.92944 26.8845 8.12988 26.4903 8.35613L34.4547 22.233C34.2487 22.3513 34.0351 22.4561 33.8155 22.5467L27.7132 7.75607ZM26.4846 8.35938C25.2914 9.04552 24.2462 9.96169 23.4096 11.0548L36.1157 20.7788C35.6653 21.3672 35.1027 21.8604 34.4604 22.2298L26.4846 8.35938ZM23.4096 11.0548C22.5731 12.1479 21.9618 13.3961 21.6113 14.7272L37.0837 18.8019C36.895 19.5185 36.566 20.1904 36.1157 20.7788L23.4096 11.0548ZM21.6203 14.6934L19.5841 22.2899L35.0386 26.4322L37.0747 18.8357L21.6203 14.6934ZM19.5371 22.4741L19.4767 22.723L35.0253 26.4969L35.0857 26.248L19.5371 22.4741ZM19.4894 22.6715C18.6425 26.0622 19.0358 29.644 20.5982 32.7703L34.9104 25.6176C35.0544 25.9058 35.0906 26.2359 35.0126 26.5484L19.4894 22.6715ZM20.6026 32.7792L21.2896 34.1495L35.5929 26.979L34.9059 25.6087L20.6026 32.7792ZM21.2203 34.0079C20.741 33.0027 20.4954 31.9022 20.5018 30.7888L36.5015 30.8811C36.509 29.5804 36.2221 28.2948 35.6621 27.1206L21.2203 34.0079ZM20.5016 30.8349V31.1539H36.5016V30.8349H20.5016ZM28.5016 23.1539H27.8975V39.1539H28.5016V23.1539ZM27.8975 23.1539C25.6155 23.1539 23.427 24.0604 21.8134 25.674L33.1271 36.9877C31.7401 38.3747 29.8589 39.1539 27.8975 39.1539V23.1539ZM21.8134 25.674C20.1998 27.2876 19.2933 29.4762 19.2933 31.7581H35.2933C35.2933 33.7196 34.5141 35.6007 33.1271 36.9877L21.8134 25.674ZM19.2933 31.7581V36.5916H35.2933V31.7581H19.2933ZM19.2933 36.5916C19.2933 38.8736 20.1998 41.0621 21.8134 42.6757L33.1271 31.362C34.5141 32.749 35.2933 34.6302 35.2933 36.5916H19.2933ZM21.8134 42.6757C23.427 44.2893 25.6155 45.1958 27.8975 45.1958V29.1958C29.8589 29.1958 31.7401 29.975 33.1271 31.362L21.8134 42.6757ZM27.8975 45.1958H36.3561V29.1958H27.8975V45.1958ZM36.3561 45.1958C38.638 45.1958 40.8266 44.2893 42.4402 42.6757L31.1265 31.362C32.5135 29.975 34.3946 29.1958 36.3561 29.1958V45.1958ZM42.4402 42.6757C44.0538 41.0621 44.9603 38.8736 44.9603 36.5916H28.9603C28.9603 34.6302 29.7395 32.749 31.1265 31.362L42.4402 42.6757ZM44.9603 36.5916V31.7581H28.9603V36.5916H44.9603ZM44.9603 31.7581C44.9603 29.4762 44.0538 27.2876 42.4402 25.674L31.1265 36.9877C29.7395 35.6007 28.9603 33.7196 28.9603 31.7581H44.9603ZM42.4402 25.674C40.8266 24.0604 38.638 23.1539 36.3561 23.1539V39.1539C34.3946 39.1539 32.5135 38.3747 31.1265 36.9877L42.4402 25.674ZM36.3561 23.1539H35.7519V39.1539H36.3561V23.1539ZM43.7519 31.1539V30.9123H27.7519V31.1539H43.7519ZM43.7518 30.9442C43.746 32.3998 43.311 33.8214 42.5012 35.031L29.2056 26.1301C28.2643 27.5361 27.7587 29.1884 27.752 30.8803L43.7518 30.9442ZM35.7519 27.9874H28.5016V43.9874H35.7519V27.9874ZM36.5016 35.9874V32.3623H20.5016V35.9874H36.5016ZM28.5016 40.3623H35.7519V24.3623H28.5016V40.3623ZM27.7519 32.3623V35.9874H43.7519V32.3623H27.7519ZM37.71 31.1539V30.8349H21.71V31.1539H37.71ZM37.71 30.826C37.7083 29.3117 37.3567 27.8184 36.6826 26.4625L22.3556 33.5857C21.9321 32.7337 21.7111 31.7954 21.71 30.8439L37.71 30.826ZM36.6739 26.4451L35.9881 25.0742L21.6786 32.2322L22.3643 33.6031L36.6739 26.4451ZM35.9897 25.0774C36.2623 25.6229 36.331 26.2479 36.1833 26.8396L20.6592 22.9664C19.8833 26.0765 20.2442 29.3615 21.677 32.229L35.9897 25.0774ZM36.1497 26.9696L38.2426 19.143L22.7857 15.0097L20.6928 22.8363L36.1497 26.9696ZM38.2001 19.296C37.7066 21.0046 36.5627 22.4516 35.0139 23.3259L27.1482 9.39279C25.0484 10.5782 23.4974 12.54 22.8283 14.8566L38.2001 19.296ZM35.0139 23.3259C33.4652 24.2002 31.6353 24.4321 29.9175 23.9719L34.0582 8.51695C31.7291 7.89291 29.2481 8.20737 27.1482 9.39279L35.0139 23.3259ZM29.9175 23.9719C28.1996 23.5116 26.7308 22.3959 25.8267 20.8644L39.6047 12.7302C38.3789 10.6538 36.3874 9.14099 34.0582 8.51695L29.9175 23.9719ZM25.8267 20.8644C24.9225 19.3329 24.6552 17.5079 25.0821 15.7814L40.6143 19.6219C41.1931 17.2811 40.8306 14.8067 39.6047 12.7302L25.8267 20.8644ZM25.1209 15.6307L23.9874 19.8601L39.442 24.0019L40.5755 19.7726L25.1209 15.6307ZM23.9876 19.8592C23.3967 22.0633 23.7055 24.412 24.8462 26.3884L38.7038 18.3906C39.6843 20.0895 39.9498 22.1082 39.4418 24.0027L23.9876 19.8592ZM24.8462 26.3884C25.9869 28.3649 27.866 29.8072 30.0701 30.3982L34.2136 14.944C36.1082 15.452 37.7234 16.6917 38.7038 18.3906L24.8462 26.3884ZM30.0701 30.3982C32.2742 30.9892 34.6229 30.6804 36.5993 29.5396L28.6015 15.682C30.3004 14.7015 32.3191 14.4361 34.2136 14.944L30.0701 30.3982ZM36.5993 29.5396C38.5758 28.3989 40.0181 26.5198 40.6091 24.3157L25.1549 20.1722C25.6629 18.2777 26.9026 16.6625 28.6015 15.682L36.5993 29.5396ZM40.6093 24.3149L41.7428 20.0856L26.2882 15.9437L25.1547 20.173L40.6093 24.3149ZM41.7423 20.0873C42.0968 18.7659 42.1875 17.3876 42.0092 16.0311L26.1456 18.1161C26.05 17.389 26.0986 16.6502 26.2886 15.942L41.7423 20.0873ZM42.0092 16.0311C41.8309 14.6746 41.3871 13.3665 40.7032 12.1815L26.8456 20.1794C26.479 19.5442 26.2412 18.8431 26.1456 18.1161L42.0092 16.0311ZM40.7032 12.1815C40.0193 10.9966 39.1087 9.95792 38.0233 9.12493L28.2819 21.8176C27.7002 21.3712 27.2121 20.8145 26.8456 20.1794L40.7032 12.1815ZM38.0233 9.12493C36.938 8.29194 35.6992 7.68093 34.3777 7.32678L30.236 22.7814C29.5277 22.5916 28.8637 22.2641 28.2819 21.8176L38.0233 9.12493ZM34.3664 7.32378C33.9047 7.20076 33.4351 7.10938 32.961 7.05028L30.982 22.9274C30.7341 22.8965 30.4886 22.8488 30.2472 22.7844L34.3664 7.32378ZM39.6995 12.9205L37.8827 6.13243L22.4267 10.2692L24.2435 17.0572L39.6995 12.9205ZM37.8775 6.1132C38.1107 6.97569 38.1713 7.87569 38.0561 8.76163L22.1898 6.69754C22.0335 7.89874 22.1158 9.11899 22.4319 10.2884L37.8775 6.1132ZM38.0561 8.76163C37.9408 9.64754 37.6519 10.5021 37.2059 11.2762L23.3426 3.28815C22.7378 4.33777 22.346 5.49636 22.1898 6.69754L38.0561 8.76163ZM37.2059 11.2762C36.7598 12.0504 36.1654 12.7288 35.4567 13.2728L25.7141 0.581034C24.7533 1.31861 23.9473 2.23854 23.3426 3.28815L37.2059 11.2762ZM35.4567 13.2728C34.748 13.8169 33.9389 14.2157 33.0758 14.4465L28.9422 -1.01029C27.772 -0.697334 26.675 -0.156563 25.7141 0.581034L35.4567 13.2728ZM33.105 14.4387C32.5023 14.6023 31.8801 14.6828 31.2556 14.678L31.3788 -1.32152C30.5461 -1.32794 29.7166 -1.22058 28.913 -1.00243L33.105 14.4387ZM31.3187 14.6782C29.8194 14.6785 28.3622 14.1827 27.1742 13.2681L36.9349 0.59022C35.3242 -0.649886 33.3484 -1.32215 31.3156 -1.32176L31.3187 14.6782ZM27.1742 13.2681C25.9862 12.3534 25.1343 11.0714 24.7512 9.62188L40.2201 5.53388C39.7008 3.56855 38.5457 1.83032 36.9349 0.59022L27.1742 13.2681ZM24.7588 9.65058L28.0251 21.8268L43.4787 17.6814L40.2125 5.50517L24.7588 9.65058ZM27.7519 19.7541V28.0055H43.7519V19.7541H27.7519ZM27.7519 28.0296C27.7483 26.8029 28.1089 25.6027 28.7881 24.5813L42.1115 33.4405C43.1868 31.8234 43.7577 29.9234 43.7519 27.9814L27.7519 28.0296ZM28.8099 24.5486L28.2057 25.4476L41.4855 34.3722L42.0897 33.4731L28.8099 24.5486ZM28.1839 25.4803C27.1086 27.0974 26.5377 28.9974 26.5436 30.9393L42.5435 30.8912C42.5472 32.1179 42.1866 33.318 41.5073 34.3395L28.1839 25.4803ZM26.5435 30.9153V31.1539H42.5435V30.9153H26.5435ZM34.5435 23.1539H29.71V39.1539H34.5435V23.1539Z" fill="url(#paint0_linear_1112_609)" mask="url(#path-1-inside-1_1112_609)"/>
<mask id="path-3-inside-2_1112_609" fill="white">
<path d="M9.23101 30.5648L9.91676 29.1939C10.626 27.7747 10.8045 26.1487 10.42 24.6094L8.3217 16.7646C8.22542 16.4051 8.04741 16.0727 7.80154 15.7933C7.55568 15.5139 7.24861 15.295 6.90428 15.1538L8.68422 8.51497C8.85035 7.89517 8.76357 7.23476 8.44294 6.67892C8.1223 6.12308 7.59407 5.71731 6.97436 5.55082C6.77142 5.49641 6.56215 5.46918 6.35205 5.46986C5.81909 5.46896 5.30085 5.6446 4.87827 5.96935C4.45568 6.2941 4.15256 6.74968 4.01625 7.26491L0.729466 19.5179C0.715999 19.5689 0.709096 19.6215 0.708924 19.6743V28.0055C0.708558 28.6019 0.885187 29.185 1.21644 29.6809L1.8158 30.5806C1.88209 30.6796 1.91743 30.7961 1.9173 30.9153V31.1539H1.31311C1.15287 31.1539 0.999194 31.2176 0.885887 31.3309C0.772579 31.4442 0.708924 31.5979 0.708924 31.7581V36.5916C0.708924 36.7519 0.772579 36.9055 0.885887 37.0189C0.999194 37.1322 1.15287 37.1958 1.31311 37.1958H9.77176C9.932 37.1958 10.0857 37.1322 10.199 37.0189C10.3123 36.9055 10.3759 36.7519 10.3759 36.5916V31.7581C10.3759 31.5979 10.3123 31.4442 10.199 31.3309C10.0857 31.2176 9.932 31.1539 9.77176 31.1539H9.16757V30.8349C9.16789 30.7412 9.18959 30.6489 9.23101 30.5648ZM9.16757 35.9874H1.9173V32.3623H9.16757V35.9874ZM3.12568 31.1539V30.9123C3.12675 30.5546 3.02161 30.2047 2.82358 29.9069L2.2194 29.0109C2.02137 28.7131 1.91623 28.3631 1.9173 28.0055V19.7541L5.18475 7.57425C5.25289 7.31686 5.4044 7.08931 5.61561 6.92719C5.82681 6.76507 6.0858 6.67752 6.35205 6.67824C6.4561 6.67744 6.55977 6.69085 6.66018 6.71812C6.81388 6.75917 6.95795 6.83018 7.08414 6.92705C7.21033 7.02393 7.31614 7.14476 7.39552 7.28263C7.47489 7.4205 7.52627 7.57268 7.54668 7.73045C7.5671 7.88822 7.55617 8.04847 7.51451 8.202L5.69771 14.9907C5.58458 15.0048 5.47255 15.0266 5.36239 15.0559C5.05578 15.1381 4.76837 15.2798 4.51656 15.4731C4.26475 15.6664 4.05348 15.9073 3.89482 16.1823C3.73615 16.4572 3.63319 16.7607 3.59183 17.0754C3.55046 17.3901 3.5715 17.7099 3.65374 18.0164L4.7872 22.2458C4.8287 22.4006 4.92999 22.5325 5.0688 22.6126C5.2076 22.6927 5.37254 22.7144 5.52733 22.6729C5.68212 22.6314 5.81409 22.5301 5.8942 22.3913C5.9743 22.2525 5.99599 22.0876 5.95449 21.9328L4.82103 17.7035C4.77985 17.5502 4.76926 17.3904 4.78987 17.233C4.81047 17.0757 4.86186 16.9239 4.94111 16.7864C5.02035 16.649 5.1259 16.5284 5.25173 16.4317C5.37756 16.3351 5.5212 16.2641 5.67445 16.2229C5.8277 16.1817 5.98756 16.1711 6.14491 16.1917C6.30225 16.2123 6.454 16.2637 6.59148 16.343C6.72896 16.4222 6.84949 16.5278 6.94618 16.6536C7.04287 16.7794 7.11383 16.9231 7.15501 17.0763L9.18569 24.6547L9.24611 24.9024C9.56027 26.1618 9.41414 27.492 8.83405 28.6532L8.1483 30.0247C8.02359 30.2766 7.95886 30.5539 7.95919 30.8349V31.1539H3.12568Z"/>
</mask>
<path d="M9.23101 30.5648L9.91676 29.1939C10.626 27.7747 10.8045 26.1487 10.42 24.6094L8.3217 16.7646C8.22542 16.4051 8.04741 16.0727 7.80154 15.7933C7.55568 15.5139 7.24861 15.295 6.90428 15.1538L8.68422 8.51497C8.85035 7.89517 8.76357 7.23476 8.44294 6.67892C8.1223 6.12308 7.59407 5.71731 6.97436 5.55082C6.77142 5.49641 6.56215 5.46918 6.35205 5.46986C5.81909 5.46896 5.30085 5.6446 4.87827 5.96935C4.45568 6.2941 4.15256 6.74968 4.01625 7.26491L0.729466 19.5179C0.715999 19.5689 0.709096 19.6215 0.708924 19.6743V28.0055C0.708558 28.6019 0.885187 29.185 1.21644 29.6809L1.8158 30.5806C1.88209 30.6796 1.91743 30.7961 1.9173 30.9153V31.1539H1.31311C1.15287 31.1539 0.999194 31.2176 0.885887 31.3309C0.772579 31.4442 0.708924 31.5979 0.708924 31.7581V36.5916C0.708924 36.7519 0.772579 36.9055 0.885887 37.0189C0.999194 37.1322 1.15287 37.1958 1.31311 37.1958H9.77176C9.932 37.1958 10.0857 37.1322 10.199 37.0189C10.3123 36.9055 10.3759 36.7519 10.3759 36.5916V31.7581C10.3759 31.5979 10.3123 31.4442 10.199 31.3309C10.0857 31.2176 9.932 31.1539 9.77176 31.1539H9.16757V30.8349C9.16789 30.7412 9.18959 30.6489 9.23101 30.5648ZM9.16757 35.9874H1.9173V32.3623H9.16757V35.9874ZM3.12568 31.1539V30.9123C3.12675 30.5546 3.02161 30.2047 2.82358 29.9069L2.2194 29.0109C2.02137 28.7131 1.91623 28.3631 1.9173 28.0055V19.7541L5.18475 7.57425C5.25289 7.31686 5.4044 7.08931 5.61561 6.92719C5.82681 6.76507 6.0858 6.67752 6.35205 6.67824C6.4561 6.67744 6.55977 6.69085 6.66018 6.71812C6.81388 6.75917 6.95795 6.83018 7.08414 6.92705C7.21033 7.02393 7.31614 7.14476 7.39552 7.28263C7.47489 7.4205 7.52627 7.57268 7.54668 7.73045C7.5671 7.88822 7.55617 8.04847 7.51451 8.202L5.69771 14.9907C5.58458 15.0048 5.47255 15.0266 5.36239 15.0559C5.05578 15.1381 4.76837 15.2798 4.51656 15.4731C4.26475 15.6664 4.05348 15.9073 3.89482 16.1823C3.73615 16.4572 3.63319 16.7607 3.59183 17.0754C3.55046 17.3901 3.5715 17.7099 3.65374 18.0164L4.7872 22.2458C4.8287 22.4006 4.92999 22.5325 5.0688 22.6126C5.2076 22.6927 5.37254 22.7144 5.52733 22.6729C5.68212 22.6314 5.81409 22.5301 5.8942 22.3913C5.9743 22.2525 5.99599 22.0876 5.95449 21.9328L4.82103 17.7035C4.77985 17.5502 4.76926 17.3904 4.78987 17.233C4.81047 17.0757 4.86186 16.9239 4.94111 16.7864C5.02035 16.649 5.1259 16.5284 5.25173 16.4317C5.37756 16.3351 5.5212 16.2641 5.67445 16.2229C5.8277 16.1817 5.98756 16.1711 6.14491 16.1917C6.30225 16.2123 6.454 16.2637 6.59148 16.343C6.72896 16.4222 6.84949 16.5278 6.94618 16.6536C7.04287 16.7794 7.11383 16.9231 7.15501 17.0763L9.18569 24.6547L9.24611 24.9024C9.56027 26.1618 9.41414 27.492 8.83405 28.6532L8.1483 30.0247C8.02359 30.2766 7.95886 30.5539 7.95919 30.8349V31.1539H3.12568Z" fill="#F2F2F2"/>
<path d="M9.91676 29.1939L17.0715 32.7729L17.073 32.77L9.91676 29.1939ZM10.42 24.6094L18.1817 22.6709L18.1655 22.6064L18.1484 22.5422L10.42 24.6094ZM8.3217 16.7646L16.05 14.6974L16.0493 14.6949L8.3217 16.7646ZM6.90428 15.1538L-0.822819 13.0821L-2.64635 19.8835L3.86864 22.5555L6.90428 15.1538ZM8.68422 8.51497L16.4113 10.5867L16.4114 10.5862L8.68422 8.51497ZM6.97436 5.55082L9.05005 -2.17521L9.04626 -2.17622L6.97436 5.55082ZM6.35205 5.46986L6.33847 13.4698L6.35819 13.4699L6.37791 13.4698L6.35205 5.46986ZM4.01625 7.26491L11.7431 9.33759L11.7467 9.32429L11.7502 9.31099L4.01625 7.26491ZM0.729466 19.5179L-6.99737 17.4452L-7.0018 17.4617L-7.00616 17.4782L0.729466 19.5179ZM0.708924 19.6743L-7.29103 19.6483L-7.29108 19.6613V19.6743H0.708924ZM0.708924 28.0055L8.70892 28.0104V28.0055H0.708924ZM1.21644 29.6809L7.87422 25.2454L7.86894 25.2375L1.21644 29.6809ZM1.8158 30.5806L-4.84198 35.0161L-4.83704 35.0235L-4.83209 35.0309L1.8158 30.5806ZM1.9173 30.9153L-6.0827 30.9069V30.9153H1.9173ZM1.9173 31.1539V39.1539H9.9173V31.1539H1.9173ZM0.708924 31.7581H-7.29108H0.708924ZM0.708924 36.5916H-7.29108H0.708924ZM9.16757 31.1539H1.16757V39.1539H9.16757V31.1539ZM9.16757 30.8349L1.16762 30.8072L1.16757 30.8211V30.8349H9.16757ZM9.16757 35.9874V43.9874H17.1676V35.9874H9.16757ZM1.9173 35.9874H-6.0827V43.9874H1.9173V35.9874ZM1.9173 32.3623V24.3623H-6.0827V32.3623H1.9173ZM9.16757 32.3623H17.1676V24.3623H9.16757V32.3623ZM3.12568 31.1539H-4.87432V39.1539H3.12568V31.1539ZM3.12568 30.9123L-4.87428 30.8882L-4.87432 30.9002V30.9123H3.12568ZM2.82358 29.9069L9.48531 25.4773L9.47097 25.4557L9.4565 25.4343L2.82358 29.9069ZM2.2194 29.0109L-4.44233 33.4405L-4.42799 33.462L-4.41352 33.4835L2.2194 29.0109ZM1.9173 28.0055L9.91726 28.0296L9.9173 28.0175V28.0055H1.9173ZM1.9173 19.7541L-5.80949 17.6812L-6.0827 18.6997V19.7541H1.9173ZM5.18475 7.57425L12.9115 9.6471L12.915 9.63425L12.9184 9.62139L5.18475 7.57425ZM6.35205 6.67824L6.33055 14.6782L6.3721 14.6783L6.41365 14.678L6.35205 6.67824ZM6.66018 6.71812L4.56419 14.4387L4.57978 14.4429L4.59538 14.4471L6.66018 6.71812ZM7.51451 8.202L-0.206293 6.10695L-0.209936 6.12037L-0.213532 6.13381L7.51451 8.202ZM5.69771 14.9907L6.68718 22.9292L12.033 22.2629L13.4257 17.0589L5.69771 14.9907ZM5.36239 15.0559L3.30277 7.32558L3.29155 7.32859L5.36239 15.0559ZM3.65374 18.0164L11.381 15.9455L11.3806 15.9438L3.65374 18.0164ZM4.7872 22.2458L-2.94011 24.3167L-2.93989 24.3175L4.7872 22.2458ZM5.95449 21.9328L-1.77282 24.0037L-1.77259 24.0046L5.95449 21.9328ZM4.82103 17.7035L12.5483 15.6326L12.547 15.6275L4.82103 17.7035ZM7.15501 17.0763L14.8824 15.0057L14.881 15.0003L7.15501 17.0763ZM9.18569 24.6547L16.9579 22.759L16.9365 22.6713L16.9131 22.5841L9.18569 24.6547ZM9.24611 24.9024L1.47394 26.798L1.4789 26.8183L1.48397 26.8387L9.24611 24.9024ZM8.83405 28.6532L15.9895 32.2309L15.9907 32.2284L8.83405 28.6532ZM8.1483 30.0247L0.992883 26.447L0.985962 26.4608L0.979096 26.4747L8.1483 30.0247ZM7.95919 30.8349H15.9592L15.9592 30.8255L7.95919 30.8349ZM7.95919 31.1539V39.1539H15.9592V31.1539H7.95919ZM16.3858 34.1438L17.0715 32.7729L2.76197 25.615L2.07622 26.9859L16.3858 34.1438ZM17.073 32.77C18.6353 29.6437 19.0285 26.0618 18.1817 22.6709L2.65845 26.5478C2.58047 26.2356 2.61668 25.9057 2.76054 25.6178L17.073 32.77ZM18.1484 22.5422L16.05 14.6974L0.593396 18.8318L2.69174 26.6765L18.1484 22.5422ZM16.0493 14.6949C15.6343 13.1454 14.8671 11.7126 13.8073 10.5083L1.79575 21.0782C1.22775 20.4327 0.816503 19.6648 0.594063 18.8342L16.0493 14.6949ZM13.8073 10.5083C12.7476 9.30407 11.4241 8.36082 9.93992 7.75212L3.86864 22.5555C3.07314 22.2292 2.36374 21.7237 1.79575 21.0782L13.8073 10.5083ZM14.6314 17.2255L16.4113 10.5867L0.957121 6.44326L-0.822819 13.0821L14.6314 17.2255ZM16.4114 10.5862C17.1267 7.91782 16.7531 5.07457 15.3727 2.68155L1.51322 10.6763C0.774075 9.39494 0.57401 7.87251 0.957003 6.4437L16.4114 10.5862ZM15.3727 2.68155C13.9923 0.288518 11.7181 -1.45841 9.05005 -2.17521L4.89867 13.2769C3.47008 12.893 2.25236 11.9576 1.51322 10.6763L15.3727 2.68155ZM9.04626 -2.17622C8.15923 -2.41407 7.24454 -2.53307 6.32619 -2.5301L6.37791 13.4698C5.87977 13.4714 5.38362 13.4069 4.90246 13.2779L9.04626 -2.17622ZM6.36562 -2.53013C4.06493 -2.53403 1.82774 -1.77581 0.00351381 -0.373896L9.75302 12.3126C8.77395 13.065 7.57325 13.4719 6.33847 13.4698L6.36562 -2.53013ZM0.00351381 -0.373896C-1.82072 1.02802 -3.12924 2.99466 -3.71767 5.21883L11.7502 9.31099C11.4344 10.5047 10.7321 11.5602 9.75302 12.3126L0.00351381 -0.373896ZM-3.71058 5.19222L-6.99737 17.4452L8.4563 21.5905L11.7431 9.33759L-3.71058 5.19222ZM-7.00616 17.4782C-7.19292 18.1865 -7.28865 18.9158 -7.29103 19.6483L8.70888 19.7004C8.70684 20.3273 8.62492 20.9513 8.46509 21.5575L-7.00616 17.4782ZM-7.29108 19.6743V28.0055H8.70892V19.6743H-7.29108ZM-7.29107 28.0006C-7.29241 30.1805 -6.64682 32.3117 -5.43605 34.1244L7.86894 25.2375C8.41719 26.0583 8.70953 27.0233 8.70892 28.0104L-7.29107 28.0006ZM-5.44133 34.1165L-4.84198 35.0161L8.47357 26.145L7.87422 25.2454L-5.44133 34.1165ZM-4.83209 35.0309C-5.6489 33.8108 -6.08424 32.3752 -6.08269 30.9069L9.9173 30.9237C9.91909 29.217 9.41309 27.5484 8.46368 26.1302L-4.83209 35.0309ZM-6.0827 30.9153V31.1539H9.9173V30.9153H-6.0827ZM1.9173 23.1539H1.31311V39.1539H1.9173V23.1539ZM1.31311 23.1539C-0.968844 23.1539 -3.15736 24.0604 -4.77097 25.674L6.54274 36.9877C5.15575 38.3747 3.27459 39.1539 1.31311 39.1539V23.1539ZM-4.77097 25.674C-6.38457 27.2876 -7.29108 29.4762 -7.29108 31.7581H8.70892C8.70892 33.7196 7.92973 35.6008 6.54274 36.9877L-4.77097 25.674ZM-7.29108 31.7581V36.5916H8.70892V31.7581H-7.29108ZM-7.29108 36.5916C-7.29108 38.8736 -6.38457 41.0621 -4.77097 42.6757L6.54274 31.362C7.92973 32.749 8.70892 34.6301 8.70892 36.5916H-7.29108ZM-4.77097 42.6757C-3.15736 44.2893 -0.968844 45.1958 1.31311 45.1958V29.1958C3.27459 29.1958 5.15575 29.975 6.54274 31.362L-4.77097 42.6757ZM1.31311 45.1958H9.77176V29.1958H1.31311V45.1958ZM9.77176 45.1958C12.0537 45.1958 14.2422 44.2893 15.8558 42.6757L4.54213 31.362C5.92913 29.975 7.81029 29.1958 9.77176 29.1958V45.1958ZM15.8558 42.6757C17.4695 41.0621 18.3759 38.8736 18.3759 36.5916H2.37594C2.37594 34.6302 3.15512 32.749 4.54213 31.362L15.8558 42.6757ZM18.3759 36.5916V31.7581H2.37594V36.5916H18.3759ZM18.3759 31.7581C18.3759 29.4762 17.4695 27.2877 15.8558 25.674L4.54213 36.9877C3.15512 35.6007 2.37594 33.7196 2.37594 31.7581H18.3759ZM15.8558 25.674C14.2422 24.0604 12.0537 23.1539 9.77176 23.1539V39.1539C7.81029 39.1539 5.92913 38.3747 4.54213 36.9877L15.8558 25.674ZM9.77176 23.1539H9.16757V39.1539H9.77176V23.1539ZM17.1676 31.1539V30.8349H1.16757V31.1539H17.1676ZM17.1675 30.8626C17.1636 31.9862 16.9034 33.0941 16.4066 34.1019L2.05539 27.0278C1.47579 28.2037 1.17215 29.4963 1.16762 30.8072L17.1675 30.8626ZM9.16757 27.9874H1.9173V43.9874H9.16757V27.9874ZM9.9173 35.9874V32.3623H-6.0827V35.9874H9.9173ZM1.9173 40.3623H9.16757V24.3623H1.9173V40.3623ZM1.16757 32.3623V35.9874H17.1676V32.3623H1.16757ZM11.1257 31.1539V30.9123H-4.87432V31.1539H11.1257ZM11.1256 30.9363C11.1315 28.9943 10.5606 27.0944 9.48531 25.4773L-3.83814 34.3365C-4.51735 33.315 -4.87797 32.1149 -4.87428 30.8882L11.1256 30.9363ZM9.4565 25.4343L8.85231 24.5382L-4.41352 33.4835L-3.80933 34.3795L9.4565 25.4343ZM8.88112 24.5813C9.56033 25.6027 9.92095 26.8029 9.91726 28.0296L-6.08266 27.9814C-6.0885 29.9234 -5.51759 31.8234 -4.44233 33.4405L8.88112 24.5813ZM9.9173 28.0055V19.7541H-6.0827V28.0055H9.9173ZM9.64409 21.8269L12.9115 9.6471L-2.54204 5.50141L-5.80949 17.6812L9.64409 21.8269ZM12.9184 9.62139C12.5339 11.074 11.6788 12.3582 10.4868 13.2732L0.744434 0.581198C-0.869953 1.8204 -2.02811 3.55972 -2.54889 5.52711L12.9184 9.62139ZM10.4868 13.2732C9.29481 14.1881 7.8332 14.6822 6.33055 14.6782L6.37355 -1.32173C4.33839 -1.3272 2.35882 -0.658 0.744434 0.581198L10.4868 13.2732ZM6.41365 14.678C5.78914 14.6828 5.1669 14.6023 4.56419 14.4387L8.75618 -1.00243C7.95263 -1.22058 7.12305 -1.32794 6.29045 -1.32152L6.41365 14.678ZM4.59538 14.4471C3.73155 14.2163 2.92179 13.8172 2.21256 13.2727L11.9557 0.58137C10.9941 -0.156855 9.8962 -0.697937 8.72498 -1.01083L4.59538 14.4471ZM2.21256 13.2727C1.50332 12.7283 0.908586 12.0491 0.462466 11.2742L14.3286 3.29105C13.7237 2.24044 12.9173 1.3196 11.9557 0.58137L2.21256 13.2727ZM0.462466 11.2742C0.0163471 10.4993 -0.272382 9.64401 -0.387145 8.75727L15.4805 6.70364C15.3249 5.50136 14.9334 4.34165 14.3286 3.29105L0.462466 11.2742ZM-0.387145 8.75727C-0.501909 7.87053 -0.440446 6.96986 -0.206293 6.10695L15.2353 10.2971C15.5528 9.12708 15.6361 7.90592 15.4805 6.70364L-0.387145 8.75727ZM-0.213532 6.13381L-2.03033 12.9225L13.4257 17.0589L15.2425 10.2702L-0.213532 6.13381ZM4.70824 7.05209C4.23403 7.1112 3.76445 7.20259 3.30278 7.32559L7.422 22.7863C7.18064 22.8506 6.93513 22.8983 6.68718 22.9292L4.70824 7.05209ZM3.29155 7.32859C1.97003 7.68274 0.731219 8.29376 -0.35414 9.12675L9.38727 21.8195C8.80552 22.2659 8.14153 22.5934 7.43322 22.7833L3.29155 7.32859ZM-0.35414 9.12675C-1.43949 9.95973 -2.35012 10.9984 -3.03401 12.1833L10.8236 20.1812C10.4571 20.8163 9.969 21.373 9.38727 21.8195L-0.35414 9.12675ZM-3.03401 12.1833C-3.7179 13.3683 -4.16167 14.6764 -4.33996 16.0329L11.5236 18.1179C11.4281 18.8449 11.1902 19.5461 10.8236 20.1812L-3.03401 12.1833ZM-4.33996 16.0329C-4.51824 17.3894 -4.42757 18.7677 -4.0731 20.0891L11.3806 15.9438C11.5706 16.652 11.6192 17.3908 11.5236 18.1179L-4.33996 16.0329ZM-4.07357 20.0874L-2.94011 24.3167L12.5145 20.1748L11.381 15.9455L-4.07357 20.0874ZM-2.93989 24.3175C-2.34891 26.5217 -0.906545 28.4008 1.06987 29.5415L9.06772 15.6838C10.7665 16.6643 12.0063 18.2794 12.5143 20.174L-2.93989 24.3175ZM1.06987 29.5415C3.04627 30.6821 5.3949 30.991 7.59908 30.4L3.45558 14.9458C5.35018 14.4379 7.36892 14.7034 9.06772 15.6838L1.06987 29.5415ZM7.59908 30.4C9.80324 29.809 11.6823 28.3667 12.823 26.3903L-1.03463 18.3924C-0.0541634 16.6936 1.56101 15.4538 3.45558 14.9458L7.59908 30.4ZM12.823 26.3903C13.9637 24.4138 14.2725 22.0652 13.6816 19.861L-1.77259 24.0046C-2.28055 22.11 -2.0151 20.0912 -1.03463 18.3924L12.823 26.3903ZM13.6818 19.8619L12.5483 15.6326L-2.90628 19.7744L-1.77282 24.0037L13.6818 19.8619ZM12.547 15.6275C12.7784 16.4888 12.8379 17.3873 12.7222 18.2717L-3.14243 16.1944C-3.29942 17.3934 -3.21872 18.6116 -2.90492 19.7795L12.547 15.6275ZM12.7222 18.2717C12.6064 19.156 12.3175 20.0089 11.8721 20.7816L-1.98991 12.7913C-2.5938 13.839 -2.98543 14.9954 -3.14243 16.1944L12.7222 18.2717ZM11.8721 20.7816C11.4267 21.5543 10.8335 22.2317 10.1263 22.7751L0.377177 10.0883C-0.581684 10.8252 -1.38602 11.7436 -1.98991 12.7913L11.8721 20.7816ZM10.1263 22.7751C9.41907 23.3186 8.61175 23.7174 7.75044 23.9489L3.59846 8.49696C2.43065 8.81076 1.33605 9.3515 0.377177 10.0883L10.1263 22.7751ZM7.75044 23.9489C6.8891 24.1803 5.99062 24.2398 5.10628 24.124L7.18354 8.25945C5.98451 8.10246 4.7663 8.18316 3.59846 8.49696L7.75044 23.9489ZM5.10628 24.124C4.22194 24.0082 3.36907 23.7194 2.59635 23.274L10.5866 9.41197C9.53893 8.80807 8.38256 8.41645 7.18354 8.25945L5.10628 24.124ZM2.59635 23.274C1.82365 22.8286 1.14623 22.2354 0.602782 21.5282L13.2896 11.7791C12.5528 10.8202 11.6343 10.0159 10.5866 9.41197L2.59635 23.274ZM0.602782 21.5282C0.0593289 20.821 -0.339495 20.0136 -0.570935 19.1523L14.881 15.0003C14.5672 13.8325 14.0264 12.7379 13.2896 11.7791L0.602782 21.5282ZM-0.572375 19.1469L1.4583 26.7253L16.9131 22.5841L14.8824 15.0057L-0.572375 19.1469ZM1.41352 26.5503L1.47394 26.798L17.0183 23.0068L16.9579 22.759L1.41352 26.5503ZM1.48397 26.8387C1.3365 26.2475 1.40509 25.623 1.67739 25.078L15.9907 32.2284C17.4232 29.361 17.784 26.0761 17.0083 22.9661L1.48397 26.8387ZM1.67864 25.0755L0.992883 26.447L15.3037 33.6024L15.9895 32.2309L1.67864 25.0755ZM0.979096 26.4747C0.306492 27.833 -0.0425839 29.3286 -0.040805 30.8443L15.9592 30.8255C15.9603 31.7792 15.7407 32.7201 15.3175 33.5747L0.979096 26.4747ZM-0.0408105 30.8349V31.1539H15.9592V30.8349H-0.0408105ZM7.95919 23.1539H3.12568V39.1539H7.95919V23.1539Z" fill="url(#paint1_linear_1112_609)" mask="url(#path-3-inside-2_1112_609)"/>
<mask id="path-5-inside-3_1112_609" fill="white">
<path d="M26.689 13.0282V8.79891C26.689 6.71578 25.8615 4.71797 24.3885 3.24497C22.9155 1.77198 20.9177 0.944458 18.8346 0.944458C16.7515 0.944458 14.7537 1.77198 13.2807 3.24497C11.8077 4.71797 10.9801 6.71578 10.9801 8.79891V13.0282C10.4994 13.0282 10.0384 13.2192 9.69846 13.5591C9.35854 13.899 9.16757 14.3601 9.16757 14.8408V16.6534C9.16757 17.1341 9.35854 17.5951 9.69846 17.935C10.0384 18.275 10.4994 18.4659 10.9801 18.4659H12.1885C12.6692 18.4659 13.1303 18.275 13.4702 17.935C13.8101 17.5951 14.0011 17.1341 14.0011 16.6534V14.8408C14.0011 14.3601 13.8101 13.899 13.4702 13.5591C13.1303 13.2192 12.6692 13.0282 12.1885 13.0282V8.79891C12.1885 7.03626 12.8887 5.34581 14.1351 4.09943C15.3815 2.85305 17.0719 2.15284 18.8346 2.15284C20.5972 2.15284 22.2877 2.85305 23.5341 4.09943C24.7805 5.34581 25.4807 7.03626 25.4807 8.79891V13.0282C24.9999 13.0282 24.5389 13.2192 24.199 13.5591C23.8591 13.899 23.6681 14.3601 23.6681 14.8408V16.6534C23.6681 17.1341 23.8591 17.5951 24.199 17.935C24.5389 18.275 24.9999 18.4659 25.4807 18.4659V20.2785C25.4807 20.4387 25.417 20.5924 25.3037 20.7057C25.1904 20.819 25.0367 20.8827 24.8765 20.8827H21.1402C21.0157 20.5305 20.7854 20.2254 20.4808 20.0091C20.1763 19.7928 19.8123 19.6759 19.4388 19.6743H18.2304C17.7497 19.6743 17.2886 19.8653 16.9487 20.2052C16.6088 20.5451 16.4178 21.0062 16.4178 21.4869C16.4178 21.9676 16.6088 22.4286 16.9487 22.7686C17.2886 23.1085 17.7497 23.2994 18.2304 23.2994H19.4388C19.8123 23.2979 20.1763 23.181 20.4808 22.9647C20.7854 22.7484 21.0157 22.4433 21.1402 22.0911H24.8765C25.3572 22.0911 25.8182 21.9001 26.1582 21.5602C26.4981 21.2203 26.689 20.7592 26.689 20.2785V18.4659C27.1698 18.4659 27.6308 18.275 27.9707 17.935C28.3106 17.5951 28.5016 17.1341 28.5016 16.6534V14.8408C28.5016 14.3601 28.3106 13.899 27.9707 13.5591C27.6308 13.2192 27.1698 13.0282 26.689 13.0282ZM12.7927 14.8408V16.6534C12.7927 16.8136 12.729 16.9673 12.6157 17.0806C12.5024 17.1939 12.3488 17.2576 12.1885 17.2576H10.9801C10.8199 17.2576 10.6662 17.1939 10.5529 17.0806C10.4396 16.9673 10.3759 16.8136 10.3759 16.6534V14.8408C10.3759 14.6806 10.4396 14.5269 10.5529 14.4136C10.6662 14.3003 10.8199 14.2366 10.9801 14.2366H12.1885C12.3488 14.2366 12.5024 14.3003 12.6157 14.4136C12.729 14.5269 12.7927 14.6806 12.7927 14.8408ZM19.4388 22.0911H18.2304C18.0702 22.0911 17.9165 22.0274 17.8032 21.9141C17.6899 21.8008 17.6262 21.6471 17.6262 21.4869C17.6262 21.3266 17.6899 21.173 17.8032 21.0597C17.9165 20.9463 18.0702 20.8827 18.2304 20.8827H19.4388C19.599 20.8827 19.7527 20.9463 19.866 21.0597C19.9793 21.173 20.043 21.3266 20.043 21.4869C20.043 21.6471 19.9793 21.8008 19.866 21.9141C19.7527 22.0274 19.599 22.0911 19.4388 22.0911ZM27.2932 16.6534C27.2932 16.8136 27.2296 16.9673 27.1163 17.0806C27.003 17.1939 26.8493 17.2576 26.689 17.2576H25.4807C25.3204 17.2576 25.1668 17.1939 25.0534 17.0806C24.9401 16.9673 24.8765 16.8136 24.8765 16.6534V14.8408C24.8765 14.6806 24.9401 14.5269 25.0534 14.4136C25.1668 14.3003 25.3204 14.2366 25.4807 14.2366H26.689C26.8493 14.2366 27.003 14.3003 27.1163 14.4136C27.2296 14.5269 27.2932 14.6806 27.2932 14.8408V16.6534Z"/>
</mask>
<path d="M26.689 13.0282V8.79891C26.689 6.71578 25.8615 4.71797 24.3885 3.24497C22.9155 1.77198 20.9177 0.944458 18.8346 0.944458C16.7515 0.944458 14.7537 1.77198 13.2807 3.24497C11.8077 4.71797 10.9801 6.71578 10.9801 8.79891V13.0282C10.4994 13.0282 10.0384 13.2192 9.69846 13.5591C9.35854 13.899 9.16757 14.3601 9.16757 14.8408V16.6534C9.16757 17.1341 9.35854 17.5951 9.69846 17.935C10.0384 18.275 10.4994 18.4659 10.9801 18.4659H12.1885C12.6692 18.4659 13.1303 18.275 13.4702 17.935C13.8101 17.5951 14.0011 17.1341 14.0011 16.6534V14.8408C14.0011 14.3601 13.8101 13.899 13.4702 13.5591C13.1303 13.2192 12.6692 13.0282 12.1885 13.0282V8.79891C12.1885 7.03626 12.8887 5.34581 14.1351 4.09943C15.3815 2.85305 17.0719 2.15284 18.8346 2.15284C20.5972 2.15284 22.2877 2.85305 23.5341 4.09943C24.7805 5.34581 25.4807 7.03626 25.4807 8.79891V13.0282C24.9999 13.0282 24.5389 13.2192 24.199 13.5591C23.8591 13.899 23.6681 14.3601 23.6681 14.8408V16.6534C23.6681 17.1341 23.8591 17.5951 24.199 17.935C24.5389 18.275 24.9999 18.4659 25.4807 18.4659V20.2785C25.4807 20.4387 25.417 20.5924 25.3037 20.7057C25.1904 20.819 25.0367 20.8827 24.8765 20.8827H21.1402C21.0157 20.5305 20.7854 20.2254 20.4808 20.0091C20.1763 19.7928 19.8123 19.6759 19.4388 19.6743H18.2304C17.7497 19.6743 17.2886 19.8653 16.9487 20.2052C16.6088 20.5451 16.4178 21.0062 16.4178 21.4869C16.4178 21.9676 16.6088 22.4286 16.9487 22.7686C17.2886 23.1085 17.7497 23.2994 18.2304 23.2994H19.4388C19.8123 23.2979 20.1763 23.181 20.4808 22.9647C20.7854 22.7484 21.0157 22.4433 21.1402 22.0911H24.8765C25.3572 22.0911 25.8182 21.9001 26.1582 21.5602C26.4981 21.2203 26.689 20.7592 26.689 20.2785V18.4659C27.1698 18.4659 27.6308 18.275 27.9707 17.935C28.3106 17.5951 28.5016 17.1341 28.5016 16.6534V14.8408C28.5016 14.3601 28.3106 13.899 27.9707 13.5591C27.6308 13.2192 27.1698 13.0282 26.689 13.0282ZM12.7927 14.8408V16.6534C12.7927 16.8136 12.729 16.9673 12.6157 17.0806C12.5024 17.1939 12.3488 17.2576 12.1885 17.2576H10.9801C10.8199 17.2576 10.6662 17.1939 10.5529 17.0806C10.4396 16.9673 10.3759 16.8136 10.3759 16.6534V14.8408C10.3759 14.6806 10.4396 14.5269 10.5529 14.4136C10.6662 14.3003 10.8199 14.2366 10.9801 14.2366H12.1885C12.3488 14.2366 12.5024 14.3003 12.6157 14.4136C12.729 14.5269 12.7927 14.6806 12.7927 14.8408ZM19.4388 22.0911H18.2304C18.0702 22.0911 17.9165 22.0274 17.8032 21.9141C17.6899 21.8008 17.6262 21.6471 17.6262 21.4869C17.6262 21.3266 17.6899 21.173 17.8032 21.0597C17.9165 20.9463 18.0702 20.8827 18.2304 20.8827H19.4388C19.599 20.8827 19.7527 20.9463 19.866 21.0597C19.9793 21.173 20.043 21.3266 20.043 21.4869C20.043 21.6471 19.9793 21.8008 19.866 21.9141C19.7527 22.0274 19.599 22.0911 19.4388 22.0911ZM27.2932 16.6534C27.2932 16.8136 27.2296 16.9673 27.1163 17.0806C27.003 17.1939 26.8493 17.2576 26.689 17.2576H25.4807C25.3204 17.2576 25.1668 17.1939 25.0534 17.0806C24.9401 16.9673 24.8765 16.8136 24.8765 16.6534V14.8408C24.8765 14.6806 24.9401 14.5269 25.0534 14.4136C25.1668 14.3003 25.3204 14.2366 25.4807 14.2366H26.689C26.8493 14.2366 27.003 14.3003 27.1163 14.4136C27.2296 14.5269 27.2932 14.6806 27.2932 14.8408V16.6534Z" fill="#F2F2F2"/>
<path d="M26.689 13.0282H18.689V21.0282H26.689V13.0282ZM26.689 8.79891H34.689H26.689ZM18.8346 0.944458V-7.05554V0.944458ZM10.9801 8.79891H2.98014H10.9801ZM10.9801 13.0282V21.0282H18.9801V13.0282H10.9801ZM9.16757 14.8408H1.16757H9.16757ZM9.16757 16.6534H1.16757H9.16757ZM12.1885 18.4659V26.4659V18.4659ZM14.0011 16.6534H22.0011H14.0011ZM14.0011 14.8408H22.0011H14.0011ZM12.1885 13.0282H4.18852V21.0282H12.1885V13.0282ZM18.8346 2.15284V-5.84716V2.15284ZM25.4807 13.0282V21.0282H33.4807V13.0282H25.4807ZM25.4807 18.4659H33.4807V10.4659H25.4807V18.4659ZM21.1402 20.8827L13.5977 23.5493L15.4833 28.8827H21.1402V20.8827ZM19.4388 19.6743L19.4719 11.6744L19.4554 11.6743H19.4388V19.6743ZM16.4178 21.4869H8.41784H16.4178ZM19.4388 23.2994V31.2994H19.4554L19.4719 31.2994L19.4388 23.2994ZM21.1402 22.0911V14.0911H15.4833L13.5977 19.4245L21.1402 22.0911ZM26.689 18.4659V10.4659H18.689V18.4659H26.689ZM34.689 13.0282V8.79891H18.689V13.0282H34.689ZM34.689 8.79891C34.689 4.59405 33.0187 0.561406 30.0454 -2.41188L18.7317 8.90183C18.7044 8.87454 18.689 8.83752 18.689 8.79891H34.689ZM30.0454 -2.41188C27.0721 -5.38517 23.0395 -7.05554 18.8346 -7.05554V8.94446C18.796 8.94446 18.759 8.92912 18.7317 8.90183L30.0454 -2.41188ZM18.8346 -7.05554C14.6297 -7.05554 10.5971 -5.38517 7.6238 -2.41188L18.9375 8.90183C18.9102 8.92912 18.8732 8.94446 18.8346 8.94446V-7.05554ZM7.6238 -2.41188C4.65051 0.561408 2.98014 4.59405 2.98014 8.79891H18.9801C18.9801 8.83751 18.9648 8.87453 18.9375 8.90183L7.6238 -2.41188ZM2.98014 8.79891V13.0282H18.9801V8.79891H2.98014ZM10.9801 5.02823C8.37769 5.02823 5.88182 6.06205 4.04161 7.90227L15.3553 19.216C14.1949 20.3763 12.6211 21.0282 10.9801 21.0282V5.02823ZM4.04161 7.90227C2.20139 9.74248 1.16757 12.2383 1.16757 14.8408H17.1676C17.1676 16.4818 16.5157 18.0556 15.3553 19.216L4.04161 7.90227ZM1.16757 14.8408V16.6534H17.1676V14.8408H1.16757ZM1.16757 16.6534C1.16757 19.2558 2.20139 21.7517 4.04161 23.5919L15.3553 12.2782C16.5157 13.4386 17.1676 15.0124 17.1676 16.6534H1.16757ZM4.04161 23.5919C5.88182 25.4321 8.37769 26.4659 10.9801 26.4659V10.4659C12.6211 10.4659 14.1949 11.1178 15.3553 12.2782L4.04161 23.5919ZM10.9801 26.4659H12.1885V10.4659H10.9801V26.4659ZM12.1885 26.4659C14.791 26.4659 17.2868 25.4321 19.127 23.5919L7.81334 12.2782C8.97371 11.1178 10.5475 10.4659 12.1885 10.4659L12.1885 26.4659ZM19.127 23.5919C20.9673 21.7517 22.0011 19.2558 22.0011 16.6534H6.00108C6.00108 15.0124 6.65297 13.4386 7.81334 12.2782L19.127 23.5919ZM22.0011 16.6534V14.8408H6.00108V16.6534H22.0011ZM22.0011 14.8408C22.0011 12.2383 20.9673 9.74248 19.127 7.90227L7.81334 19.216C6.65297 18.0556 6.00108 16.4818 6.00108 14.8408H22.0011ZM19.127 7.90227C17.2868 6.06205 14.791 5.02823 12.1885 5.02823V21.0282C10.5475 21.0282 8.97371 20.3763 7.81334 19.216L19.127 7.90227ZM20.1885 13.0282V8.79891H4.18852V13.0282H20.1885ZM20.1885 8.79891C20.1885 9.15799 20.0459 9.50237 19.792 9.75628L8.47825 -1.55743C5.73158 1.18925 4.18852 4.91453 4.18852 8.79891H20.1885ZM19.792 9.75628C19.5381 10.0102 19.1937 10.1528 18.8346 10.1528V-5.84716C14.9502 -5.84716 11.2249 -4.3041 8.47825 -1.55743L19.792 9.75628ZM18.8346 10.1528C18.4755 10.1528 18.1311 10.0102 17.8772 9.75628L29.1909 -1.55743C26.4443 -4.3041 22.719 -5.84716 18.8346 -5.84716V10.1528ZM17.8772 9.75628C17.6233 9.50237 17.4807 9.15799 17.4807 8.79891H33.4807C33.4807 4.91453 31.9376 1.18925 29.1909 -1.55743L17.8772 9.75628ZM17.4807 8.79891V13.0282H33.4807V8.79891H17.4807ZM25.4807 5.02823C22.8782 5.02823 20.3823 6.06206 18.5421 7.90227L29.8558 19.216C28.6955 20.3763 27.1217 21.0282 25.4807 21.0282V5.02823ZM18.5421 7.90227C16.7019 9.74247 15.6681 12.2383 15.6681 14.8408H31.6681C31.6681 16.4818 31.0162 18.0556 29.8558 19.216L18.5421 7.90227ZM15.6681 14.8408V16.6534H31.6681V14.8408H15.6681ZM15.6681 16.6534C15.6681 19.2558 16.7019 21.7517 18.5421 23.5919L29.8558 12.2782C31.0162 13.4386 31.6681 15.0123 31.6681 16.6534H15.6681ZM18.5421 23.5919C20.3823 25.4321 22.8782 26.4659 25.4807 26.4659V10.4659C27.1217 10.4659 28.6955 11.1178 29.8558 12.2782L18.5421 23.5919ZM17.4807 18.4659V20.2785H33.4807V18.4659H17.4807ZM17.4807 20.2785C17.4807 18.317 18.2599 16.4359 19.6469 15.0489L30.9606 26.3626C32.5742 24.749 33.4807 22.5604 33.4807 20.2785H17.4807ZM19.6469 15.0489C21.0339 13.6619 22.915 12.8827 24.8765 12.8827V28.8827C27.1584 28.8827 29.3469 27.9762 30.9606 26.3626L19.6469 15.0489ZM24.8765 12.8827H21.1402V28.8827H24.8765V12.8827ZM28.6827 18.2161C28.0086 16.3095 26.7619 14.6577 25.1132 13.4867L15.8485 26.5314C14.8088 25.7931 14.0227 24.7515 13.5977 23.5493L28.6827 18.2161ZM25.1132 13.4867C23.4645 12.3157 21.4942 11.6828 19.4719 11.6744L19.4056 27.6742C18.1305 27.669 16.8881 27.2698 15.8485 26.5314L25.1132 13.4867ZM19.4388 11.6743H18.2304V27.6743H19.4388V11.6743ZM18.2304 11.6743C15.6279 11.6743 13.1321 12.7081 11.2919 14.5483L22.6056 25.8621C21.4452 27.0224 19.8714 27.6743 18.2304 27.6743V11.6743ZM11.2919 14.5483C9.45166 16.3886 8.41784 18.8844 8.41784 21.4869H24.4178C24.4178 23.1279 23.7659 24.7017 22.6056 25.8621L11.2919 14.5483ZM8.41784 21.4869C8.41784 24.0893 9.45166 26.5852 11.2919 28.4254L22.6056 17.1117C23.7659 18.2721 24.4178 19.8459 24.4178 21.4869H8.41784ZM11.2919 28.4254C13.1321 30.2656 15.6279 31.2994 18.2304 31.2994V15.2994C19.8714 15.2994 21.4452 15.9513 22.6056 17.1117L11.2919 28.4254ZM18.2304 31.2994H19.4388V15.2994H18.2304V31.2994ZM19.4719 31.2994C21.4942 31.291 23.4645 30.658 25.1132 29.487L15.8485 16.4423C16.8881 15.7039 18.1305 15.3048 19.4056 15.2995L19.4719 31.2994ZM25.1132 29.487C26.7619 28.3161 28.0086 26.6643 28.6827 24.7577L13.5977 19.4245C14.0227 18.2222 14.8088 17.1807 15.8485 16.4423L25.1132 29.487ZM21.1402 30.0911H24.8765V14.0911H21.1402V30.0911ZM24.8765 30.0911C27.479 30.0911 29.9748 29.0572 31.815 27.217L20.5013 15.9033C21.6617 14.743 23.2355 14.0911 24.8765 14.0911V30.0911ZM31.815 27.217C33.6552 25.3768 34.689 22.881 34.689 20.2785H18.689C18.689 18.6375 19.3409 17.0637 20.5013 15.9033L31.815 27.217ZM34.689 20.2785V18.4659H18.689V20.2785H34.689ZM26.689 26.4659C29.2915 26.4659 31.7874 25.4321 33.6276 23.5919L22.3139 12.2782C23.4742 11.1178 25.048 10.4659 26.689 10.4659V26.4659ZM33.6276 23.5919C35.4678 21.7517 36.5016 19.2558 36.5016 16.6534H20.5016C20.5016 15.0123 21.1535 13.4386 22.3139 12.2782L33.6276 23.5919ZM36.5016 16.6534V14.8408H20.5016V16.6534H36.5016ZM36.5016 14.8408C36.5016 12.2383 35.4678 9.74247 33.6276 7.90227L22.3139 19.216C21.1535 18.0556 20.5016 16.4818 20.5016 14.8408H36.5016ZM33.6276 7.90227C31.7874 6.06206 29.2915 5.02823 26.689 5.02823V21.0282C25.048 21.0282 23.4742 20.3763 22.3139 19.216L33.6276 7.90227ZM4.7927 14.8408V16.6534H20.7927V14.8408H4.7927ZM4.7927 16.6534C4.7927 14.6919 5.57189 12.8107 6.95889 11.4237L18.2726 22.7374C19.8862 21.1238 20.7927 18.9353 20.7927 16.6534H4.7927ZM6.95889 11.4237C8.34589 10.0367 10.227 9.25756 12.1885 9.25756V25.2576C14.4705 25.2576 16.659 24.3511 18.2726 22.7374L6.95889 11.4237ZM12.1885 9.25756H10.9801V25.2576H12.1885V9.25756ZM10.9801 9.25756C12.9416 9.25756 14.8228 10.0367 16.2098 11.4237L4.89606 22.7374C6.50967 24.3511 8.69819 25.2576 10.9801 25.2576V9.25756ZM16.2098 11.4237C17.5968 12.8107 18.3759 14.6919 18.3759 16.6534H2.37595C2.37595 18.9353 3.28244 21.1238 4.89606 22.7374L16.2098 11.4237ZM18.3759 16.6534V14.8408H2.37595V16.6534H18.3759ZM18.3759 14.8408C18.3759 16.8023 17.5968 18.6834 16.2098 20.0704L4.89606 8.75672C3.28244 10.3703 2.37595 12.5588 2.37595 14.8408H18.3759ZM16.2098 20.0704C14.8228 21.4574 12.9416 22.2366 10.9801 22.2366V6.23661C8.69819 6.23661 6.50967 7.14311 4.89606 8.75672L16.2098 20.0704ZM10.9801 22.2366H12.1885V6.23661H10.9801V22.2366ZM12.1885 22.2366C10.227 22.2366 8.34589 21.4574 6.95889 20.0704L18.2726 8.75672C16.659 7.14311 14.4705 6.23661 12.1885 6.23661V22.2366ZM6.95889 20.0704C5.57189 18.6834 4.7927 16.8023 4.7927 14.8408H20.7927C20.7927 12.5588 19.8862 10.3703 18.2726 8.75672L6.95889 20.0704ZM19.4388 14.0911H18.2304V30.0911H19.4388V14.0911ZM18.2304 14.0911C20.1919 14.0911 22.073 14.8702 23.46 16.2572L12.1463 27.571C13.7599 29.1846 15.9485 30.0911 18.2304 30.0911V14.0911ZM23.46 16.2572C24.847 17.6442 25.6262 19.5254 25.6262 21.4869H9.62622C9.62622 23.7688 10.5327 25.9573 12.1463 27.571L23.46 16.2572ZM25.6262 21.4869C25.6262 23.4483 24.847 25.3295 23.46 26.7165L12.1463 15.4028C10.5327 17.0164 9.62622 19.2049 9.62622 21.4869H25.6262ZM23.46 26.7165C22.073 28.1035 20.1919 28.8827 18.2304 28.8827V12.8827C15.9485 12.8827 13.7599 13.7892 12.1463 15.4028L23.46 26.7165ZM18.2304 28.8827H19.4388V12.8827H18.2304V28.8827ZM19.4388 28.8827C17.4773 28.8827 15.5962 28.1035 14.2092 26.7165L25.5229 15.4028C23.9092 13.7892 21.7207 12.8827 19.4388 12.8827V28.8827ZM14.2092 26.7165C12.8222 25.3295 12.043 23.4483 12.043 21.4869H28.043C28.043 19.2049 27.1365 17.0164 25.5229 15.4028L14.2092 26.7165ZM12.043 21.4869C12.043 19.5254 12.8222 17.6442 14.2092 16.2572L25.5229 27.571C27.1365 25.9573 28.043 23.7688 28.043 21.4869H12.043ZM14.2092 16.2572C15.5962 14.8702 17.4773 14.0911 19.4388 14.0911V30.0911C21.7207 30.0911 23.9092 29.1846 25.5229 27.571L14.2092 16.2572ZM19.2932 16.6534C19.2932 14.6919 20.0724 12.8107 21.4594 11.4237L32.7731 22.7374C34.3867 21.1238 35.2932 18.9353 35.2932 16.6534H19.2932ZM21.4594 11.4237C22.8464 10.0367 24.7276 9.25756 26.689 9.25756V25.2576C28.971 25.2576 31.1595 24.3511 32.7731 22.7374L21.4594 11.4237ZM26.689 9.25756H25.4807V25.2576H26.689V9.25756ZM25.4807 9.25756C27.4421 9.25756 29.3233 10.0367 30.7103 11.4237L19.3966 22.7374C21.0102 24.3511 23.1987 25.2576 25.4807 25.2576V9.25756ZM30.7103 11.4237C32.0973 12.8107 32.8765 14.6919 32.8765 16.6534H16.8765C16.8765 18.9353 17.783 21.1238 19.3966 22.7374L30.7103 11.4237ZM32.8765 16.6534V14.8408H16.8765V16.6534H32.8765ZM32.8765 14.8408C32.8765 16.8023 32.0973 18.6834 30.7103 20.0704L19.3966 8.75672C17.783 10.3703 16.8765 12.5588 16.8765 14.8408H32.8765ZM30.7103 20.0704C29.3233 21.4574 27.4421 22.2366 25.4807 22.2366V6.23661C23.1987 6.23661 21.0102 7.14311 19.3966 8.75672L30.7103 20.0704ZM25.4807 22.2366H26.689V6.23661H25.4807V22.2366ZM26.689 22.2366C24.7276 22.2366 22.8464 21.4574 21.4594 20.0704L32.7731 8.75672C31.1595 7.14311 28.971 6.23661 26.689 6.23661V22.2366ZM21.4594 20.0704C20.0724 18.6834 19.2932 16.8023 19.2932 14.8408H35.2932C35.2932 12.5588 34.3867 10.3703 32.7731 8.75672L21.4594 20.0704ZM19.2932 14.8408V16.6534H35.2932V14.8408H19.2932Z" fill="url(#paint2_linear_1112_609)" mask="url(#path-5-inside-3_1112_609)"/>
<mask id="path-7-inside-4_1112_609" fill="white">
<path d="M20.043 14.2366H17.6262C17.466 14.2366 17.3123 14.1729 17.199 14.0596C17.0857 13.9463 17.022 13.7927 17.022 13.6324V13.1756L16.7 13.4977C16.5867 13.6109 16.433 13.6746 16.2728 13.6746C16.1126 13.6746 15.959 13.6109 15.8457 13.4977L14.1358 11.7878C14.0225 11.6745 13.9589 11.5209 13.9589 11.3607C13.9589 11.2005 14.0225 11.0468 14.1358 10.9335L14.4578 10.6115H14.0011C13.8408 10.6115 13.6872 10.5478 13.5738 10.4345C13.4605 10.3212 13.3969 10.1675 13.3969 10.0073V7.59053C13.3969 7.43029 13.4605 7.27661 13.5738 7.1633C13.6872 7.04999 13.8408 6.98634 14.0011 6.98634H14.4578L14.1358 6.66431C14.0225 6.551 13.9589 6.39735 13.9589 6.23714C13.9589 6.07694 14.0225 5.92329 14.1358 5.80998L15.8457 4.10013C15.959 3.98686 16.1126 3.92323 16.2728 3.92323C16.433 3.92323 16.5867 3.98686 16.7 4.10013L17.022 4.42216V3.96539C17.022 3.80515 17.0857 3.65148 17.199 3.53817C17.3123 3.42486 17.466 3.36121 17.6262 3.36121H20.043C20.2032 3.36121 20.3569 3.42486 20.4702 3.53817C20.5835 3.65148 20.6471 3.80515 20.6471 3.96539V4.42216L20.9692 4.10013C21.0825 3.98686 21.2361 3.92323 21.3963 3.92323C21.5566 3.92323 21.7102 3.98686 21.8235 4.10013L23.5334 5.80998C23.6466 5.92329 23.7103 6.07694 23.7103 6.23714C23.7103 6.39735 23.6466 6.551 23.5334 6.66431L23.2113 6.98634H23.6681C23.8283 6.98634 23.982 7.04999 24.0953 7.1633C24.2086 7.27661 24.2723 7.43029 24.2723 7.59053V10.0073C24.2723 10.1675 24.2086 10.3212 24.0953 10.4345C23.982 10.5478 23.8283 10.6115 23.6681 10.6115H23.2113L23.5334 10.9335C23.6466 11.0468 23.7103 11.2005 23.7103 11.3607C23.7103 11.5209 23.6466 11.6745 23.5334 11.7878L21.8235 13.4977C21.7102 13.6109 21.5566 13.6746 21.3963 13.6746C21.2361 13.6746 21.0825 13.6109 20.9692 13.4977L20.6471 13.1756V13.6324C20.6471 13.7927 20.5835 13.9463 20.4702 14.0596C20.3569 14.1729 20.2032 14.2366 20.043 14.2366ZM18.2304 13.0282H19.4388V11.7171C19.4388 11.5977 19.4742 11.4809 19.5406 11.3815C19.607 11.2822 19.7014 11.2048 19.8118 11.1591C19.9221 11.1133 20.0436 11.1014 20.1608 11.1247C20.278 11.148 20.3856 11.2055 20.4701 11.29L21.3963 12.2162L22.2519 11.3607L21.3257 10.4344C21.2412 10.3499 21.1837 10.2423 21.1604 10.1251C21.1371 10.0079 21.149 9.88647 21.1947 9.77609C21.2405 9.6657 21.3179 9.57135 21.4172 9.50496C21.5165 9.43857 21.6333 9.40312 21.7528 9.40309H23.0639V8.19472H21.7528C21.6333 8.19469 21.5165 8.15924 21.4172 8.09285C21.3179 8.02646 21.2405 7.93211 21.1947 7.82172C21.149 7.71134 21.1371 7.58988 21.1604 7.47269C21.1837 7.35551 21.2412 7.24786 21.3257 7.16337L22.2519 6.23714L21.3963 5.38161L20.4701 6.30783C20.3856 6.39231 20.278 6.44983 20.1608 6.47313C20.0436 6.49643 19.9221 6.48447 19.8118 6.43875C19.7014 6.39303 19.607 6.31561 19.5406 6.21627C19.4742 6.11694 19.4388 6.00015 19.4388 5.88067V4.56958H18.2304V5.88067C18.2304 6.00015 18.1949 6.11694 18.1285 6.21627C18.0621 6.31561 17.9678 6.39303 17.8574 6.43875C17.747 6.48447 17.6256 6.49643 17.5084 6.47313C17.3912 6.44983 17.2835 6.39231 17.199 6.30783L16.2728 5.38161L15.4173 6.23714L16.3435 7.16337C16.428 7.24786 16.4855 7.35551 16.5088 7.47269C16.5321 7.58988 16.5201 7.71134 16.4744 7.82172C16.4287 7.93211 16.3513 8.02646 16.252 8.09285C16.1526 8.15924 16.0358 8.19469 15.9163 8.19472H14.6053V9.40309H15.9163C16.0358 9.40312 16.1526 9.43857 16.252 9.50496C16.3513 9.57135 16.4287 9.6657 16.4744 9.77609C16.5201 9.88647 16.5321 10.0079 16.5088 10.1251C16.4855 10.2423 16.428 10.3499 16.3435 10.4344L15.4173 11.3607L16.2728 12.2162L17.199 11.29C17.2835 11.2055 17.3912 11.148 17.5084 11.1247C17.6256 11.1014 17.747 11.1133 17.8574 11.1591C17.9678 11.2048 18.0621 11.2822 18.1285 11.3815C18.1949 11.4809 18.2304 11.5977 18.2304 11.7171V13.0282ZM18.8346 10.6115C18.4761 10.6115 18.1256 10.5052 17.8276 10.306C17.5295 10.1068 17.2972 9.82375 17.16 9.49254C17.0228 9.16134 16.9869 8.79689 17.0568 8.44529C17.1268 8.09369 17.2994 7.77072 17.5529 7.51723C17.8064 7.26374 18.1294 7.0911 18.481 7.02117C18.8326 6.95123 19.197 6.98712 19.5282 7.12431C19.8594 7.2615 20.1425 7.49382 20.3417 7.7919C20.5408 8.08997 20.6471 8.44041 20.6471 8.79891C20.6471 9.27963 20.4562 9.74066 20.1163 10.0806C19.7763 10.4205 19.3153 10.6115 18.8346 10.6115ZM18.8346 8.19472C18.7151 8.19472 18.5983 8.23015 18.4989 8.29654C18.3996 8.36293 18.3221 8.45729 18.2764 8.56769C18.2307 8.67809 18.2187 8.79958 18.242 8.91678C18.2653 9.03398 18.3229 9.14163 18.4074 9.22613C18.4919 9.31063 18.5995 9.36817 18.7167 9.39148C18.8339 9.4148 18.9554 9.40283 19.0658 9.3571C19.1762 9.31137 19.2706 9.23393 19.3369 9.13457C19.4033 9.03522 19.4388 8.9184 19.4388 8.79891C19.4388 8.63866 19.3751 8.48499 19.2618 8.37168C19.1485 8.25837 18.9948 8.19472 18.8346 8.19472Z"/>
</mask>
<path d="M20.043 14.2366H17.6262C17.466 14.2366 17.3123 14.1729 17.199 14.0596C17.0857 13.9463 17.022 13.7927 17.022 13.6324V13.1756L16.7 13.4977C16.5867 13.6109 16.433 13.6746 16.2728 13.6746C16.1126 13.6746 15.959 13.6109 15.8457 13.4977L14.1358 11.7878C14.0225 11.6745 13.9589 11.5209 13.9589 11.3607C13.9589 11.2005 14.0225 11.0468 14.1358 10.9335L14.4578 10.6115H14.0011C13.8408 10.6115 13.6872 10.5478 13.5738 10.4345C13.4605 10.3212 13.3969 10.1675 13.3969 10.0073V7.59053C13.3969 7.43029 13.4605 7.27661 13.5738 7.1633C13.6872 7.04999 13.8408 6.98634 14.0011 6.98634H14.4578L14.1358 6.66431C14.0225 6.551 13.9589 6.39735 13.9589 6.23714C13.9589 6.07694 14.0225 5.92329 14.1358 5.80998L15.8457 4.10013C15.959 3.98686 16.1126 3.92323 16.2728 3.92323C16.433 3.92323 16.5867 3.98686 16.7 4.10013L17.022 4.42216V3.96539C17.022 3.80515 17.0857 3.65148 17.199 3.53817C17.3123 3.42486 17.466 3.36121 17.6262 3.36121H20.043C20.2032 3.36121 20.3569 3.42486 20.4702 3.53817C20.5835 3.65148 20.6471 3.80515 20.6471 3.96539V4.42216L20.9692 4.10013C21.0825 3.98686 21.2361 3.92323 21.3963 3.92323C21.5566 3.92323 21.7102 3.98686 21.8235 4.10013L23.5334 5.80998C23.6466 5.92329 23.7103 6.07694 23.7103 6.23714C23.7103 6.39735 23.6466 6.551 23.5334 6.66431L23.2113 6.98634H23.6681C23.8283 6.98634 23.982 7.04999 24.0953 7.1633C24.2086 7.27661 24.2723 7.43029 24.2723 7.59053V10.0073C24.2723 10.1675 24.2086 10.3212 24.0953 10.4345C23.982 10.5478 23.8283 10.6115 23.6681 10.6115H23.2113L23.5334 10.9335C23.6466 11.0468 23.7103 11.2005 23.7103 11.3607C23.7103 11.5209 23.6466 11.6745 23.5334 11.7878L21.8235 13.4977C21.7102 13.6109 21.5566 13.6746 21.3963 13.6746C21.2361 13.6746 21.0825 13.6109 20.9692 13.4977L20.6471 13.1756V13.6324C20.6471 13.7927 20.5835 13.9463 20.4702 14.0596C20.3569 14.1729 20.2032 14.2366 20.043 14.2366ZM18.2304 13.0282H19.4388V11.7171C19.4388 11.5977 19.4742 11.4809 19.5406 11.3815C19.607 11.2822 19.7014 11.2048 19.8118 11.1591C19.9221 11.1133 20.0436 11.1014 20.1608 11.1247C20.278 11.148 20.3856 11.2055 20.4701 11.29L21.3963 12.2162L22.2519 11.3607L21.3257 10.4344C21.2412 10.3499 21.1837 10.2423 21.1604 10.1251C21.1371 10.0079 21.149 9.88647 21.1947 9.77609C21.2405 9.6657 21.3179 9.57135 21.4172 9.50496C21.5165 9.43857 21.6333 9.40312 21.7528 9.40309H23.0639V8.19472H21.7528C21.6333 8.19469 21.5165 8.15924 21.4172 8.09285C21.3179 8.02646 21.2405 7.93211 21.1947 7.82172C21.149 7.71134 21.1371 7.58988 21.1604 7.47269C21.1837 7.35551 21.2412 7.24786 21.3257 7.16337L22.2519 6.23714L21.3963 5.38161L20.4701 6.30783C20.3856 6.39231 20.278 6.44983 20.1608 6.47313C20.0436 6.49643 19.9221 6.48447 19.8118 6.43875C19.7014 6.39303 19.607 6.31561 19.5406 6.21627C19.4742 6.11694 19.4388 6.00015 19.4388 5.88067V4.56958H18.2304V5.88067C18.2304 6.00015 18.1949 6.11694 18.1285 6.21627C18.0621 6.31561 17.9678 6.39303 17.8574 6.43875C17.747 6.48447 17.6256 6.49643 17.5084 6.47313C17.3912 6.44983 17.2835 6.39231 17.199 6.30783L16.2728 5.38161L15.4173 6.23714L16.3435 7.16337C16.428 7.24786 16.4855 7.35551 16.5088 7.47269C16.5321 7.58988 16.5201 7.71134 16.4744 7.82172C16.4287 7.93211 16.3513 8.02646 16.252 8.09285C16.1526 8.15924 16.0358 8.19469 15.9163 8.19472H14.6053V9.40309H15.9163C16.0358 9.40312 16.1526 9.43857 16.252 9.50496C16.3513 9.57135 16.4287 9.6657 16.4744 9.77609C16.5201 9.88647 16.5321 10.0079 16.5088 10.1251C16.4855 10.2423 16.428 10.3499 16.3435 10.4344L15.4173 11.3607L16.2728 12.2162L17.199 11.29C17.2835 11.2055 17.3912 11.148 17.5084 11.1247C17.6256 11.1014 17.747 11.1133 17.8574 11.1591C17.9678 11.2048 18.0621 11.2822 18.1285 11.3815C18.1949 11.4809 18.2304 11.5977 18.2304 11.7171V13.0282ZM18.8346 10.6115C18.4761 10.6115 18.1256 10.5052 17.8276 10.306C17.5295 10.1068 17.2972 9.82375 17.16 9.49254C17.0228 9.16134 16.9869 8.79689 17.0568 8.44529C17.1268 8.09369 17.2994 7.77072 17.5529 7.51723C17.8064 7.26374 18.1294 7.0911 18.481 7.02117C18.8326 6.95123 19.197 6.98712 19.5282 7.12431C19.8594 7.2615 20.1425 7.49382 20.3417 7.7919C20.5408 8.08997 20.6471 8.44041 20.6471 8.79891C20.6471 9.27963 20.4562 9.74066 20.1163 10.0806C19.7763 10.4205 19.3153 10.6115 18.8346 10.6115ZM18.8346 8.19472C18.7151 8.19472 18.5983 8.23015 18.4989 8.29654C18.3996 8.36293 18.3221 8.45729 18.2764 8.56769C18.2307 8.67809 18.2187 8.79958 18.242 8.91678C18.2653 9.03398 18.3229 9.14163 18.4074 9.22613C18.4919 9.31063 18.5995 9.36817 18.7167 9.39148C18.8339 9.4148 18.9554 9.40283 19.0658 9.3571C19.1762 9.31137 19.2706 9.23393 19.3369 9.13457C19.4033 9.03522 19.4388 8.9184 19.4388 8.79891C19.4388 8.63866 19.3751 8.48499 19.2618 8.37168C19.1485 8.25837 18.9948 8.19472 18.8346 8.19472Z" fill="#F2F2F2" stroke="url(#paint3_linear_1112_609)" stroke-width="16" mask="url(#path-7-inside-4_1112_609)"/>
<defs>
<linearGradient id="paint0_linear_1112_609" x1="27.0528" y1="21.3328" x2="36.9603" y2="21.3328" gradientUnits="userSpaceOnUse">
<stop stop-color="#A3BDED"/>
<stop offset="1" stop-color="#6991C7"/>
</linearGradient>
<linearGradient id="paint1_linear_1112_609" x1="0.708923" y1="21.3328" x2="10.6183" y2="21.3328" gradientUnits="userSpaceOnUse">
<stop stop-color="#A3BDED"/>
<stop offset="1" stop-color="#6991C7"/>
</linearGradient>
<linearGradient id="paint2_linear_1112_609" x1="9.16757" y1="12.122" x2="28.5016" y2="12.122" gradientUnits="userSpaceOnUse">
<stop stop-color="#A3BDED"/>
<stop offset="1" stop-color="#6991C7"/>
</linearGradient>
<linearGradient id="paint3_linear_1112_609" x1="13.3969" y1="8.79891" x2="24.2723" y2="8.79891" gradientUnits="userSpaceOnUse">
<stop stop-color="#A3BDED"/>
<stop offset="1" stop-color="#6991C7"/>
</linearGradient>
</defs>
</svg>
