<svg width="68" height="108" viewBox="0 0 68 108" fill="none" xmlns="http://www.w3.org/2000/svg">
<path d="M47.524 1.16211C26.711 11.7391 14.895 27.4621 12.403 47.9021C11.2332 58.2654 12.356 68.759 15.692 78.6401C15.7162 78.7063 15.7265 78.7768 15.7222 78.8472C15.7179 78.9176 15.6991 78.9863 15.667 79.0491C15.6344 79.1116 15.5894 79.1669 15.5347 79.2114C15.48 79.256 15.4168 79.2889 15.349 79.3081L1.77499 83.0521L39.494 106.321L51.494 69.3351L38.635 72.8831C38.5641 72.9022 38.49 72.9059 38.4175 72.894C38.3451 72.8821 38.276 72.8549 38.215 72.8141C38.1533 72.7735 38.1014 72.7196 38.063 72.6565C38.0247 72.5934 38.0007 72.5226 37.993 72.4491C34.48 41.6291 61.353 28.4901 65.764 26.5491L47.524 1.16211Z" fill="url(#paint0_linear_1158_687)"/>
<path d="M66.967 26.4771L48.098 0.208106C48.0266 0.109971 47.9228 0.0402054 47.805 0.0111153C47.6872 -0.0179748 47.5629 -0.00454739 47.454 0.0490792C26.076 10.7911 13.942 26.8491 11.391 47.7741C10.2339 58.1129 11.3108 68.5796 14.549 78.4661L0.375999 82.3761C0.280086 82.4022 0.193897 82.4558 0.128028 82.5302C0.0621587 82.6047 0.0194769 82.6968 0.00524049 82.7951C-0.00899595 82.8935 0.00584159 82.9939 0.0479041 83.084C0.0899665 83.1741 0.157421 83.2499 0.241996 83.3021L39.51 107.53C39.5908 107.579 39.6834 107.605 39.778 107.606C39.8383 107.607 39.898 107.595 39.954 107.573C40.0264 107.547 40.0919 107.504 40.1455 107.449C40.199 107.393 40.2392 107.326 40.263 107.253L52.757 68.7531C52.7857 68.6655 52.7901 68.5719 52.7698 68.482C52.7494 68.3922 52.705 68.3095 52.6414 68.2429C52.5778 68.1763 52.4972 68.1282 52.4084 68.1037C52.3196 68.0793 52.2258 68.0794 52.137 68.1041L38.944 71.7431C35.671 39.5931 66.422 27.3741 66.735 27.2541C66.8078 27.2262 66.8732 27.182 66.9263 27.1249C66.9793 27.0677 67.0184 26.9991 67.0408 26.9244C67.0631 26.8498 67.068 26.7709 67.055 26.6941C67.042 26.6172 67.0116 26.5443 66.966 26.4811L66.967 26.4771ZM37.994 72.4531C38.0022 72.5263 38.0263 72.5968 38.0644 72.6599C38.1026 72.7229 38.1539 72.7769 38.215 72.8181C38.2763 72.8588 38.3455 72.8861 38.4181 72.898C38.4907 72.9099 38.565 72.9061 38.636 72.8871L51.494 69.3391L39.494 106.325L1.775 83.0561L15.348 79.3121C15.4159 79.293 15.4792 79.2602 15.5339 79.2156C15.5886 79.1711 15.6336 79.1158 15.666 79.0531C15.6985 78.9905 15.7176 78.9217 15.7221 78.8513C15.7266 78.7809 15.7163 78.7103 15.692 78.6441C12.356 68.763 11.2335 58.2692 12.404 47.9061C14.895 27.4661 26.712 11.7431 47.524 1.16608L65.766 26.5571C61.354 28.4941 34.482 41.6331 37.995 72.4571" fill="#0A1D30"/>
<defs>
<linearGradient id="paint0_linear_1158_687" x1="1.77499" y1="53.7416" x2="65.764" y2="53.7416" gradientUnits="userSpaceOnUse">
<stop stop-color="#9890E3"/>
<stop offset="1" stop-color="#B1F4CF"/>
</linearGradient>
</defs>
</svg>
