<svg width="19" height="14" viewBox="0 0 19 14" fill="none" xmlns="http://www.w3.org/2000/svg">
<path d="M15.8072 1.18618C17.8647 4.23462 18.8808 7.67318 18.5009 11.6317C18.4993 11.6485 18.4907 11.6639 18.477 11.674C16.9189 12.8269 15.4093 13.5266 13.9209 13.9906C13.9093 13.9941 13.8969 13.9939 13.8855 13.99C13.874 13.9861 13.864 13.9787 13.8569 13.9688C13.5131 13.4867 13.2006 12.9783 12.9269 12.4446C12.9112 12.4131 12.9255 12.3753 12.9579 12.3629C13.4541 12.1745 13.9259 11.9487 14.3798 11.6813C14.4156 11.6602 14.4178 11.6086 14.3848 11.5838C14.2885 11.5117 14.1931 11.436 14.1017 11.3603C14.0847 11.3463 14.0617 11.3435 14.0423 11.3529C11.0958 12.7241 7.868 12.7241 4.88662 11.3529C4.86726 11.3442 4.84426 11.3472 4.82764 11.361C4.73655 11.4367 4.6409 11.5117 4.54548 11.5838C4.51246 11.6086 4.5152 11.6602 4.55118 11.6813C5.00503 11.9436 5.47688 12.1745 5.97241 12.3638C6.00452 12.3762 6.01978 12.4131 6.00384 12.4446C5.73603 12.979 5.42359 13.4873 5.07335 13.9695C5.05809 13.989 5.03304 13.9979 5.00936 13.9906C3.52801 13.5266 2.01842 12.8269 0.460321 11.674C0.447341 11.6639 0.438004 11.6478 0.436638 11.6311C0.119189 8.20696 0.766156 4.73994 3.12789 1.1855C3.13359 1.17609 3.14224 1.16874 3.15226 1.16438C4.31434 0.626936 5.55932 0.231538 6.86054 0.00572813C6.88422 0.00205642 6.90791 0.0130716 6.9202 0.0341839C7.08098 0.321036 7.26475 0.688896 7.38909 0.989518C8.76068 0.778394 10.1537 0.778394 11.554 0.989518C11.6783 0.695322 11.8557 0.321036 12.0158 0.0341839C12.0215 0.0237103 12.0303 0.0153194 12.041 0.0102092C12.0518 0.00509893 12.0638 0.00353062 12.0754 0.00572813C13.3774 0.232227 14.6223 0.627625 15.7835 1.16438C15.7937 1.16874 15.8022 1.17609 15.8072 1.18618ZM8.08639 7.69659C8.10073 6.68434 7.36837 5.84674 6.44904 5.84674C5.53723 5.84674 4.81192 6.677 4.81192 7.69659C4.81192 8.71595 5.55157 9.54622 6.44904 9.54622C7.36108 9.54622 8.08639 8.71595 8.08639 7.69659ZM14.1398 7.69659C14.1541 6.68434 13.4218 5.84674 12.5027 5.84674C11.5906 5.84674 10.8653 6.677 10.8653 7.69659C10.8653 8.71595 11.605 9.54622 12.5027 9.54622C13.4218 9.54622 14.1398 8.71595 14.1398 7.69659Z" fill="#5865F2"/>
</svg>
