<svg width="83" height="23" viewBox="0 0 83 23" fill="none" xmlns="http://www.w3.org/2000/svg">
<g clip-path="url(#clip0_1158_702)">
<path d="M81.8529 19.6787C81.8529 18.4215 80.9531 17.501 79.7136 17.501C78.4762 17.501 77.5754 18.4215 77.5754 19.6787C77.5754 20.9338 78.4762 21.8528 79.7136 21.8528C80.9531 21.8528 81.8529 20.9322 81.8529 19.6787ZM79.1515 19.7904V21.2127H78.6877V18.0762H79.8402C80.5156 18.0762 80.8255 18.3685 80.8255 18.9381C80.8255 19.289 80.5861 19.567 80.2778 19.6073V19.6205C80.5454 19.6629 80.6438 19.8995 80.6988 20.3325C80.741 20.613 80.7971 21.0995 80.898 21.2138H80.3493C80.2217 20.919 80.2345 20.5018 80.1362 20.1525C80.0549 19.8867 79.9118 19.7898 79.6045 19.7898H79.1541V19.7914L79.1515 19.7904ZM79.7265 19.3849C80.1769 19.3849 80.3056 19.1472 80.3056 18.9376C80.3056 18.6898 80.1769 18.4939 79.7265 18.4939H79.1515V19.3859H79.7265V19.3849ZM77.0652 19.6787C77.0652 18.1298 78.3063 17.0828 79.7116 17.0828C81.1209 17.0828 82.3604 18.1298 82.3604 19.6787C82.3604 21.2245 81.1214 22.2725 79.7116 22.2725C78.3063 22.2725 77.0652 21.2245 77.0652 19.6787Z" fill="white"/>
<path d="M67.8941 21.8201L64.8433 18.4301L61.8192 21.8201H55.456L61.6751 14.8974L55.456 7.97258H62.0179L65.0996 11.3365L68.065 7.97258H74.3974L68.2092 14.8683L74.4833 21.8201H67.8941ZM43.2371 21.8201V0.00585938H55.456V4.8682H48.4128V7.97258H55.456V12.6513H48.4128V16.9455H55.456V21.8201H43.2371Z" fill="white" fill-opacity="0.52"/>
<path d="M38.0805 0.00610352V8.93366H38.0233C36.8821 7.63418 35.4558 7.1813 33.8019 7.1813C30.4129 7.1813 27.8598 9.46559 26.9636 12.4833C25.9413 9.15755 23.3054 7.11908 19.3975 7.11908C16.2231 7.11908 13.7173 8.53025 12.4083 10.8304V7.97231H5.84796V4.86896H13.008V0.0071249H0V21.8204H5.84796V12.6516H11.6769C11.4973 13.3566 11.4076 14.0812 11.4097 14.8084C11.4097 19.3565 14.9177 22.5527 19.3964 22.5527C23.1612 22.5527 25.6443 20.7998 26.9564 17.6088H21.9444C21.267 18.5691 20.7522 18.8527 19.3969 18.8527C17.826 18.8527 16.4701 17.494 16.4701 15.8855H26.6754C27.118 19.4988 29.9594 22.6144 33.8591 22.6144C35.5412 22.6144 37.0813 21.7949 38.0228 20.4102H38.0794V21.8234H43.2356V0.0071249H38.0805V0.00610352ZM16.6328 12.7168C16.9586 11.3307 18.0432 10.4249 19.3969 10.4249C20.8876 10.4249 21.9171 11.3026 22.1873 12.7168H16.6328ZM34.9513 18.5008C33.0514 18.5008 31.8706 16.7469 31.8706 14.9149C31.8706 12.9565 32.8981 11.0752 34.9513 11.0752C37.0819 11.0752 37.9307 12.9576 37.9307 14.9149C37.9307 16.7703 37.0319 18.5008 34.9513 18.5008Z" fill="white"/>
</g>
<defs>
<clipPath id="clip0_1158_702">
<rect width="82.3599" height="22.62" fill="white"/>
</clipPath>
</defs>
</svg>
