<svg width="33" height="33" viewBox="0 0 33 33" fill="none" xmlns="http://www.w3.org/2000/svg">
<path d="M16.5 33C16.336 33 16.1727 32.997 16.0097 32.9923L19.3817 23.725H24.0223C24.8369 23.725 25.731 23.0988 26.0096 22.3338L29.668 12.2851C30.2665 10.64 29.3242 9.29399 27.5736 9.29399H21.1356L15.7337 24.1375H15.7318L12.6694 32.552C5.40405 30.8248 0 24.2937 0 16.5C0 8.93099 5.09674 2.55299 12.0452 0.609124L8.8854 9.29399H8.88449L3.63145 23.725L7.12838 23.7253L11.5957 11.4625H14.2238L9.75646 23.7253L13.2521 23.7259L17.4151 12.2851C18.014 10.64 17.0716 9.29399 15.3226 9.29399H12.3831L15.7584 0.0173402C16.0045 0.00641665 16.2514 0 16.5 0C25.6127 0 33 7.38725 33 16.5C33 25.6126 25.6127 33 16.5 33ZM26.4834 11.4537H23.856L20.1766 21.5491H22.8041L26.4834 11.4537Z" fill="white"/>
</svg>
