<svg width="98" height="23" viewBox="0 0 98 23" fill="none" xmlns="http://www.w3.org/2000/svg">
<path d="M63.5966 8.37564C61.9437 6.86116 59.9494 6.12095 57.6431 6.12095C55.3687 6.12095 53.3736 6.86201 51.7199 8.37564C50.0678 9.85775 49.2274 11.9191 49.2274 14.5596C49.2274 17.2019 50.0678 19.2624 51.7199 20.7768C53.3728 22.2581 55.3687 23 57.6431 23C59.9494 23 61.9437 22.2581 63.5966 20.7768C65.2805 19.2624 66.12 17.2019 66.12 14.5605C66.12 11.9191 65.2789 9.8569 63.5966 8.37564ZM54.5276 17.9412C53.6562 17.0724 53.2168 15.9446 53.2168 14.5596C53.2168 13.1755 53.6521 12.0477 54.5276 11.2104C55.3989 10.3416 56.4296 9.92249 57.6415 9.92249C58.8559 9.92249 59.9167 10.3416 60.7889 11.2104C61.6913 12.0477 62.1298 13.1755 62.1298 14.5605C62.1298 15.9455 61.6946 17.0733 60.7889 17.9421C59.9175 18.7794 58.8567 19.1976 57.6415 19.1976C56.4296 19.1976 55.4014 18.7794 54.5276 17.9421V17.9412ZM72.0139 22.5469V0.444634H68.0866V22.5469H72.0139ZM84.6901 6.57155V15.3901C84.6901 17.5153 83.5786 18.9233 81.4626 18.9233C79.3116 18.9233 78.2295 17.5162 78.2295 15.3901V6.57155H74.2956V16.0664C74.2956 19.7453 76.5398 22.9974 81.4626 22.9974H81.4929C86.3863 22.9974 88.6264 19.6738 88.6264 16.0664V6.57155H84.6901ZM45.047 6.57155L41.1205 17.3935L37.1931 6.57155H33.0167L39.283 22.5477H42.962L49.2274 6.57155H45.047ZM33.0372 14.109C33.0372 11.7896 32.3209 9.89012 30.9179 8.37564C29.5141 6.86116 27.7085 6.12095 25.4953 6.12095C23.2209 6.12095 21.2879 6.92675 19.697 8.50426C18.1372 10.0835 17.3606 12.0792 17.3606 14.5605C17.3606 17.0409 18.1388 19.0698 19.6668 20.6474C21.2266 22.2266 23.0968 22.9991 25.3091 22.9991C28.708 22.9991 31.1074 21.4532 32.5692 18.3288L29.6407 16.5894C28.6762 18.5537 27.2724 19.5204 25.3712 19.5204C23.0339 19.5204 21.3818 17.9744 21.1327 15.5264H33.0355V14.109H33.0372ZM25.3687 9.21295C27.5811 9.21295 29.0478 10.5009 29.4202 12.563H21.1303C21.724 10.6635 23.3426 9.21295 25.3687 9.21295ZM17.3606 22.5477L12.0923 13.0136C15.4259 11.7572 17.078 9.56729 17.078 6.37819C17.0813 2.48041 14.0874 0 9.31972 0H0V22.5469H4.11433V13.3986H7.60637L12.6541 22.5469L17.3606 22.5477ZM9.31809 3.7368C11.7493 3.7368 12.9653 4.73509 12.9653 6.69932C12.9653 8.66354 11.7485 9.66184 9.31809 9.66184H4.11515V3.73765L9.31809 3.7368ZM95.2838 22.9974C92.7562 22.9974 90.7064 20.879 90.7064 18.2632V2.25554H94.6329V6.57751H98V9.86286H94.6329V18.0026C94.6329 18.7692 95.234 19.3901 95.9771 19.3901H98V22.9966L95.2838 22.9974Z" fill="white"/>
</svg>
