<svg width="34" height="33" viewBox="0 0 34 33" fill="none" xmlns="http://www.w3.org/2000/svg">
<g clip-path="url(#clip0_1158_698)">
<path d="M16.8599 33C25.9726 33 33.3599 25.6127 33.3599 16.5C33.3599 7.3873 25.9726 0 16.8599 0C7.74717 0 0.359863 7.3873 0.359863 16.5C0.359863 25.6127 7.74717 33 16.8599 33Z" fill="white"/>
<path d="M17.244 16.7781C17.7266 16.3542 18.1183 15.9549 18.635 15.7373C18.9377 15.6105 19.2727 15.4307 19.5603 15.7089C19.848 15.9871 19.6663 16.2918 19.5793 16.5908C19.4052 17.1907 19.2292 17.7925 19.0702 18.3962C19.0229 18.5721 18.9434 18.7746 19.1232 18.9317C19.303 19.0888 19.5282 18.9847 19.7061 18.8939C20.3646 18.557 20.9002 18.1577 20.8169 17.2721C20.7677 16.7422 20.8169 16.1782 21.3071 15.7998C21.4963 15.6503 21.7253 15.4762 21.9656 15.6427C22.2059 15.8092 22.0337 16.0212 21.9656 16.2104C21.7331 16.9241 21.6684 17.6818 21.7764 18.4245C21.801 18.5911 21.7764 18.8314 21.9297 18.892C22.1397 18.9714 22.2343 18.7027 22.3687 18.593C22.5031 18.4832 22.5939 18.328 22.7112 18.1993C23.0216 17.8606 23.1919 17.59 22.7794 17.1263C22.3006 16.5908 22.4444 15.5424 22.9156 15.0447C23.045 14.889 23.22 14.7779 23.4159 14.727C23.6118 14.6761 23.8187 14.6879 24.0075 14.7608C24.4182 14.9103 24.5526 15.2642 24.5639 15.6786C24.5753 16.1442 24.3747 16.5529 24.2176 17.0033C24.6756 17.1188 24.9594 16.8614 25.2168 16.5832C25.8375 15.9095 26.5566 15.4818 27.5104 15.5821C28.2011 15.654 28.5967 16.0268 28.5607 16.57C28.5471 16.6902 28.5049 16.8055 28.4375 16.9061C28.3702 17.0067 28.2797 17.0897 28.1737 17.148C28.0676 17.2064 27.9492 17.2385 27.8281 17.2417C27.7071 17.2448 27.5871 17.2189 27.4782 17.1661C27.2625 17.0506 27.289 16.9447 27.4782 16.8349C27.5508 16.8035 27.609 16.7461 27.6416 16.674C27.6741 16.6019 27.6786 16.5203 27.6542 16.4451C27.6244 16.3551 27.5682 16.2761 27.493 16.2184C27.4177 16.1607 27.3269 16.1269 27.2322 16.1215C26.9716 16.0827 26.7059 16.1421 26.4866 16.288C25.794 16.7308 25.406 17.9609 25.7296 18.7103C25.9189 19.1607 26.2709 19.2459 26.6361 18.926C26.8376 18.7329 26.9895 18.494 27.0789 18.2296C27.1323 18.0649 27.2081 17.9082 27.3041 17.7641C27.4763 17.5351 27.7148 17.3326 28.0138 17.4556C28.3128 17.5786 28.1595 17.889 28.1103 18.099C27.9343 18.8276 27.7848 19.5373 28.4017 20.1504C28.418 20.1653 28.431 20.1834 28.4399 20.2036C28.4488 20.2238 28.4534 20.2457 28.4534 20.2678C28.4534 20.2898 28.4488 20.3117 28.4399 20.3319C28.431 20.3521 28.418 20.3702 28.4017 20.3851C28.3644 20.4217 28.3164 20.4454 28.2647 20.4529C28.213 20.4604 28.1602 20.4512 28.1141 20.4267C27.9001 20.3517 27.7031 20.2351 27.5342 20.0838C27.3654 19.9325 27.228 19.7493 27.13 19.5449C27.0676 19.4086 27.0411 19.2099 26.8197 19.4048C26.6287 19.6006 26.3734 19.7208 26.1008 19.7434C25.8282 19.766 25.5567 19.6895 25.336 19.5278C24.7986 19.1834 24.6055 18.6668 24.6547 18.0479C24.6642 17.9268 24.6793 17.8095 24.6945 17.6695C24.0757 17.7206 23.5723 17.8587 23.2184 18.4264C22.9115 18.8956 22.4935 19.2817 22.0016 19.5505C21.3563 19.929 21.1046 19.8117 20.9305 19.102C20.9059 19.0036 20.885 18.9128 20.8472 18.7235C20.428 19.0989 19.9481 19.4003 19.4279 19.6149C18.4495 19.9631 17.8818 19.5146 18.0256 18.4794C18.1143 17.9478 18.2609 17.4274 18.4627 16.9276C18.5082 16.8046 18.6179 16.6532 18.4627 16.5492C18.3492 16.4772 18.23 16.5984 18.141 16.6741C17.5374 17.1869 17.0056 17.7546 16.8315 18.5665C16.791 18.8059 16.7224 19.0396 16.6271 19.2629C16.5696 19.4122 16.4639 19.5379 16.3268 19.6202C16.1896 19.7025 16.0289 19.7366 15.8701 19.7171C15.5295 19.6565 15.749 19.3083 15.6544 19.0945C15.2911 19.2837 14.9428 19.4729 14.5833 19.6376C14.324 19.7568 13.9853 19.8514 13.796 19.6281C13.48 19.2496 13.2662 19.3802 12.9331 19.5922C12.4467 19.9025 11.8885 19.7701 11.4475 19.2572C11.2242 18.9979 11.1088 19.015 10.8931 19.2458C10.4562 19.6965 9.93722 20.0594 9.364 20.3151C7.11391 21.3843 4.90167 20.1845 4.77677 17.7054C4.62916 14.9065 5.81949 12.6792 8.15852 11.1255C8.46071 10.9156 8.80567 10.7754 9.16857 10.7148C9.53147 10.6543 9.90327 10.675 10.2572 10.7754C10.6724 10.8839 11.0373 11.1329 11.2898 11.4799C11.5423 11.8269 11.6669 12.2507 11.6425 12.6792C11.6149 13.0902 11.4571 13.4818 11.1921 13.7972C10.927 14.1127 10.5684 14.3355 10.1683 14.4334C10.0339 14.4637 9.85981 14.5167 9.78979 14.3899C9.68382 14.2196 9.85224 14.1041 9.96768 14.0114C10.5997 13.4778 10.7076 12.7832 10.5884 12.0206C10.4748 11.309 9.96768 11.0214 9.29208 11.2807C8.80716 11.4819 8.37943 11.7998 8.04687 12.2061C6.92926 13.441 6.23049 14.9975 6.05037 16.6532C5.95929 17.3681 6.08661 18.0938 6.41561 18.7349C6.89628 19.6527 7.71191 20.0596 8.71868 19.8211C9.51533 19.622 10.2464 19.219 10.8401 18.6516C10.9233 18.5647 10.9882 18.4619 11.0311 18.3495C11.074 18.237 11.094 18.1171 11.0899 17.9969C11.228 16.5586 12.4713 15.4799 13.8604 15.5859C14.1954 15.5963 14.5146 15.7313 14.7555 15.9644C14.87 16.0715 14.9484 16.2115 14.9799 16.365C15.0115 16.5186 14.9945 16.6781 14.9315 16.8217C14.7971 17.1472 14.4981 17.2531 14.1594 17.2361C14.0885 17.2438 14.0169 17.2338 13.9509 17.2071C13.8848 17.1803 13.8264 17.1376 13.7809 17.0828C13.656 16.8936 13.8944 16.8803 13.9701 16.7857C14.1821 16.5208 14.0629 16.2047 13.6995 16.1309C13.5197 16.0906 13.3325 16.0987 13.1569 16.1546C12.9813 16.2105 12.8237 16.312 12.7003 16.4489C12.443 16.7101 12.2513 17.0286 12.1407 17.3783C12.0302 17.7279 12.0041 18.0988 12.0645 18.4605C12.1023 18.7406 12.2215 19.015 12.53 19.0982C12.8385 19.1815 13.0391 18.9506 13.2283 18.7349C13.3684 18.5559 13.4696 18.3497 13.5254 18.1293C13.5707 17.9223 13.6831 17.736 13.8452 17.5994C14.0345 17.4537 14.2427 17.3345 14.466 17.4651C14.6893 17.5957 14.553 17.8152 14.553 17.9969C14.553 18.3299 14.1934 18.7179 14.6382 18.9733C14.8766 19.1096 15.838 18.3848 15.9137 18.0442C16.0329 17.501 16.1294 16.9522 16.2373 16.4072C16.2505 16.2151 16.3233 16.0319 16.4454 15.883C16.5374 15.7782 16.6591 15.7039 16.7943 15.6701C16.9296 15.6363 17.072 15.6445 17.2024 15.6938C17.4882 15.813 17.3462 16.0723 17.3178 16.2918C17.3027 16.4224 17.28 16.5548 17.244 16.7781ZM23.6366 15.5178C23.5874 15.3853 23.5079 15.2566 23.3452 15.2737C23.1824 15.2907 23.1351 15.4402 23.1219 15.5802C23.101 15.7876 23.1294 15.997 23.2047 16.1913C23.28 16.3856 23.4001 16.5595 23.5552 16.6987C23.734 16.3303 23.7631 15.9071 23.6366 15.5178Z" fill="#2D3034"/>
</g>
<defs>
<clipPath id="clip0_1158_698">
<rect width="33" height="33" fill="white" transform="translate(0.359863)"/>
</clipPath>
</defs>
</svg>
