<svg width="33" height="33" viewBox="0 0 33 33" fill="none" xmlns="http://www.w3.org/2000/svg">
<path d="M16.5 0C7.37705 0 0 7.37705 0 16.5C0 25.6229 7.37705 33 16.5 33C25.623 33 33 25.6229 33 16.5C33 7.42622 25.7213 0 16.5 0Z" fill="white" fill-opacity="0.66"/>
<path d="M21.4181 4.05737L16.5247 20.2869L16.5001 20.3115L16.4509 20.2869L11.5575 4.05737L5.23779 24.8361H6.41812C6.41812 24.8361 7.20501 21.2213 8.50829 19.0574C9.2214 17.8771 10.3034 16.918 11.7542 16.9426C12.787 16.9672 13.6722 17.5328 14.7788 19.082C15.0247 19.4262 15.3198 19.9918 15.6148 20.5328C16.0821 21.4426 16.4755 22.3771 16.4755 22.3771C16.4755 22.3771 17.5083 20.0164 18.1722 19.082C19.2788 17.5328 20.164 16.9672 21.1968 16.9426C22.6476 16.918 23.7542 17.8771 24.4427 19.0574C25.746 21.2213 26.5329 24.8361 26.5329 24.8361H27.7132L21.4181 4.05737Z" fill="white"/>
</svg>
