<svg width="96" height="24" viewBox="0 0 96 24" fill="none" xmlns="http://www.w3.org/2000/svg">
<path d="M33.6776 9.7877C33.1435 9.7877 32.6093 9.8345 32.0752 9.94368C31.651 10.0061 31.2268 10.1465 30.834 10.3492L30.9911 11.8778C31.3996 11.753 31.8081 11.6595 32.2323 11.5971C32.5936 11.5347 32.9707 11.5191 33.332 11.5191C34.746 11.5191 35.4372 12.0494 35.4372 13.1256V13.4844C34.9816 13.4064 34.5103 13.3752 34.0547 13.3908C32.8293 13.3908 31.8552 13.656 31.1325 14.2019C30.4255 14.7322 30.0328 15.5745 30.0642 16.448C30.0642 18.4133 31.4153 19.396 34.1175 19.396C35.2801 19.3804 36.427 19.2244 37.5424 18.8969V13.266C37.5739 10.9575 36.2699 9.7877 33.6776 9.7877ZM35.4686 17.649C35.0287 17.7582 34.5731 17.8206 34.1175 17.805C32.845 17.805 32.2008 17.3527 32.2008 16.4324C32.2008 15.4653 32.9078 14.9974 34.3061 14.9974C34.6988 14.9818 35.0759 15.013 35.4529 15.091V17.649H35.4686ZM38.5322 10.0217H40.8731L43.1511 17.0875L45.4606 10.0217H47.7072L44.2194 19.1932H42.0357L38.5322 10.0217ZM51.7919 9.7877C51.2578 9.7877 50.7236 9.8345 50.1895 9.94368C49.7653 10.0061 49.3411 10.1465 48.9483 10.3492L49.1054 11.8934C49.5139 11.7686 49.9224 11.675 50.3466 11.6127C50.7079 11.5503 51.085 11.5347 51.4463 11.5347C52.8602 11.5347 53.5515 12.065 53.5515 13.1412V13.5C53.0959 13.422 52.6246 13.3908 52.169 13.4064C50.9436 13.4064 49.9695 13.6716 49.2468 14.2175C48.5398 14.7478 48.1471 15.5901 48.1785 16.4636C48.1785 18.4289 49.5296 19.4116 52.2318 19.4116C53.3944 19.396 54.5413 19.24 55.6567 18.9125V13.2816C55.6724 10.9575 54.3842 9.7877 51.7919 9.7877ZM53.5672 17.649C53.1273 17.7582 52.6717 17.8206 52.2161 17.805C50.9436 17.805 50.2994 17.3527 50.2994 16.4324C50.2994 15.4653 51.0064 14.9974 52.4046 14.9974C52.7974 14.9818 53.1745 15.013 53.5515 15.091V17.649H53.5672ZM63.8419 13.7808C63.8419 12.9541 63.6848 12.377 63.3706 12.065C63.0564 11.753 62.4908 11.5971 61.6739 11.5971C61.4382 11.5971 61.2026 11.6283 60.9669 11.6594C60.6998 11.7062 60.4485 11.753 60.1971 11.8154V19.1776H58.0604V10.474C58.6732 10.24 59.3016 10.0685 59.93 9.95928C60.6056 9.8345 61.2811 9.77211 61.9724 9.77211C64.6589 9.77211 65.9943 10.9731 65.9943 13.3752V19.162H63.8577V13.7808H63.8419ZM71.2573 9.7877C70.7232 9.7877 70.189 9.8345 69.6549 9.94368C69.2307 10.0061 68.8065 10.1465 68.4137 10.3492L68.5708 11.8934C68.9793 11.7686 69.3878 11.675 69.812 11.6127C70.1733 11.5503 70.5504 11.5347 70.9117 11.5347C72.3257 11.5347 73.0169 12.065 73.0169 13.1412V13.5C72.5613 13.422 72.09 13.3908 71.6344 13.4064C70.409 13.4064 69.4349 13.6716 68.7122 14.2175C68.0052 14.7478 67.6125 15.5901 67.6439 16.4636C67.6439 18.4289 68.995 19.4116 71.6972 19.4116C72.8598 19.396 74.0067 19.24 75.1221 18.9125V13.2816C75.1536 10.9575 73.8496 9.7877 71.2573 9.7877ZM73.0326 17.649C72.5927 17.7582 72.1371 17.8206 71.6815 17.805C70.409 17.805 69.7648 17.3527 69.7648 16.4324C69.7648 15.4653 70.4718 14.9974 71.87 14.9974C72.2628 14.9818 72.6399 15.013 73.0169 15.091V17.649H73.0326ZM83.1188 6.48096V9.99048C82.6161 9.8501 82.0976 9.78771 81.5635 9.8033C80.1495 9.8033 79.0184 10.2556 78.1386 11.1603C77.2588 12.065 76.8189 13.2504 76.8189 14.7166C76.8189 16.2452 77.2431 17.4151 78.1071 18.2262C78.9712 19.0372 80.2124 19.4428 81.862 19.4428C83.0088 19.4272 84.1557 19.2556 85.2555 18.9437V6.49655H83.1188V6.48096ZM83.1188 17.5087C82.6946 17.6178 82.239 17.6646 81.7991 17.6334C79.9767 17.6334 79.0655 16.6352 79.0655 14.6542C79.0655 13.656 79.3011 12.8761 79.7725 12.3302C80.2438 11.7842 80.9036 11.5035 81.7677 11.5191C82.2233 11.5035 82.6946 11.5815 83.1188 11.753V17.5087ZM95.2317 14.1083C95.2317 12.7825 94.886 11.7218 94.1791 10.9419C93.4721 10.1621 92.5137 9.77211 91.304 9.77211C89.9843 9.77211 88.9317 10.2088 88.1619 11.0823C87.3764 11.9558 86.9836 13.1412 86.9836 14.6386C86.9836 16.136 87.4078 17.3059 88.2405 18.1482C89.0731 18.9749 90.2671 19.396 91.8068 19.396C92.7965 19.396 93.7706 19.2244 94.6818 18.8813L94.4461 17.2747C93.6449 17.5399 92.8122 17.6802 91.9796 17.6646C90.1729 17.6646 89.2459 16.8535 89.1988 15.247H95.2317V14.1083ZM89.1988 13.656C89.2302 13.0477 89.4502 12.4861 89.8429 12.0182C90.2043 11.6283 90.707 11.4099 91.2412 11.4255C91.7753 11.4099 92.2781 11.6283 92.6237 12.0182C92.9693 12.4082 93.1579 12.9541 93.1579 13.656H89.1988Z" fill="white"/>
<path d="M7.13936 5.93007C6.41255 7.3495 5.81215 8.48505 5.35395 9.33671C4.97474 10.0464 4.56394 10.7404 4.10574 11.4028C3.75813 11.8917 3.36313 12.3333 2.88913 12.696C2.36773 13.0903 1.83052 13.4688 1.26172 13.8L0.898315 13.2323C1.30912 12.9326 1.68832 12.6329 2.02012 12.3333C2.41513 11.9548 2.77853 11.5447 3.07873 11.0873C3.55273 10.4092 3.99514 9.68368 4.40594 8.95819C4.91154 8.07499 5.52775 6.87636 6.25455 5.3623C6.69695 4.43178 7.18676 3.53281 7.75556 2.68115C8.15056 2.08184 8.60877 1.52983 9.13017 1.04092C9.50937 0.693943 9.93598 0.41006 10.41 0.220802C10.805 0.0630873 11.2316 0 11.6582 0C12.069 0.0157715 12.4798 0.126173 12.859 0.299659C13.3646 0.567774 13.807 0.946288 14.1546 1.38789C14.755 2.11338 15.2764 2.88618 15.7346 3.7063C16.3192 4.71567 16.9986 6.04047 17.8044 7.69647C18.231 8.61122 18.7208 9.49442 19.258 10.3461C19.653 10.9927 20.127 11.5763 20.6642 12.1125C21.1225 12.5699 21.6597 12.9484 22.2443 13.2323C22.8763 13.5477 23.5241 13.8 24.2035 13.9893L24.6617 14.7621C23.8559 14.6832 23.0501 14.5097 22.2917 14.2416C21.5807 13.9893 20.917 13.595 20.3482 13.1061C19.6846 12.5225 19.1 11.8601 18.6102 11.1347C17.9624 10.1726 17.3778 9.14745 16.8722 8.10653C16.1296 6.63979 15.5134 5.42538 15.0078 4.51064C14.6128 3.76938 14.1546 3.0439 13.649 2.36572C13.3646 1.95566 13.0012 1.60869 12.5904 1.3248C12.306 1.15132 11.9742 1.05669 11.6424 1.04092C11.2948 1.02514 10.963 1.104 10.647 1.24595C10.252 1.4352 9.92018 1.71909 9.63577 2.05029C9.20917 2.52344 8.82997 3.02812 8.49817 3.56435C8.05576 4.19521 7.61336 4.98378 7.13936 5.93007Z" fill="white"/>
<path d="M17.854 15.1915C18.9237 15.2219 19.9776 15.1763 21.0473 15.0398C21.9911 14.9184 22.9349 14.7059 23.8316 14.4176L23.9417 14.9791C22.4945 15.8744 20.4495 16.2689 17.8225 16.193C16.7843 16.1779 15.7619 16.0413 14.7551 15.7985C13.9686 15.6012 13.1978 15.3281 12.4585 14.9943C11.9551 14.7666 11.4675 14.539 11.027 14.2962C10.5708 14.0534 10.1147 13.841 9.62702 13.6285C9.1551 13.4313 8.68319 13.2644 8.19555 13.1126C7.69218 12.976 7.15735 12.885 6.62251 12.8698C5.7888 12.8395 4.93936 12.9002 4.12138 13.0519C3.27194 13.2037 2.43823 13.4161 1.62025 13.7196L1.25845 13.3099L1.93486 12.9912C2.64273 12.6118 3.39779 12.3235 4.1843 12.1414C4.98655 11.9442 5.82026 11.8683 6.65397 11.8835C7.25173 11.8986 7.83375 11.9745 8.41578 12.1263C8.93488 12.2628 9.45398 12.4449 9.94162 12.6574C10.4135 12.8698 10.9012 13.0974 11.3731 13.3554C11.845 13.6134 12.3484 13.841 12.8675 14.0686C13.5596 14.3721 14.2675 14.6149 15.0068 14.8122C15.9349 15.0549 16.8945 15.1915 17.854 15.1915Z" fill="white"/>
<path d="M19.5679 7.51328C19.1885 7.49773 18.8091 7.59104 18.4771 7.77767C18.0187 8.0576 17.6076 8.4153 17.2757 8.81965C16.7066 9.48838 16.1691 10.1882 15.679 10.9192C15.0783 11.8056 14.3195 12.972 13.4185 14.3873C12.2012 16.3157 11.063 17.7154 10.0197 18.5707C8.97634 19.4261 7.88557 19.846 6.73156 19.7993C5.51433 19.7527 4.37613 19.1617 3.31698 18.0109C2.24202 16.86 1.4358 15.2582 0.898315 13.2209L1.91004 13.4075C2.46333 15.0249 3.17471 16.3157 4.04416 17.2799C4.89781 18.2441 5.81468 18.7418 6.77899 18.7729C7.68006 18.804 8.58113 18.4308 9.4822 17.6687C10.3991 16.9067 11.4108 15.647 12.5016 13.9051C13.4975 12.3499 14.3353 11.0747 14.9993 10.0949C15.5368 9.30176 16.1217 8.53971 16.7698 7.82432C17.165 7.37331 17.6393 7.00007 18.1767 6.73568C18.6194 6.54906 19.1094 6.45575 19.5837 6.48685C20.7377 6.53351 21.7494 7.20224 22.6505 8.50861C23.5357 9.81497 24.3262 11.8212 25.0217 14.5117L23.9151 14.0607C23.2196 11.8367 22.524 10.1882 21.8285 9.11514C21.1329 8.08871 20.3741 7.54439 19.5679 7.51328Z" fill="white"/>
<path d="M15.6603 22.7432C16.2296 22.7432 16.7989 22.5554 17.2416 22.2111C17.7635 21.8355 18.4276 21.1156 19.2341 20.0827C19.8666 19.2845 20.3726 18.6116 20.768 18.0951C21.1633 17.5786 21.5428 17.1091 21.9065 16.7022C22.2544 16.2953 22.6339 15.9197 22.9976 15.5441C23.3771 15.1842 23.8357 14.7303 24.3891 14.1982L25.0217 14.5425C24.5156 15.1216 24.0887 15.6067 23.7408 15.998C23.3929 16.4049 23.0608 16.8118 22.7288 17.2343C22.3967 17.6569 22.033 18.1264 21.6219 18.6585C21.2107 19.1906 20.7047 19.8636 20.0722 20.6774C19.2183 21.8042 18.4592 22.618 17.7951 23.0875C17.1626 23.557 16.4035 23.7918 15.6129 23.7605C15.2176 23.7448 14.8222 23.6822 14.4585 23.5414C14.0158 23.3536 13.6205 23.1032 13.2568 22.8058C12.6875 22.3363 12.1498 21.8199 11.6438 21.2564C11.0271 20.5835 10.2523 19.7227 9.30349 18.6585C8.59191 17.8447 7.94357 17.1717 7.35849 16.624C6.83666 16.1232 6.25157 15.6693 5.63486 15.2937C5.06559 14.9651 4.4647 14.699 3.83218 14.4955C3.10478 14.2921 2.36156 14.1512 1.61835 14.073L1.87136 13.3218C2.6462 13.3844 3.42104 13.4939 4.19588 13.6504C4.87584 13.7913 5.52417 14.0417 6.12507 14.386C6.78922 14.7616 7.40593 15.2155 7.95938 15.7319C8.68678 16.4049 9.38256 17.1248 10.0309 17.8916C10.9797 18.9559 11.7387 19.8166 12.3396 20.4426C12.9405 21.0686 13.4307 21.5695 13.826 21.8981C14.1265 22.1798 14.4585 22.3989 14.8222 22.5711C15.0753 22.665 15.3599 22.7276 15.6603 22.7432Z" fill="white"/>
</svg>
