<svg width="61" height="64" viewBox="0 0 61 64" fill="none" xmlns="http://www.w3.org/2000/svg">
<g clip-path="url(#clip0_1158_678)">
<path d="M21.7968 2.00965C11.8622 2.73432 3.41667 3.40077 3.01959 3.47882C1.90625 3.67454 0.893437 4.41904 0.417189 5.39889L0 6.26107L0.0402109 26.8096L0.0992707 47.3582L0.735106 48.6316C1.09323 49.3365 3.5172 52.6279 6.15981 56.0159C11.386 62.6953 11.763 63.0681 13.7496 63.2639C14.3264 63.3221 18.6579 63.1264 23.3475 62.8526C28.0572 62.559 35.6068 62.1081 40.1381 61.8541C59.4908 60.6959 58.4969 60.7938 59.6089 59.8535C61 58.7176 60.9007 60.5782 60.9598 35.6036C61 14.4282 60.9799 13.0383 60.662 12.3917C60.285 11.667 59.6089 11.1579 50.7864 5.04585C44.8855 0.971566 44.4683 0.756022 41.8244 0.716381C40.7324 0.67798 31.7113 1.26515 21.7968 2.00965ZM44.1302 4.6928C44.9646 5.06443 51.0654 9.25639 51.9588 10.0603C52.1976 10.2957 52.2767 10.4914 52.1574 10.6091C51.8796 10.8445 14.1253 13.0581 13.0334 12.9008C12.537 12.8228 11.8019 12.5292 11.3847 12.2542C9.65565 11.0984 5.36439 7.63114 5.36439 7.37719C5.36439 6.71074 5.22491 6.71074 22.0557 5.51658C25.2751 5.30103 30.5603 4.90958 33.7797 4.6544C40.7525 4.10563 42.8397 4.12545 44.1302 4.6928ZM56.1319 15.4081C56.4097 15.6818 56.6484 16.2108 56.7276 16.7199C56.7866 17.1907 56.8268 25.966 56.7866 36.1908C56.7276 53.7415 56.7075 54.839 56.3694 55.3482C56.1709 55.6616 55.7738 55.9948 55.4748 56.0927C54.6416 56.4259 15.0804 58.6396 14.2661 58.4042C13.8891 58.3063 13.3714 57.9929 13.0937 57.7192L12.6162 57.21L12.5571 38.288C12.5169 25.0072 12.5571 19.1305 12.7167 18.6016C12.8361 18.2101 13.1339 17.7394 13.3928 17.5833C13.7509 17.348 16.0957 17.1522 24.163 16.6828C29.8265 16.3694 38.5887 15.8404 43.6163 15.5468C55.5753 14.8209 55.5363 14.8209 56.1319 15.4081Z" fill="white"/>
<path d="M45.5012 21.8917C43.3549 22.0292 41.4474 22.2249 41.2288 22.3426C40.5728 22.6758 40.1758 23.2246 40.0966 23.8514C40.0375 24.498 40.2361 24.5761 42.3811 24.8313L43.3147 24.9489V33.3131C43.3147 38.2879 43.2356 41.5793 43.1363 41.4815C43.037 41.3638 40.216 37.1334 36.8571 32.0793C33.4995 27.0065 30.7174 22.8331 30.6772 22.7947C30.637 22.7551 28.4517 22.8728 25.8292 23.0499C22.6099 23.2655 20.8418 23.4612 20.4837 23.6569C19.9069 23.9505 19.2711 24.9886 19.2711 25.6749C19.2711 26.0861 20.0263 26.3017 21.6159 26.3017H22.4503V50.356L21.0994 50.7672C20.0464 51.0806 19.6883 51.2764 19.5098 51.6678C19.1919 52.3343 19.212 52.9412 19.5299 52.9412C19.6493 52.9412 21.8949 52.8037 24.4771 52.6477C29.5839 52.3541 30.1595 52.2166 30.696 51.1785C30.8556 50.8651 30.9938 50.5319 30.9938 50.434C30.9938 50.3559 30.2989 50.1206 29.4633 49.9249C28.6088 49.7291 27.7543 49.5334 27.5759 49.4938C27.2379 49.3959 27.2178 48.7889 27.2178 40.3653V31.3348L33.2582 40.6787C39.5965 50.4724 40.3919 51.5898 41.3657 52.0791C42.5784 52.7059 45.6583 52.2748 47.2076 51.2764L47.6851 50.9828L47.7254 37.624L47.7844 24.2453L48.8374 24.0496C50.089 23.8142 50.6658 23.2469 50.6658 22.267C50.6658 21.6402 50.6256 21.6006 50.0299 21.6204C49.6743 21.6365 47.6273 21.7542 45.5012 21.8917Z" fill="white"/>
</g>
<defs>
<clipPath id="clip0_1158_678">
<rect width="61" height="64" fill="white"/>
</clipPath>
</defs>
</svg>
