<svg width="51" height="50" viewBox="0 0 51 50" fill="none" xmlns="http://www.w3.org/2000/svg">
<path d="M49.6983 44.5923C48.1357 43.4442 46.1904 41.8816 45.999 39.139C45.9033 37.672 46.3179 36.0296 46.7325 34.8337C46.9876 34.2756 47.2109 33.7016 47.4182 33.1275V33.1116C51.8988 20.4669 45.2815 6.57846 32.6208 2.0978C19.9602 -2.38286 6.10362 4.25043 1.62296 16.8951C-2.8577 29.5398 3.75964 43.4283 16.4203 47.9089C23.4044 50.3805 31.1379 49.5354 37.4204 45.5968C38.0582 45.2939 38.6003 45.1185 38.9033 45.246C42.1243 46.6014 45.6482 47.016 49.0924 46.4101C49.6983 46.3144 51.245 45.7404 49.6983 44.5923Z" fill="#0ABE51"/>
<path d="M17.3611 13.9771H33.6892C35.204 13.9771 36.4318 15.2048 36.4318 16.7197V16.8313C36.4318 18.3461 35.204 19.5739 33.6892 19.5739H17.3611C15.8463 19.5739 14.6185 18.3461 14.6185 16.8313V16.7197C14.6185 15.2048 15.8463 13.9771 17.3611 13.9771Z" fill="white"/>
<path d="M17.3611 22.2847H27.6778C29.1926 22.2847 30.4204 23.5125 30.4204 25.0273V25.1548C30.4204 26.6697 29.1926 27.8974 27.6778 27.8974H17.3611C15.8463 27.8974 14.6185 26.6697 14.6185 25.1548V25.0273C14.6185 23.5125 15.8463 22.2847 17.3611 22.2847Z" fill="white"/>
<path d="M17.3611 30.4485H19.2267C20.7415 30.4485 21.9693 31.6763 21.9693 33.1911V33.3027C21.9693 34.8175 20.7415 36.0453 19.2267 36.0453H17.3611C15.8463 36.0453 14.6185 34.8175 14.6185 33.3027V33.1911C14.6185 31.6763 15.8463 30.4485 17.3611 30.4485Z" fill="white"/>
</svg>
